<?xml version="1.0" encoding="utf-8" standalone="no"?>
<!DOCTYPE svg PUBLIC "-//W3C//DTD SVG 1.1//EN"
  "http://www.w3.org/Graphics/SVG/1.1/DTD/svg11.dtd">
<!-- Created with matplotlib (https://matplotlib.org/) -->
<svg height="252pt" version="1.1" viewBox="0 0 448.56 252" width="448.56pt" xmlns="http://www.w3.org/2000/svg" xmlns:xlink="http://www.w3.org/1999/xlink">
 <metadata>
  <rdf:RDF xmlns:cc="http://creativecommons.org/ns#" xmlns:dc="http://purl.org/dc/elements/1.1/" xmlns:rdf="http://www.w3.org/1999/02/22-rdf-syntax-ns#">
   <cc:Work>
    <dc:type rdf:resource="http://purl.org/dc/dcmitype/StillImage"/>
    <dc:date>2021-03-13T21:00:21.961391</dc:date>
    <dc:format>image/svg+xml</dc:format>
    <dc:creator>
     <cc:Agent>
      <dc:title>Matplotlib v3.3.4, https://matplotlib.org/</dc:title>
     </cc:Agent>
    </dc:creator>
   </cc:Work>
  </rdf:RDF>
 </metadata>
 <defs>
  <style type="text/css">*{stroke-linecap:butt;stroke-linejoin:round;}</style>
 </defs>
 <g id="figure_1">
  <g id="patch_1">
   <path d="M 0 252 
L 448.56 252 
L 448.56 0 
L 0 0 
z
" style="fill:none;"/>
  </g>
  <g id="axes_1">
   <g id="patch_2">
    <path d="M 56.07 224.28 
L 403.704 224.28 
L 403.704 30.24 
L 56.07 30.24 
z
" style="fill:none;"/>
   </g>
   <g id="patch_3">
    <path clip-path="url(#p265e9dea4b)" d="M 60.020386 47607.550049 
L 67.921159 47607.550049 
L 67.921159 201.193559 
L 60.020386 201.193559 
z
"/>
   </g>
   <g id="patch_4">
    <path clip-path="url(#p265e9dea4b)" d="M 75.821932 47607.550049 
L 83.722705 47607.550049 
L 83.722705 215.46 
L 75.821932 215.46 
z
"/>
   </g>
   <g id="patch_5">
    <path clip-path="url(#p265e9dea4b)" d="M 91.623477 47607.550049 
L 99.52425 47607.550049 
L 99.52425 215.46 
L 91.623477 215.46 
z
"/>
   </g>
   <g id="patch_6">
    <path clip-path="url(#p265e9dea4b)" d="M 107.425023 47607.550049 
L 115.325795 47607.550049 
L 115.325795 201.193559 
L 107.425023 201.193559 
z
"/>
   </g>
   <g id="patch_7">
    <path clip-path="url(#p265e9dea4b)" d="M 123.226568 47607.550049 
L 131.127341 47607.550049 
L 131.127341 192.848227 
L 123.226568 192.848227 
z
"/>
   </g>
   <g id="patch_8">
    <path clip-path="url(#p265e9dea4b)" d="M 139.028114 47607.550049 
L 146.928886 47607.550049 
L 146.928886 186.927119 
L 139.028114 186.927119 
z
"/>
   </g>
   <g id="patch_9">
    <path clip-path="url(#p265e9dea4b)" d="M 154.829659 47607.550049 
L 162.730432 47607.550049 
L 162.730432 178.581786 
L 154.829659 178.581786 
z
"/>
   </g>
   <g id="patch_10">
    <path clip-path="url(#p265e9dea4b)" d="M 170.631205 47607.550049 
L 178.531977 47607.550049 
L 178.531977 172.660678 
L 170.631205 172.660678 
z
"/>
   </g>
   <g id="patch_11">
    <path clip-path="url(#p265e9dea4b)" d="M 186.43275 47607.550049 
L 194.333523 47607.550049 
L 194.333523 162.667896 
L 186.43275 162.667896 
z
"/>
   </g>
   <g id="patch_12">
    <path clip-path="url(#p265e9dea4b)" d="M 202.234295 47607.550049 
L 210.135068 47607.550049 
L 210.135068 151.839783 
L 202.234295 151.839783 
z
"/>
   </g>
   <g id="patch_13">
    <path clip-path="url(#p265e9dea4b)" d="M 218.035841 47607.550049 
L 225.936614 47607.550049 
L 225.936614 141.139643 
L 218.035841 141.139643 
z
"/>
   </g>
   <g id="patch_14">
    <path clip-path="url(#p265e9dea4b)" d="M 233.837386 47607.550049 
L 241.738159 47607.550049 
L 241.738159 132.980575 
L 233.837386 132.980575 
z
"/>
   </g>
   <g id="patch_15">
    <path clip-path="url(#p265e9dea4b)" d="M 249.638932 47607.550049 
L 257.539705 47607.550049 
L 257.539705 121.731545 
L 249.638932 121.731545 
z
"/>
   </g>
   <g id="patch_16">
    <path clip-path="url(#p265e9dea4b)" d="M 265.440477 47607.550049 
L 273.34125 47607.550049 
L 273.34125 86.350873 
L 265.440477 86.350873 
z
"/>
   </g>
   <g id="patch_17">
    <path clip-path="url(#p265e9dea4b)" d="M 281.242023 47607.550049 
L 289.142795 47607.550049 
L 289.142795 104.35435 
L 281.242023 104.35435 
z
"/>
   </g>
   <g id="patch_18">
    <path clip-path="url(#p265e9dea4b)" d="M 297.043568 47607.550049 
L 304.944341 47607.550049 
L 304.944341 97.723838 
L 297.043568 97.723838 
z
"/>
   </g>
   <g id="patch_19">
    <path clip-path="url(#p265e9dea4b)" d="M 312.845114 47607.550049 
L 320.745886 47607.550049 
L 320.745886 93.859109 
L 312.845114 93.859109 
z
"/>
   </g>
   <g id="patch_20">
    <path clip-path="url(#p265e9dea4b)" d="M 328.646659 47607.550049 
L 336.547432 47607.550049 
L 336.547432 83.390026 
L 328.646659 83.390026 
z
"/>
   </g>
   <g id="patch_21">
    <path clip-path="url(#p265e9dea4b)" d="M 344.448205 47607.550049 
L 352.348977 47607.550049 
L 352.348977 44.766291 
L 344.448205 44.766291 
z
"/>
   </g>
   <g id="patch_22">
    <path clip-path="url(#p265e9dea4b)" d="M 360.24975 47607.550049 
L 368.150523 47607.550049 
L 368.150523 48.005229 
L 360.24975 48.005229 
z
"/>
   </g>
   <g id="patch_23">
    <path clip-path="url(#p265e9dea4b)" d="M 376.051295 47607.550049 
L 383.952068 47607.550049 
L 383.952068 44.302951 
L 376.051295 44.302951 
z
"/>
   </g>
   <g id="patch_24">
    <path clip-path="url(#p265e9dea4b)" d="M 391.852841 47607.550049 
L 399.753614 47607.550049 
L 399.753614 39.06 
L 391.852841 39.06 
z
"/>
   </g>
   <g id="matplotlib.axis_1">
    <g id="ytick_1">
     <g id="line2d_1">
      <defs>
       <path d="M 0 0 
L -3.5 0 
" id="m69a7af482f" style="stroke:#000000;stroke-width:0.8;"/>
      </defs>
      <g>
       <use style="stroke:#000000;stroke-width:0.8;" x="56.07" xlink:href="#m69a7af482f" y="215.46"/>
      </g>
     </g>
     <g id="text_1">
      <!-- $\mathdefault{10^{0}}$ -->
      <g transform="translate(31.47 219.259219)scale(0.1 -0.1)">
       <defs>
        <path d="M 12.40625 8.296875 
L 28.515625 8.296875 
L 28.515625 63.921875 
L 10.984375 60.40625 
L 10.984375 69.390625 
L 28.421875 72.90625 
L 38.28125 72.90625 
L 38.28125 8.296875 
L 54.390625 8.296875 
L 54.390625 0 
L 12.40625 0 
z
" id="DejaVuSans-49"/>
        <path d="M 31.78125 66.40625 
Q 24.171875 66.40625 20.328125 58.90625 
Q 16.5 51.421875 16.5 36.375 
Q 16.5 21.390625 20.328125 13.890625 
Q 24.171875 6.390625 31.78125 6.390625 
Q 39.453125 6.390625 43.28125 13.890625 
Q 47.125 21.390625 47.125 36.375 
Q 47.125 51.421875 43.28125 58.90625 
Q 39.453125 66.40625 31.78125 66.40625 
z
M 31.78125 74.21875 
Q 44.046875 74.21875 50.515625 64.515625 
Q 56.984375 54.828125 56.984375 36.375 
Q 56.984375 17.96875 50.515625 8.265625 
Q 44.046875 -1.421875 31.78125 -1.421875 
Q 19.53125 -1.421875 13.0625 8.265625 
Q 6.59375 17.96875 6.59375 36.375 
Q 6.59375 54.828125 13.0625 64.515625 
Q 19.53125 74.21875 31.78125 74.21875 
z
" id="DejaVuSans-48"/>
       </defs>
       <use transform="translate(0 0.765625)" xlink:href="#DejaVuSans-49"/>
       <use transform="translate(63.623047 0.765625)" xlink:href="#DejaVuSans-48"/>
       <use transform="translate(128.203125 39.046875)scale(0.7)" xlink:href="#DejaVuSans-48"/>
      </g>
     </g>
    </g>
    <g id="ytick_2">
     <g id="line2d_2">
      <g>
       <use style="stroke:#000000;stroke-width:0.8;" x="56.07" xlink:href="#m69a7af482f" y="168.06791"/>
      </g>
     </g>
     <g id="text_2">
      <!-- $\mathdefault{10^{1}}$ -->
      <g transform="translate(31.47 171.867129)scale(0.1 -0.1)">
       <use transform="translate(0 0.684375)" xlink:href="#DejaVuSans-49"/>
       <use transform="translate(63.623047 0.684375)" xlink:href="#DejaVuSans-48"/>
       <use transform="translate(128.203125 38.965625)scale(0.7)" xlink:href="#DejaVuSans-49"/>
      </g>
     </g>
    </g>
    <g id="ytick_3">
     <g id="line2d_3">
      <g>
       <use style="stroke:#000000;stroke-width:0.8;" x="56.07" xlink:href="#m69a7af482f" y="120.67582"/>
      </g>
     </g>
     <g id="text_3">
      <!-- $\mathdefault{10^{2}}$ -->
      <g transform="translate(31.47 124.475039)scale(0.1 -0.1)">
       <defs>
        <path d="M 19.1875 8.296875 
L 53.609375 8.296875 
L 53.609375 0 
L 7.328125 0 
L 7.328125 8.296875 
Q 12.9375 14.109375 22.625 23.890625 
Q 32.328125 33.6875 34.8125 36.53125 
Q 39.546875 41.84375 41.421875 45.53125 
Q 43.3125 49.21875 43.3125 52.78125 
Q 43.3125 58.59375 39.234375 62.25 
Q 35.15625 65.921875 28.609375 65.921875 
Q 23.96875 65.921875 18.8125 64.3125 
Q 13.671875 62.703125 7.8125 59.421875 
L 7.8125 69.390625 
Q 13.765625 71.78125 18.9375 73 
Q 24.125 74.21875 28.421875 74.21875 
Q 39.75 74.21875 46.484375 68.546875 
Q 53.21875 62.890625 53.21875 53.421875 
Q 53.21875 48.921875 51.53125 44.890625 
Q 49.859375 40.875 45.40625 35.40625 
Q 44.1875 33.984375 37.640625 27.21875 
Q 31.109375 20.453125 19.1875 8.296875 
z
" id="DejaVuSans-50"/>
       </defs>
       <use transform="translate(0 0.765625)" xlink:href="#DejaVuSans-49"/>
       <use transform="translate(63.623047 0.765625)" xlink:href="#DejaVuSans-48"/>
       <use transform="translate(128.203125 39.046875)scale(0.7)" xlink:href="#DejaVuSans-50"/>
      </g>
     </g>
    </g>
    <g id="ytick_4">
     <g id="line2d_4">
      <g>
       <use style="stroke:#000000;stroke-width:0.8;" x="56.07" xlink:href="#m69a7af482f" y="73.28373"/>
      </g>
     </g>
     <g id="text_4">
      <!-- $\mathdefault{10^{3}}$ -->
      <g transform="translate(31.47 77.082949)scale(0.1 -0.1)">
       <defs>
        <path d="M 40.578125 39.3125 
Q 47.65625 37.796875 51.625 33 
Q 55.609375 28.21875 55.609375 21.1875 
Q 55.609375 10.40625 48.1875 4.484375 
Q 40.765625 -1.421875 27.09375 -1.421875 
Q 22.515625 -1.421875 17.65625 -0.515625 
Q 12.796875 0.390625 7.625 2.203125 
L 7.625 11.71875 
Q 11.71875 9.328125 16.59375 8.109375 
Q 21.484375 6.890625 26.8125 6.890625 
Q 36.078125 6.890625 40.9375 10.546875 
Q 45.796875 14.203125 45.796875 21.1875 
Q 45.796875 27.640625 41.28125 31.265625 
Q 36.765625 34.90625 28.71875 34.90625 
L 20.21875 34.90625 
L 20.21875 43.015625 
L 29.109375 43.015625 
Q 36.375 43.015625 40.234375 45.921875 
Q 44.09375 48.828125 44.09375 54.296875 
Q 44.09375 59.90625 40.109375 62.90625 
Q 36.140625 65.921875 28.71875 65.921875 
Q 24.65625 65.921875 20.015625 65.03125 
Q 15.375 64.15625 9.8125 62.3125 
L 9.8125 71.09375 
Q 15.4375 72.65625 20.34375 73.4375 
Q 25.25 74.21875 29.59375 74.21875 
Q 40.828125 74.21875 47.359375 69.109375 
Q 53.90625 64.015625 53.90625 55.328125 
Q 53.90625 49.265625 50.4375 45.09375 
Q 46.96875 40.921875 40.578125 39.3125 
z
" id="DejaVuSans-51"/>
       </defs>
       <use transform="translate(0 0.765625)" xlink:href="#DejaVuSans-49"/>
       <use transform="translate(63.623047 0.765625)" xlink:href="#DejaVuSans-48"/>
       <use transform="translate(128.203125 39.046875)scale(0.7)" xlink:href="#DejaVuSans-51"/>
      </g>
     </g>
    </g>
    <g id="ytick_5">
     <g id="line2d_5">
      <defs>
       <path d="M 0 0 
L -2 0 
" id="m28375924f0" style="stroke:#000000;stroke-width:0.6;"/>
      </defs>
      <g>
       <use style="stroke:#000000;stroke-width:0.6;" x="56.07" xlink:href="#m28375924f0" y="222.801128"/>
      </g>
     </g>
    </g>
    <g id="ytick_6">
     <g id="line2d_6">
      <g>
       <use style="stroke:#000000;stroke-width:0.6;" x="56.07" xlink:href="#m28375924f0" y="220.052768"/>
      </g>
     </g>
    </g>
    <g id="ytick_7">
     <g id="line2d_7">
      <g>
       <use style="stroke:#000000;stroke-width:0.6;" x="56.07" xlink:href="#m28375924f0" y="217.628543"/>
      </g>
     </g>
    </g>
    <g id="ytick_8">
     <g id="line2d_8">
      <g>
       <use style="stroke:#000000;stroke-width:0.6;" x="56.07" xlink:href="#m28375924f0" y="201.193559"/>
      </g>
     </g>
    </g>
    <g id="ytick_9">
     <g id="line2d_9">
      <g>
       <use style="stroke:#000000;stroke-width:0.6;" x="56.07" xlink:href="#m28375924f0" y="192.848227"/>
      </g>
     </g>
    </g>
    <g id="ytick_10">
     <g id="line2d_10">
      <g>
       <use style="stroke:#000000;stroke-width:0.6;" x="56.07" xlink:href="#m28375924f0" y="186.927119"/>
      </g>
     </g>
    </g>
    <g id="ytick_11">
     <g id="line2d_11">
      <g>
       <use style="stroke:#000000;stroke-width:0.6;" x="56.07" xlink:href="#m28375924f0" y="182.334351"/>
      </g>
     </g>
    </g>
    <g id="ytick_12">
     <g id="line2d_12">
      <g>
       <use style="stroke:#000000;stroke-width:0.6;" x="56.07" xlink:href="#m28375924f0" y="178.581786"/>
      </g>
     </g>
    </g>
    <g id="ytick_13">
     <g id="line2d_13">
      <g>
       <use style="stroke:#000000;stroke-width:0.6;" x="56.07" xlink:href="#m28375924f0" y="175.409038"/>
      </g>
     </g>
    </g>
    <g id="ytick_14">
     <g id="line2d_14">
      <g>
       <use style="stroke:#000000;stroke-width:0.6;" x="56.07" xlink:href="#m28375924f0" y="172.660678"/>
      </g>
     </g>
    </g>
    <g id="ytick_15">
     <g id="line2d_15">
      <g>
       <use style="stroke:#000000;stroke-width:0.6;" x="56.07" xlink:href="#m28375924f0" y="170.236453"/>
      </g>
     </g>
    </g>
    <g id="ytick_16">
     <g id="line2d_16">
      <g>
       <use style="stroke:#000000;stroke-width:0.6;" x="56.07" xlink:href="#m28375924f0" y="153.801469"/>
      </g>
     </g>
    </g>
    <g id="ytick_17">
     <g id="line2d_17">
      <g>
       <use style="stroke:#000000;stroke-width:0.6;" x="56.07" xlink:href="#m28375924f0" y="145.456136"/>
      </g>
     </g>
    </g>
    <g id="ytick_18">
     <g id="line2d_18">
      <g>
       <use style="stroke:#000000;stroke-width:0.6;" x="56.07" xlink:href="#m28375924f0" y="139.535029"/>
      </g>
     </g>
    </g>
    <g id="ytick_19">
     <g id="line2d_19">
      <g>
       <use style="stroke:#000000;stroke-width:0.6;" x="56.07" xlink:href="#m28375924f0" y="134.942261"/>
      </g>
     </g>
    </g>
    <g id="ytick_20">
     <g id="line2d_20">
      <g>
       <use style="stroke:#000000;stroke-width:0.6;" x="56.07" xlink:href="#m28375924f0" y="131.189696"/>
      </g>
     </g>
    </g>
    <g id="ytick_21">
     <g id="line2d_21">
      <g>
       <use style="stroke:#000000;stroke-width:0.6;" x="56.07" xlink:href="#m28375924f0" y="128.016948"/>
      </g>
     </g>
    </g>
    <g id="ytick_22">
     <g id="line2d_22">
      <g>
       <use style="stroke:#000000;stroke-width:0.6;" x="56.07" xlink:href="#m28375924f0" y="125.268588"/>
      </g>
     </g>
    </g>
    <g id="ytick_23">
     <g id="line2d_23">
      <g>
       <use style="stroke:#000000;stroke-width:0.6;" x="56.07" xlink:href="#m28375924f0" y="122.844363"/>
      </g>
     </g>
    </g>
    <g id="ytick_24">
     <g id="line2d_24">
      <g>
       <use style="stroke:#000000;stroke-width:0.6;" x="56.07" xlink:href="#m28375924f0" y="106.409379"/>
      </g>
     </g>
    </g>
    <g id="ytick_25">
     <g id="line2d_25">
      <g>
       <use style="stroke:#000000;stroke-width:0.6;" x="56.07" xlink:href="#m28375924f0" y="98.064046"/>
      </g>
     </g>
    </g>
    <g id="ytick_26">
     <g id="line2d_26">
      <g>
       <use style="stroke:#000000;stroke-width:0.6;" x="56.07" xlink:href="#m28375924f0" y="92.142939"/>
      </g>
     </g>
    </g>
    <g id="ytick_27">
     <g id="line2d_27">
      <g>
       <use style="stroke:#000000;stroke-width:0.6;" x="56.07" xlink:href="#m28375924f0" y="87.550171"/>
      </g>
     </g>
    </g>
    <g id="ytick_28">
     <g id="line2d_28">
      <g>
       <use style="stroke:#000000;stroke-width:0.6;" x="56.07" xlink:href="#m28375924f0" y="83.797606"/>
      </g>
     </g>
    </g>
    <g id="ytick_29">
     <g id="line2d_29">
      <g>
       <use style="stroke:#000000;stroke-width:0.6;" x="56.07" xlink:href="#m28375924f0" y="80.624857"/>
      </g>
     </g>
    </g>
    <g id="ytick_30">
     <g id="line2d_30">
      <g>
       <use style="stroke:#000000;stroke-width:0.6;" x="56.07" xlink:href="#m28375924f0" y="77.876498"/>
      </g>
     </g>
    </g>
    <g id="ytick_31">
     <g id="line2d_31">
      <g>
       <use style="stroke:#000000;stroke-width:0.6;" x="56.07" xlink:href="#m28375924f0" y="75.452273"/>
      </g>
     </g>
    </g>
    <g id="ytick_32">
     <g id="line2d_32">
      <g>
       <use style="stroke:#000000;stroke-width:0.6;" x="56.07" xlink:href="#m28375924f0" y="59.017289"/>
      </g>
     </g>
    </g>
    <g id="ytick_33">
     <g id="line2d_33">
      <g>
       <use style="stroke:#000000;stroke-width:0.6;" x="56.07" xlink:href="#m28375924f0" y="50.671956"/>
      </g>
     </g>
    </g>
    <g id="ytick_34">
     <g id="line2d_34">
      <g>
       <use style="stroke:#000000;stroke-width:0.6;" x="56.07" xlink:href="#m28375924f0" y="44.750849"/>
      </g>
     </g>
    </g>
    <g id="ytick_35">
     <g id="line2d_35">
      <g>
       <use style="stroke:#000000;stroke-width:0.6;" x="56.07" xlink:href="#m28375924f0" y="40.15808"/>
      </g>
     </g>
    </g>
    <g id="ytick_36">
     <g id="line2d_36">
      <g>
       <use style="stroke:#000000;stroke-width:0.6;" x="56.07" xlink:href="#m28375924f0" y="36.405516"/>
      </g>
     </g>
    </g>
    <g id="ytick_37">
     <g id="line2d_37">
      <g>
       <use style="stroke:#000000;stroke-width:0.6;" x="56.07" xlink:href="#m28375924f0" y="33.232767"/>
      </g>
     </g>
    </g>
    <g id="ytick_38">
     <g id="line2d_38">
      <g>
       <use style="stroke:#000000;stroke-width:0.6;" x="56.07" xlink:href="#m28375924f0" y="30.484408"/>
      </g>
     </g>
    </g>
   </g>
   <g id="patch_25">
    <path d="M 56.07 224.28 
L 56.07 30.24 
" style="fill:none;stroke:#000000;stroke-linecap:square;stroke-linejoin:miter;stroke-width:0.8;"/>
   </g>
   <g id="patch_26">
    <path d="M 403.704 224.28 
L 403.704 30.24 
" style="fill:none;stroke:#000000;stroke-linecap:square;stroke-linejoin:miter;stroke-width:0.8;"/>
   </g>
   <g id="patch_27">
    <path d="M 56.07 224.28 
L 403.704 224.28 
" style="fill:none;stroke:#000000;stroke-linecap:square;stroke-linejoin:miter;stroke-width:0.8;"/>
   </g>
   <g id="patch_28">
    <path d="M 56.07 30.24 
L 403.704 30.24 
" style="fill:none;stroke:#000000;stroke-linecap:square;stroke-linejoin:miter;stroke-width:0.8;"/>
   </g>
  </g>
 </g>
 <defs>
  <clipPath id="p265e9dea4b">
   <rect height="194.04" width="347.634" x="56.07" y="30.24"/>
  </clipPath>
 </defs>
</svg>
