<?xml version="1.0" encoding="utf-8" standalone="no"?>
<!DOCTYPE svg PUBLIC "-//W3C//DTD SVG 1.1//EN"
  "http://www.w3.org/Graphics/SVG/1.1/DTD/svg11.dtd">
<!-- Created with matplotlib (https://matplotlib.org/) -->
<svg height="252pt" version="1.1" viewBox="0 0 448.56 252" width="448.56pt" xmlns="http://www.w3.org/2000/svg" xmlns:xlink="http://www.w3.org/1999/xlink">
 <metadata>
  <rdf:RDF xmlns:cc="http://creativecommons.org/ns#" xmlns:dc="http://purl.org/dc/elements/1.1/" xmlns:rdf="http://www.w3.org/1999/02/22-rdf-syntax-ns#">
   <cc:Work>
    <dc:type rdf:resource="http://purl.org/dc/dcmitype/StillImage"/>
    <dc:date>2021-08-15T12:11:30.067045</dc:date>
    <dc:format>image/svg+xml</dc:format>
    <dc:creator>
     <cc:Agent>
      <dc:title>Matplotlib v3.3.4, https://matplotlib.org/</dc:title>
     </cc:Agent>
    </dc:creator>
   </cc:Work>
  </rdf:RDF>
 </metadata>
 <defs>
  <style type="text/css">*{stroke-linecap:butt;stroke-linejoin:round;}</style>
 </defs>
 <g id="figure_1">
  <g id="patch_1">
   <path d="M 0 252 
L 448.56 252 
L 448.56 0 
L 0 0 
z
" style="fill:none;"/>
  </g>
  <g id="axes_1">
   <g id="patch_2">
    <path d="M 56.07 224.28 
L 403.704 224.28 
L 403.704 30.24 
L 56.07 30.24 
z
" style="fill:none;"/>
   </g>
   <g id="patch_3">
    <path clip-path="url(#pf34078f1f0)" d="M 60.020386 48587.991259 
L 67.921159 48587.991259 
L 67.921159 200.898417 
L 60.020386 200.898417 
z
"/>
   </g>
   <g id="patch_4">
    <path clip-path="url(#pf34078f1f0)" d="M 75.821932 48587.991259 
L 83.722705 48587.991259 
L 83.722705 215.46 
L 75.821932 215.46 
z
"/>
   </g>
   <g id="patch_5">
    <path clip-path="url(#pf34078f1f0)" d="M 91.623477 48587.991259 
L 99.52425 48587.991259 
L 99.52425 200.898417 
L 91.623477 200.898417 
z
"/>
   </g>
   <g id="patch_6">
    <path clip-path="url(#pf34078f1f0)" d="M 107.425023 48587.991259 
L 115.325795 48587.991259 
L 115.325795 200.898417 
L 107.425023 200.898417 
z
"/>
   </g>
   <g id="patch_7">
    <path clip-path="url(#pf34078f1f0)" d="M 123.226568 48587.991259 
L 131.127341 48587.991259 
L 131.127341 192.380437 
L 123.226568 192.380437 
z
"/>
   </g>
   <g id="patch_8">
    <path clip-path="url(#pf34078f1f0)" d="M 139.028114 48587.991259 
L 146.928886 48587.991259 
L 146.928886 200.898417 
L 139.028114 200.898417 
z
"/>
   </g>
   <g id="patch_9">
    <path clip-path="url(#pf34078f1f0)" d="M 154.829659 48587.991259 
L 162.730432 48587.991259 
L 162.730432 186.336834 
L 154.829659 186.336834 
z
"/>
   </g>
   <g id="patch_10">
    <path clip-path="url(#pf34078f1f0)" d="M 170.631205 48587.991259 
L 178.531977 48587.991259 
L 178.531977 177.818854 
L 170.631205 177.818854 
z
"/>
   </g>
   <g id="patch_11">
    <path clip-path="url(#pf34078f1f0)" d="M 186.43275 48587.991259 
L 194.333523 48587.991259 
L 194.333523 167.087469 
L 186.43275 167.087469 
z
"/>
   </g>
   <g id="patch_12">
    <path clip-path="url(#pf34078f1f0)" d="M 202.234295 48587.991259 
L 210.135068 48587.991259 
L 210.135068 160.018886 
L 202.234295 160.018886 
z
"/>
   </g>
   <g id="patch_13">
    <path clip-path="url(#pf34078f1f0)" d="M 218.035841 48587.991259 
L 225.936614 48587.991259 
L 225.936614 150.523617 
L 218.035841 150.523617 
z
"/>
   </g>
   <g id="patch_14">
    <path clip-path="url(#pf34078f1f0)" d="M 233.837386 48587.991259 
L 241.738159 48587.991259 
L 241.738159 140.177709 
L 233.837386 140.177709 
z
"/>
   </g>
   <g id="patch_15">
    <path clip-path="url(#pf34078f1f0)" d="M 249.638932 48587.991259 
L 257.539705 48587.991259 
L 257.539705 129.446323 
L 249.638932 129.446323 
z
"/>
   </g>
   <g id="patch_16">
    <path clip-path="url(#pf34078f1f0)" d="M 265.440477 48587.991259 
L 273.34125 48587.991259 
L 273.34125 121.400451 
L 265.440477 121.400451 
z
"/>
   </g>
   <g id="patch_17">
    <path clip-path="url(#pf34078f1f0)" d="M 281.242023 48587.991259 
L 289.142795 48587.991259 
L 289.142795 110.337479 
L 281.242023 110.337479 
z
"/>
   </g>
   <g id="patch_18">
    <path clip-path="url(#pf34078f1f0)" d="M 297.043568 48587.991259 
L 304.944341 48587.991259 
L 304.944341 99.381708 
L 297.043568 99.381708 
z
"/>
   </g>
   <g id="patch_19">
    <path clip-path="url(#pf34078f1f0)" d="M 312.845114 48587.991259 
L 320.745886 48587.991259 
L 320.745886 89.591772 
L 312.845114 89.591772 
z
"/>
   </g>
   <g id="patch_20">
    <path clip-path="url(#pf34078f1f0)" d="M 328.646659 48587.991259 
L 336.547432 48587.991259 
L 336.547432 79.167231 
L 328.646659 79.167231 
z
"/>
   </g>
   <g id="patch_21">
    <path clip-path="url(#pf34078f1f0)" d="M 344.448205 48587.991259 
L 352.348977 48587.991259 
L 352.348977 68.531992 
L 344.448205 68.531992 
z
"/>
   </g>
   <g id="patch_22">
    <path clip-path="url(#pf34078f1f0)" d="M 360.24975 48587.991259 
L 368.150523 48587.991259 
L 368.150523 58.478277 
L 360.24975 58.478277 
z
"/>
   </g>
   <g id="patch_23">
    <path clip-path="url(#pf34078f1f0)" d="M 376.051295 48587.991259 
L 383.952068 48587.991259 
L 383.952068 48.67476 
L 376.051295 48.67476 
z
"/>
   </g>
   <g id="patch_24">
    <path clip-path="url(#pf34078f1f0)" d="M 391.852841 48587.991259 
L 399.753614 48587.991259 
L 399.753614 39.06 
L 391.852841 39.06 
z
"/>
   </g>
   <g id="matplotlib.axis_1">
    <g id="ytick_1">
     <g id="line2d_1">
      <defs>
       <path d="M 0 0 
L -3.5 0 
" id="m6ac5234b81" style="stroke:#000000;stroke-width:0.8;"/>
      </defs>
      <g>
       <use style="stroke:#000000;stroke-width:0.8;" x="56.07" xlink:href="#m6ac5234b81" y="215.46"/>
      </g>
     </g>
     <g id="text_1">
      <!-- $\mathdefault{10^{0}}$ -->
      <g transform="translate(31.47 219.259219)scale(0.1 -0.1)">
       <defs>
        <path d="M 12.40625 8.296875 
L 28.515625 8.296875 
L 28.515625 63.921875 
L 10.984375 60.40625 
L 10.984375 69.390625 
L 28.421875 72.90625 
L 38.28125 72.90625 
L 38.28125 8.296875 
L 54.390625 8.296875 
L 54.390625 0 
L 12.40625 0 
z
" id="DejaVuSans-49"/>
        <path d="M 31.78125 66.40625 
Q 24.171875 66.40625 20.328125 58.90625 
Q 16.5 51.421875 16.5 36.375 
Q 16.5 21.390625 20.328125 13.890625 
Q 24.171875 6.390625 31.78125 6.390625 
Q 39.453125 6.390625 43.28125 13.890625 
Q 47.125 21.390625 47.125 36.375 
Q 47.125 51.421875 43.28125 58.90625 
Q 39.453125 66.40625 31.78125 66.40625 
z
M 31.78125 74.21875 
Q 44.046875 74.21875 50.515625 64.515625 
Q 56.984375 54.828125 56.984375 36.375 
Q 56.984375 17.96875 50.515625 8.265625 
Q 44.046875 -1.421875 31.78125 -1.421875 
Q 19.53125 -1.421875 13.0625 8.265625 
Q 6.59375 17.96875 6.59375 36.375 
Q 6.59375 54.828125 13.0625 64.515625 
Q 19.53125 74.21875 31.78125 74.21875 
z
" id="DejaVuSans-48"/>
       </defs>
       <use transform="translate(0 0.765625)" xlink:href="#DejaVuSans-49"/>
       <use transform="translate(63.623047 0.765625)" xlink:href="#DejaVuSans-48"/>
       <use transform="translate(128.203125 39.046875)scale(0.7)" xlink:href="#DejaVuSans-48"/>
      </g>
     </g>
    </g>
    <g id="ytick_2">
     <g id="line2d_2">
      <g>
       <use style="stroke:#000000;stroke-width:0.8;" x="56.07" xlink:href="#m6ac5234b81" y="167.087469"/>
      </g>
     </g>
     <g id="text_2">
      <!-- $\mathdefault{10^{1}}$ -->
      <g transform="translate(31.47 170.886687)scale(0.1 -0.1)">
       <use transform="translate(0 0.684375)" xlink:href="#DejaVuSans-49"/>
       <use transform="translate(63.623047 0.684375)" xlink:href="#DejaVuSans-48"/>
       <use transform="translate(128.203125 38.965625)scale(0.7)" xlink:href="#DejaVuSans-49"/>
      </g>
     </g>
    </g>
    <g id="ytick_3">
     <g id="line2d_3">
      <g>
       <use style="stroke:#000000;stroke-width:0.8;" x="56.07" xlink:href="#m6ac5234b81" y="118.714937"/>
      </g>
     </g>
     <g id="text_3">
      <!-- $\mathdefault{10^{2}}$ -->
      <g transform="translate(31.47 122.514156)scale(0.1 -0.1)">
       <defs>
        <path d="M 19.1875 8.296875 
L 53.609375 8.296875 
L 53.609375 0 
L 7.328125 0 
L 7.328125 8.296875 
Q 12.9375 14.109375 22.625 23.890625 
Q 32.328125 33.6875 34.8125 36.53125 
Q 39.546875 41.84375 41.421875 45.53125 
Q 43.3125 49.21875 43.3125 52.78125 
Q 43.3125 58.59375 39.234375 62.25 
Q 35.15625 65.921875 28.609375 65.921875 
Q 23.96875 65.921875 18.8125 64.3125 
Q 13.671875 62.703125 7.8125 59.421875 
L 7.8125 69.390625 
Q 13.765625 71.78125 18.9375 73 
Q 24.125 74.21875 28.421875 74.21875 
Q 39.75 74.21875 46.484375 68.546875 
Q 53.21875 62.890625 53.21875 53.421875 
Q 53.21875 48.921875 51.53125 44.890625 
Q 49.859375 40.875 45.40625 35.40625 
Q 44.1875 33.984375 37.640625 27.21875 
Q 31.109375 20.453125 19.1875 8.296875 
z
" id="DejaVuSans-50"/>
       </defs>
       <use transform="translate(0 0.765625)" xlink:href="#DejaVuSans-49"/>
       <use transform="translate(63.623047 0.765625)" xlink:href="#DejaVuSans-48"/>
       <use transform="translate(128.203125 39.046875)scale(0.7)" xlink:href="#DejaVuSans-50"/>
      </g>
     </g>
    </g>
    <g id="ytick_4">
     <g id="line2d_4">
      <g>
       <use style="stroke:#000000;stroke-width:0.8;" x="56.07" xlink:href="#m6ac5234b81" y="70.342406"/>
      </g>
     </g>
     <g id="text_4">
      <!-- $\mathdefault{10^{3}}$ -->
      <g transform="translate(31.47 74.141625)scale(0.1 -0.1)">
       <defs>
        <path d="M 40.578125 39.3125 
Q 47.65625 37.796875 51.625 33 
Q 55.609375 28.21875 55.609375 21.1875 
Q 55.609375 10.40625 48.1875 4.484375 
Q 40.765625 -1.421875 27.09375 -1.421875 
Q 22.515625 -1.421875 17.65625 -0.515625 
Q 12.796875 0.390625 7.625 2.203125 
L 7.625 11.71875 
Q 11.71875 9.328125 16.59375 8.109375 
Q 21.484375 6.890625 26.8125 6.890625 
Q 36.078125 6.890625 40.9375 10.546875 
Q 45.796875 14.203125 45.796875 21.1875 
Q 45.796875 27.640625 41.28125 31.265625 
Q 36.765625 34.90625 28.71875 34.90625 
L 20.21875 34.90625 
L 20.21875 43.015625 
L 29.109375 43.015625 
Q 36.375 43.015625 40.234375 45.921875 
Q 44.09375 48.828125 44.09375 54.296875 
Q 44.09375 59.90625 40.109375 62.90625 
Q 36.140625 65.921875 28.71875 65.921875 
Q 24.65625 65.921875 20.015625 65.03125 
Q 15.375 64.15625 9.8125 62.3125 
L 9.8125 71.09375 
Q 15.4375 72.65625 20.34375 73.4375 
Q 25.25 74.21875 29.59375 74.21875 
Q 40.828125 74.21875 47.359375 69.109375 
Q 53.90625 64.015625 53.90625 55.328125 
Q 53.90625 49.265625 50.4375 45.09375 
Q 46.96875 40.921875 40.578125 39.3125 
z
" id="DejaVuSans-51"/>
       </defs>
       <use transform="translate(0 0.765625)" xlink:href="#DejaVuSans-49"/>
       <use transform="translate(63.623047 0.765625)" xlink:href="#DejaVuSans-48"/>
       <use transform="translate(128.203125 39.046875)scale(0.7)" xlink:href="#DejaVuSans-51"/>
      </g>
     </g>
    </g>
    <g id="ytick_5">
     <g id="line2d_5">
      <defs>
       <path d="M 0 0 
L -2 0 
" id="m6473d13051" style="stroke:#000000;stroke-width:0.6;"/>
      </defs>
      <g>
       <use style="stroke:#000000;stroke-width:0.6;" x="56.07" xlink:href="#m6473d13051" y="222.953"/>
      </g>
     </g>
    </g>
    <g id="ytick_6">
     <g id="line2d_6">
      <g>
       <use style="stroke:#000000;stroke-width:0.6;" x="56.07" xlink:href="#m6473d13051" y="220.147783"/>
      </g>
     </g>
    </g>
    <g id="ytick_7">
     <g id="line2d_7">
      <g>
       <use style="stroke:#000000;stroke-width:0.6;" x="56.07" xlink:href="#m6473d13051" y="217.673406"/>
      </g>
     </g>
    </g>
    <g id="ytick_8">
     <g id="line2d_8">
      <g>
       <use style="stroke:#000000;stroke-width:0.6;" x="56.07" xlink:href="#m6473d13051" y="200.898417"/>
      </g>
     </g>
    </g>
    <g id="ytick_9">
     <g id="line2d_9">
      <g>
       <use style="stroke:#000000;stroke-width:0.6;" x="56.07" xlink:href="#m6473d13051" y="192.380437"/>
      </g>
     </g>
    </g>
    <g id="ytick_10">
     <g id="line2d_10">
      <g>
       <use style="stroke:#000000;stroke-width:0.6;" x="56.07" xlink:href="#m6473d13051" y="186.336834"/>
      </g>
     </g>
    </g>
    <g id="ytick_11">
     <g id="line2d_11">
      <g>
       <use style="stroke:#000000;stroke-width:0.6;" x="56.07" xlink:href="#m6473d13051" y="181.649052"/>
      </g>
     </g>
    </g>
    <g id="ytick_12">
     <g id="line2d_12">
      <g>
       <use style="stroke:#000000;stroke-width:0.6;" x="56.07" xlink:href="#m6473d13051" y="177.818854"/>
      </g>
     </g>
    </g>
    <g id="ytick_13">
     <g id="line2d_13">
      <g>
       <use style="stroke:#000000;stroke-width:0.6;" x="56.07" xlink:href="#m6473d13051" y="174.580469"/>
      </g>
     </g>
    </g>
    <g id="ytick_14">
     <g id="line2d_14">
      <g>
       <use style="stroke:#000000;stroke-width:0.6;" x="56.07" xlink:href="#m6473d13051" y="171.775251"/>
      </g>
     </g>
    </g>
    <g id="ytick_15">
     <g id="line2d_15">
      <g>
       <use style="stroke:#000000;stroke-width:0.6;" x="56.07" xlink:href="#m6473d13051" y="169.300874"/>
      </g>
     </g>
    </g>
    <g id="ytick_16">
     <g id="line2d_16">
      <g>
       <use style="stroke:#000000;stroke-width:0.6;" x="56.07" xlink:href="#m6473d13051" y="152.525886"/>
      </g>
     </g>
    </g>
    <g id="ytick_17">
     <g id="line2d_17">
      <g>
       <use style="stroke:#000000;stroke-width:0.6;" x="56.07" xlink:href="#m6473d13051" y="144.007906"/>
      </g>
     </g>
    </g>
    <g id="ytick_18">
     <g id="line2d_18">
      <g>
       <use style="stroke:#000000;stroke-width:0.6;" x="56.07" xlink:href="#m6473d13051" y="137.964303"/>
      </g>
     </g>
    </g>
    <g id="ytick_19">
     <g id="line2d_19">
      <g>
       <use style="stroke:#000000;stroke-width:0.6;" x="56.07" xlink:href="#m6473d13051" y="133.27652"/>
      </g>
     </g>
    </g>
    <g id="ytick_20">
     <g id="line2d_20">
      <g>
       <use style="stroke:#000000;stroke-width:0.6;" x="56.07" xlink:href="#m6473d13051" y="129.446323"/>
      </g>
     </g>
    </g>
    <g id="ytick_21">
     <g id="line2d_21">
      <g>
       <use style="stroke:#000000;stroke-width:0.6;" x="56.07" xlink:href="#m6473d13051" y="126.207937"/>
      </g>
     </g>
    </g>
    <g id="ytick_22">
     <g id="line2d_22">
      <g>
       <use style="stroke:#000000;stroke-width:0.6;" x="56.07" xlink:href="#m6473d13051" y="123.40272"/>
      </g>
     </g>
    </g>
    <g id="ytick_23">
     <g id="line2d_23">
      <g>
       <use style="stroke:#000000;stroke-width:0.6;" x="56.07" xlink:href="#m6473d13051" y="120.928343"/>
      </g>
     </g>
    </g>
    <g id="ytick_24">
     <g id="line2d_24">
      <g>
       <use style="stroke:#000000;stroke-width:0.6;" x="56.07" xlink:href="#m6473d13051" y="104.153355"/>
      </g>
     </g>
    </g>
    <g id="ytick_25">
     <g id="line2d_25">
      <g>
       <use style="stroke:#000000;stroke-width:0.6;" x="56.07" xlink:href="#m6473d13051" y="95.635375"/>
      </g>
     </g>
    </g>
    <g id="ytick_26">
     <g id="line2d_26">
      <g>
       <use style="stroke:#000000;stroke-width:0.6;" x="56.07" xlink:href="#m6473d13051" y="89.591772"/>
      </g>
     </g>
    </g>
    <g id="ytick_27">
     <g id="line2d_27">
      <g>
       <use style="stroke:#000000;stroke-width:0.6;" x="56.07" xlink:href="#m6473d13051" y="84.903989"/>
      </g>
     </g>
    </g>
    <g id="ytick_28">
     <g id="line2d_28">
      <g>
       <use style="stroke:#000000;stroke-width:0.6;" x="56.07" xlink:href="#m6473d13051" y="81.073792"/>
      </g>
     </g>
    </g>
    <g id="ytick_29">
     <g id="line2d_29">
      <g>
       <use style="stroke:#000000;stroke-width:0.6;" x="56.07" xlink:href="#m6473d13051" y="77.835406"/>
      </g>
     </g>
    </g>
    <g id="ytick_30">
     <g id="line2d_30">
      <g>
       <use style="stroke:#000000;stroke-width:0.6;" x="56.07" xlink:href="#m6473d13051" y="75.030189"/>
      </g>
     </g>
    </g>
    <g id="ytick_31">
     <g id="line2d_31">
      <g>
       <use style="stroke:#000000;stroke-width:0.6;" x="56.07" xlink:href="#m6473d13051" y="72.555812"/>
      </g>
     </g>
    </g>
    <g id="ytick_32">
     <g id="line2d_32">
      <g>
       <use style="stroke:#000000;stroke-width:0.6;" x="56.07" xlink:href="#m6473d13051" y="55.780823"/>
      </g>
     </g>
    </g>
    <g id="ytick_33">
     <g id="line2d_33">
      <g>
       <use style="stroke:#000000;stroke-width:0.6;" x="56.07" xlink:href="#m6473d13051" y="47.262843"/>
      </g>
     </g>
    </g>
    <g id="ytick_34">
     <g id="line2d_34">
      <g>
       <use style="stroke:#000000;stroke-width:0.6;" x="56.07" xlink:href="#m6473d13051" y="41.21924"/>
      </g>
     </g>
    </g>
    <g id="ytick_35">
     <g id="line2d_35">
      <g>
       <use style="stroke:#000000;stroke-width:0.6;" x="56.07" xlink:href="#m6473d13051" y="36.531458"/>
      </g>
     </g>
    </g>
    <g id="ytick_36">
     <g id="line2d_36">
      <g>
       <use style="stroke:#000000;stroke-width:0.6;" x="56.07" xlink:href="#m6473d13051" y="32.701261"/>
      </g>
     </g>
    </g>
   </g>
   <g id="patch_25">
    <path d="M 56.07 224.28 
L 56.07 30.24 
" style="fill:none;stroke:#000000;stroke-linecap:square;stroke-linejoin:miter;stroke-width:0.8;"/>
   </g>
   <g id="patch_26">
    <path d="M 403.704 224.28 
L 403.704 30.24 
" style="fill:none;stroke:#000000;stroke-linecap:square;stroke-linejoin:miter;stroke-width:0.8;"/>
   </g>
   <g id="patch_27">
    <path d="M 56.07 224.28 
L 403.704 224.28 
" style="fill:none;stroke:#000000;stroke-linecap:square;stroke-linejoin:miter;stroke-width:0.8;"/>
   </g>
   <g id="patch_28">
    <path d="M 56.07 30.24 
L 403.704 30.24 
" style="fill:none;stroke:#000000;stroke-linecap:square;stroke-linejoin:miter;stroke-width:0.8;"/>
   </g>
  </g>
 </g>
 <defs>
  <clipPath id="pf34078f1f0">
   <rect height="194.04" width="347.634" x="56.07" y="30.24"/>
  </clipPath>
 </defs>
</svg>
