<?xml version="1.0" encoding="utf-8" standalone="no"?>
<!DOCTYPE svg PUBLIC "-//W3C//DTD SVG 1.1//EN"
  "http://www.w3.org/Graphics/SVG/1.1/DTD/svg11.dtd">
<!-- Created with matplotlib (https://matplotlib.org/) -->
<svg height="252pt" version="1.1" viewBox="0 0 448.56 252" width="448.56pt" xmlns="http://www.w3.org/2000/svg" xmlns:xlink="http://www.w3.org/1999/xlink">
 <metadata>
  <rdf:RDF xmlns:cc="http://creativecommons.org/ns#" xmlns:dc="http://purl.org/dc/elements/1.1/" xmlns:rdf="http://www.w3.org/1999/02/22-rdf-syntax-ns#">
   <cc:Work>
    <dc:type rdf:resource="http://purl.org/dc/dcmitype/StillImage"/>
    <dc:date>2021-08-27T22:30:54.391548</dc:date>
    <dc:format>image/svg+xml</dc:format>
    <dc:creator>
     <cc:Agent>
      <dc:title>Matplotlib v3.3.4, https://matplotlib.org/</dc:title>
     </cc:Agent>
    </dc:creator>
   </cc:Work>
  </rdf:RDF>
 </metadata>
 <defs>
  <style type="text/css">*{stroke-linecap:butt;stroke-linejoin:round;}</style>
 </defs>
 <g id="figure_1">
  <g id="patch_1">
   <path d="M 0 252 
L 448.56 252 
L 448.56 0 
L 0 0 
z
" style="fill:none;"/>
  </g>
  <g id="axes_1">
   <g id="patch_2">
    <path d="M 56.07 224.28 
L 403.704 224.28 
L 403.704 30.24 
L 56.07 30.24 
z
" style="fill:none;"/>
   </g>
   <g id="patch_3">
    <path clip-path="url(#pd2e184376b)" d="M 56.713767 224.28 
L 58.0013 224.28 
L 58.0013 223.66192 
L 56.713767 223.66192 
z
"/>
   </g>
   <g id="patch_4">
    <path clip-path="url(#pd2e184376b)" d="M 59.288833 224.28 
L 60.576367 224.28 
L 60.576367 223.652617 
L 59.288833 223.652617 
z
"/>
   </g>
   <g id="patch_5">
    <path clip-path="url(#pd2e184376b)" d="M 61.8639 224.28 
L 63.151433 224.28 
L 63.151433 223.631685 
L 61.8639 223.631685 
z
"/>
   </g>
   <g id="patch_6">
    <path clip-path="url(#pd2e184376b)" d="M 64.438967 224.28 
L 65.7265 224.28 
L 65.7265 223.630522 
L 64.438967 223.630522 
z
"/>
   </g>
   <g id="patch_7">
    <path clip-path="url(#pd2e184376b)" d="M 67.014033 224.28 
L 68.301567 224.28 
L 68.301567 223.629941 
L 67.014033 223.629941 
z
"/>
   </g>
   <g id="patch_8">
    <path clip-path="url(#pd2e184376b)" d="M 69.5891 224.28 
L 70.876633 224.28 
L 70.876633 223.617149 
L 69.5891 223.617149 
z
"/>
   </g>
   <g id="patch_9">
    <path clip-path="url(#pd2e184376b)" d="M 72.164167 224.28 
L 73.4517 224.28 
L 73.4517 223.61366 
L 72.164167 223.61366 
z
"/>
   </g>
   <g id="patch_10">
    <path clip-path="url(#pd2e184376b)" d="M 74.739233 224.28 
L 76.026767 224.28 
L 76.026767 223.610171 
L 74.739233 223.610171 
z
"/>
   </g>
   <g id="patch_11">
    <path clip-path="url(#pd2e184376b)" d="M 77.3143 224.28 
L 78.601833 224.28 
L 78.601833 223.59738 
L 77.3143 223.59738 
z
"/>
   </g>
   <g id="patch_12">
    <path clip-path="url(#pd2e184376b)" d="M 79.889367 224.28 
L 81.1769 224.28 
L 81.1769 223.556678 
L 79.889367 223.556678 
z
"/>
   </g>
   <g id="patch_13">
    <path clip-path="url(#pd2e184376b)" d="M 82.464433 224.28 
L 83.751967 224.28 
L 83.751967 223.55319 
L 82.464433 223.55319 
z
"/>
   </g>
   <g id="patch_14">
    <path clip-path="url(#pd2e184376b)" d="M 85.0395 224.28 
L 86.327033 224.28 
L 86.327033 223.546794 
L 85.0395 223.546794 
z
"/>
   </g>
   <g id="patch_15">
    <path clip-path="url(#pd2e184376b)" d="M 87.614567 224.28 
L 88.9021 224.28 
L 88.9021 223.510162 
L 87.614567 223.510162 
z
"/>
   </g>
   <g id="patch_16">
    <path clip-path="url(#pd2e184376b)" d="M 90.189633 224.28 
L 91.477167 224.28 
L 91.477167 223.501441 
L 90.189633 223.501441 
z
"/>
   </g>
   <g id="patch_17">
    <path clip-path="url(#pd2e184376b)" d="M 92.7647 224.28 
L 94.052233 224.28 
L 94.052233 223.491556 
L 92.7647 223.491556 
z
"/>
   </g>
   <g id="patch_18">
    <path clip-path="url(#pd2e184376b)" d="M 95.339767 224.28 
L 96.6273 224.28 
L 96.6273 223.482253 
L 95.339767 223.482253 
z
"/>
   </g>
   <g id="patch_19">
    <path clip-path="url(#pd2e184376b)" d="M 97.914833 224.28 
L 99.202367 224.28 
L 99.202367 223.474694 
L 97.914833 223.474694 
z
"/>
   </g>
   <g id="patch_20">
    <path clip-path="url(#pd2e184376b)" d="M 100.4899 224.28 
L 101.777433 224.28 
L 101.777433 223.470042 
L 100.4899 223.470042 
z
"/>
   </g>
   <g id="patch_21">
    <path clip-path="url(#pd2e184376b)" d="M 103.064967 224.28 
L 104.3525 224.28 
L 104.3525 223.470042 
L 103.064967 223.470042 
z
"/>
   </g>
   <g id="patch_22">
    <path clip-path="url(#pd2e184376b)" d="M 105.640033 224.28 
L 106.927567 224.28 
L 106.927567 223.463065 
L 105.640033 223.463065 
z
"/>
   </g>
   <g id="patch_23">
    <path clip-path="url(#pd2e184376b)" d="M 108.2151 224.28 
L 109.502633 224.28 
L 109.502633 223.450273 
L 108.2151 223.450273 
z
"/>
   </g>
   <g id="patch_24">
    <path clip-path="url(#pd2e184376b)" d="M 110.790167 224.28 
L 112.0777 224.28 
L 112.0777 223.44097 
L 110.790167 223.44097 
z
"/>
   </g>
   <g id="patch_25">
    <path clip-path="url(#pd2e184376b)" d="M 113.365233 224.28 
L 114.652767 224.28 
L 114.652767 223.4369 
L 113.365233 223.4369 
z
"/>
   </g>
   <g id="patch_26">
    <path clip-path="url(#pd2e184376b)" d="M 115.9403 224.28 
L 117.227833 224.28 
L 117.227833 223.425271 
L 115.9403 223.425271 
z
"/>
   </g>
   <g id="patch_27">
    <path clip-path="url(#pd2e184376b)" d="M 118.515367 224.28 
L 119.8029 224.28 
L 119.8029 223.349683 
L 118.515367 223.349683 
z
"/>
   </g>
   <g id="patch_28">
    <path clip-path="url(#pd2e184376b)" d="M 121.090433 224.28 
L 122.377967 224.28 
L 122.377967 223.347357 
L 121.090433 223.347357 
z
"/>
   </g>
   <g id="patch_29">
    <path clip-path="url(#pd2e184376b)" d="M 123.6655 224.28 
L 124.953033 224.28 
L 124.953033 223.333983 
L 123.6655 223.333983 
z
"/>
   </g>
   <g id="patch_30">
    <path clip-path="url(#pd2e184376b)" d="M 126.240567 224.28 
L 127.5281 224.28 
L 127.5281 223.307818 
L 126.240567 223.307818 
z
"/>
   </g>
   <g id="patch_31">
    <path clip-path="url(#pd2e184376b)" d="M 128.815633 224.28 
L 130.103167 224.28 
L 130.103167 223.307237 
L 128.815633 223.307237 
z
"/>
   </g>
   <g id="patch_32">
    <path clip-path="url(#pd2e184376b)" d="M 131.3907 224.28 
L 132.678233 224.28 
L 132.678233 223.286886 
L 131.3907 223.286886 
z
"/>
   </g>
   <g id="patch_33">
    <path clip-path="url(#pd2e184376b)" d="M 133.965767 224.28 
L 135.2533 224.28 
L 135.2533 223.26014 
L 133.965767 223.26014 
z
"/>
   </g>
   <g id="patch_34">
    <path clip-path="url(#pd2e184376b)" d="M 136.540833 224.28 
L 137.828367 224.28 
L 137.828367 223.257814 
L 136.540833 223.257814 
z
"/>
   </g>
   <g id="patch_35">
    <path clip-path="url(#pd2e184376b)" d="M 139.1159 224.28 
L 140.403433 224.28 
L 140.403433 223.243278 
L 139.1159 223.243278 
z
"/>
   </g>
   <g id="patch_36">
    <path clip-path="url(#pd2e184376b)" d="M 141.690967 224.28 
L 142.9785 224.28 
L 142.9785 223.236882 
L 141.690967 223.236882 
z
"/>
   </g>
   <g id="patch_37">
    <path clip-path="url(#pd2e184376b)" d="M 144.266033 224.28 
L 145.553567 224.28 
L 145.553567 223.19618 
L 144.266033 223.19618 
z
"/>
   </g>
   <g id="patch_38">
    <path clip-path="url(#pd2e184376b)" d="M 146.8411 224.28 
L 148.128633 224.28 
L 148.128633 223.18397 
L 146.8411 223.18397 
z
"/>
   </g>
   <g id="patch_39">
    <path clip-path="url(#pd2e184376b)" d="M 149.416167 224.28 
L 150.7037 224.28 
L 150.7037 223.164782 
L 149.416167 223.164782 
z
"/>
   </g>
   <g id="patch_40">
    <path clip-path="url(#pd2e184376b)" d="M 151.991233 224.28 
L 153.278767 224.28 
L 153.278767 223.129895 
L 151.991233 223.129895 
z
"/>
   </g>
   <g id="patch_41">
    <path clip-path="url(#pd2e184376b)" d="M 154.5663 224.28 
L 155.853833 224.28 
L 155.853833 223.119429 
L 154.5663 223.119429 
z
"/>
   </g>
   <g id="patch_42">
    <path clip-path="url(#pd2e184376b)" d="M 157.141367 224.28 
L 158.4289 224.28 
L 158.4289 223.118848 
L 157.141367 223.118848 
z
"/>
   </g>
   <g id="patch_43">
    <path clip-path="url(#pd2e184376b)" d="M 159.716433 224.28 
L 161.003967 224.28 
L 161.003967 223.113033 
L 159.716433 223.113033 
z
"/>
   </g>
   <g id="patch_44">
    <path clip-path="url(#pd2e184376b)" d="M 162.2915 224.28 
L 163.579033 224.28 
L 163.579033 223.097334 
L 162.2915 223.097334 
z
"/>
   </g>
   <g id="patch_45">
    <path clip-path="url(#pd2e184376b)" d="M 164.866567 224.28 
L 166.1541 224.28 
L 166.1541 223.095008 
L 164.866567 223.095008 
z
"/>
   </g>
   <g id="patch_46">
    <path clip-path="url(#pd2e184376b)" d="M 167.441633 224.28 
L 168.729167 224.28 
L 168.729167 223.091519 
L 167.441633 223.091519 
z
"/>
   </g>
   <g id="patch_47">
    <path clip-path="url(#pd2e184376b)" d="M 170.0167 224.28 
L 171.304233 224.28 
L 171.304233 223.060703 
L 170.0167 223.060703 
z
"/>
   </g>
   <g id="patch_48">
    <path clip-path="url(#pd2e184376b)" d="M 172.591767 224.28 
L 173.8793 224.28 
L 173.8793 223.05954 
L 172.591767 223.05954 
z
"/>
   </g>
   <g id="patch_49">
    <path clip-path="url(#pd2e184376b)" d="M 175.166833 224.28 
L 176.454367 224.28 
L 176.454367 223.058958 
L 175.166833 223.058958 
z
"/>
   </g>
   <g id="patch_50">
    <path clip-path="url(#pd2e184376b)" d="M 177.7419 224.28 
L 179.029433 224.28 
L 179.029433 223.030467 
L 177.7419 223.030467 
z
"/>
   </g>
   <g id="patch_51">
    <path clip-path="url(#pd2e184376b)" d="M 180.316967 224.28 
L 181.6045 224.28 
L 181.6045 222.99558 
L 180.316967 222.99558 
z
"/>
   </g>
   <g id="patch_52">
    <path clip-path="url(#pd2e184376b)" d="M 182.892033 224.28 
L 184.179567 224.28 
L 184.179567 222.975811 
L 182.892033 222.975811 
z
"/>
   </g>
   <g id="patch_53">
    <path clip-path="url(#pd2e184376b)" d="M 185.4671 224.28 
L 186.754633 224.28 
L 186.754633 222.96709 
L 185.4671 222.96709 
z
"/>
   </g>
   <g id="patch_54">
    <path clip-path="url(#pd2e184376b)" d="M 188.042167 224.28 
L 189.3297 224.28 
L 189.3297 222.93104 
L 188.042167 222.93104 
z
"/>
   </g>
   <g id="patch_55">
    <path clip-path="url(#pd2e184376b)" d="M 190.617233 224.28 
L 191.904767 224.28 
L 191.904767 222.918248 
L 190.617233 222.918248 
z
"/>
   </g>
   <g id="patch_56">
    <path clip-path="url(#pd2e184376b)" d="M 193.1923 224.28 
L 194.479833 224.28 
L 194.479833 222.721137 
L 193.1923 222.721137 
z
"/>
   </g>
   <g id="patch_57">
    <path clip-path="url(#pd2e184376b)" d="M 195.767367 224.28 
L 197.0549 224.28 
L 197.0549 222.68218 
L 195.767367 222.68218 
z
"/>
   </g>
   <g id="patch_58">
    <path clip-path="url(#pd2e184376b)" d="M 198.342433 224.28 
L 199.629967 224.28 
L 199.629967 222.666481 
L 198.342433 222.666481 
z
"/>
   </g>
   <g id="patch_59">
    <path clip-path="url(#pd2e184376b)" d="M 200.9175 224.28 
L 202.205033 224.28 
L 202.205033 222.632757 
L 200.9175 222.632757 
z
"/>
   </g>
   <g id="patch_60">
    <path clip-path="url(#pd2e184376b)" d="M 203.492567 224.28 
L 204.7801 224.28 
L 204.7801 222.5938 
L 203.492567 222.5938 
z
"/>
   </g>
   <g id="patch_61">
    <path clip-path="url(#pd2e184376b)" d="M 206.067633 224.28 
L 207.355167 224.28 
L 207.355167 222.504257 
L 206.067633 222.504257 
z
"/>
   </g>
   <g id="patch_62">
    <path clip-path="url(#pd2e184376b)" d="M 208.6427 224.28 
L 209.930233 224.28 
L 209.930233 222.374012 
L 208.6427 222.374012 
z
"/>
   </g>
   <g id="patch_63">
    <path clip-path="url(#pd2e184376b)" d="M 211.217767 224.28 
L 212.5053 224.28 
L 212.5053 222.270514 
L 211.217767 222.270514 
z
"/>
   </g>
   <g id="patch_64">
    <path clip-path="url(#pd2e184376b)" d="M 213.792833 224.28 
L 215.080367 224.28 
L 215.080367 222.254234 
L 213.792833 222.254234 
z
"/>
   </g>
   <g id="patch_65">
    <path clip-path="url(#pd2e184376b)" d="M 216.3679 224.28 
L 217.655433 224.28 
L 217.655433 222.186204 
L 216.3679 222.186204 
z
"/>
   </g>
   <g id="patch_66">
    <path clip-path="url(#pd2e184376b)" d="M 218.942967 224.28 
L 220.2305 224.28 
L 220.2305 222.175157 
L 218.942967 222.175157 
z
"/>
   </g>
   <g id="patch_67">
    <path clip-path="url(#pd2e184376b)" d="M 221.518033 224.28 
L 222.805567 224.28 
L 222.805567 222.099569 
L 221.518033 222.099569 
z
"/>
   </g>
   <g id="patch_68">
    <path clip-path="url(#pd2e184376b)" d="M 224.0931 224.28 
L 225.380633 224.28 
L 225.380633 222.061774 
L 224.0931 222.061774 
z
"/>
   </g>
   <g id="patch_69">
    <path clip-path="url(#pd2e184376b)" d="M 226.668167 224.28 
L 227.9557 224.28 
L 227.9557 222.010607 
L 226.668167 222.010607 
z
"/>
   </g>
   <g id="patch_70">
    <path clip-path="url(#pd2e184376b)" d="M 229.243233 224.28 
L 230.530767 224.28 
L 230.530767 222.008281 
L 229.243233 222.008281 
z
"/>
   </g>
   <g id="patch_71">
    <path clip-path="url(#pd2e184376b)" d="M 231.8183 224.28 
L 233.105833 224.28 
L 233.105833 221.930948 
L 231.8183 221.930948 
z
"/>
   </g>
   <g id="patch_72">
    <path clip-path="url(#pd2e184376b)" d="M 234.393367 224.28 
L 235.6809 224.28 
L 235.6809 221.913505 
L 234.393367 221.913505 
z
"/>
   </g>
   <g id="patch_73">
    <path clip-path="url(#pd2e184376b)" d="M 236.968433 224.28 
L 238.255967 224.28 
L 238.255967 221.873967 
L 236.968433 221.873967 
z
"/>
   </g>
   <g id="patch_74">
    <path clip-path="url(#pd2e184376b)" d="M 239.5435 224.28 
L 240.831033 224.28 
L 240.831033 221.8635 
L 239.5435 221.8635 
z
"/>
   </g>
   <g id="patch_75">
    <path clip-path="url(#pd2e184376b)" d="M 242.118567 224.28 
L 243.4061 224.28 
L 243.4061 221.843731 
L 242.118567 221.843731 
z
"/>
   </g>
   <g id="patch_76">
    <path clip-path="url(#pd2e184376b)" d="M 244.693633 224.28 
L 245.981167 224.28 
L 245.981167 221.835591 
L 244.693633 221.835591 
z
"/>
   </g>
   <g id="patch_77">
    <path clip-path="url(#pd2e184376b)" d="M 247.2687 224.28 
L 248.556233 224.28 
L 248.556233 221.818729 
L 247.2687 221.818729 
z
"/>
   </g>
   <g id="patch_78">
    <path clip-path="url(#pd2e184376b)" d="M 249.843767 224.28 
L 251.1313 224.28 
L 251.1313 221.780353 
L 249.843767 221.780353 
z
"/>
   </g>
   <g id="patch_79">
    <path clip-path="url(#pd2e184376b)" d="M 252.418833 224.28 
L 253.706367 224.28 
L 253.706367 221.576846 
L 252.418833 221.576846 
z
"/>
   </g>
   <g id="patch_80">
    <path clip-path="url(#pd2e184376b)" d="M 254.9939 224.28 
L 256.281433 224.28 
L 256.281433 221.415204 
L 254.9939 221.415204 
z
"/>
   </g>
   <g id="patch_81">
    <path clip-path="url(#pd2e184376b)" d="M 257.568967 224.28 
L 258.8565 224.28 
L 258.8565 221.318683 
L 257.568967 221.318683 
z
"/>
   </g>
   <g id="patch_82">
    <path clip-path="url(#pd2e184376b)" d="M 260.144033 224.28 
L 261.431567 224.28 
L 261.431567 221.25705 
L 260.144033 221.25705 
z
"/>
   </g>
   <g id="patch_83">
    <path clip-path="url(#pd2e184376b)" d="M 262.7191 224.28 
L 264.006633 224.28 
L 264.006633 221.169251 
L 262.7191 221.169251 
z
"/>
   </g>
   <g id="patch_84">
    <path clip-path="url(#pd2e184376b)" d="M 265.294167 224.28 
L 266.5817 224.28 
L 266.5817 221.003538 
L 265.294167 221.003538 
z
"/>
   </g>
   <g id="patch_85">
    <path clip-path="url(#pd2e184376b)" d="M 267.869233 224.28 
L 269.156767 224.28 
L 269.156767 220.931439 
L 267.869233 220.931439 
z
"/>
   </g>
   <g id="patch_86">
    <path clip-path="url(#pd2e184376b)" d="M 270.4443 224.28 
L 271.731833 224.28 
L 271.731833 220.74712 
L 270.4443 220.74712 
z
"/>
   </g>
   <g id="patch_87">
    <path clip-path="url(#pd2e184376b)" d="M 273.019367 224.28 
L 274.3069 224.28 
L 274.3069 220.71107 
L 273.019367 220.71107 
z
"/>
   </g>
   <g id="patch_88">
    <path clip-path="url(#pd2e184376b)" d="M 275.594433 224.28 
L 276.881967 224.28 
L 276.881967 220.603502 
L 275.594433 220.603502 
z
"/>
   </g>
   <g id="patch_89">
    <path clip-path="url(#pd2e184376b)" d="M 278.1695 224.28 
L 279.457033 224.28 
L 279.457033 220.233701 
L 278.1695 220.233701 
z
"/>
   </g>
   <g id="patch_90">
    <path clip-path="url(#pd2e184376b)" d="M 280.744567 224.28 
L 282.0321 224.28 
L 282.0321 220.040078 
L 280.744567 220.040078 
z
"/>
   </g>
   <g id="patch_91">
    <path clip-path="url(#pd2e184376b)" d="M 283.319633 224.28 
L 284.607167 224.28 
L 284.607167 219.970886 
L 283.319633 219.970886 
z
"/>
   </g>
   <g id="patch_92">
    <path clip-path="url(#pd2e184376b)" d="M 285.8947 224.28 
L 287.182233 224.28 
L 287.182233 219.945302 
L 285.8947 219.945302 
z
"/>
   </g>
   <g id="patch_93">
    <path clip-path="url(#pd2e184376b)" d="M 288.469767 224.28 
L 289.7573 224.28 
L 289.7573 219.832501 
L 288.469767 219.832501 
z
"/>
   </g>
   <g id="patch_94">
    <path clip-path="url(#pd2e184376b)" d="M 291.044833 224.28 
L 292.332367 224.28 
L 292.332367 219.665044 
L 291.044833 219.665044 
z
"/>
   </g>
   <g id="patch_95">
    <path clip-path="url(#pd2e184376b)" d="M 293.6199 224.28 
L 294.907433 224.28 
L 294.907433 219.47491 
L 293.6199 219.47491 
z
"/>
   </g>
   <g id="patch_96">
    <path clip-path="url(#pd2e184376b)" d="M 296.194967 224.28 
L 297.4825 224.28 
L 297.4825 219.404555 
L 296.194967 219.404555 
z
"/>
   </g>
   <g id="patch_97">
    <path clip-path="url(#pd2e184376b)" d="M 298.770033 224.28 
L 300.057567 224.28 
L 300.057567 219.269078 
L 298.770033 219.269078 
z
"/>
   </g>
   <g id="patch_98">
    <path clip-path="url(#pd2e184376b)" d="M 301.3451 224.28 
L 302.632633 224.28 
L 302.632633 219.193489 
L 301.3451 219.193489 
z
"/>
   </g>
   <g id="patch_99">
    <path clip-path="url(#pd2e184376b)" d="M 303.920167 224.28 
L 305.2077 224.28 
L 305.2077 219.172557 
L 303.920167 219.172557 
z
"/>
   </g>
   <g id="patch_100">
    <path clip-path="url(#pd2e184376b)" d="M 306.495233 224.28 
L 307.782767 224.28 
L 307.782767 219.016729 
L 306.495233 219.016729 
z
"/>
   </g>
   <g id="patch_101">
    <path clip-path="url(#pd2e184376b)" d="M 309.0703 224.28 
L 310.357833 224.28 
L 310.357833 218.993471 
L 309.0703 218.993471 
z
"/>
   </g>
   <g id="patch_102">
    <path clip-path="url(#pd2e184376b)" d="M 311.645367 224.28 
L 312.9329 224.28 
L 312.9329 218.99289 
L 311.645367 218.99289 
z
"/>
   </g>
   <g id="patch_103">
    <path clip-path="url(#pd2e184376b)" d="M 314.220433 224.28 
L 315.507967 224.28 
L 315.507967 218.726586 
L 314.220433 218.726586 
z
"/>
   </g>
   <g id="patch_104">
    <path clip-path="url(#pd2e184376b)" d="M 316.7955 224.28 
L 318.083033 224.28 
L 318.083033 218.485867 
L 316.7955 218.485867 
z
"/>
   </g>
   <g id="patch_105">
    <path clip-path="url(#pd2e184376b)" d="M 319.370567 224.28 
L 320.6581 224.28 
L 320.6581 218.265498 
L 319.370567 218.265498 
z
"/>
   </g>
   <g id="patch_106">
    <path clip-path="url(#pd2e184376b)" d="M 321.945633 224.28 
L 323.233167 224.28 
L 323.233167 218.118973 
L 321.945633 218.118973 
z
"/>
   </g>
   <g id="patch_107">
    <path clip-path="url(#pd2e184376b)" d="M 324.5207 224.28 
L 325.808233 224.28 
L 325.808233 217.829993 
L 324.5207 217.829993 
z
"/>
   </g>
   <g id="patch_108">
    <path clip-path="url(#pd2e184376b)" d="M 327.095767 224.28 
L 328.3833 224.28 
L 328.3833 217.536361 
L 327.095767 217.536361 
z
"/>
   </g>
   <g id="patch_109">
    <path clip-path="url(#pd2e184376b)" d="M 329.670833 224.28 
L 330.958367 224.28 
L 330.958367 217.313667 
L 329.670833 217.313667 
z
"/>
   </g>
   <g id="patch_110">
    <path clip-path="url(#pd2e184376b)" d="M 332.2459 224.28 
L 333.533433 224.28 
L 333.533433 217.002592 
L 332.2459 217.002592 
z
"/>
   </g>
   <g id="patch_111">
    <path clip-path="url(#pd2e184376b)" d="M 334.820967 224.28 
L 336.1085 224.28 
L 336.1085 216.573483 
L 334.820967 216.573483 
z
"/>
   </g>
   <g id="patch_112">
    <path clip-path="url(#pd2e184376b)" d="M 337.396033 224.28 
L 338.683567 224.28 
L 338.683567 216.058901 
L 337.396033 216.058901 
z
"/>
   </g>
   <g id="patch_113">
    <path clip-path="url(#pd2e184376b)" d="M 339.9711 224.28 
L 341.258633 224.28 
L 341.258633 215.925749 
L 339.9711 215.925749 
z
"/>
   </g>
   <g id="patch_114">
    <path clip-path="url(#pd2e184376b)" d="M 342.546167 224.28 
L 343.8337 224.28 
L 343.8337 215.202428 
L 342.546167 215.202428 
z
"/>
   </g>
   <g id="patch_115">
    <path clip-path="url(#pd2e184376b)" d="M 345.121233 224.28 
L 346.408767 224.28 
L 346.408767 213.956384 
L 345.121233 213.956384 
z
"/>
   </g>
   <g id="patch_116">
    <path clip-path="url(#pd2e184376b)" d="M 347.6963 224.28 
L 348.983833 224.28 
L 348.983833 212.519625 
L 347.6963 212.519625 
z
"/>
   </g>
   <g id="patch_117">
    <path clip-path="url(#pd2e184376b)" d="M 350.271367 224.28 
L 351.5589 224.28 
L 351.5589 212.487064 
L 350.271367 212.487064 
z
"/>
   </g>
   <g id="patch_118">
    <path clip-path="url(#pd2e184376b)" d="M 352.846433 224.28 
L 354.133967 224.28 
L 354.133967 210.767139 
L 352.846433 210.767139 
z
"/>
   </g>
   <g id="patch_119">
    <path clip-path="url(#pd2e184376b)" d="M 355.4215 224.28 
L 356.709033 224.28 
L 356.709033 210.483392 
L 355.4215 210.483392 
z
"/>
   </g>
   <g id="patch_120">
    <path clip-path="url(#pd2e184376b)" d="M 357.996567 224.28 
L 359.2841 224.28 
L 359.2841 209.532724 
L 357.996567 209.532724 
z
"/>
   </g>
   <g id="patch_121">
    <path clip-path="url(#pd2e184376b)" d="M 360.571633 224.28 
L 361.859167 224.28 
L 361.859167 208.426228 
L 360.571633 208.426228 
z
"/>
   </g>
   <g id="patch_122">
    <path clip-path="url(#pd2e184376b)" d="M 363.1467 224.28 
L 364.434233 224.28 
L 364.434233 207.679648 
L 363.1467 207.679648 
z
"/>
   </g>
   <g id="patch_123">
    <path clip-path="url(#pd2e184376b)" d="M 365.721767 224.28 
L 367.0093 224.28 
L 367.0093 206.665602 
L 365.721767 206.665602 
z
"/>
   </g>
   <g id="patch_124">
    <path clip-path="url(#pd2e184376b)" d="M 368.296833 224.28 
L 369.584367 224.28 
L 369.584367 206.663276 
L 368.296833 206.663276 
z
"/>
   </g>
   <g id="patch_125">
    <path clip-path="url(#pd2e184376b)" d="M 370.8719 224.28 
L 372.159433 224.28 
L 372.159433 206.431279 
L 370.8719 206.431279 
z
"/>
   </g>
   <g id="patch_126">
    <path clip-path="url(#pd2e184376b)" d="M 373.446967 224.28 
L 374.7345 224.28 
L 374.7345 206.394066 
L 373.446967 206.394066 
z
"/>
   </g>
   <g id="patch_127">
    <path clip-path="url(#pd2e184376b)" d="M 376.022033 224.28 
L 377.309567 224.28 
L 377.309567 205.202678 
L 376.022033 205.202678 
z
"/>
   </g>
   <g id="patch_128">
    <path clip-path="url(#pd2e184376b)" d="M 378.5971 224.28 
L 379.884633 224.28 
L 379.884633 204.654372 
L 378.5971 204.654372 
z
"/>
   </g>
   <g id="patch_129">
    <path clip-path="url(#pd2e184376b)" d="M 381.172167 224.28 
L 382.4597 224.28 
L 382.4597 203.447867 
L 381.172167 203.447867 
z
"/>
   </g>
   <g id="patch_130">
    <path clip-path="url(#pd2e184376b)" d="M 383.747233 224.28 
L 385.034767 224.28 
L 385.034767 201.659913 
L 383.747233 201.659913 
z
"/>
   </g>
   <g id="patch_131">
    <path clip-path="url(#pd2e184376b)" d="M 386.3223 224.28 
L 387.609833 224.28 
L 387.609833 197.295561 
L 386.3223 197.295561 
z
"/>
   </g>
   <g id="patch_132">
    <path clip-path="url(#pd2e184376b)" d="M 388.897367 224.28 
L 390.1849 224.28 
L 390.1849 195.466906 
L 388.897367 195.466906 
z
"/>
   </g>
   <g id="patch_133">
    <path clip-path="url(#pd2e184376b)" d="M 391.472433 224.28 
L 392.759967 224.28 
L 392.759967 194.83429 
L 391.472433 194.83429 
z
"/>
   </g>
   <g id="patch_134">
    <path clip-path="url(#pd2e184376b)" d="M 394.0475 224.28 
L 395.335033 224.28 
L 395.335033 148.387611 
L 394.0475 148.387611 
z
"/>
   </g>
   <g id="patch_135">
    <path clip-path="url(#pd2e184376b)" d="M 396.622567 224.28 
L 397.9101 224.28 
L 397.9101 74.213402 
L 396.622567 74.213402 
z
"/>
   </g>
   <g id="patch_136">
    <path clip-path="url(#pd2e184376b)" d="M 399.197633 224.28 
L 400.485167 224.28 
L 400.485167 41.11794 
L 399.197633 41.11794 
z
"/>
   </g>
   <g id="patch_137">
    <path clip-path="url(#pd2e184376b)" d="M 401.7727 224.28 
L 403.060233 224.28 
L 403.060233 39.48 
L 401.7727 39.48 
z
"/>
   </g>
   <g id="matplotlib.axis_1">
    <g id="ytick_1">
     <g id="line2d_1">
      <defs>
       <path d="M 0 0 
L -3.5 0 
" id="me2ef3e4dd7" style="stroke:#000000;stroke-width:0.8;"/>
      </defs>
      <g>
       <use style="stroke:#000000;stroke-width:0.8;" x="56.07" xlink:href="#me2ef3e4dd7" y="224.28"/>
      </g>
     </g>
     <g id="text_1">
      <!-- 0 -->
      <g transform="translate(42.7075 228.079219)scale(0.1 -0.1)">
       <defs>
        <path d="M 31.78125 66.40625 
Q 24.171875 66.40625 20.328125 58.90625 
Q 16.5 51.421875 16.5 36.375 
Q 16.5 21.390625 20.328125 13.890625 
Q 24.171875 6.390625 31.78125 6.390625 
Q 39.453125 6.390625 43.28125 13.890625 
Q 47.125 21.390625 47.125 36.375 
Q 47.125 51.421875 43.28125 58.90625 
Q 39.453125 66.40625 31.78125 66.40625 
z
M 31.78125 74.21875 
Q 44.046875 74.21875 50.515625 64.515625 
Q 56.984375 54.828125 56.984375 36.375 
Q 56.984375 17.96875 50.515625 8.265625 
Q 44.046875 -1.421875 31.78125 -1.421875 
Q 19.53125 -1.421875 13.0625 8.265625 
Q 6.59375 17.96875 6.59375 36.375 
Q 6.59375 54.828125 13.0625 64.515625 
Q 19.53125 74.21875 31.78125 74.21875 
z
" id="DejaVuSans-48"/>
       </defs>
       <use xlink:href="#DejaVuSans-48"/>
      </g>
     </g>
    </g>
    <g id="ytick_2">
     <g id="line2d_2">
      <g>
       <use style="stroke:#000000;stroke-width:0.8;" x="56.07" xlink:href="#me2ef3e4dd7" y="195.20758"/>
      </g>
     </g>
     <g id="text_2">
      <!-- 50 -->
      <g transform="translate(36.345 199.006799)scale(0.1 -0.1)">
       <defs>
        <path d="M 10.796875 72.90625 
L 49.515625 72.90625 
L 49.515625 64.59375 
L 19.828125 64.59375 
L 19.828125 46.734375 
Q 21.96875 47.46875 24.109375 47.828125 
Q 26.265625 48.1875 28.421875 48.1875 
Q 40.625 48.1875 47.75 41.5 
Q 54.890625 34.8125 54.890625 23.390625 
Q 54.890625 11.625 47.5625 5.09375 
Q 40.234375 -1.421875 26.90625 -1.421875 
Q 22.3125 -1.421875 17.546875 -0.640625 
Q 12.796875 0.140625 7.71875 1.703125 
L 7.71875 11.625 
Q 12.109375 9.234375 16.796875 8.0625 
Q 21.484375 6.890625 26.703125 6.890625 
Q 35.15625 6.890625 40.078125 11.328125 
Q 45.015625 15.765625 45.015625 23.390625 
Q 45.015625 31 40.078125 35.4375 
Q 35.15625 39.890625 26.703125 39.890625 
Q 22.75 39.890625 18.8125 39.015625 
Q 14.890625 38.140625 10.796875 36.28125 
z
" id="DejaVuSans-53"/>
       </defs>
       <use xlink:href="#DejaVuSans-53"/>
       <use x="63.623047" xlink:href="#DejaVuSans-48"/>
      </g>
     </g>
    </g>
    <g id="ytick_3">
     <g id="line2d_3">
      <g>
       <use style="stroke:#000000;stroke-width:0.8;" x="56.07" xlink:href="#me2ef3e4dd7" y="166.13516"/>
      </g>
     </g>
     <g id="text_3">
      <!-- 100 -->
      <g transform="translate(29.9825 169.934379)scale(0.1 -0.1)">
       <defs>
        <path d="M 12.40625 8.296875 
L 28.515625 8.296875 
L 28.515625 63.921875 
L 10.984375 60.40625 
L 10.984375 69.390625 
L 28.421875 72.90625 
L 38.28125 72.90625 
L 38.28125 8.296875 
L 54.390625 8.296875 
L 54.390625 0 
L 12.40625 0 
z
" id="DejaVuSans-49"/>
       </defs>
       <use xlink:href="#DejaVuSans-49"/>
       <use x="63.623047" xlink:href="#DejaVuSans-48"/>
       <use x="127.246094" xlink:href="#DejaVuSans-48"/>
      </g>
     </g>
    </g>
    <g id="ytick_4">
     <g id="line2d_4">
      <g>
       <use style="stroke:#000000;stroke-width:0.8;" x="56.07" xlink:href="#me2ef3e4dd7" y="137.06274"/>
      </g>
     </g>
     <g id="text_4">
      <!-- 150 -->
      <g transform="translate(29.9825 140.861959)scale(0.1 -0.1)">
       <use xlink:href="#DejaVuSans-49"/>
       <use x="63.623047" xlink:href="#DejaVuSans-53"/>
       <use x="127.246094" xlink:href="#DejaVuSans-48"/>
      </g>
     </g>
    </g>
    <g id="ytick_5">
     <g id="line2d_5">
      <g>
       <use style="stroke:#000000;stroke-width:0.8;" x="56.07" xlink:href="#me2ef3e4dd7" y="107.99032"/>
      </g>
     </g>
     <g id="text_5">
      <!-- 200 -->
      <g transform="translate(29.9825 111.789539)scale(0.1 -0.1)">
       <defs>
        <path d="M 19.1875 8.296875 
L 53.609375 8.296875 
L 53.609375 0 
L 7.328125 0 
L 7.328125 8.296875 
Q 12.9375 14.109375 22.625 23.890625 
Q 32.328125 33.6875 34.8125 36.53125 
Q 39.546875 41.84375 41.421875 45.53125 
Q 43.3125 49.21875 43.3125 52.78125 
Q 43.3125 58.59375 39.234375 62.25 
Q 35.15625 65.921875 28.609375 65.921875 
Q 23.96875 65.921875 18.8125 64.3125 
Q 13.671875 62.703125 7.8125 59.421875 
L 7.8125 69.390625 
Q 13.765625 71.78125 18.9375 73 
Q 24.125 74.21875 28.421875 74.21875 
Q 39.75 74.21875 46.484375 68.546875 
Q 53.21875 62.890625 53.21875 53.421875 
Q 53.21875 48.921875 51.53125 44.890625 
Q 49.859375 40.875 45.40625 35.40625 
Q 44.1875 33.984375 37.640625 27.21875 
Q 31.109375 20.453125 19.1875 8.296875 
z
" id="DejaVuSans-50"/>
       </defs>
       <use xlink:href="#DejaVuSans-50"/>
       <use x="63.623047" xlink:href="#DejaVuSans-48"/>
       <use x="127.246094" xlink:href="#DejaVuSans-48"/>
      </g>
     </g>
    </g>
    <g id="ytick_6">
     <g id="line2d_6">
      <g>
       <use style="stroke:#000000;stroke-width:0.8;" x="56.07" xlink:href="#me2ef3e4dd7" y="78.9179"/>
      </g>
     </g>
     <g id="text_6">
      <!-- 250 -->
      <g transform="translate(29.9825 82.717119)scale(0.1 -0.1)">
       <use xlink:href="#DejaVuSans-50"/>
       <use x="63.623047" xlink:href="#DejaVuSans-53"/>
       <use x="127.246094" xlink:href="#DejaVuSans-48"/>
      </g>
     </g>
    </g>
    <g id="ytick_7">
     <g id="line2d_7">
      <g>
       <use style="stroke:#000000;stroke-width:0.8;" x="56.07" xlink:href="#me2ef3e4dd7" y="49.845481"/>
      </g>
     </g>
     <g id="text_7">
      <!-- 300 -->
      <g transform="translate(29.9825 53.644699)scale(0.1 -0.1)">
       <defs>
        <path d="M 40.578125 39.3125 
Q 47.65625 37.796875 51.625 33 
Q 55.609375 28.21875 55.609375 21.1875 
Q 55.609375 10.40625 48.1875 4.484375 
Q 40.765625 -1.421875 27.09375 -1.421875 
Q 22.515625 -1.421875 17.65625 -0.515625 
Q 12.796875 0.390625 7.625 2.203125 
L 7.625 11.71875 
Q 11.71875 9.328125 16.59375 8.109375 
Q 21.484375 6.890625 26.8125 6.890625 
Q 36.078125 6.890625 40.9375 10.546875 
Q 45.796875 14.203125 45.796875 21.1875 
Q 45.796875 27.640625 41.28125 31.265625 
Q 36.765625 34.90625 28.71875 34.90625 
L 20.21875 34.90625 
L 20.21875 43.015625 
L 29.109375 43.015625 
Q 36.375 43.015625 40.234375 45.921875 
Q 44.09375 48.828125 44.09375 54.296875 
Q 44.09375 59.90625 40.109375 62.90625 
Q 36.140625 65.921875 28.71875 65.921875 
Q 24.65625 65.921875 20.015625 65.03125 
Q 15.375 64.15625 9.8125 62.3125 
L 9.8125 71.09375 
Q 15.4375 72.65625 20.34375 73.4375 
Q 25.25 74.21875 29.59375 74.21875 
Q 40.828125 74.21875 47.359375 69.109375 
Q 53.90625 64.015625 53.90625 55.328125 
Q 53.90625 49.265625 50.4375 45.09375 
Q 46.96875 40.921875 40.578125 39.3125 
z
" id="DejaVuSans-51"/>
       </defs>
       <use xlink:href="#DejaVuSans-51"/>
       <use x="63.623047" xlink:href="#DejaVuSans-48"/>
       <use x="127.246094" xlink:href="#DejaVuSans-48"/>
      </g>
     </g>
    </g>
   </g>
   <g id="patch_138">
    <path d="M 56.07 224.28 
L 56.07 30.24 
" style="fill:none;stroke:#000000;stroke-linecap:square;stroke-linejoin:miter;stroke-width:0.8;"/>
   </g>
   <g id="patch_139">
    <path d="M 403.704 224.28 
L 403.704 30.24 
" style="fill:none;stroke:#000000;stroke-linecap:square;stroke-linejoin:miter;stroke-width:0.8;"/>
   </g>
   <g id="patch_140">
    <path d="M 56.07 224.28 
L 403.704 224.28 
" style="fill:none;stroke:#000000;stroke-linecap:square;stroke-linejoin:miter;stroke-width:0.8;"/>
   </g>
   <g id="patch_141">
    <path d="M 56.07 30.24 
L 403.704 30.24 
" style="fill:none;stroke:#000000;stroke-linecap:square;stroke-linejoin:miter;stroke-width:0.8;"/>
   </g>
  </g>
 </g>
 <defs>
  <clipPath id="pd2e184376b">
   <rect height="194.04" width="347.634" x="56.07" y="30.24"/>
  </clipPath>
 </defs>
</svg>
