<?xml version="1.0" encoding="utf-8" standalone="no"?>
<!DOCTYPE svg PUBLIC "-//W3C//DTD SVG 1.1//EN"
  "http://www.w3.org/Graphics/SVG/1.1/DTD/svg11.dtd">
<!-- Created with matplotlib (https://matplotlib.org/) -->
<svg height="252pt" version="1.1" viewBox="0 0 448.56 252" width="448.56pt" xmlns="http://www.w3.org/2000/svg" xmlns:xlink="http://www.w3.org/1999/xlink">
 <metadata>
  <rdf:RDF xmlns:cc="http://creativecommons.org/ns#" xmlns:dc="http://purl.org/dc/elements/1.1/" xmlns:rdf="http://www.w3.org/1999/02/22-rdf-syntax-ns#">
   <cc:Work>
    <dc:type rdf:resource="http://purl.org/dc/dcmitype/StillImage"/>
    <dc:date>2021-08-15T12:11:30.390177</dc:date>
    <dc:format>image/svg+xml</dc:format>
    <dc:creator>
     <cc:Agent>
      <dc:title>Matplotlib v3.3.4, https://matplotlib.org/</dc:title>
     </cc:Agent>
    </dc:creator>
   </cc:Work>
  </rdf:RDF>
 </metadata>
 <defs>
  <style type="text/css">*{stroke-linecap:butt;stroke-linejoin:round;}</style>
 </defs>
 <g id="figure_1">
  <g id="patch_1">
   <path d="M 0 252 
L 448.56 252 
L 448.56 0 
L 0 0 
z
" style="fill:none;"/>
  </g>
  <g id="axes_1">
   <g id="patch_2">
    <path d="M 56.07 224.28 
L 403.704 224.28 
L 403.704 30.24 
L 56.07 30.24 
z
" style="fill:none;"/>
   </g>
   <g id="patch_3">
    <path clip-path="url(#p9d48369f92)" d="M 56.738527 71471.148137 
L 58.075581 71471.148137 
L 58.075581 215.46 
L 56.738527 215.46 
z
"/>
   </g>
   <g id="patch_4">
    <path clip-path="url(#p9d48369f92)" d="M 59.412635 71471.148137 
L 60.749688 71471.148137 
L 60.749688 214.997693 
L 59.412635 214.997693 
z
"/>
   </g>
   <g id="patch_5">
    <path clip-path="url(#p9d48369f92)" d="M 62.086742 71471.148137 
L 63.423796 71471.148137 
L 63.423796 213.982082 
L 62.086742 213.982082 
z
"/>
   </g>
   <g id="patch_6">
    <path clip-path="url(#p9d48369f92)" d="M 64.76085 71471.148137 
L 66.097904 71471.148137 
L 66.097904 213.926625 
L 64.76085 213.926625 
z
"/>
   </g>
   <g id="patch_7">
    <path clip-path="url(#p9d48369f92)" d="M 67.434958 71471.148137 
L 68.772012 71471.148137 
L 68.772012 213.898933 
L 67.434958 213.898933 
z
"/>
   </g>
   <g id="patch_8">
    <path clip-path="url(#p9d48369f92)" d="M 70.109065 71471.148137 
L 71.446119 71471.148137 
L 71.446119 213.295909 
L 70.109065 213.295909 
z
"/>
   </g>
   <g id="patch_9">
    <path clip-path="url(#p9d48369f92)" d="M 72.783173 71471.148137 
L 74.120227 71471.148137 
L 74.120227 213.133467 
L 72.783173 213.133467 
z
"/>
   </g>
   <g id="patch_10">
    <path clip-path="url(#p9d48369f92)" d="M 75.457281 71471.148137 
L 76.794335 71471.148137 
L 76.794335 212.971873 
L 75.457281 212.971873 
z
"/>
   </g>
   <g id="patch_11">
    <path clip-path="url(#p9d48369f92)" d="M 78.131388 71471.148137 
L 79.468442 71471.148137 
L 79.468442 212.386479 
L 78.131388 212.386479 
z
"/>
   </g>
   <g id="patch_12">
    <path clip-path="url(#p9d48369f92)" d="M 80.805496 71471.148137 
L 82.14255 71471.148137 
L 82.14255 210.594284 
L 80.805496 210.594284 
z
"/>
   </g>
   <g id="patch_13">
    <path clip-path="url(#p9d48369f92)" d="M 83.479604 71471.148137 
L 84.816658 71471.148137 
L 84.816658 210.445389 
L 83.479604 210.445389 
z
"/>
   </g>
   <g id="patch_14">
    <path clip-path="url(#p9d48369f92)" d="M 86.153712 71471.148137 
L 87.490765 71471.148137 
L 87.490765 210.174263 
L 86.153712 210.174263 
z
"/>
   </g>
   <g id="patch_15">
    <path clip-path="url(#p9d48369f92)" d="M 88.827819 71471.148137 
L 90.164873 71471.148137 
L 90.164873 208.665614 
L 88.827819 208.665614 
z
"/>
   </g>
   <g id="patch_16">
    <path clip-path="url(#p9d48369f92)" d="M 91.501927 71471.148137 
L 92.838981 71471.148137 
L 92.838981 208.316998 
L 91.501927 208.316998 
z
"/>
   </g>
   <g id="patch_17">
    <path clip-path="url(#p9d48369f92)" d="M 94.176035 71471.148137 
L 95.513088 71471.148137 
L 95.513088 207.926591 
L 94.176035 207.926591 
z
"/>
   </g>
   <g id="patch_18">
    <path clip-path="url(#p9d48369f92)" d="M 96.850142 71471.148137 
L 98.187196 71471.148137 
L 98.187196 207.563594 
L 96.850142 207.563594 
z
"/>
   </g>
   <g id="patch_19">
    <path clip-path="url(#p9d48369f92)" d="M 99.52425 71471.148137 
L 100.861304 71471.148137 
L 100.861304 207.271762 
L 99.52425 207.271762 
z
"/>
   </g>
   <g id="patch_20">
    <path clip-path="url(#p9d48369f92)" d="M 102.198358 71471.148137 
L 103.535412 71471.148137 
L 103.535412 207.093532 
L 102.198358 207.093532 
z
"/>
   </g>
   <g id="patch_21">
    <path clip-path="url(#p9d48369f92)" d="M 104.872465 71471.148137 
L 106.209519 71471.148137 
L 106.209519 207.093532 
L 104.872465 207.093532 
z
"/>
   </g>
   <g id="patch_22">
    <path clip-path="url(#p9d48369f92)" d="M 107.546573 71471.148137 
L 108.883627 71471.148137 
L 108.883627 206.828097 
L 107.546573 206.828097 
z
"/>
   </g>
   <g id="patch_23">
    <path clip-path="url(#p9d48369f92)" d="M 110.220681 71471.148137 
L 111.557735 71471.148137 
L 111.557735 206.347301 
L 110.220681 206.347301 
z
"/>
   </g>
   <g id="patch_24">
    <path clip-path="url(#p9d48369f92)" d="M 112.894788 71471.148137 
L 114.231842 71471.148137 
L 114.231842 206.002265 
L 112.894788 206.002265 
z
"/>
   </g>
   <g id="patch_25">
    <path clip-path="url(#p9d48369f92)" d="M 115.568896 71471.148137 
L 116.90595 71471.148137 
L 116.90595 205.852513 
L 115.568896 205.852513 
z
"/>
   </g>
   <g id="patch_26">
    <path clip-path="url(#p9d48369f92)" d="M 118.243004 71471.148137 
L 119.580058 71471.148137 
L 119.580058 205.4286 
L 118.243004 205.4286 
z
"/>
   </g>
   <g id="patch_27">
    <path clip-path="url(#p9d48369f92)" d="M 120.917112 71471.148137 
L 122.254165 71471.148137 
L 122.254165 202.806272 
L 120.917112 202.806272 
z
"/>
   </g>
   <g id="patch_28">
    <path clip-path="url(#p9d48369f92)" d="M 123.591219 71471.148137 
L 124.928273 71471.148137 
L 124.928273 202.729006 
L 123.591219 202.729006 
z
"/>
   </g>
   <g id="patch_29">
    <path clip-path="url(#p9d48369f92)" d="M 126.265327 71471.148137 
L 127.602381 71471.148137 
L 127.602381 202.28843 
L 126.265327 202.28843 
z
"/>
   </g>
   <g id="patch_30">
    <path clip-path="url(#p9d48369f92)" d="M 128.939435 71471.148137 
L 130.276488 71471.148137 
L 130.276488 201.444164 
L 128.939435 201.444164 
z
"/>
   </g>
   <g id="patch_31">
    <path clip-path="url(#p9d48369f92)" d="M 131.613542 71471.148137 
L 132.950596 71471.148137 
L 132.950596 201.425661 
L 131.613542 201.425661 
z
"/>
   </g>
   <g id="patch_32">
    <path clip-path="url(#p9d48369f92)" d="M 134.28765 71471.148137 
L 135.624704 71471.148137 
L 135.624704 200.784952 
L 134.28765 200.784952 
z
"/>
   </g>
   <g id="patch_33">
    <path clip-path="url(#p9d48369f92)" d="M 136.961758 71471.148137 
L 138.298812 71471.148137 
L 138.298812 199.962561 
L 136.961758 199.962561 
z
"/>
   </g>
   <g id="patch_34">
    <path clip-path="url(#p9d48369f92)" d="M 139.635865 71471.148137 
L 140.972919 71471.148137 
L 140.972919 199.892071 
L 139.635865 199.892071 
z
"/>
   </g>
   <g id="patch_35">
    <path clip-path="url(#p9d48369f92)" d="M 142.309973 71471.148137 
L 143.647027 71471.148137 
L 143.647027 199.455109 
L 142.309973 199.455109 
z
"/>
   </g>
   <g id="patch_36">
    <path clip-path="url(#p9d48369f92)" d="M 144.984081 71471.148137 
L 146.321135 71471.148137 
L 146.321135 199.264783 
L 144.984081 199.264783 
z
"/>
   </g>
   <g id="patch_37">
    <path clip-path="url(#p9d48369f92)" d="M 147.658188 71471.148137 
L 148.995242 71471.148137 
L 148.995242 198.080298 
L 147.658188 198.080298 
z
"/>
   </g>
   <g id="patch_38">
    <path clip-path="url(#p9d48369f92)" d="M 150.332296 71471.148137 
L 151.66935 71471.148137 
L 151.66935 197.733616 
L 150.332296 197.733616 
z
"/>
   </g>
   <g id="patch_39">
    <path clip-path="url(#p9d48369f92)" d="M 153.006404 71471.148137 
L 154.343458 71471.148137 
L 154.343458 197.196559 
L 153.006404 197.196559 
z
"/>
   </g>
   <g id="patch_40">
    <path clip-path="url(#p9d48369f92)" d="M 155.680512 71471.148137 
L 157.017565 71471.148137 
L 157.017565 196.243348 
L 155.680512 196.243348 
z
"/>
   </g>
   <g id="patch_41">
    <path clip-path="url(#p9d48369f92)" d="M 158.354619 71471.148137 
L 159.691673 71471.148137 
L 159.691673 195.963018 
L 158.354619 195.963018 
z
"/>
   </g>
   <g id="patch_42">
    <path clip-path="url(#p9d48369f92)" d="M 161.028727 71471.148137 
L 162.365781 71471.148137 
L 162.365781 195.947518 
L 161.028727 195.947518 
z
"/>
   </g>
   <g id="patch_43">
    <path clip-path="url(#p9d48369f92)" d="M 163.702835 71471.148137 
L 165.039888 71471.148137 
L 165.039888 195.792947 
L 163.702835 195.792947 
z
"/>
   </g>
   <g id="patch_44">
    <path clip-path="url(#p9d48369f92)" d="M 166.376942 71471.148137 
L 167.713996 71471.148137 
L 167.713996 195.37942 
L 166.376942 195.37942 
z
"/>
   </g>
   <g id="patch_45">
    <path clip-path="url(#p9d48369f92)" d="M 169.05105 71471.148137 
L 170.388104 71471.148137 
L 170.388104 195.318624 
L 169.05105 195.318624 
z
"/>
   </g>
   <g id="patch_46">
    <path clip-path="url(#p9d48369f92)" d="M 171.725158 71471.148137 
L 173.062212 71471.148137 
L 173.062212 195.227653 
L 171.725158 195.227653 
z
"/>
   </g>
   <g id="patch_47">
    <path clip-path="url(#p9d48369f92)" d="M 174.399265 71471.148137 
L 175.736319 71471.148137 
L 175.736319 194.435486 
L 174.399265 194.435486 
z
"/>
   </g>
   <g id="patch_48">
    <path clip-path="url(#p9d48369f92)" d="M 177.073373 71471.148137 
L 178.410427 71471.148137 
L 178.410427 194.405987 
L 177.073373 194.405987 
z
"/>
   </g>
   <g id="patch_49">
    <path clip-path="url(#p9d48369f92)" d="M 179.747481 71471.148137 
L 181.084535 71471.148137 
L 181.084535 193.67749 
L 179.747481 193.67749 
z
"/>
   </g>
   <g id="patch_50">
    <path clip-path="url(#p9d48369f92)" d="M 182.421588 71471.148137 
L 183.758642 71471.148137 
L 183.758642 192.825344 
L 182.421588 192.825344 
z
"/>
   </g>
   <g id="patch_51">
    <path clip-path="url(#p9d48369f92)" d="M 185.095696 71471.148137 
L 186.43275 71471.148137 
L 186.43275 192.352678 
L 185.095696 192.352678 
z
"/>
   </g>
   <g id="patch_52">
    <path clip-path="url(#p9d48369f92)" d="M 187.769804 71471.148137 
L 189.106858 71471.148137 
L 189.106858 192.146422 
L 187.769804 192.146422 
z
"/>
   </g>
   <g id="patch_53">
    <path clip-path="url(#p9d48369f92)" d="M 190.443912 71471.148137 
L 191.780965 71471.148137 
L 191.780965 191.308189 
L 190.443912 191.308189 
z
"/>
   </g>
   <g id="patch_54">
    <path clip-path="url(#p9d48369f92)" d="M 193.118019 71471.148137 
L 194.455073 71471.148137 
L 194.455073 191.016126 
L 193.118019 191.016126 
z
"/>
   </g>
   <g id="patch_55">
    <path clip-path="url(#p9d48369f92)" d="M 195.792127 71471.148137 
L 197.129181 71471.148137 
L 197.129181 186.832821 
L 195.792127 186.832821 
z
"/>
   </g>
   <g id="patch_56">
    <path clip-path="url(#p9d48369f92)" d="M 198.466235 71471.148137 
L 199.803288 71471.148137 
L 199.803288 186.068987 
L 198.466235 186.068987 
z
"/>
   </g>
   <g id="patch_57">
    <path clip-path="url(#p9d48369f92)" d="M 201.140342 71471.148137 
L 202.477396 71471.148137 
L 202.477396 185.766425 
L 201.140342 185.766425 
z
"/>
   </g>
   <g id="patch_58">
    <path clip-path="url(#p9d48369f92)" d="M 203.81445 71471.148137 
L 205.151504 71471.148137 
L 205.151504 185.12631 
L 203.81445 185.12631 
z
"/>
   </g>
   <g id="patch_59">
    <path clip-path="url(#p9d48369f92)" d="M 206.488558 71471.148137 
L 207.825612 71471.148137 
L 207.825612 182.801836 
L 206.488558 182.801836 
z
"/>
   </g>
   <g id="patch_60">
    <path clip-path="url(#p9d48369f92)" d="M 209.162665 71471.148137 
L 210.499719 71471.148137 
L 210.499719 178.975172 
L 209.162665 178.975172 
z
"/>
   </g>
   <g id="patch_61">
    <path clip-path="url(#p9d48369f92)" d="M 211.836773 71471.148137 
L 213.173827 71471.148137 
L 213.173827 178.725469 
L 211.836773 178.725469 
z
"/>
   </g>
   <g id="patch_62">
    <path clip-path="url(#p9d48369f92)" d="M 214.510881 71471.148137 
L 215.847935 71471.148137 
L 215.847935 177.703335 
L 214.510881 177.703335 
z
"/>
   </g>
   <g id="patch_63">
    <path clip-path="url(#p9d48369f92)" d="M 217.184988 71471.148137 
L 218.522042 71471.148137 
L 218.522042 177.540488 
L 217.184988 177.540488 
z
"/>
   </g>
   <g id="patch_64">
    <path clip-path="url(#p9d48369f92)" d="M 219.859096 71471.148137 
L 221.19615 71471.148137 
L 221.19615 176.448688 
L 219.859096 176.448688 
z
"/>
   </g>
   <g id="patch_65">
    <path clip-path="url(#p9d48369f92)" d="M 222.533204 71471.148137 
L 223.870258 71471.148137 
L 223.870258 175.916901 
L 222.533204 175.916901 
z
"/>
   </g>
   <g id="patch_66">
    <path clip-path="url(#p9d48369f92)" d="M 225.207312 71471.148137 
L 226.544365 71471.148137 
L 226.544365 175.211203 
L 225.207312 175.211203 
z
"/>
   </g>
   <g id="patch_67">
    <path clip-path="url(#p9d48369f92)" d="M 227.881419 71471.148137 
L 229.218473 71471.148137 
L 229.218473 175.179505 
L 227.881419 175.179505 
z
"/>
   </g>
   <g id="patch_68">
    <path clip-path="url(#p9d48369f92)" d="M 230.555527 71471.148137 
L 231.892581 71471.148137 
L 231.892581 174.143621 
L 230.555527 174.143621 
z
"/>
   </g>
   <g id="patch_69">
    <path clip-path="url(#p9d48369f92)" d="M 233.229635 71471.148137 
L 234.566688 71471.148137 
L 234.566688 173.914679 
L 233.229635 173.914679 
z
"/>
   </g>
   <g id="patch_70">
    <path clip-path="url(#p9d48369f92)" d="M 235.903742 71471.148137 
L 237.240796 71471.148137 
L 237.240796 173.401931 
L 235.903742 173.401931 
z
"/>
   </g>
   <g id="patch_71">
    <path clip-path="url(#p9d48369f92)" d="M 238.57785 71471.148137 
L 239.914904 71471.148137 
L 239.914904 173.015484 
L 238.57785 173.015484 
z
"/>
   </g>
   <g id="patch_72">
    <path clip-path="url(#p9d48369f92)" d="M 241.251958 71471.148137 
L 242.589012 71471.148137 
L 242.589012 172.91226 
L 241.251958 172.91226 
z
"/>
   </g>
   <g id="patch_73">
    <path clip-path="url(#p9d48369f92)" d="M 243.926065 71471.148137 
L 245.263119 71471.148137 
L 245.263119 172.699527 
L 243.926065 172.699527 
z
"/>
   </g>
   <g id="patch_74">
    <path clip-path="url(#p9d48369f92)" d="M 246.600173 71471.148137 
L 247.937227 71471.148137 
L 247.937227 172.22076 
L 246.600173 172.22076 
z
"/>
   </g>
   <g id="patch_75">
    <path clip-path="url(#p9d48369f92)" d="M 249.274281 71471.148137 
L 250.611335 71471.148137 
L 250.611335 169.798694 
L 249.274281 169.798694 
z
"/>
   </g>
   <g id="patch_76">
    <path clip-path="url(#p9d48369f92)" d="M 251.948388 71471.148137 
L 253.285442 71471.148137 
L 253.285442 168.001458 
L 251.948388 168.001458 
z
"/>
   </g>
   <g id="patch_77">
    <path clip-path="url(#p9d48369f92)" d="M 254.622496 71471.148137 
L 255.95955 71471.148137 
L 255.95955 166.976037 
L 254.622496 166.976037 
z
"/>
   </g>
   <g id="patch_78">
    <path clip-path="url(#p9d48369f92)" d="M 257.296604 71471.148137 
L 258.633658 71471.148137 
L 258.633658 166.33859 
L 257.296604 166.33859 
z
"/>
   </g>
   <g id="patch_79">
    <path clip-path="url(#p9d48369f92)" d="M 259.970712 71471.148137 
L 261.307765 71471.148137 
L 261.307765 165.452623 
L 259.970712 165.452623 
z
"/>
   </g>
   <g id="patch_80">
    <path clip-path="url(#p9d48369f92)" d="M 262.644819 71471.148137 
L 263.981873 71471.148137 
L 263.981873 163.846552 
L 262.644819 163.846552 
z
"/>
   </g>
   <g id="patch_81">
    <path clip-path="url(#p9d48369f92)" d="M 265.318927 71471.148137 
L 266.655981 71471.148137 
L 266.655981 163.172979 
L 265.318927 163.172979 
z
"/>
   </g>
   <g id="patch_82">
    <path clip-path="url(#p9d48369f92)" d="M 267.993035 71471.148137 
L 269.330088 71471.148137 
L 269.330088 161.514854 
L 267.993035 161.514854 
z
"/>
   </g>
   <g id="patch_83">
    <path clip-path="url(#p9d48369f92)" d="M 270.667142 71471.148137 
L 272.004196 71471.148137 
L 272.004196 161.200688 
L 270.667142 161.200688 
z
"/>
   </g>
   <g id="patch_84">
    <path clip-path="url(#p9d48369f92)" d="M 273.34125 71471.148137 
L 274.678304 71471.148137 
L 274.678304 160.281778 
L 273.34125 160.281778 
z
"/>
   </g>
   <g id="patch_85">
    <path clip-path="url(#p9d48369f92)" d="M 276.015358 71471.148137 
L 277.352412 71471.148137 
L 277.352412 157.315934 
L 276.015358 157.315934 
z
"/>
   </g>
   <g id="patch_86">
    <path clip-path="url(#p9d48369f92)" d="M 278.689465 71471.148137 
L 280.026519 71471.148137 
L 280.026519 155.869495 
L 278.689465 155.869495 
z
"/>
   </g>
   <g id="patch_87">
    <path clip-path="url(#p9d48369f92)" d="M 281.363573 71471.148137 
L 282.700627 71471.148137 
L 282.700627 155.36857 
L 281.363573 155.36857 
z
"/>
   </g>
   <g id="patch_88">
    <path clip-path="url(#p9d48369f92)" d="M 284.037681 71471.148137 
L 285.374735 71471.148137 
L 285.374735 155.185388 
L 284.037681 155.185388 
z
"/>
   </g>
   <g id="patch_89">
    <path clip-path="url(#p9d48369f92)" d="M 286.711788 71471.148137 
L 288.048842 71471.148137 
L 288.048842 154.390408 
L 286.711788 154.390408 
z
"/>
   </g>
   <g id="patch_90">
    <path clip-path="url(#p9d48369f92)" d="M 289.385896 71471.148137 
L 290.72295 71471.148137 
L 290.72295 153.246662 
L 289.385896 153.246662 
z
"/>
   </g>
   <g id="patch_91">
    <path clip-path="url(#p9d48369f92)" d="M 292.060004 71471.148137 
L 293.397058 71471.148137 
L 293.397058 151.997303 
L 292.060004 151.997303 
z
"/>
   </g>
   <g id="patch_92">
    <path clip-path="url(#p9d48369f92)" d="M 294.734112 71471.148137 
L 296.071165 71471.148137 
L 296.071165 151.547495 
L 294.734112 151.547495 
z
"/>
   </g>
   <g id="patch_93">
    <path clip-path="url(#p9d48369f92)" d="M 297.408219 71471.148137 
L 298.745273 71471.148137 
L 298.745273 150.699331 
L 297.408219 150.699331 
z
"/>
   </g>
   <g id="patch_94">
    <path clip-path="url(#p9d48369f92)" d="M 300.082327 71471.148137 
L 301.419381 71471.148137 
L 301.419381 150.236019 
L 300.082327 150.236019 
z
"/>
   </g>
   <g id="patch_95">
    <path clip-path="url(#p9d48369f92)" d="M 302.756435 71471.148137 
L 304.093488 71471.148137 
L 304.093488 150.108934 
L 302.756435 150.108934 
z
"/>
   </g>
   <g id="patch_96">
    <path clip-path="url(#p9d48369f92)" d="M 305.430542 71471.148137 
L 306.767596 71471.148137 
L 306.767596 149.178914 
L 305.430542 149.178914 
z
"/>
   </g>
   <g id="patch_97">
    <path clip-path="url(#p9d48369f92)" d="M 308.10465 71471.148137 
L 309.441704 71471.148137 
L 309.441704 149.042471 
L 308.10465 149.042471 
z
"/>
   </g>
   <g id="patch_98">
    <path clip-path="url(#p9d48369f92)" d="M 310.778758 71471.148137 
L 312.115812 71471.148137 
L 312.115812 149.039068 
L 310.778758 149.039068 
z
"/>
   </g>
   <g id="patch_99">
    <path clip-path="url(#p9d48369f92)" d="M 313.452865 71471.148137 
L 314.789919 71471.148137 
L 314.789919 147.518394 
L 313.452865 147.518394 
z
"/>
   </g>
   <g id="patch_100">
    <path clip-path="url(#p9d48369f92)" d="M 316.126973 71471.148137 
L 317.464027 71471.148137 
L 317.464027 146.205296 
L 316.126973 146.205296 
z
"/>
   </g>
   <g id="patch_101">
    <path clip-path="url(#p9d48369f92)" d="M 318.801081 71471.148137 
L 320.138135 71471.148137 
L 320.138135 145.050186 
L 318.801081 145.050186 
z
"/>
   </g>
   <g id="patch_102">
    <path clip-path="url(#p9d48369f92)" d="M 321.475188 71471.148137 
L 322.812242 71471.148137 
L 322.812242 144.305339 
L 321.475188 144.305339 
z
"/>
   </g>
   <g id="patch_103">
    <path clip-path="url(#p9d48369f92)" d="M 324.149296 71471.148137 
L 325.48635 71471.148137 
L 325.48635 142.886885 
L 324.149296 142.886885 
z
"/>
   </g>
   <g id="patch_104">
    <path clip-path="url(#p9d48369f92)" d="M 326.823404 71471.148137 
L 328.160458 71471.148137 
L 328.160458 141.509258 
L 326.823404 141.509258 
z
"/>
   </g>
   <g id="patch_105">
    <path clip-path="url(#p9d48369f92)" d="M 329.497512 71471.148137 
L 330.834565 71471.148137 
L 330.834565 140.503869 
L 329.497512 140.503869 
z
"/>
   </g>
   <g id="patch_106">
    <path clip-path="url(#p9d48369f92)" d="M 332.171619 71471.148137 
L 333.508673 71471.148137 
L 333.508673 139.152007 
L 332.171619 139.152007 
z
"/>
   </g>
   <g id="patch_107">
    <path clip-path="url(#p9d48369f92)" d="M 334.845727 71471.148137 
L 336.182781 71471.148137 
L 336.182781 137.379112 
L 334.845727 137.379112 
z
"/>
   </g>
   <g id="patch_108">
    <path clip-path="url(#p9d48369f92)" d="M 337.519835 71471.148137 
L 338.856888 71471.148137 
L 338.856888 135.378895 
L 337.519835 135.378895 
z
"/>
   </g>
   <g id="patch_109">
    <path clip-path="url(#p9d48369f92)" d="M 340.193942 71471.148137 
L 341.530996 71471.148137 
L 341.530996 134.881713 
L 340.193942 134.881713 
z
"/>
   </g>
   <g id="patch_110">
    <path clip-path="url(#p9d48369f92)" d="M 342.86805 71471.148137 
L 344.205104 71471.148137 
L 344.205104 132.312142 
L 342.86805 132.312142 
z
"/>
   </g>
   <g id="patch_111">
    <path clip-path="url(#p9d48369f92)" d="M 345.542158 71471.148137 
L 346.879212 71471.148137 
L 346.879212 128.331753 
L 345.542158 128.331753 
z
"/>
   </g>
   <g id="patch_112">
    <path clip-path="url(#p9d48369f92)" d="M 348.216265 71471.148137 
L 349.553319 71471.148137 
L 349.553319 124.299549 
L 348.216265 124.299549 
z
"/>
   </g>
   <g id="patch_113">
    <path clip-path="url(#p9d48369f92)" d="M 350.890373 71471.148137 
L 352.227427 71471.148137 
L 352.227427 124.213989 
L 350.890373 124.213989 
z
"/>
   </g>
   <g id="patch_114">
    <path clip-path="url(#p9d48369f92)" d="M 353.564481 71471.148137 
L 354.901535 71471.148137 
L 354.901535 120.001084 
L 353.564481 120.001084 
z
"/>
   </g>
   <g id="patch_115">
    <path clip-path="url(#p9d48369f92)" d="M 356.238588 71471.148137 
L 357.575642 71471.148137 
L 357.575642 117.295969 
L 356.238588 117.295969 
z
"/>
   </g>
   <g id="patch_116">
    <path clip-path="url(#p9d48369f92)" d="M 358.912696 71471.148137 
L 360.24975 71471.148137 
L 360.24975 115.057117 
L 358.912696 115.057117 
z
"/>
   </g>
   <g id="patch_117">
    <path clip-path="url(#p9d48369f92)" d="M 361.586804 71471.148137 
L 362.923858 71471.148137 
L 362.923858 113.633133 
L 361.586804 113.633133 
z
"/>
   </g>
   <g id="patch_118">
    <path clip-path="url(#p9d48369f92)" d="M 364.260912 71471.148137 
L 365.597965 71471.148137 
L 365.597965 111.798311 
L 364.260912 111.798311 
z
"/>
   </g>
   <g id="patch_119">
    <path clip-path="url(#p9d48369f92)" d="M 366.935019 71471.148137 
L 368.272073 71471.148137 
L 368.272073 111.794225 
L 366.935019 111.794225 
z
"/>
   </g>
   <g id="patch_120">
    <path clip-path="url(#p9d48369f92)" d="M 369.609127 71471.148137 
L 370.946181 71471.148137 
L 370.946181 111.389363 
L 369.609127 111.389363 
z
"/>
   </g>
   <g id="patch_121">
    <path clip-path="url(#p9d48369f92)" d="M 372.283235 71471.148137 
L 373.620288 71471.148137 
L 373.620288 111.324913 
L 372.283235 111.324913 
z
"/>
   </g>
   <g id="patch_122">
    <path clip-path="url(#p9d48369f92)" d="M 374.957342 71471.148137 
L 376.294396 71471.148137 
L 376.294396 109.329395 
L 374.957342 109.329395 
z
"/>
   </g>
   <g id="patch_123">
    <path clip-path="url(#p9d48369f92)" d="M 377.63145 71471.148137 
L 378.968504 71471.148137 
L 378.968504 108.452535 
L 377.63145 108.452535 
z
"/>
   </g>
   <g id="patch_124">
    <path clip-path="url(#p9d48369f92)" d="M 380.305558 71471.148137 
L 381.642612 71471.148137 
L 381.642612 106.606336 
L 380.305558 106.606336 
z
"/>
   </g>
   <g id="patch_125">
    <path clip-path="url(#p9d48369f92)" d="M 382.979665 71471.148137 
L 384.316719 71471.148137 
L 384.316719 104.058262 
L 382.979665 104.058262 
z
"/>
   </g>
   <g id="patch_126">
    <path clip-path="url(#p9d48369f92)" d="M 385.653773 71471.148137 
L 386.990827 71471.148137 
L 386.990827 98.598859 
L 385.653773 98.598859 
z
"/>
   </g>
   <g id="patch_127">
    <path clip-path="url(#p9d48369f92)" d="M 388.327881 71471.148137 
L 389.664935 71471.148137 
L 389.664935 96.5698 
L 388.327881 96.5698 
z
"/>
   </g>
   <g id="patch_128">
    <path clip-path="url(#p9d48369f92)" d="M 391.001988 71471.148137 
L 392.339042 71471.148137 
L 392.339042 95.897725 
L 391.001988 95.897725 
z
"/>
   </g>
   <g id="patch_129">
    <path clip-path="url(#p9d48369f92)" d="M 393.676096 71471.148137 
L 395.01315 71471.148137 
L 395.01315 66.599859 
L 393.676096 66.599859 
z
"/>
   </g>
   <g id="patch_130">
    <path clip-path="url(#p9d48369f92)" d="M 396.350204 71471.148137 
L 397.687258 71471.148137 
L 397.687258 45.502621 
L 396.350204 45.502621 
z
"/>
   </g>
   <g id="patch_131">
    <path clip-path="url(#p9d48369f92)" d="M 399.024312 71471.148137 
L 400.361365 71471.148137 
L 400.361365 39.335499 
L 399.024312 39.335499 
z
"/>
   </g>
   <g id="patch_132">
    <path clip-path="url(#p9d48369f92)" d="M 401.698419 71471.148137 
L 403.035473 71471.148137 
L 403.035473 39.06 
L 401.698419 39.06 
z
"/>
   </g>
   <g id="patch_133">
    <path clip-path="url(#p9d48369f92)" d="M 56.738527 71471.148137 
L 58.075581 71471.148137 
L 58.075581 215.46 
L 56.738527 215.46 
z
"/>
   </g>
   <g id="patch_134">
    <path clip-path="url(#p9d48369f92)" d="M 59.412635 71471.148137 
L 60.749688 71471.148137 
L 60.749688 214.997693 
L 59.412635 214.997693 
z
"/>
   </g>
   <g id="patch_135">
    <path clip-path="url(#p9d48369f92)" d="M 62.086742 71471.148137 
L 63.423796 71471.148137 
L 63.423796 213.982082 
L 62.086742 213.982082 
z
"/>
   </g>
   <g id="patch_136">
    <path clip-path="url(#p9d48369f92)" d="M 64.76085 71471.148137 
L 66.097904 71471.148137 
L 66.097904 213.926625 
L 64.76085 213.926625 
z
"/>
   </g>
   <g id="patch_137">
    <path clip-path="url(#p9d48369f92)" d="M 67.434958 71471.148137 
L 68.772012 71471.148137 
L 68.772012 213.898933 
L 67.434958 213.898933 
z
"/>
   </g>
   <g id="patch_138">
    <path clip-path="url(#p9d48369f92)" d="M 70.109065 71471.148137 
L 71.446119 71471.148137 
L 71.446119 213.295909 
L 70.109065 213.295909 
z
"/>
   </g>
   <g id="patch_139">
    <path clip-path="url(#p9d48369f92)" d="M 72.783173 71471.148137 
L 74.120227 71471.148137 
L 74.120227 213.133467 
L 72.783173 213.133467 
z
"/>
   </g>
   <g id="patch_140">
    <path clip-path="url(#p9d48369f92)" d="M 75.457281 71471.148137 
L 76.794335 71471.148137 
L 76.794335 212.971873 
L 75.457281 212.971873 
z
"/>
   </g>
   <g id="patch_141">
    <path clip-path="url(#p9d48369f92)" d="M 78.131388 71471.148137 
L 79.468442 71471.148137 
L 79.468442 212.386479 
L 78.131388 212.386479 
z
"/>
   </g>
   <g id="patch_142">
    <path clip-path="url(#p9d48369f92)" d="M 80.805496 71471.148137 
L 82.14255 71471.148137 
L 82.14255 210.594284 
L 80.805496 210.594284 
z
"/>
   </g>
   <g id="patch_143">
    <path clip-path="url(#p9d48369f92)" d="M 83.479604 71471.148137 
L 84.816658 71471.148137 
L 84.816658 210.445389 
L 83.479604 210.445389 
z
"/>
   </g>
   <g id="patch_144">
    <path clip-path="url(#p9d48369f92)" d="M 86.153712 71471.148137 
L 87.490765 71471.148137 
L 87.490765 210.174263 
L 86.153712 210.174263 
z
"/>
   </g>
   <g id="patch_145">
    <path clip-path="url(#p9d48369f92)" d="M 88.827819 71471.148137 
L 90.164873 71471.148137 
L 90.164873 208.665614 
L 88.827819 208.665614 
z
"/>
   </g>
   <g id="patch_146">
    <path clip-path="url(#p9d48369f92)" d="M 91.501927 71471.148137 
L 92.838981 71471.148137 
L 92.838981 208.316998 
L 91.501927 208.316998 
z
"/>
   </g>
   <g id="patch_147">
    <path clip-path="url(#p9d48369f92)" d="M 94.176035 71471.148137 
L 95.513088 71471.148137 
L 95.513088 207.926591 
L 94.176035 207.926591 
z
"/>
   </g>
   <g id="patch_148">
    <path clip-path="url(#p9d48369f92)" d="M 96.850142 71471.148137 
L 98.187196 71471.148137 
L 98.187196 207.563594 
L 96.850142 207.563594 
z
"/>
   </g>
   <g id="patch_149">
    <path clip-path="url(#p9d48369f92)" d="M 99.52425 71471.148137 
L 100.861304 71471.148137 
L 100.861304 207.271762 
L 99.52425 207.271762 
z
"/>
   </g>
   <g id="patch_150">
    <path clip-path="url(#p9d48369f92)" d="M 102.198358 71471.148137 
L 103.535412 71471.148137 
L 103.535412 207.093532 
L 102.198358 207.093532 
z
"/>
   </g>
   <g id="patch_151">
    <path clip-path="url(#p9d48369f92)" d="M 104.872465 71471.148137 
L 106.209519 71471.148137 
L 106.209519 207.093532 
L 104.872465 207.093532 
z
"/>
   </g>
   <g id="patch_152">
    <path clip-path="url(#p9d48369f92)" d="M 107.546573 71471.148137 
L 108.883627 71471.148137 
L 108.883627 206.828097 
L 107.546573 206.828097 
z
"/>
   </g>
   <g id="patch_153">
    <path clip-path="url(#p9d48369f92)" d="M 110.220681 71471.148137 
L 111.557735 71471.148137 
L 111.557735 206.347301 
L 110.220681 206.347301 
z
"/>
   </g>
   <g id="patch_154">
    <path clip-path="url(#p9d48369f92)" d="M 112.894788 71471.148137 
L 114.231842 71471.148137 
L 114.231842 206.002265 
L 112.894788 206.002265 
z
"/>
   </g>
   <g id="patch_155">
    <path clip-path="url(#p9d48369f92)" d="M 115.568896 71471.148137 
L 116.90595 71471.148137 
L 116.90595 205.852513 
L 115.568896 205.852513 
z
"/>
   </g>
   <g id="patch_156">
    <path clip-path="url(#p9d48369f92)" d="M 118.243004 71471.148137 
L 119.580058 71471.148137 
L 119.580058 205.4286 
L 118.243004 205.4286 
z
"/>
   </g>
   <g id="patch_157">
    <path clip-path="url(#p9d48369f92)" d="M 120.917112 71471.148137 
L 122.254165 71471.148137 
L 122.254165 202.806272 
L 120.917112 202.806272 
z
"/>
   </g>
   <g id="patch_158">
    <path clip-path="url(#p9d48369f92)" d="M 123.591219 71471.148137 
L 124.928273 71471.148137 
L 124.928273 202.729006 
L 123.591219 202.729006 
z
"/>
   </g>
   <g id="patch_159">
    <path clip-path="url(#p9d48369f92)" d="M 126.265327 71471.148137 
L 127.602381 71471.148137 
L 127.602381 202.28843 
L 126.265327 202.28843 
z
"/>
   </g>
   <g id="patch_160">
    <path clip-path="url(#p9d48369f92)" d="M 128.939435 71471.148137 
L 130.276488 71471.148137 
L 130.276488 201.444164 
L 128.939435 201.444164 
z
"/>
   </g>
   <g id="patch_161">
    <path clip-path="url(#p9d48369f92)" d="M 131.613542 71471.148137 
L 132.950596 71471.148137 
L 132.950596 201.425661 
L 131.613542 201.425661 
z
"/>
   </g>
   <g id="patch_162">
    <path clip-path="url(#p9d48369f92)" d="M 134.28765 71471.148137 
L 135.624704 71471.148137 
L 135.624704 200.784952 
L 134.28765 200.784952 
z
"/>
   </g>
   <g id="patch_163">
    <path clip-path="url(#p9d48369f92)" d="M 136.961758 71471.148137 
L 138.298812 71471.148137 
L 138.298812 199.962561 
L 136.961758 199.962561 
z
"/>
   </g>
   <g id="patch_164">
    <path clip-path="url(#p9d48369f92)" d="M 139.635865 71471.148137 
L 140.972919 71471.148137 
L 140.972919 199.892071 
L 139.635865 199.892071 
z
"/>
   </g>
   <g id="patch_165">
    <path clip-path="url(#p9d48369f92)" d="M 142.309973 71471.148137 
L 143.647027 71471.148137 
L 143.647027 199.455109 
L 142.309973 199.455109 
z
"/>
   </g>
   <g id="patch_166">
    <path clip-path="url(#p9d48369f92)" d="M 144.984081 71471.148137 
L 146.321135 71471.148137 
L 146.321135 199.264783 
L 144.984081 199.264783 
z
"/>
   </g>
   <g id="patch_167">
    <path clip-path="url(#p9d48369f92)" d="M 147.658188 71471.148137 
L 148.995242 71471.148137 
L 148.995242 198.080298 
L 147.658188 198.080298 
z
"/>
   </g>
   <g id="patch_168">
    <path clip-path="url(#p9d48369f92)" d="M 150.332296 71471.148137 
L 151.66935 71471.148137 
L 151.66935 197.733616 
L 150.332296 197.733616 
z
"/>
   </g>
   <g id="patch_169">
    <path clip-path="url(#p9d48369f92)" d="M 153.006404 71471.148137 
L 154.343458 71471.148137 
L 154.343458 197.196559 
L 153.006404 197.196559 
z
"/>
   </g>
   <g id="patch_170">
    <path clip-path="url(#p9d48369f92)" d="M 155.680512 71471.148137 
L 157.017565 71471.148137 
L 157.017565 196.243348 
L 155.680512 196.243348 
z
"/>
   </g>
   <g id="patch_171">
    <path clip-path="url(#p9d48369f92)" d="M 158.354619 71471.148137 
L 159.691673 71471.148137 
L 159.691673 195.963018 
L 158.354619 195.963018 
z
"/>
   </g>
   <g id="patch_172">
    <path clip-path="url(#p9d48369f92)" d="M 161.028727 71471.148137 
L 162.365781 71471.148137 
L 162.365781 195.947518 
L 161.028727 195.947518 
z
"/>
   </g>
   <g id="patch_173">
    <path clip-path="url(#p9d48369f92)" d="M 163.702835 71471.148137 
L 165.039888 71471.148137 
L 165.039888 195.792947 
L 163.702835 195.792947 
z
"/>
   </g>
   <g id="patch_174">
    <path clip-path="url(#p9d48369f92)" d="M 166.376942 71471.148137 
L 167.713996 71471.148137 
L 167.713996 195.37942 
L 166.376942 195.37942 
z
"/>
   </g>
   <g id="patch_175">
    <path clip-path="url(#p9d48369f92)" d="M 169.05105 71471.148137 
L 170.388104 71471.148137 
L 170.388104 195.318624 
L 169.05105 195.318624 
z
"/>
   </g>
   <g id="patch_176">
    <path clip-path="url(#p9d48369f92)" d="M 171.725158 71471.148137 
L 173.062212 71471.148137 
L 173.062212 195.227653 
L 171.725158 195.227653 
z
"/>
   </g>
   <g id="patch_177">
    <path clip-path="url(#p9d48369f92)" d="M 174.399265 71471.148137 
L 175.736319 71471.148137 
L 175.736319 194.435486 
L 174.399265 194.435486 
z
"/>
   </g>
   <g id="patch_178">
    <path clip-path="url(#p9d48369f92)" d="M 177.073373 71471.148137 
L 178.410427 71471.148137 
L 178.410427 194.405987 
L 177.073373 194.405987 
z
"/>
   </g>
   <g id="patch_179">
    <path clip-path="url(#p9d48369f92)" d="M 179.747481 71471.148137 
L 181.084535 71471.148137 
L 181.084535 193.67749 
L 179.747481 193.67749 
z
"/>
   </g>
   <g id="patch_180">
    <path clip-path="url(#p9d48369f92)" d="M 182.421588 71471.148137 
L 183.758642 71471.148137 
L 183.758642 192.825344 
L 182.421588 192.825344 
z
"/>
   </g>
   <g id="patch_181">
    <path clip-path="url(#p9d48369f92)" d="M 185.095696 71471.148137 
L 186.43275 71471.148137 
L 186.43275 192.352678 
L 185.095696 192.352678 
z
"/>
   </g>
   <g id="patch_182">
    <path clip-path="url(#p9d48369f92)" d="M 187.769804 71471.148137 
L 189.106858 71471.148137 
L 189.106858 192.146422 
L 187.769804 192.146422 
z
"/>
   </g>
   <g id="patch_183">
    <path clip-path="url(#p9d48369f92)" d="M 190.443912 71471.148137 
L 191.780965 71471.148137 
L 191.780965 191.308189 
L 190.443912 191.308189 
z
"/>
   </g>
   <g id="patch_184">
    <path clip-path="url(#p9d48369f92)" d="M 193.118019 71471.148137 
L 194.455073 71471.148137 
L 194.455073 191.016126 
L 193.118019 191.016126 
z
"/>
   </g>
   <g id="patch_185">
    <path clip-path="url(#p9d48369f92)" d="M 195.792127 71471.148137 
L 197.129181 71471.148137 
L 197.129181 186.832821 
L 195.792127 186.832821 
z
"/>
   </g>
   <g id="patch_186">
    <path clip-path="url(#p9d48369f92)" d="M 198.466235 71471.148137 
L 199.803288 71471.148137 
L 199.803288 186.068987 
L 198.466235 186.068987 
z
"/>
   </g>
   <g id="patch_187">
    <path clip-path="url(#p9d48369f92)" d="M 201.140342 71471.148137 
L 202.477396 71471.148137 
L 202.477396 185.766425 
L 201.140342 185.766425 
z
"/>
   </g>
   <g id="patch_188">
    <path clip-path="url(#p9d48369f92)" d="M 203.81445 71471.148137 
L 205.151504 71471.148137 
L 205.151504 185.12631 
L 203.81445 185.12631 
z
"/>
   </g>
   <g id="patch_189">
    <path clip-path="url(#p9d48369f92)" d="M 206.488558 71471.148137 
L 207.825612 71471.148137 
L 207.825612 182.801836 
L 206.488558 182.801836 
z
"/>
   </g>
   <g id="patch_190">
    <path clip-path="url(#p9d48369f92)" d="M 209.162665 71471.148137 
L 210.499719 71471.148137 
L 210.499719 178.975172 
L 209.162665 178.975172 
z
"/>
   </g>
   <g id="patch_191">
    <path clip-path="url(#p9d48369f92)" d="M 211.836773 71471.148137 
L 213.173827 71471.148137 
L 213.173827 178.725469 
L 211.836773 178.725469 
z
"/>
   </g>
   <g id="patch_192">
    <path clip-path="url(#p9d48369f92)" d="M 214.510881 71471.148137 
L 215.847935 71471.148137 
L 215.847935 177.703335 
L 214.510881 177.703335 
z
"/>
   </g>
   <g id="patch_193">
    <path clip-path="url(#p9d48369f92)" d="M 217.184988 71471.148137 
L 218.522042 71471.148137 
L 218.522042 177.540488 
L 217.184988 177.540488 
z
"/>
   </g>
   <g id="patch_194">
    <path clip-path="url(#p9d48369f92)" d="M 219.859096 71471.148137 
L 221.19615 71471.148137 
L 221.19615 176.448688 
L 219.859096 176.448688 
z
"/>
   </g>
   <g id="patch_195">
    <path clip-path="url(#p9d48369f92)" d="M 222.533204 71471.148137 
L 223.870258 71471.148137 
L 223.870258 175.916901 
L 222.533204 175.916901 
z
"/>
   </g>
   <g id="patch_196">
    <path clip-path="url(#p9d48369f92)" d="M 225.207312 71471.148137 
L 226.544365 71471.148137 
L 226.544365 175.211203 
L 225.207312 175.211203 
z
"/>
   </g>
   <g id="patch_197">
    <path clip-path="url(#p9d48369f92)" d="M 227.881419 71471.148137 
L 229.218473 71471.148137 
L 229.218473 175.179505 
L 227.881419 175.179505 
z
"/>
   </g>
   <g id="patch_198">
    <path clip-path="url(#p9d48369f92)" d="M 230.555527 71471.148137 
L 231.892581 71471.148137 
L 231.892581 174.143621 
L 230.555527 174.143621 
z
"/>
   </g>
   <g id="patch_199">
    <path clip-path="url(#p9d48369f92)" d="M 233.229635 71471.148137 
L 234.566688 71471.148137 
L 234.566688 173.914679 
L 233.229635 173.914679 
z
"/>
   </g>
   <g id="patch_200">
    <path clip-path="url(#p9d48369f92)" d="M 235.903742 71471.148137 
L 237.240796 71471.148137 
L 237.240796 173.401931 
L 235.903742 173.401931 
z
"/>
   </g>
   <g id="patch_201">
    <path clip-path="url(#p9d48369f92)" d="M 238.57785 71471.148137 
L 239.914904 71471.148137 
L 239.914904 173.015484 
L 238.57785 173.015484 
z
"/>
   </g>
   <g id="patch_202">
    <path clip-path="url(#p9d48369f92)" d="M 241.251958 71471.148137 
L 242.589012 71471.148137 
L 242.589012 172.91226 
L 241.251958 172.91226 
z
"/>
   </g>
   <g id="patch_203">
    <path clip-path="url(#p9d48369f92)" d="M 243.926065 71471.148137 
L 245.263119 71471.148137 
L 245.263119 172.699527 
L 243.926065 172.699527 
z
"/>
   </g>
   <g id="patch_204">
    <path clip-path="url(#p9d48369f92)" d="M 246.600173 71471.148137 
L 247.937227 71471.148137 
L 247.937227 172.22076 
L 246.600173 172.22076 
z
"/>
   </g>
   <g id="patch_205">
    <path clip-path="url(#p9d48369f92)" d="M 249.274281 71471.148137 
L 250.611335 71471.148137 
L 250.611335 169.798694 
L 249.274281 169.798694 
z
"/>
   </g>
   <g id="patch_206">
    <path clip-path="url(#p9d48369f92)" d="M 251.948388 71471.148137 
L 253.285442 71471.148137 
L 253.285442 168.001458 
L 251.948388 168.001458 
z
"/>
   </g>
   <g id="patch_207">
    <path clip-path="url(#p9d48369f92)" d="M 254.622496 71471.148137 
L 255.95955 71471.148137 
L 255.95955 166.976037 
L 254.622496 166.976037 
z
"/>
   </g>
   <g id="patch_208">
    <path clip-path="url(#p9d48369f92)" d="M 257.296604 71471.148137 
L 258.633658 71471.148137 
L 258.633658 166.33859 
L 257.296604 166.33859 
z
"/>
   </g>
   <g id="patch_209">
    <path clip-path="url(#p9d48369f92)" d="M 259.970712 71471.148137 
L 261.307765 71471.148137 
L 261.307765 165.452623 
L 259.970712 165.452623 
z
"/>
   </g>
   <g id="patch_210">
    <path clip-path="url(#p9d48369f92)" d="M 262.644819 71471.148137 
L 263.981873 71471.148137 
L 263.981873 163.846552 
L 262.644819 163.846552 
z
"/>
   </g>
   <g id="patch_211">
    <path clip-path="url(#p9d48369f92)" d="M 265.318927 71471.148137 
L 266.655981 71471.148137 
L 266.655981 163.172979 
L 265.318927 163.172979 
z
"/>
   </g>
   <g id="patch_212">
    <path clip-path="url(#p9d48369f92)" d="M 267.993035 71471.148137 
L 269.330088 71471.148137 
L 269.330088 161.514854 
L 267.993035 161.514854 
z
"/>
   </g>
   <g id="patch_213">
    <path clip-path="url(#p9d48369f92)" d="M 270.667142 71471.148137 
L 272.004196 71471.148137 
L 272.004196 161.200688 
L 270.667142 161.200688 
z
"/>
   </g>
   <g id="patch_214">
    <path clip-path="url(#p9d48369f92)" d="M 273.34125 71471.148137 
L 274.678304 71471.148137 
L 274.678304 160.281778 
L 273.34125 160.281778 
z
"/>
   </g>
   <g id="patch_215">
    <path clip-path="url(#p9d48369f92)" d="M 276.015358 71471.148137 
L 277.352412 71471.148137 
L 277.352412 157.315934 
L 276.015358 157.315934 
z
"/>
   </g>
   <g id="patch_216">
    <path clip-path="url(#p9d48369f92)" d="M 278.689465 71471.148137 
L 280.026519 71471.148137 
L 280.026519 155.869495 
L 278.689465 155.869495 
z
"/>
   </g>
   <g id="patch_217">
    <path clip-path="url(#p9d48369f92)" d="M 281.363573 71471.148137 
L 282.700627 71471.148137 
L 282.700627 155.36857 
L 281.363573 155.36857 
z
"/>
   </g>
   <g id="patch_218">
    <path clip-path="url(#p9d48369f92)" d="M 284.037681 71471.148137 
L 285.374735 71471.148137 
L 285.374735 155.185388 
L 284.037681 155.185388 
z
"/>
   </g>
   <g id="patch_219">
    <path clip-path="url(#p9d48369f92)" d="M 286.711788 71471.148137 
L 288.048842 71471.148137 
L 288.048842 154.390408 
L 286.711788 154.390408 
z
"/>
   </g>
   <g id="patch_220">
    <path clip-path="url(#p9d48369f92)" d="M 289.385896 71471.148137 
L 290.72295 71471.148137 
L 290.72295 153.246662 
L 289.385896 153.246662 
z
"/>
   </g>
   <g id="patch_221">
    <path clip-path="url(#p9d48369f92)" d="M 292.060004 71471.148137 
L 293.397058 71471.148137 
L 293.397058 151.997303 
L 292.060004 151.997303 
z
"/>
   </g>
   <g id="patch_222">
    <path clip-path="url(#p9d48369f92)" d="M 294.734112 71471.148137 
L 296.071165 71471.148137 
L 296.071165 151.547495 
L 294.734112 151.547495 
z
"/>
   </g>
   <g id="patch_223">
    <path clip-path="url(#p9d48369f92)" d="M 297.408219 71471.148137 
L 298.745273 71471.148137 
L 298.745273 150.699331 
L 297.408219 150.699331 
z
"/>
   </g>
   <g id="patch_224">
    <path clip-path="url(#p9d48369f92)" d="M 300.082327 71471.148137 
L 301.419381 71471.148137 
L 301.419381 150.236019 
L 300.082327 150.236019 
z
"/>
   </g>
   <g id="patch_225">
    <path clip-path="url(#p9d48369f92)" d="M 302.756435 71471.148137 
L 304.093488 71471.148137 
L 304.093488 150.108934 
L 302.756435 150.108934 
z
"/>
   </g>
   <g id="patch_226">
    <path clip-path="url(#p9d48369f92)" d="M 305.430542 71471.148137 
L 306.767596 71471.148137 
L 306.767596 149.178914 
L 305.430542 149.178914 
z
"/>
   </g>
   <g id="patch_227">
    <path clip-path="url(#p9d48369f92)" d="M 308.10465 71471.148137 
L 309.441704 71471.148137 
L 309.441704 149.042471 
L 308.10465 149.042471 
z
"/>
   </g>
   <g id="patch_228">
    <path clip-path="url(#p9d48369f92)" d="M 310.778758 71471.148137 
L 312.115812 71471.148137 
L 312.115812 149.039068 
L 310.778758 149.039068 
z
"/>
   </g>
   <g id="patch_229">
    <path clip-path="url(#p9d48369f92)" d="M 313.452865 71471.148137 
L 314.789919 71471.148137 
L 314.789919 147.518394 
L 313.452865 147.518394 
z
"/>
   </g>
   <g id="patch_230">
    <path clip-path="url(#p9d48369f92)" d="M 316.126973 71471.148137 
L 317.464027 71471.148137 
L 317.464027 146.205296 
L 316.126973 146.205296 
z
"/>
   </g>
   <g id="patch_231">
    <path clip-path="url(#p9d48369f92)" d="M 318.801081 71471.148137 
L 320.138135 71471.148137 
L 320.138135 145.050186 
L 318.801081 145.050186 
z
"/>
   </g>
   <g id="patch_232">
    <path clip-path="url(#p9d48369f92)" d="M 321.475188 71471.148137 
L 322.812242 71471.148137 
L 322.812242 144.305339 
L 321.475188 144.305339 
z
"/>
   </g>
   <g id="patch_233">
    <path clip-path="url(#p9d48369f92)" d="M 324.149296 71471.148137 
L 325.48635 71471.148137 
L 325.48635 142.886885 
L 324.149296 142.886885 
z
"/>
   </g>
   <g id="patch_234">
    <path clip-path="url(#p9d48369f92)" d="M 326.823404 71471.148137 
L 328.160458 71471.148137 
L 328.160458 141.509258 
L 326.823404 141.509258 
z
"/>
   </g>
   <g id="patch_235">
    <path clip-path="url(#p9d48369f92)" d="M 329.497512 71471.148137 
L 330.834565 71471.148137 
L 330.834565 140.503869 
L 329.497512 140.503869 
z
"/>
   </g>
   <g id="patch_236">
    <path clip-path="url(#p9d48369f92)" d="M 332.171619 71471.148137 
L 333.508673 71471.148137 
L 333.508673 139.152007 
L 332.171619 139.152007 
z
"/>
   </g>
   <g id="patch_237">
    <path clip-path="url(#p9d48369f92)" d="M 334.845727 71471.148137 
L 336.182781 71471.148137 
L 336.182781 137.379112 
L 334.845727 137.379112 
z
"/>
   </g>
   <g id="patch_238">
    <path clip-path="url(#p9d48369f92)" d="M 337.519835 71471.148137 
L 338.856888 71471.148137 
L 338.856888 135.378895 
L 337.519835 135.378895 
z
"/>
   </g>
   <g id="patch_239">
    <path clip-path="url(#p9d48369f92)" d="M 340.193942 71471.148137 
L 341.530996 71471.148137 
L 341.530996 134.881713 
L 340.193942 134.881713 
z
"/>
   </g>
   <g id="patch_240">
    <path clip-path="url(#p9d48369f92)" d="M 342.86805 71471.148137 
L 344.205104 71471.148137 
L 344.205104 132.312142 
L 342.86805 132.312142 
z
"/>
   </g>
   <g id="patch_241">
    <path clip-path="url(#p9d48369f92)" d="M 345.542158 71471.148137 
L 346.879212 71471.148137 
L 346.879212 128.331753 
L 345.542158 128.331753 
z
"/>
   </g>
   <g id="patch_242">
    <path clip-path="url(#p9d48369f92)" d="M 348.216265 71471.148137 
L 349.553319 71471.148137 
L 349.553319 124.299549 
L 348.216265 124.299549 
z
"/>
   </g>
   <g id="patch_243">
    <path clip-path="url(#p9d48369f92)" d="M 350.890373 71471.148137 
L 352.227427 71471.148137 
L 352.227427 124.213989 
L 350.890373 124.213989 
z
"/>
   </g>
   <g id="patch_244">
    <path clip-path="url(#p9d48369f92)" d="M 353.564481 71471.148137 
L 354.901535 71471.148137 
L 354.901535 120.001084 
L 353.564481 120.001084 
z
"/>
   </g>
   <g id="patch_245">
    <path clip-path="url(#p9d48369f92)" d="M 356.238588 71471.148137 
L 357.575642 71471.148137 
L 357.575642 117.295969 
L 356.238588 117.295969 
z
"/>
   </g>
   <g id="patch_246">
    <path clip-path="url(#p9d48369f92)" d="M 358.912696 71471.148137 
L 360.24975 71471.148137 
L 360.24975 115.057117 
L 358.912696 115.057117 
z
"/>
   </g>
   <g id="patch_247">
    <path clip-path="url(#p9d48369f92)" d="M 361.586804 71471.148137 
L 362.923858 71471.148137 
L 362.923858 113.633133 
L 361.586804 113.633133 
z
"/>
   </g>
   <g id="patch_248">
    <path clip-path="url(#p9d48369f92)" d="M 364.260912 71471.148137 
L 365.597965 71471.148137 
L 365.597965 111.798311 
L 364.260912 111.798311 
z
"/>
   </g>
   <g id="patch_249">
    <path clip-path="url(#p9d48369f92)" d="M 366.935019 71471.148137 
L 368.272073 71471.148137 
L 368.272073 111.794225 
L 366.935019 111.794225 
z
"/>
   </g>
   <g id="patch_250">
    <path clip-path="url(#p9d48369f92)" d="M 369.609127 71471.148137 
L 370.946181 71471.148137 
L 370.946181 111.389363 
L 369.609127 111.389363 
z
"/>
   </g>
   <g id="patch_251">
    <path clip-path="url(#p9d48369f92)" d="M 372.283235 71471.148137 
L 373.620288 71471.148137 
L 373.620288 111.324913 
L 372.283235 111.324913 
z
"/>
   </g>
   <g id="patch_252">
    <path clip-path="url(#p9d48369f92)" d="M 374.957342 71471.148137 
L 376.294396 71471.148137 
L 376.294396 109.329395 
L 374.957342 109.329395 
z
"/>
   </g>
   <g id="patch_253">
    <path clip-path="url(#p9d48369f92)" d="M 377.63145 71471.148137 
L 378.968504 71471.148137 
L 378.968504 108.452535 
L 377.63145 108.452535 
z
"/>
   </g>
   <g id="patch_254">
    <path clip-path="url(#p9d48369f92)" d="M 380.305558 71471.148137 
L 381.642612 71471.148137 
L 381.642612 106.606336 
L 380.305558 106.606336 
z
"/>
   </g>
   <g id="patch_255">
    <path clip-path="url(#p9d48369f92)" d="M 382.979665 71471.148137 
L 384.316719 71471.148137 
L 384.316719 104.058262 
L 382.979665 104.058262 
z
"/>
   </g>
   <g id="patch_256">
    <path clip-path="url(#p9d48369f92)" d="M 385.653773 71471.148137 
L 386.990827 71471.148137 
L 386.990827 98.598859 
L 385.653773 98.598859 
z
"/>
   </g>
   <g id="patch_257">
    <path clip-path="url(#p9d48369f92)" d="M 388.327881 71471.148137 
L 389.664935 71471.148137 
L 389.664935 96.5698 
L 388.327881 96.5698 
z
"/>
   </g>
   <g id="patch_258">
    <path clip-path="url(#p9d48369f92)" d="M 391.001988 71471.148137 
L 392.339042 71471.148137 
L 392.339042 95.897725 
L 391.001988 95.897725 
z
"/>
   </g>
   <g id="patch_259">
    <path clip-path="url(#p9d48369f92)" d="M 393.676096 71471.148137 
L 395.01315 71471.148137 
L 395.01315 66.599859 
L 393.676096 66.599859 
z
"/>
   </g>
   <g id="patch_260">
    <path clip-path="url(#p9d48369f92)" d="M 396.350204 71471.148137 
L 397.687258 71471.148137 
L 397.687258 45.502621 
L 396.350204 45.502621 
z
"/>
   </g>
   <g id="patch_261">
    <path clip-path="url(#p9d48369f92)" d="M 399.024312 71471.148137 
L 400.361365 71471.148137 
L 400.361365 39.335499 
L 399.024312 39.335499 
z
"/>
   </g>
   <g id="patch_262">
    <path clip-path="url(#p9d48369f92)" d="M 401.698419 71471.148137 
L 403.035473 71471.148137 
L 403.035473 39.06 
L 401.698419 39.06 
z
"/>
   </g>
   <g id="matplotlib.axis_1">
    <g id="ytick_1">
     <g id="line2d_1">
      <defs>
       <path d="M 0 0 
L -3.5 0 
" id="mcdac9fe43b" style="stroke:#000000;stroke-width:0.8;"/>
      </defs>
      <g>
       <use style="stroke:#000000;stroke-width:0.8;" x="56.07" xlink:href="#mcdac9fe43b" y="217.350596"/>
      </g>
     </g>
     <g id="text_1">
      <!-- $\mathdefault{10^{0}}$ -->
      <g transform="translate(31.47 221.149815)scale(0.1 -0.1)">
       <defs>
        <path d="M 12.40625 8.296875 
L 28.515625 8.296875 
L 28.515625 63.921875 
L 10.984375 60.40625 
L 10.984375 69.390625 
L 28.421875 72.90625 
L 38.28125 72.90625 
L 38.28125 8.296875 
L 54.390625 8.296875 
L 54.390625 0 
L 12.40625 0 
z
" id="DejaVuSans-49"/>
        <path d="M 31.78125 66.40625 
Q 24.171875 66.40625 20.328125 58.90625 
Q 16.5 51.421875 16.5 36.375 
Q 16.5 21.390625 20.328125 13.890625 
Q 24.171875 6.390625 31.78125 6.390625 
Q 39.453125 6.390625 43.28125 13.890625 
Q 47.125 21.390625 47.125 36.375 
Q 47.125 51.421875 43.28125 58.90625 
Q 39.453125 66.40625 31.78125 66.40625 
z
M 31.78125 74.21875 
Q 44.046875 74.21875 50.515625 64.515625 
Q 56.984375 54.828125 56.984375 36.375 
Q 56.984375 17.96875 50.515625 8.265625 
Q 44.046875 -1.421875 31.78125 -1.421875 
Q 19.53125 -1.421875 13.0625 8.265625 
Q 6.59375 17.96875 6.59375 36.375 
Q 6.59375 54.828125 13.0625 64.515625 
Q 19.53125 74.21875 31.78125 74.21875 
z
" id="DejaVuSans-48"/>
       </defs>
       <use transform="translate(0 0.765625)" xlink:href="#DejaVuSans-49"/>
       <use transform="translate(63.623047 0.765625)" xlink:href="#DejaVuSans-48"/>
       <use transform="translate(128.203125 39.046875)scale(0.7)" xlink:href="#DejaVuSans-48"/>
      </g>
     </g>
    </g>
    <g id="ytick_2">
     <g id="line2d_2">
      <g>
       <use style="stroke:#000000;stroke-width:0.8;" x="56.07" xlink:href="#mcdac9fe43b" y="146.096798"/>
      </g>
     </g>
     <g id="text_2">
      <!-- $\mathdefault{10^{1}}$ -->
      <g transform="translate(31.47 149.896017)scale(0.1 -0.1)">
       <use transform="translate(0 0.684375)" xlink:href="#DejaVuSans-49"/>
       <use transform="translate(63.623047 0.684375)" xlink:href="#DejaVuSans-48"/>
       <use transform="translate(128.203125 38.965625)scale(0.7)" xlink:href="#DejaVuSans-49"/>
      </g>
     </g>
    </g>
    <g id="ytick_3">
     <g id="line2d_3">
      <g>
       <use style="stroke:#000000;stroke-width:0.8;" x="56.07" xlink:href="#mcdac9fe43b" y="74.843001"/>
      </g>
     </g>
     <g id="text_3">
      <!-- $\mathdefault{10^{2}}$ -->
      <g transform="translate(31.47 78.64222)scale(0.1 -0.1)">
       <defs>
        <path d="M 19.1875 8.296875 
L 53.609375 8.296875 
L 53.609375 0 
L 7.328125 0 
L 7.328125 8.296875 
Q 12.9375 14.109375 22.625 23.890625 
Q 32.328125 33.6875 34.8125 36.53125 
Q 39.546875 41.84375 41.421875 45.53125 
Q 43.3125 49.21875 43.3125 52.78125 
Q 43.3125 58.59375 39.234375 62.25 
Q 35.15625 65.921875 28.609375 65.921875 
Q 23.96875 65.921875 18.8125 64.3125 
Q 13.671875 62.703125 7.8125 59.421875 
L 7.8125 69.390625 
Q 13.765625 71.78125 18.9375 73 
Q 24.125 74.21875 28.421875 74.21875 
Q 39.75 74.21875 46.484375 68.546875 
Q 53.21875 62.890625 53.21875 53.421875 
Q 53.21875 48.921875 51.53125 44.890625 
Q 49.859375 40.875 45.40625 35.40625 
Q 44.1875 33.984375 37.640625 27.21875 
Q 31.109375 20.453125 19.1875 8.296875 
z
" id="DejaVuSans-50"/>
       </defs>
       <use transform="translate(0 0.765625)" xlink:href="#DejaVuSans-49"/>
       <use transform="translate(63.623047 0.765625)" xlink:href="#DejaVuSans-48"/>
       <use transform="translate(128.203125 39.046875)scale(0.7)" xlink:href="#DejaVuSans-50"/>
      </g>
     </g>
    </g>
    <g id="ytick_4">
     <g id="line2d_4">
      <defs>
       <path d="M 0 0 
L -2 0 
" id="m61aabb2676" style="stroke:#000000;stroke-width:0.6;"/>
      </defs>
      <g>
       <use style="stroke:#000000;stroke-width:0.6;" x="56.07" xlink:href="#m61aabb2676" y="224.255802"/>
      </g>
     </g>
    </g>
    <g id="ytick_5">
     <g id="line2d_5">
      <g>
       <use style="stroke:#000000;stroke-width:0.6;" x="56.07" xlink:href="#m61aabb2676" y="220.610991"/>
      </g>
     </g>
    </g>
    <g id="ytick_6">
     <g id="line2d_6">
      <g>
       <use style="stroke:#000000;stroke-width:0.6;" x="56.07" xlink:href="#m61aabb2676" y="195.901065"/>
      </g>
     </g>
    </g>
    <g id="ytick_7">
     <g id="line2d_7">
      <g>
       <use style="stroke:#000000;stroke-width:0.6;" x="56.07" xlink:href="#m61aabb2676" y="183.353895"/>
      </g>
     </g>
    </g>
    <g id="ytick_8">
     <g id="line2d_8">
      <g>
       <use style="stroke:#000000;stroke-width:0.6;" x="56.07" xlink:href="#m61aabb2676" y="174.451535"/>
      </g>
     </g>
    </g>
    <g id="ytick_9">
     <g id="line2d_9">
      <g>
       <use style="stroke:#000000;stroke-width:0.6;" x="56.07" xlink:href="#m61aabb2676" y="167.546329"/>
      </g>
     </g>
    </g>
    <g id="ytick_10">
     <g id="line2d_10">
      <g>
       <use style="stroke:#000000;stroke-width:0.6;" x="56.07" xlink:href="#m61aabb2676" y="161.904364"/>
      </g>
     </g>
    </g>
    <g id="ytick_11">
     <g id="line2d_11">
      <g>
       <use style="stroke:#000000;stroke-width:0.6;" x="56.07" xlink:href="#m61aabb2676" y="157.134151"/>
      </g>
     </g>
    </g>
    <g id="ytick_12">
     <g id="line2d_12">
      <g>
       <use style="stroke:#000000;stroke-width:0.6;" x="56.07" xlink:href="#m61aabb2676" y="153.002005"/>
      </g>
     </g>
    </g>
    <g id="ytick_13">
     <g id="line2d_13">
      <g>
       <use style="stroke:#000000;stroke-width:0.6;" x="56.07" xlink:href="#m61aabb2676" y="149.357193"/>
      </g>
     </g>
    </g>
    <g id="ytick_14">
     <g id="line2d_14">
      <g>
       <use style="stroke:#000000;stroke-width:0.6;" x="56.07" xlink:href="#m61aabb2676" y="124.647268"/>
      </g>
     </g>
    </g>
    <g id="ytick_15">
     <g id="line2d_15">
      <g>
       <use style="stroke:#000000;stroke-width:0.6;" x="56.07" xlink:href="#m61aabb2676" y="112.100097"/>
      </g>
     </g>
    </g>
    <g id="ytick_16">
     <g id="line2d_16">
      <g>
       <use style="stroke:#000000;stroke-width:0.6;" x="56.07" xlink:href="#m61aabb2676" y="103.197738"/>
      </g>
     </g>
    </g>
    <g id="ytick_17">
     <g id="line2d_17">
      <g>
       <use style="stroke:#000000;stroke-width:0.6;" x="56.07" xlink:href="#m61aabb2676" y="96.292531"/>
      </g>
     </g>
    </g>
    <g id="ytick_18">
     <g id="line2d_18">
      <g>
       <use style="stroke:#000000;stroke-width:0.6;" x="56.07" xlink:href="#m61aabb2676" y="90.650567"/>
      </g>
     </g>
    </g>
    <g id="ytick_19">
     <g id="line2d_19">
      <g>
       <use style="stroke:#000000;stroke-width:0.6;" x="56.07" xlink:href="#m61aabb2676" y="85.880354"/>
      </g>
     </g>
    </g>
    <g id="ytick_20">
     <g id="line2d_20">
      <g>
       <use style="stroke:#000000;stroke-width:0.6;" x="56.07" xlink:href="#m61aabb2676" y="81.748207"/>
      </g>
     </g>
    </g>
    <g id="ytick_21">
     <g id="line2d_21">
      <g>
       <use style="stroke:#000000;stroke-width:0.6;" x="56.07" xlink:href="#m61aabb2676" y="78.103396"/>
      </g>
     </g>
    </g>
    <g id="ytick_22">
     <g id="line2d_22">
      <g>
       <use style="stroke:#000000;stroke-width:0.6;" x="56.07" xlink:href="#m61aabb2676" y="53.39347"/>
      </g>
     </g>
    </g>
    <g id="ytick_23">
     <g id="line2d_23">
      <g>
       <use style="stroke:#000000;stroke-width:0.6;" x="56.07" xlink:href="#m61aabb2676" y="40.846299"/>
      </g>
     </g>
    </g>
    <g id="ytick_24">
     <g id="line2d_24">
      <g>
       <use style="stroke:#000000;stroke-width:0.6;" x="56.07" xlink:href="#m61aabb2676" y="31.94394"/>
      </g>
     </g>
    </g>
   </g>
   <g id="patch_263">
    <path d="M 56.07 224.28 
L 56.07 30.24 
" style="fill:none;stroke:#000000;stroke-linecap:square;stroke-linejoin:miter;stroke-width:0.8;"/>
   </g>
   <g id="patch_264">
    <path d="M 403.704 224.28 
L 403.704 30.24 
" style="fill:none;stroke:#000000;stroke-linecap:square;stroke-linejoin:miter;stroke-width:0.8;"/>
   </g>
   <g id="patch_265">
    <path d="M 56.07 224.28 
L 403.704 224.28 
" style="fill:none;stroke:#000000;stroke-linecap:square;stroke-linejoin:miter;stroke-width:0.8;"/>
   </g>
   <g id="patch_266">
    <path d="M 56.07 30.24 
L 403.704 30.24 
" style="fill:none;stroke:#000000;stroke-linecap:square;stroke-linejoin:miter;stroke-width:0.8;"/>
   </g>
  </g>
 </g>
 <defs>
  <clipPath id="p9d48369f92">
   <rect height="194.04" width="347.634" x="56.07" y="30.24"/>
  </clipPath>
 </defs>
</svg>
