<?xml version="1.0" encoding="utf-8" standalone="no"?>
<!DOCTYPE svg PUBLIC "-//W3C//DTD SVG 1.1//EN"
  "http://www.w3.org/Graphics/SVG/1.1/DTD/svg11.dtd">
<!-- Created with matplotlib (https://matplotlib.org/) -->
<svg height="252pt" version="1.1" viewBox="0 0 448.56 252" width="448.56pt" xmlns="http://www.w3.org/2000/svg" xmlns:xlink="http://www.w3.org/1999/xlink">
 <metadata>
  <rdf:RDF xmlns:cc="http://creativecommons.org/ns#" xmlns:dc="http://purl.org/dc/elements/1.1/" xmlns:rdf="http://www.w3.org/1999/02/22-rdf-syntax-ns#">
   <cc:Work>
    <dc:type rdf:resource="http://purl.org/dc/dcmitype/StillImage"/>
    <dc:date>2021-03-13T21:00:23.308878</dc:date>
    <dc:format>image/svg+xml</dc:format>
    <dc:creator>
     <cc:Agent>
      <dc:title>Matplotlib v3.3.4, https://matplotlib.org/</dc:title>
     </cc:Agent>
    </dc:creator>
   </cc:Work>
  </rdf:RDF>
 </metadata>
 <defs>
  <style type="text/css">*{stroke-linecap:butt;stroke-linejoin:round;}</style>
 </defs>
 <g id="figure_1">
  <g id="patch_1">
   <path d="M 0 252 
L 448.56 252 
L 448.56 0 
L 0 0 
z
" style="fill:none;"/>
  </g>
  <g id="axes_1">
   <g id="patch_2">
    <path d="M 56.07 224.28 
L 403.704 224.28 
L 403.704 30.24 
L 56.07 30.24 
z
" style="fill:none;"/>
   </g>
   <g id="patch_3">
    <path clip-path="url(#p80ae60526c)" d="M 56.75975 71471.148137 
L 58.13925 71471.148137 
L 58.13925 215.46 
L 56.75975 215.46 
z
"/>
   </g>
   <g id="patch_4">
    <path clip-path="url(#p80ae60526c)" d="M 59.51875 71471.148137 
L 60.89825 71471.148137 
L 60.89825 214.997693 
L 59.51875 214.997693 
z
"/>
   </g>
   <g id="patch_5">
    <path clip-path="url(#p80ae60526c)" d="M 62.27775 71471.148137 
L 63.65725 71471.148137 
L 63.65725 213.982082 
L 62.27775 213.982082 
z
"/>
   </g>
   <g id="patch_6">
    <path clip-path="url(#p80ae60526c)" d="M 65.03675 71471.148137 
L 66.41625 71471.148137 
L 66.41625 213.926625 
L 65.03675 213.926625 
z
"/>
   </g>
   <g id="patch_7">
    <path clip-path="url(#p80ae60526c)" d="M 67.79575 71471.148137 
L 69.17525 71471.148137 
L 69.17525 213.898933 
L 67.79575 213.898933 
z
"/>
   </g>
   <g id="patch_8">
    <path clip-path="url(#p80ae60526c)" d="M 70.55475 71471.148137 
L 71.93425 71471.148137 
L 71.93425 213.295909 
L 70.55475 213.295909 
z
"/>
   </g>
   <g id="patch_9">
    <path clip-path="url(#p80ae60526c)" d="M 73.31375 71471.148137 
L 74.69325 71471.148137 
L 74.69325 213.133467 
L 73.31375 213.133467 
z
"/>
   </g>
   <g id="patch_10">
    <path clip-path="url(#p80ae60526c)" d="M 76.07275 71471.148137 
L 77.45225 71471.148137 
L 77.45225 212.971873 
L 76.07275 212.971873 
z
"/>
   </g>
   <g id="patch_11">
    <path clip-path="url(#p80ae60526c)" d="M 78.83175 71471.148137 
L 80.21125 71471.148137 
L 80.21125 212.386479 
L 78.83175 212.386479 
z
"/>
   </g>
   <g id="patch_12">
    <path clip-path="url(#p80ae60526c)" d="M 81.59075 71471.148137 
L 82.97025 71471.148137 
L 82.97025 210.594284 
L 81.59075 210.594284 
z
"/>
   </g>
   <g id="patch_13">
    <path clip-path="url(#p80ae60526c)" d="M 84.34975 71471.148137 
L 85.72925 71471.148137 
L 85.72925 210.445389 
L 84.34975 210.445389 
z
"/>
   </g>
   <g id="patch_14">
    <path clip-path="url(#p80ae60526c)" d="M 87.10875 71471.148137 
L 88.48825 71471.148137 
L 88.48825 210.174263 
L 87.10875 210.174263 
z
"/>
   </g>
   <g id="patch_15">
    <path clip-path="url(#p80ae60526c)" d="M 89.86775 71471.148137 
L 91.24725 71471.148137 
L 91.24725 208.665614 
L 89.86775 208.665614 
z
"/>
   </g>
   <g id="patch_16">
    <path clip-path="url(#p80ae60526c)" d="M 92.62675 71471.148137 
L 94.00625 71471.148137 
L 94.00625 208.316998 
L 92.62675 208.316998 
z
"/>
   </g>
   <g id="patch_17">
    <path clip-path="url(#p80ae60526c)" d="M 95.38575 71471.148137 
L 96.76525 71471.148137 
L 96.76525 207.926591 
L 95.38575 207.926591 
z
"/>
   </g>
   <g id="patch_18">
    <path clip-path="url(#p80ae60526c)" d="M 98.14475 71471.148137 
L 99.52425 71471.148137 
L 99.52425 207.563594 
L 98.14475 207.563594 
z
"/>
   </g>
   <g id="patch_19">
    <path clip-path="url(#p80ae60526c)" d="M 100.90375 71471.148137 
L 102.28325 71471.148137 
L 102.28325 207.271762 
L 100.90375 207.271762 
z
"/>
   </g>
   <g id="patch_20">
    <path clip-path="url(#p80ae60526c)" d="M 103.66275 71471.148137 
L 105.04225 71471.148137 
L 105.04225 207.093532 
L 103.66275 207.093532 
z
"/>
   </g>
   <g id="patch_21">
    <path clip-path="url(#p80ae60526c)" d="M 106.42175 71471.148137 
L 107.80125 71471.148137 
L 107.80125 207.093532 
L 106.42175 207.093532 
z
"/>
   </g>
   <g id="patch_22">
    <path clip-path="url(#p80ae60526c)" d="M 109.18075 71471.148137 
L 110.56025 71471.148137 
L 110.56025 206.828097 
L 109.18075 206.828097 
z
"/>
   </g>
   <g id="patch_23">
    <path clip-path="url(#p80ae60526c)" d="M 111.93975 71471.148137 
L 113.31925 71471.148137 
L 113.31925 206.347301 
L 111.93975 206.347301 
z
"/>
   </g>
   <g id="patch_24">
    <path clip-path="url(#p80ae60526c)" d="M 114.69875 71471.148137 
L 116.07825 71471.148137 
L 116.07825 206.002265 
L 114.69875 206.002265 
z
"/>
   </g>
   <g id="patch_25">
    <path clip-path="url(#p80ae60526c)" d="M 117.45775 71471.148137 
L 118.83725 71471.148137 
L 118.83725 205.852513 
L 117.45775 205.852513 
z
"/>
   </g>
   <g id="patch_26">
    <path clip-path="url(#p80ae60526c)" d="M 120.21675 71471.148137 
L 121.59625 71471.148137 
L 121.59625 205.4286 
L 120.21675 205.4286 
z
"/>
   </g>
   <g id="patch_27">
    <path clip-path="url(#p80ae60526c)" d="M 122.97575 71471.148137 
L 124.35525 71471.148137 
L 124.35525 202.806272 
L 122.97575 202.806272 
z
"/>
   </g>
   <g id="patch_28">
    <path clip-path="url(#p80ae60526c)" d="M 125.73475 71471.148137 
L 127.11425 71471.148137 
L 127.11425 202.729006 
L 125.73475 202.729006 
z
"/>
   </g>
   <g id="patch_29">
    <path clip-path="url(#p80ae60526c)" d="M 128.49375 71471.148137 
L 129.87325 71471.148137 
L 129.87325 202.28843 
L 128.49375 202.28843 
z
"/>
   </g>
   <g id="patch_30">
    <path clip-path="url(#p80ae60526c)" d="M 131.25275 71471.148137 
L 132.63225 71471.148137 
L 132.63225 201.444164 
L 131.25275 201.444164 
z
"/>
   </g>
   <g id="patch_31">
    <path clip-path="url(#p80ae60526c)" d="M 134.01175 71471.148137 
L 135.39125 71471.148137 
L 135.39125 201.425661 
L 134.01175 201.425661 
z
"/>
   </g>
   <g id="patch_32">
    <path clip-path="url(#p80ae60526c)" d="M 136.77075 71471.148137 
L 138.15025 71471.148137 
L 138.15025 200.784952 
L 136.77075 200.784952 
z
"/>
   </g>
   <g id="patch_33">
    <path clip-path="url(#p80ae60526c)" d="M 139.52975 71471.148137 
L 140.90925 71471.148137 
L 140.90925 199.962561 
L 139.52975 199.962561 
z
"/>
   </g>
   <g id="patch_34">
    <path clip-path="url(#p80ae60526c)" d="M 142.28875 71471.148137 
L 143.66825 71471.148137 
L 143.66825 199.892071 
L 142.28875 199.892071 
z
"/>
   </g>
   <g id="patch_35">
    <path clip-path="url(#p80ae60526c)" d="M 145.04775 71471.148137 
L 146.42725 71471.148137 
L 146.42725 199.455109 
L 145.04775 199.455109 
z
"/>
   </g>
   <g id="patch_36">
    <path clip-path="url(#p80ae60526c)" d="M 147.80675 71471.148137 
L 149.18625 71471.148137 
L 149.18625 199.264783 
L 147.80675 199.264783 
z
"/>
   </g>
   <g id="patch_37">
    <path clip-path="url(#p80ae60526c)" d="M 150.56575 71471.148137 
L 151.94525 71471.148137 
L 151.94525 198.080298 
L 150.56575 198.080298 
z
"/>
   </g>
   <g id="patch_38">
    <path clip-path="url(#p80ae60526c)" d="M 153.32475 71471.148137 
L 154.70425 71471.148137 
L 154.70425 197.733616 
L 153.32475 197.733616 
z
"/>
   </g>
   <g id="patch_39">
    <path clip-path="url(#p80ae60526c)" d="M 156.08375 71471.148137 
L 157.46325 71471.148137 
L 157.46325 197.196559 
L 156.08375 197.196559 
z
"/>
   </g>
   <g id="patch_40">
    <path clip-path="url(#p80ae60526c)" d="M 158.84275 71471.148137 
L 160.22225 71471.148137 
L 160.22225 196.243348 
L 158.84275 196.243348 
z
"/>
   </g>
   <g id="patch_41">
    <path clip-path="url(#p80ae60526c)" d="M 161.60175 71471.148137 
L 162.98125 71471.148137 
L 162.98125 195.963018 
L 161.60175 195.963018 
z
"/>
   </g>
   <g id="patch_42">
    <path clip-path="url(#p80ae60526c)" d="M 164.36075 71471.148137 
L 165.74025 71471.148137 
L 165.74025 195.947518 
L 164.36075 195.947518 
z
"/>
   </g>
   <g id="patch_43">
    <path clip-path="url(#p80ae60526c)" d="M 167.11975 71471.148137 
L 168.49925 71471.148137 
L 168.49925 195.792947 
L 167.11975 195.792947 
z
"/>
   </g>
   <g id="patch_44">
    <path clip-path="url(#p80ae60526c)" d="M 169.87875 71471.148137 
L 171.25825 71471.148137 
L 171.25825 195.37942 
L 169.87875 195.37942 
z
"/>
   </g>
   <g id="patch_45">
    <path clip-path="url(#p80ae60526c)" d="M 172.63775 71471.148137 
L 174.01725 71471.148137 
L 174.01725 195.318624 
L 172.63775 195.318624 
z
"/>
   </g>
   <g id="patch_46">
    <path clip-path="url(#p80ae60526c)" d="M 175.39675 71471.148137 
L 176.77625 71471.148137 
L 176.77625 195.227653 
L 175.39675 195.227653 
z
"/>
   </g>
   <g id="patch_47">
    <path clip-path="url(#p80ae60526c)" d="M 178.15575 71471.148137 
L 179.53525 71471.148137 
L 179.53525 194.435486 
L 178.15575 194.435486 
z
"/>
   </g>
   <g id="patch_48">
    <path clip-path="url(#p80ae60526c)" d="M 180.91475 71471.148137 
L 182.29425 71471.148137 
L 182.29425 194.405987 
L 180.91475 194.405987 
z
"/>
   </g>
   <g id="patch_49">
    <path clip-path="url(#p80ae60526c)" d="M 183.67375 71471.148137 
L 185.05325 71471.148137 
L 185.05325 193.67749 
L 183.67375 193.67749 
z
"/>
   </g>
   <g id="patch_50">
    <path clip-path="url(#p80ae60526c)" d="M 186.43275 71471.148137 
L 187.81225 71471.148137 
L 187.81225 192.825344 
L 186.43275 192.825344 
z
"/>
   </g>
   <g id="patch_51">
    <path clip-path="url(#p80ae60526c)" d="M 189.19175 71471.148137 
L 190.57125 71471.148137 
L 190.57125 192.352678 
L 189.19175 192.352678 
z
"/>
   </g>
   <g id="patch_52">
    <path clip-path="url(#p80ae60526c)" d="M 191.95075 71471.148137 
L 193.33025 71471.148137 
L 193.33025 192.146422 
L 191.95075 192.146422 
z
"/>
   </g>
   <g id="patch_53">
    <path clip-path="url(#p80ae60526c)" d="M 194.70975 71471.148137 
L 196.08925 71471.148137 
L 196.08925 191.308189 
L 194.70975 191.308189 
z
"/>
   </g>
   <g id="patch_54">
    <path clip-path="url(#p80ae60526c)" d="M 197.46875 71471.148137 
L 198.84825 71471.148137 
L 198.84825 191.016126 
L 197.46875 191.016126 
z
"/>
   </g>
   <g id="patch_55">
    <path clip-path="url(#p80ae60526c)" d="M 200.22775 71471.148137 
L 201.60725 71471.148137 
L 201.60725 186.832821 
L 200.22775 186.832821 
z
"/>
   </g>
   <g id="patch_56">
    <path clip-path="url(#p80ae60526c)" d="M 202.98675 71471.148137 
L 204.36625 71471.148137 
L 204.36625 186.068987 
L 202.98675 186.068987 
z
"/>
   </g>
   <g id="patch_57">
    <path clip-path="url(#p80ae60526c)" d="M 205.74575 71471.148137 
L 207.12525 71471.148137 
L 207.12525 185.12631 
L 205.74575 185.12631 
z
"/>
   </g>
   <g id="patch_58">
    <path clip-path="url(#p80ae60526c)" d="M 208.50475 71471.148137 
L 209.88425 71471.148137 
L 209.88425 182.801836 
L 208.50475 182.801836 
z
"/>
   </g>
   <g id="patch_59">
    <path clip-path="url(#p80ae60526c)" d="M 211.26375 71471.148137 
L 212.64325 71471.148137 
L 212.64325 178.975172 
L 211.26375 178.975172 
z
"/>
   </g>
   <g id="patch_60">
    <path clip-path="url(#p80ae60526c)" d="M 214.02275 71471.148137 
L 215.40225 71471.148137 
L 215.40225 178.725469 
L 214.02275 178.725469 
z
"/>
   </g>
   <g id="patch_61">
    <path clip-path="url(#p80ae60526c)" d="M 216.78175 71471.148137 
L 218.16125 71471.148137 
L 218.16125 177.703335 
L 216.78175 177.703335 
z
"/>
   </g>
   <g id="patch_62">
    <path clip-path="url(#p80ae60526c)" d="M 219.54075 71471.148137 
L 220.92025 71471.148137 
L 220.92025 177.540488 
L 219.54075 177.540488 
z
"/>
   </g>
   <g id="patch_63">
    <path clip-path="url(#p80ae60526c)" d="M 222.29975 71471.148137 
L 223.67925 71471.148137 
L 223.67925 176.448688 
L 222.29975 176.448688 
z
"/>
   </g>
   <g id="patch_64">
    <path clip-path="url(#p80ae60526c)" d="M 225.05875 71471.148137 
L 226.43825 71471.148137 
L 226.43825 175.916901 
L 225.05875 175.916901 
z
"/>
   </g>
   <g id="patch_65">
    <path clip-path="url(#p80ae60526c)" d="M 227.81775 71471.148137 
L 229.19725 71471.148137 
L 229.19725 175.211203 
L 227.81775 175.211203 
z
"/>
   </g>
   <g id="patch_66">
    <path clip-path="url(#p80ae60526c)" d="M 230.57675 71471.148137 
L 231.95625 71471.148137 
L 231.95625 175.179505 
L 230.57675 175.179505 
z
"/>
   </g>
   <g id="patch_67">
    <path clip-path="url(#p80ae60526c)" d="M 233.33575 71471.148137 
L 234.71525 71471.148137 
L 234.71525 174.143621 
L 233.33575 174.143621 
z
"/>
   </g>
   <g id="patch_68">
    <path clip-path="url(#p80ae60526c)" d="M 236.09475 71471.148137 
L 237.47425 71471.148137 
L 237.47425 173.015484 
L 236.09475 173.015484 
z
"/>
   </g>
   <g id="patch_69">
    <path clip-path="url(#p80ae60526c)" d="M 238.85375 71471.148137 
L 240.23325 71471.148137 
L 240.23325 172.91226 
L 238.85375 172.91226 
z
"/>
   </g>
   <g id="patch_70">
    <path clip-path="url(#p80ae60526c)" d="M 241.61275 71471.148137 
L 242.99225 71471.148137 
L 242.99225 172.699527 
L 241.61275 172.699527 
z
"/>
   </g>
   <g id="patch_71">
    <path clip-path="url(#p80ae60526c)" d="M 244.37175 71471.148137 
L 245.75125 71471.148137 
L 245.75125 172.22076 
L 244.37175 172.22076 
z
"/>
   </g>
   <g id="patch_72">
    <path clip-path="url(#p80ae60526c)" d="M 247.13075 71471.148137 
L 248.51025 71471.148137 
L 248.51025 169.798694 
L 247.13075 169.798694 
z
"/>
   </g>
   <g id="patch_73">
    <path clip-path="url(#p80ae60526c)" d="M 249.88975 71471.148137 
L 251.26925 71471.148137 
L 251.26925 168.001458 
L 249.88975 168.001458 
z
"/>
   </g>
   <g id="patch_74">
    <path clip-path="url(#p80ae60526c)" d="M 252.64875 71471.148137 
L 254.02825 71471.148137 
L 254.02825 166.976037 
L 252.64875 166.976037 
z
"/>
   </g>
   <g id="patch_75">
    <path clip-path="url(#p80ae60526c)" d="M 255.40775 71471.148137 
L 256.78725 71471.148137 
L 256.78725 166.33859 
L 255.40775 166.33859 
z
"/>
   </g>
   <g id="patch_76">
    <path clip-path="url(#p80ae60526c)" d="M 258.16675 71471.148137 
L 259.54625 71471.148137 
L 259.54625 165.452623 
L 258.16675 165.452623 
z
"/>
   </g>
   <g id="patch_77">
    <path clip-path="url(#p80ae60526c)" d="M 260.92575 71471.148137 
L 262.30525 71471.148137 
L 262.30525 163.846552 
L 260.92575 163.846552 
z
"/>
   </g>
   <g id="patch_78">
    <path clip-path="url(#p80ae60526c)" d="M 263.68475 71471.148137 
L 265.06425 71471.148137 
L 265.06425 163.172979 
L 263.68475 163.172979 
z
"/>
   </g>
   <g id="patch_79">
    <path clip-path="url(#p80ae60526c)" d="M 266.44375 71471.148137 
L 267.82325 71471.148137 
L 267.82325 161.514854 
L 266.44375 161.514854 
z
"/>
   </g>
   <g id="patch_80">
    <path clip-path="url(#p80ae60526c)" d="M 269.20275 71471.148137 
L 270.58225 71471.148137 
L 270.58225 161.200688 
L 269.20275 161.200688 
z
"/>
   </g>
   <g id="patch_81">
    <path clip-path="url(#p80ae60526c)" d="M 271.96175 71471.148137 
L 273.34125 71471.148137 
L 273.34125 160.281778 
L 271.96175 160.281778 
z
"/>
   </g>
   <g id="patch_82">
    <path clip-path="url(#p80ae60526c)" d="M 274.72075 71471.148137 
L 276.10025 71471.148137 
L 276.10025 157.315934 
L 274.72075 157.315934 
z
"/>
   </g>
   <g id="patch_83">
    <path clip-path="url(#p80ae60526c)" d="M 277.47975 71471.148137 
L 278.85925 71471.148137 
L 278.85925 155.869495 
L 277.47975 155.869495 
z
"/>
   </g>
   <g id="patch_84">
    <path clip-path="url(#p80ae60526c)" d="M 280.23875 71471.148137 
L 281.61825 71471.148137 
L 281.61825 155.36857 
L 280.23875 155.36857 
z
"/>
   </g>
   <g id="patch_85">
    <path clip-path="url(#p80ae60526c)" d="M 282.99775 71471.148137 
L 284.37725 71471.148137 
L 284.37725 155.185388 
L 282.99775 155.185388 
z
"/>
   </g>
   <g id="patch_86">
    <path clip-path="url(#p80ae60526c)" d="M 285.75675 71471.148137 
L 287.13625 71471.148137 
L 287.13625 154.390408 
L 285.75675 154.390408 
z
"/>
   </g>
   <g id="patch_87">
    <path clip-path="url(#p80ae60526c)" d="M 288.51575 71471.148137 
L 289.89525 71471.148137 
L 289.89525 153.246662 
L 288.51575 153.246662 
z
"/>
   </g>
   <g id="patch_88">
    <path clip-path="url(#p80ae60526c)" d="M 291.27475 71471.148137 
L 292.65425 71471.148137 
L 292.65425 151.997303 
L 291.27475 151.997303 
z
"/>
   </g>
   <g id="patch_89">
    <path clip-path="url(#p80ae60526c)" d="M 294.03375 71471.148137 
L 295.41325 71471.148137 
L 295.41325 151.547495 
L 294.03375 151.547495 
z
"/>
   </g>
   <g id="patch_90">
    <path clip-path="url(#p80ae60526c)" d="M 296.79275 71471.148137 
L 298.17225 71471.148137 
L 298.17225 150.699331 
L 296.79275 150.699331 
z
"/>
   </g>
   <g id="patch_91">
    <path clip-path="url(#p80ae60526c)" d="M 299.55175 71471.148137 
L 300.93125 71471.148137 
L 300.93125 150.236019 
L 299.55175 150.236019 
z
"/>
   </g>
   <g id="patch_92">
    <path clip-path="url(#p80ae60526c)" d="M 302.31075 71471.148137 
L 303.69025 71471.148137 
L 303.69025 150.108934 
L 302.31075 150.108934 
z
"/>
   </g>
   <g id="patch_93">
    <path clip-path="url(#p80ae60526c)" d="M 305.06975 71471.148137 
L 306.44925 71471.148137 
L 306.44925 149.178914 
L 305.06975 149.178914 
z
"/>
   </g>
   <g id="patch_94">
    <path clip-path="url(#p80ae60526c)" d="M 307.82875 71471.148137 
L 309.20825 71471.148137 
L 309.20825 149.039068 
L 307.82875 149.039068 
z
"/>
   </g>
   <g id="patch_95">
    <path clip-path="url(#p80ae60526c)" d="M 310.58775 71471.148137 
L 311.96725 71471.148137 
L 311.96725 147.518394 
L 310.58775 147.518394 
z
"/>
   </g>
   <g id="patch_96">
    <path clip-path="url(#p80ae60526c)" d="M 313.34675 71471.148137 
L 314.72625 71471.148137 
L 314.72625 146.205296 
L 313.34675 146.205296 
z
"/>
   </g>
   <g id="patch_97">
    <path clip-path="url(#p80ae60526c)" d="M 316.10575 71471.148137 
L 317.48525 71471.148137 
L 317.48525 145.050186 
L 316.10575 145.050186 
z
"/>
   </g>
   <g id="patch_98">
    <path clip-path="url(#p80ae60526c)" d="M 318.86475 71471.148137 
L 320.24425 71471.148137 
L 320.24425 144.305339 
L 318.86475 144.305339 
z
"/>
   </g>
   <g id="patch_99">
    <path clip-path="url(#p80ae60526c)" d="M 321.62375 71471.148137 
L 323.00325 71471.148137 
L 323.00325 142.886885 
L 321.62375 142.886885 
z
"/>
   </g>
   <g id="patch_100">
    <path clip-path="url(#p80ae60526c)" d="M 324.38275 71471.148137 
L 325.76225 71471.148137 
L 325.76225 141.509258 
L 324.38275 141.509258 
z
"/>
   </g>
   <g id="patch_101">
    <path clip-path="url(#p80ae60526c)" d="M 327.14175 71471.148137 
L 328.52125 71471.148137 
L 328.52125 140.503869 
L 327.14175 140.503869 
z
"/>
   </g>
   <g id="patch_102">
    <path clip-path="url(#p80ae60526c)" d="M 329.90075 71471.148137 
L 331.28025 71471.148137 
L 331.28025 139.152007 
L 329.90075 139.152007 
z
"/>
   </g>
   <g id="patch_103">
    <path clip-path="url(#p80ae60526c)" d="M 332.65975 71471.148137 
L 334.03925 71471.148137 
L 334.03925 137.379112 
L 332.65975 137.379112 
z
"/>
   </g>
   <g id="patch_104">
    <path clip-path="url(#p80ae60526c)" d="M 335.41875 71471.148137 
L 336.79825 71471.148137 
L 336.79825 135.378895 
L 335.41875 135.378895 
z
"/>
   </g>
   <g id="patch_105">
    <path clip-path="url(#p80ae60526c)" d="M 338.17775 71471.148137 
L 339.55725 71471.148137 
L 339.55725 134.881713 
L 338.17775 134.881713 
z
"/>
   </g>
   <g id="patch_106">
    <path clip-path="url(#p80ae60526c)" d="M 340.93675 71471.148137 
L 342.31625 71471.148137 
L 342.31625 132.312142 
L 340.93675 132.312142 
z
"/>
   </g>
   <g id="patch_107">
    <path clip-path="url(#p80ae60526c)" d="M 343.69575 71471.148137 
L 345.07525 71471.148137 
L 345.07525 128.331753 
L 343.69575 128.331753 
z
"/>
   </g>
   <g id="patch_108">
    <path clip-path="url(#p80ae60526c)" d="M 346.45475 71471.148137 
L 347.83425 71471.148137 
L 347.83425 124.299549 
L 346.45475 124.299549 
z
"/>
   </g>
   <g id="patch_109">
    <path clip-path="url(#p80ae60526c)" d="M 349.21375 71471.148137 
L 350.59325 71471.148137 
L 350.59325 124.213989 
L 349.21375 124.213989 
z
"/>
   </g>
   <g id="patch_110">
    <path clip-path="url(#p80ae60526c)" d="M 351.97275 71471.148137 
L 353.35225 71471.148137 
L 353.35225 120.001084 
L 351.97275 120.001084 
z
"/>
   </g>
   <g id="patch_111">
    <path clip-path="url(#p80ae60526c)" d="M 354.73175 71471.148137 
L 356.11125 71471.148137 
L 356.11125 117.295969 
L 354.73175 117.295969 
z
"/>
   </g>
   <g id="patch_112">
    <path clip-path="url(#p80ae60526c)" d="M 357.49075 71471.148137 
L 358.87025 71471.148137 
L 358.87025 115.057117 
L 357.49075 115.057117 
z
"/>
   </g>
   <g id="patch_113">
    <path clip-path="url(#p80ae60526c)" d="M 360.24975 71471.148137 
L 361.62925 71471.148137 
L 361.62925 113.633133 
L 360.24975 113.633133 
z
"/>
   </g>
   <g id="patch_114">
    <path clip-path="url(#p80ae60526c)" d="M 363.00875 71471.148137 
L 364.38825 71471.148137 
L 364.38825 111.798311 
L 363.00875 111.798311 
z
"/>
   </g>
   <g id="patch_115">
    <path clip-path="url(#p80ae60526c)" d="M 365.76775 71471.148137 
L 367.14725 71471.148137 
L 367.14725 111.794225 
L 365.76775 111.794225 
z
"/>
   </g>
   <g id="patch_116">
    <path clip-path="url(#p80ae60526c)" d="M 368.52675 71471.148137 
L 369.90625 71471.148137 
L 369.90625 111.389363 
L 368.52675 111.389363 
z
"/>
   </g>
   <g id="patch_117">
    <path clip-path="url(#p80ae60526c)" d="M 371.28575 71471.148137 
L 372.66525 71471.148137 
L 372.66525 111.324913 
L 371.28575 111.324913 
z
"/>
   </g>
   <g id="patch_118">
    <path clip-path="url(#p80ae60526c)" d="M 374.04475 71471.148137 
L 375.42425 71471.148137 
L 375.42425 109.329395 
L 374.04475 109.329395 
z
"/>
   </g>
   <g id="patch_119">
    <path clip-path="url(#p80ae60526c)" d="M 376.80375 71471.148137 
L 378.18325 71471.148137 
L 378.18325 108.452535 
L 376.80375 108.452535 
z
"/>
   </g>
   <g id="patch_120">
    <path clip-path="url(#p80ae60526c)" d="M 379.56275 71471.148137 
L 380.94225 71471.148137 
L 380.94225 106.606336 
L 379.56275 106.606336 
z
"/>
   </g>
   <g id="patch_121">
    <path clip-path="url(#p80ae60526c)" d="M 382.32175 71471.148137 
L 383.70125 71471.148137 
L 383.70125 104.058262 
L 382.32175 104.058262 
z
"/>
   </g>
   <g id="patch_122">
    <path clip-path="url(#p80ae60526c)" d="M 385.08075 71471.148137 
L 386.46025 71471.148137 
L 386.46025 98.598859 
L 385.08075 98.598859 
z
"/>
   </g>
   <g id="patch_123">
    <path clip-path="url(#p80ae60526c)" d="M 387.83975 71471.148137 
L 389.21925 71471.148137 
L 389.21925 96.5698 
L 387.83975 96.5698 
z
"/>
   </g>
   <g id="patch_124">
    <path clip-path="url(#p80ae60526c)" d="M 390.59875 71471.148137 
L 391.97825 71471.148137 
L 391.97825 95.897725 
L 390.59875 95.897725 
z
"/>
   </g>
   <g id="patch_125">
    <path clip-path="url(#p80ae60526c)" d="M 393.35775 71471.148137 
L 394.73725 71471.148137 
L 394.73725 66.599859 
L 393.35775 66.599859 
z
"/>
   </g>
   <g id="patch_126">
    <path clip-path="url(#p80ae60526c)" d="M 396.11675 71471.148137 
L 397.49625 71471.148137 
L 397.49625 45.502621 
L 396.11675 45.502621 
z
"/>
   </g>
   <g id="patch_127">
    <path clip-path="url(#p80ae60526c)" d="M 398.87575 71471.148137 
L 400.25525 71471.148137 
L 400.25525 39.335499 
L 398.87575 39.335499 
z
"/>
   </g>
   <g id="patch_128">
    <path clip-path="url(#p80ae60526c)" d="M 401.63475 71471.148137 
L 403.01425 71471.148137 
L 403.01425 39.06 
L 401.63475 39.06 
z
"/>
   </g>
   <g id="patch_129">
    <path clip-path="url(#p80ae60526c)" d="M 56.75975 71471.148137 
L 58.13925 71471.148137 
L 58.13925 215.46 
L 56.75975 215.46 
z
"/>
   </g>
   <g id="patch_130">
    <path clip-path="url(#p80ae60526c)" d="M 59.51875 71471.148137 
L 60.89825 71471.148137 
L 60.89825 214.997693 
L 59.51875 214.997693 
z
"/>
   </g>
   <g id="patch_131">
    <path clip-path="url(#p80ae60526c)" d="M 62.27775 71471.148137 
L 63.65725 71471.148137 
L 63.65725 213.982082 
L 62.27775 213.982082 
z
"/>
   </g>
   <g id="patch_132">
    <path clip-path="url(#p80ae60526c)" d="M 65.03675 71471.148137 
L 66.41625 71471.148137 
L 66.41625 213.926625 
L 65.03675 213.926625 
z
"/>
   </g>
   <g id="patch_133">
    <path clip-path="url(#p80ae60526c)" d="M 67.79575 71471.148137 
L 69.17525 71471.148137 
L 69.17525 213.898933 
L 67.79575 213.898933 
z
"/>
   </g>
   <g id="patch_134">
    <path clip-path="url(#p80ae60526c)" d="M 70.55475 71471.148137 
L 71.93425 71471.148137 
L 71.93425 213.295909 
L 70.55475 213.295909 
z
"/>
   </g>
   <g id="patch_135">
    <path clip-path="url(#p80ae60526c)" d="M 73.31375 71471.148137 
L 74.69325 71471.148137 
L 74.69325 213.133467 
L 73.31375 213.133467 
z
"/>
   </g>
   <g id="patch_136">
    <path clip-path="url(#p80ae60526c)" d="M 76.07275 71471.148137 
L 77.45225 71471.148137 
L 77.45225 212.971873 
L 76.07275 212.971873 
z
"/>
   </g>
   <g id="patch_137">
    <path clip-path="url(#p80ae60526c)" d="M 78.83175 71471.148137 
L 80.21125 71471.148137 
L 80.21125 212.386479 
L 78.83175 212.386479 
z
"/>
   </g>
   <g id="patch_138">
    <path clip-path="url(#p80ae60526c)" d="M 81.59075 71471.148137 
L 82.97025 71471.148137 
L 82.97025 210.594284 
L 81.59075 210.594284 
z
"/>
   </g>
   <g id="patch_139">
    <path clip-path="url(#p80ae60526c)" d="M 84.34975 71471.148137 
L 85.72925 71471.148137 
L 85.72925 210.445389 
L 84.34975 210.445389 
z
"/>
   </g>
   <g id="patch_140">
    <path clip-path="url(#p80ae60526c)" d="M 87.10875 71471.148137 
L 88.48825 71471.148137 
L 88.48825 210.174263 
L 87.10875 210.174263 
z
"/>
   </g>
   <g id="patch_141">
    <path clip-path="url(#p80ae60526c)" d="M 89.86775 71471.148137 
L 91.24725 71471.148137 
L 91.24725 208.665614 
L 89.86775 208.665614 
z
"/>
   </g>
   <g id="patch_142">
    <path clip-path="url(#p80ae60526c)" d="M 92.62675 71471.148137 
L 94.00625 71471.148137 
L 94.00625 208.316998 
L 92.62675 208.316998 
z
"/>
   </g>
   <g id="patch_143">
    <path clip-path="url(#p80ae60526c)" d="M 95.38575 71471.148137 
L 96.76525 71471.148137 
L 96.76525 207.926591 
L 95.38575 207.926591 
z
"/>
   </g>
   <g id="patch_144">
    <path clip-path="url(#p80ae60526c)" d="M 98.14475 71471.148137 
L 99.52425 71471.148137 
L 99.52425 207.563594 
L 98.14475 207.563594 
z
"/>
   </g>
   <g id="patch_145">
    <path clip-path="url(#p80ae60526c)" d="M 100.90375 71471.148137 
L 102.28325 71471.148137 
L 102.28325 207.271762 
L 100.90375 207.271762 
z
"/>
   </g>
   <g id="patch_146">
    <path clip-path="url(#p80ae60526c)" d="M 103.66275 71471.148137 
L 105.04225 71471.148137 
L 105.04225 207.093532 
L 103.66275 207.093532 
z
"/>
   </g>
   <g id="patch_147">
    <path clip-path="url(#p80ae60526c)" d="M 106.42175 71471.148137 
L 107.80125 71471.148137 
L 107.80125 207.093532 
L 106.42175 207.093532 
z
"/>
   </g>
   <g id="patch_148">
    <path clip-path="url(#p80ae60526c)" d="M 109.18075 71471.148137 
L 110.56025 71471.148137 
L 110.56025 206.828097 
L 109.18075 206.828097 
z
"/>
   </g>
   <g id="patch_149">
    <path clip-path="url(#p80ae60526c)" d="M 111.93975 71471.148137 
L 113.31925 71471.148137 
L 113.31925 206.347301 
L 111.93975 206.347301 
z
"/>
   </g>
   <g id="patch_150">
    <path clip-path="url(#p80ae60526c)" d="M 114.69875 71471.148137 
L 116.07825 71471.148137 
L 116.07825 206.002265 
L 114.69875 206.002265 
z
"/>
   </g>
   <g id="patch_151">
    <path clip-path="url(#p80ae60526c)" d="M 117.45775 71471.148137 
L 118.83725 71471.148137 
L 118.83725 205.852513 
L 117.45775 205.852513 
z
"/>
   </g>
   <g id="patch_152">
    <path clip-path="url(#p80ae60526c)" d="M 120.21675 71471.148137 
L 121.59625 71471.148137 
L 121.59625 205.4286 
L 120.21675 205.4286 
z
"/>
   </g>
   <g id="patch_153">
    <path clip-path="url(#p80ae60526c)" d="M 122.97575 71471.148137 
L 124.35525 71471.148137 
L 124.35525 202.806272 
L 122.97575 202.806272 
z
"/>
   </g>
   <g id="patch_154">
    <path clip-path="url(#p80ae60526c)" d="M 125.73475 71471.148137 
L 127.11425 71471.148137 
L 127.11425 202.729006 
L 125.73475 202.729006 
z
"/>
   </g>
   <g id="patch_155">
    <path clip-path="url(#p80ae60526c)" d="M 128.49375 71471.148137 
L 129.87325 71471.148137 
L 129.87325 202.28843 
L 128.49375 202.28843 
z
"/>
   </g>
   <g id="patch_156">
    <path clip-path="url(#p80ae60526c)" d="M 131.25275 71471.148137 
L 132.63225 71471.148137 
L 132.63225 201.444164 
L 131.25275 201.444164 
z
"/>
   </g>
   <g id="patch_157">
    <path clip-path="url(#p80ae60526c)" d="M 134.01175 71471.148137 
L 135.39125 71471.148137 
L 135.39125 201.425661 
L 134.01175 201.425661 
z
"/>
   </g>
   <g id="patch_158">
    <path clip-path="url(#p80ae60526c)" d="M 136.77075 71471.148137 
L 138.15025 71471.148137 
L 138.15025 200.784952 
L 136.77075 200.784952 
z
"/>
   </g>
   <g id="patch_159">
    <path clip-path="url(#p80ae60526c)" d="M 139.52975 71471.148137 
L 140.90925 71471.148137 
L 140.90925 199.962561 
L 139.52975 199.962561 
z
"/>
   </g>
   <g id="patch_160">
    <path clip-path="url(#p80ae60526c)" d="M 142.28875 71471.148137 
L 143.66825 71471.148137 
L 143.66825 199.892071 
L 142.28875 199.892071 
z
"/>
   </g>
   <g id="patch_161">
    <path clip-path="url(#p80ae60526c)" d="M 145.04775 71471.148137 
L 146.42725 71471.148137 
L 146.42725 199.455109 
L 145.04775 199.455109 
z
"/>
   </g>
   <g id="patch_162">
    <path clip-path="url(#p80ae60526c)" d="M 147.80675 71471.148137 
L 149.18625 71471.148137 
L 149.18625 199.264783 
L 147.80675 199.264783 
z
"/>
   </g>
   <g id="patch_163">
    <path clip-path="url(#p80ae60526c)" d="M 150.56575 71471.148137 
L 151.94525 71471.148137 
L 151.94525 198.080298 
L 150.56575 198.080298 
z
"/>
   </g>
   <g id="patch_164">
    <path clip-path="url(#p80ae60526c)" d="M 153.32475 71471.148137 
L 154.70425 71471.148137 
L 154.70425 197.733616 
L 153.32475 197.733616 
z
"/>
   </g>
   <g id="patch_165">
    <path clip-path="url(#p80ae60526c)" d="M 156.08375 71471.148137 
L 157.46325 71471.148137 
L 157.46325 197.196559 
L 156.08375 197.196559 
z
"/>
   </g>
   <g id="patch_166">
    <path clip-path="url(#p80ae60526c)" d="M 158.84275 71471.148137 
L 160.22225 71471.148137 
L 160.22225 196.243348 
L 158.84275 196.243348 
z
"/>
   </g>
   <g id="patch_167">
    <path clip-path="url(#p80ae60526c)" d="M 161.60175 71471.148137 
L 162.98125 71471.148137 
L 162.98125 195.963018 
L 161.60175 195.963018 
z
"/>
   </g>
   <g id="patch_168">
    <path clip-path="url(#p80ae60526c)" d="M 164.36075 71471.148137 
L 165.74025 71471.148137 
L 165.74025 195.947518 
L 164.36075 195.947518 
z
"/>
   </g>
   <g id="patch_169">
    <path clip-path="url(#p80ae60526c)" d="M 167.11975 71471.148137 
L 168.49925 71471.148137 
L 168.49925 195.792947 
L 167.11975 195.792947 
z
"/>
   </g>
   <g id="patch_170">
    <path clip-path="url(#p80ae60526c)" d="M 169.87875 71471.148137 
L 171.25825 71471.148137 
L 171.25825 195.37942 
L 169.87875 195.37942 
z
"/>
   </g>
   <g id="patch_171">
    <path clip-path="url(#p80ae60526c)" d="M 172.63775 71471.148137 
L 174.01725 71471.148137 
L 174.01725 195.318624 
L 172.63775 195.318624 
z
"/>
   </g>
   <g id="patch_172">
    <path clip-path="url(#p80ae60526c)" d="M 175.39675 71471.148137 
L 176.77625 71471.148137 
L 176.77625 195.227653 
L 175.39675 195.227653 
z
"/>
   </g>
   <g id="patch_173">
    <path clip-path="url(#p80ae60526c)" d="M 178.15575 71471.148137 
L 179.53525 71471.148137 
L 179.53525 194.435486 
L 178.15575 194.435486 
z
"/>
   </g>
   <g id="patch_174">
    <path clip-path="url(#p80ae60526c)" d="M 180.91475 71471.148137 
L 182.29425 71471.148137 
L 182.29425 194.405987 
L 180.91475 194.405987 
z
"/>
   </g>
   <g id="patch_175">
    <path clip-path="url(#p80ae60526c)" d="M 183.67375 71471.148137 
L 185.05325 71471.148137 
L 185.05325 193.67749 
L 183.67375 193.67749 
z
"/>
   </g>
   <g id="patch_176">
    <path clip-path="url(#p80ae60526c)" d="M 186.43275 71471.148137 
L 187.81225 71471.148137 
L 187.81225 192.825344 
L 186.43275 192.825344 
z
"/>
   </g>
   <g id="patch_177">
    <path clip-path="url(#p80ae60526c)" d="M 189.19175 71471.148137 
L 190.57125 71471.148137 
L 190.57125 192.352678 
L 189.19175 192.352678 
z
"/>
   </g>
   <g id="patch_178">
    <path clip-path="url(#p80ae60526c)" d="M 191.95075 71471.148137 
L 193.33025 71471.148137 
L 193.33025 192.146422 
L 191.95075 192.146422 
z
"/>
   </g>
   <g id="patch_179">
    <path clip-path="url(#p80ae60526c)" d="M 194.70975 71471.148137 
L 196.08925 71471.148137 
L 196.08925 191.308189 
L 194.70975 191.308189 
z
"/>
   </g>
   <g id="patch_180">
    <path clip-path="url(#p80ae60526c)" d="M 197.46875 71471.148137 
L 198.84825 71471.148137 
L 198.84825 191.016126 
L 197.46875 191.016126 
z
"/>
   </g>
   <g id="patch_181">
    <path clip-path="url(#p80ae60526c)" d="M 200.22775 71471.148137 
L 201.60725 71471.148137 
L 201.60725 186.832821 
L 200.22775 186.832821 
z
"/>
   </g>
   <g id="patch_182">
    <path clip-path="url(#p80ae60526c)" d="M 202.98675 71471.148137 
L 204.36625 71471.148137 
L 204.36625 186.068987 
L 202.98675 186.068987 
z
"/>
   </g>
   <g id="patch_183">
    <path clip-path="url(#p80ae60526c)" d="M 205.74575 71471.148137 
L 207.12525 71471.148137 
L 207.12525 185.12631 
L 205.74575 185.12631 
z
"/>
   </g>
   <g id="patch_184">
    <path clip-path="url(#p80ae60526c)" d="M 208.50475 71471.148137 
L 209.88425 71471.148137 
L 209.88425 182.801836 
L 208.50475 182.801836 
z
"/>
   </g>
   <g id="patch_185">
    <path clip-path="url(#p80ae60526c)" d="M 211.26375 71471.148137 
L 212.64325 71471.148137 
L 212.64325 178.975172 
L 211.26375 178.975172 
z
"/>
   </g>
   <g id="patch_186">
    <path clip-path="url(#p80ae60526c)" d="M 214.02275 71471.148137 
L 215.40225 71471.148137 
L 215.40225 178.725469 
L 214.02275 178.725469 
z
"/>
   </g>
   <g id="patch_187">
    <path clip-path="url(#p80ae60526c)" d="M 216.78175 71471.148137 
L 218.16125 71471.148137 
L 218.16125 177.703335 
L 216.78175 177.703335 
z
"/>
   </g>
   <g id="patch_188">
    <path clip-path="url(#p80ae60526c)" d="M 219.54075 71471.148137 
L 220.92025 71471.148137 
L 220.92025 177.540488 
L 219.54075 177.540488 
z
"/>
   </g>
   <g id="patch_189">
    <path clip-path="url(#p80ae60526c)" d="M 222.29975 71471.148137 
L 223.67925 71471.148137 
L 223.67925 176.448688 
L 222.29975 176.448688 
z
"/>
   </g>
   <g id="patch_190">
    <path clip-path="url(#p80ae60526c)" d="M 225.05875 71471.148137 
L 226.43825 71471.148137 
L 226.43825 175.916901 
L 225.05875 175.916901 
z
"/>
   </g>
   <g id="patch_191">
    <path clip-path="url(#p80ae60526c)" d="M 227.81775 71471.148137 
L 229.19725 71471.148137 
L 229.19725 175.211203 
L 227.81775 175.211203 
z
"/>
   </g>
   <g id="patch_192">
    <path clip-path="url(#p80ae60526c)" d="M 230.57675 71471.148137 
L 231.95625 71471.148137 
L 231.95625 175.179505 
L 230.57675 175.179505 
z
"/>
   </g>
   <g id="patch_193">
    <path clip-path="url(#p80ae60526c)" d="M 233.33575 71471.148137 
L 234.71525 71471.148137 
L 234.71525 174.143621 
L 233.33575 174.143621 
z
"/>
   </g>
   <g id="patch_194">
    <path clip-path="url(#p80ae60526c)" d="M 236.09475 71471.148137 
L 237.47425 71471.148137 
L 237.47425 173.015484 
L 236.09475 173.015484 
z
"/>
   </g>
   <g id="patch_195">
    <path clip-path="url(#p80ae60526c)" d="M 238.85375 71471.148137 
L 240.23325 71471.148137 
L 240.23325 172.91226 
L 238.85375 172.91226 
z
"/>
   </g>
   <g id="patch_196">
    <path clip-path="url(#p80ae60526c)" d="M 241.61275 71471.148137 
L 242.99225 71471.148137 
L 242.99225 172.699527 
L 241.61275 172.699527 
z
"/>
   </g>
   <g id="patch_197">
    <path clip-path="url(#p80ae60526c)" d="M 244.37175 71471.148137 
L 245.75125 71471.148137 
L 245.75125 172.22076 
L 244.37175 172.22076 
z
"/>
   </g>
   <g id="patch_198">
    <path clip-path="url(#p80ae60526c)" d="M 247.13075 71471.148137 
L 248.51025 71471.148137 
L 248.51025 169.798694 
L 247.13075 169.798694 
z
"/>
   </g>
   <g id="patch_199">
    <path clip-path="url(#p80ae60526c)" d="M 249.88975 71471.148137 
L 251.26925 71471.148137 
L 251.26925 168.001458 
L 249.88975 168.001458 
z
"/>
   </g>
   <g id="patch_200">
    <path clip-path="url(#p80ae60526c)" d="M 252.64875 71471.148137 
L 254.02825 71471.148137 
L 254.02825 166.976037 
L 252.64875 166.976037 
z
"/>
   </g>
   <g id="patch_201">
    <path clip-path="url(#p80ae60526c)" d="M 255.40775 71471.148137 
L 256.78725 71471.148137 
L 256.78725 166.33859 
L 255.40775 166.33859 
z
"/>
   </g>
   <g id="patch_202">
    <path clip-path="url(#p80ae60526c)" d="M 258.16675 71471.148137 
L 259.54625 71471.148137 
L 259.54625 165.452623 
L 258.16675 165.452623 
z
"/>
   </g>
   <g id="patch_203">
    <path clip-path="url(#p80ae60526c)" d="M 260.92575 71471.148137 
L 262.30525 71471.148137 
L 262.30525 163.846552 
L 260.92575 163.846552 
z
"/>
   </g>
   <g id="patch_204">
    <path clip-path="url(#p80ae60526c)" d="M 263.68475 71471.148137 
L 265.06425 71471.148137 
L 265.06425 163.172979 
L 263.68475 163.172979 
z
"/>
   </g>
   <g id="patch_205">
    <path clip-path="url(#p80ae60526c)" d="M 266.44375 71471.148137 
L 267.82325 71471.148137 
L 267.82325 161.514854 
L 266.44375 161.514854 
z
"/>
   </g>
   <g id="patch_206">
    <path clip-path="url(#p80ae60526c)" d="M 269.20275 71471.148137 
L 270.58225 71471.148137 
L 270.58225 161.200688 
L 269.20275 161.200688 
z
"/>
   </g>
   <g id="patch_207">
    <path clip-path="url(#p80ae60526c)" d="M 271.96175 71471.148137 
L 273.34125 71471.148137 
L 273.34125 160.281778 
L 271.96175 160.281778 
z
"/>
   </g>
   <g id="patch_208">
    <path clip-path="url(#p80ae60526c)" d="M 274.72075 71471.148137 
L 276.10025 71471.148137 
L 276.10025 157.315934 
L 274.72075 157.315934 
z
"/>
   </g>
   <g id="patch_209">
    <path clip-path="url(#p80ae60526c)" d="M 277.47975 71471.148137 
L 278.85925 71471.148137 
L 278.85925 155.869495 
L 277.47975 155.869495 
z
"/>
   </g>
   <g id="patch_210">
    <path clip-path="url(#p80ae60526c)" d="M 280.23875 71471.148137 
L 281.61825 71471.148137 
L 281.61825 155.36857 
L 280.23875 155.36857 
z
"/>
   </g>
   <g id="patch_211">
    <path clip-path="url(#p80ae60526c)" d="M 282.99775 71471.148137 
L 284.37725 71471.148137 
L 284.37725 155.185388 
L 282.99775 155.185388 
z
"/>
   </g>
   <g id="patch_212">
    <path clip-path="url(#p80ae60526c)" d="M 285.75675 71471.148137 
L 287.13625 71471.148137 
L 287.13625 154.390408 
L 285.75675 154.390408 
z
"/>
   </g>
   <g id="patch_213">
    <path clip-path="url(#p80ae60526c)" d="M 288.51575 71471.148137 
L 289.89525 71471.148137 
L 289.89525 153.246662 
L 288.51575 153.246662 
z
"/>
   </g>
   <g id="patch_214">
    <path clip-path="url(#p80ae60526c)" d="M 291.27475 71471.148137 
L 292.65425 71471.148137 
L 292.65425 151.997303 
L 291.27475 151.997303 
z
"/>
   </g>
   <g id="patch_215">
    <path clip-path="url(#p80ae60526c)" d="M 294.03375 71471.148137 
L 295.41325 71471.148137 
L 295.41325 151.547495 
L 294.03375 151.547495 
z
"/>
   </g>
   <g id="patch_216">
    <path clip-path="url(#p80ae60526c)" d="M 296.79275 71471.148137 
L 298.17225 71471.148137 
L 298.17225 150.699331 
L 296.79275 150.699331 
z
"/>
   </g>
   <g id="patch_217">
    <path clip-path="url(#p80ae60526c)" d="M 299.55175 71471.148137 
L 300.93125 71471.148137 
L 300.93125 150.236019 
L 299.55175 150.236019 
z
"/>
   </g>
   <g id="patch_218">
    <path clip-path="url(#p80ae60526c)" d="M 302.31075 71471.148137 
L 303.69025 71471.148137 
L 303.69025 150.108934 
L 302.31075 150.108934 
z
"/>
   </g>
   <g id="patch_219">
    <path clip-path="url(#p80ae60526c)" d="M 305.06975 71471.148137 
L 306.44925 71471.148137 
L 306.44925 149.178914 
L 305.06975 149.178914 
z
"/>
   </g>
   <g id="patch_220">
    <path clip-path="url(#p80ae60526c)" d="M 307.82875 71471.148137 
L 309.20825 71471.148137 
L 309.20825 149.039068 
L 307.82875 149.039068 
z
"/>
   </g>
   <g id="patch_221">
    <path clip-path="url(#p80ae60526c)" d="M 310.58775 71471.148137 
L 311.96725 71471.148137 
L 311.96725 147.518394 
L 310.58775 147.518394 
z
"/>
   </g>
   <g id="patch_222">
    <path clip-path="url(#p80ae60526c)" d="M 313.34675 71471.148137 
L 314.72625 71471.148137 
L 314.72625 146.205296 
L 313.34675 146.205296 
z
"/>
   </g>
   <g id="patch_223">
    <path clip-path="url(#p80ae60526c)" d="M 316.10575 71471.148137 
L 317.48525 71471.148137 
L 317.48525 145.050186 
L 316.10575 145.050186 
z
"/>
   </g>
   <g id="patch_224">
    <path clip-path="url(#p80ae60526c)" d="M 318.86475 71471.148137 
L 320.24425 71471.148137 
L 320.24425 144.305339 
L 318.86475 144.305339 
z
"/>
   </g>
   <g id="patch_225">
    <path clip-path="url(#p80ae60526c)" d="M 321.62375 71471.148137 
L 323.00325 71471.148137 
L 323.00325 142.886885 
L 321.62375 142.886885 
z
"/>
   </g>
   <g id="patch_226">
    <path clip-path="url(#p80ae60526c)" d="M 324.38275 71471.148137 
L 325.76225 71471.148137 
L 325.76225 141.509258 
L 324.38275 141.509258 
z
"/>
   </g>
   <g id="patch_227">
    <path clip-path="url(#p80ae60526c)" d="M 327.14175 71471.148137 
L 328.52125 71471.148137 
L 328.52125 140.503869 
L 327.14175 140.503869 
z
"/>
   </g>
   <g id="patch_228">
    <path clip-path="url(#p80ae60526c)" d="M 329.90075 71471.148137 
L 331.28025 71471.148137 
L 331.28025 139.152007 
L 329.90075 139.152007 
z
"/>
   </g>
   <g id="patch_229">
    <path clip-path="url(#p80ae60526c)" d="M 332.65975 71471.148137 
L 334.03925 71471.148137 
L 334.03925 137.379112 
L 332.65975 137.379112 
z
"/>
   </g>
   <g id="patch_230">
    <path clip-path="url(#p80ae60526c)" d="M 335.41875 71471.148137 
L 336.79825 71471.148137 
L 336.79825 135.378895 
L 335.41875 135.378895 
z
"/>
   </g>
   <g id="patch_231">
    <path clip-path="url(#p80ae60526c)" d="M 338.17775 71471.148137 
L 339.55725 71471.148137 
L 339.55725 134.881713 
L 338.17775 134.881713 
z
"/>
   </g>
   <g id="patch_232">
    <path clip-path="url(#p80ae60526c)" d="M 340.93675 71471.148137 
L 342.31625 71471.148137 
L 342.31625 132.312142 
L 340.93675 132.312142 
z
"/>
   </g>
   <g id="patch_233">
    <path clip-path="url(#p80ae60526c)" d="M 343.69575 71471.148137 
L 345.07525 71471.148137 
L 345.07525 128.331753 
L 343.69575 128.331753 
z
"/>
   </g>
   <g id="patch_234">
    <path clip-path="url(#p80ae60526c)" d="M 346.45475 71471.148137 
L 347.83425 71471.148137 
L 347.83425 124.299549 
L 346.45475 124.299549 
z
"/>
   </g>
   <g id="patch_235">
    <path clip-path="url(#p80ae60526c)" d="M 349.21375 71471.148137 
L 350.59325 71471.148137 
L 350.59325 124.213989 
L 349.21375 124.213989 
z
"/>
   </g>
   <g id="patch_236">
    <path clip-path="url(#p80ae60526c)" d="M 351.97275 71471.148137 
L 353.35225 71471.148137 
L 353.35225 120.001084 
L 351.97275 120.001084 
z
"/>
   </g>
   <g id="patch_237">
    <path clip-path="url(#p80ae60526c)" d="M 354.73175 71471.148137 
L 356.11125 71471.148137 
L 356.11125 117.295969 
L 354.73175 117.295969 
z
"/>
   </g>
   <g id="patch_238">
    <path clip-path="url(#p80ae60526c)" d="M 357.49075 71471.148137 
L 358.87025 71471.148137 
L 358.87025 115.057117 
L 357.49075 115.057117 
z
"/>
   </g>
   <g id="patch_239">
    <path clip-path="url(#p80ae60526c)" d="M 360.24975 71471.148137 
L 361.62925 71471.148137 
L 361.62925 113.633133 
L 360.24975 113.633133 
z
"/>
   </g>
   <g id="patch_240">
    <path clip-path="url(#p80ae60526c)" d="M 363.00875 71471.148137 
L 364.38825 71471.148137 
L 364.38825 111.798311 
L 363.00875 111.798311 
z
"/>
   </g>
   <g id="patch_241">
    <path clip-path="url(#p80ae60526c)" d="M 365.76775 71471.148137 
L 367.14725 71471.148137 
L 367.14725 111.794225 
L 365.76775 111.794225 
z
"/>
   </g>
   <g id="patch_242">
    <path clip-path="url(#p80ae60526c)" d="M 368.52675 71471.148137 
L 369.90625 71471.148137 
L 369.90625 111.389363 
L 368.52675 111.389363 
z
"/>
   </g>
   <g id="patch_243">
    <path clip-path="url(#p80ae60526c)" d="M 371.28575 71471.148137 
L 372.66525 71471.148137 
L 372.66525 111.324913 
L 371.28575 111.324913 
z
"/>
   </g>
   <g id="patch_244">
    <path clip-path="url(#p80ae60526c)" d="M 374.04475 71471.148137 
L 375.42425 71471.148137 
L 375.42425 109.329395 
L 374.04475 109.329395 
z
"/>
   </g>
   <g id="patch_245">
    <path clip-path="url(#p80ae60526c)" d="M 376.80375 71471.148137 
L 378.18325 71471.148137 
L 378.18325 108.452535 
L 376.80375 108.452535 
z
"/>
   </g>
   <g id="patch_246">
    <path clip-path="url(#p80ae60526c)" d="M 379.56275 71471.148137 
L 380.94225 71471.148137 
L 380.94225 106.606336 
L 379.56275 106.606336 
z
"/>
   </g>
   <g id="patch_247">
    <path clip-path="url(#p80ae60526c)" d="M 382.32175 71471.148137 
L 383.70125 71471.148137 
L 383.70125 104.058262 
L 382.32175 104.058262 
z
"/>
   </g>
   <g id="patch_248">
    <path clip-path="url(#p80ae60526c)" d="M 385.08075 71471.148137 
L 386.46025 71471.148137 
L 386.46025 98.598859 
L 385.08075 98.598859 
z
"/>
   </g>
   <g id="patch_249">
    <path clip-path="url(#p80ae60526c)" d="M 387.83975 71471.148137 
L 389.21925 71471.148137 
L 389.21925 96.5698 
L 387.83975 96.5698 
z
"/>
   </g>
   <g id="patch_250">
    <path clip-path="url(#p80ae60526c)" d="M 390.59875 71471.148137 
L 391.97825 71471.148137 
L 391.97825 95.897725 
L 390.59875 95.897725 
z
"/>
   </g>
   <g id="patch_251">
    <path clip-path="url(#p80ae60526c)" d="M 393.35775 71471.148137 
L 394.73725 71471.148137 
L 394.73725 66.599859 
L 393.35775 66.599859 
z
"/>
   </g>
   <g id="patch_252">
    <path clip-path="url(#p80ae60526c)" d="M 396.11675 71471.148137 
L 397.49625 71471.148137 
L 397.49625 45.502621 
L 396.11675 45.502621 
z
"/>
   </g>
   <g id="patch_253">
    <path clip-path="url(#p80ae60526c)" d="M 398.87575 71471.148137 
L 400.25525 71471.148137 
L 400.25525 39.335499 
L 398.87575 39.335499 
z
"/>
   </g>
   <g id="patch_254">
    <path clip-path="url(#p80ae60526c)" d="M 401.63475 71471.148137 
L 403.01425 71471.148137 
L 403.01425 39.06 
L 401.63475 39.06 
z
"/>
   </g>
   <g id="matplotlib.axis_1">
    <g id="ytick_1">
     <g id="line2d_1">
      <defs>
       <path d="M 0 0 
L -3.5 0 
" id="mf50418ed20" style="stroke:#000000;stroke-width:0.8;"/>
      </defs>
      <g>
       <use style="stroke:#000000;stroke-width:0.8;" x="56.07" xlink:href="#mf50418ed20" y="217.350596"/>
      </g>
     </g>
     <g id="text_1">
      <!-- $\mathdefault{10^{0}}$ -->
      <g transform="translate(31.47 221.149815)scale(0.1 -0.1)">
       <defs>
        <path d="M 12.40625 8.296875 
L 28.515625 8.296875 
L 28.515625 63.921875 
L 10.984375 60.40625 
L 10.984375 69.390625 
L 28.421875 72.90625 
L 38.28125 72.90625 
L 38.28125 8.296875 
L 54.390625 8.296875 
L 54.390625 0 
L 12.40625 0 
z
" id="DejaVuSans-49"/>
        <path d="M 31.78125 66.40625 
Q 24.171875 66.40625 20.328125 58.90625 
Q 16.5 51.421875 16.5 36.375 
Q 16.5 21.390625 20.328125 13.890625 
Q 24.171875 6.390625 31.78125 6.390625 
Q 39.453125 6.390625 43.28125 13.890625 
Q 47.125 21.390625 47.125 36.375 
Q 47.125 51.421875 43.28125 58.90625 
Q 39.453125 66.40625 31.78125 66.40625 
z
M 31.78125 74.21875 
Q 44.046875 74.21875 50.515625 64.515625 
Q 56.984375 54.828125 56.984375 36.375 
Q 56.984375 17.96875 50.515625 8.265625 
Q 44.046875 -1.421875 31.78125 -1.421875 
Q 19.53125 -1.421875 13.0625 8.265625 
Q 6.59375 17.96875 6.59375 36.375 
Q 6.59375 54.828125 13.0625 64.515625 
Q 19.53125 74.21875 31.78125 74.21875 
z
" id="DejaVuSans-48"/>
       </defs>
       <use transform="translate(0 0.765625)" xlink:href="#DejaVuSans-49"/>
       <use transform="translate(63.623047 0.765625)" xlink:href="#DejaVuSans-48"/>
       <use transform="translate(128.203125 39.046875)scale(0.7)" xlink:href="#DejaVuSans-48"/>
      </g>
     </g>
    </g>
    <g id="ytick_2">
     <g id="line2d_2">
      <g>
       <use style="stroke:#000000;stroke-width:0.8;" x="56.07" xlink:href="#mf50418ed20" y="146.096798"/>
      </g>
     </g>
     <g id="text_2">
      <!-- $\mathdefault{10^{1}}$ -->
      <g transform="translate(31.47 149.896017)scale(0.1 -0.1)">
       <use transform="translate(0 0.684375)" xlink:href="#DejaVuSans-49"/>
       <use transform="translate(63.623047 0.684375)" xlink:href="#DejaVuSans-48"/>
       <use transform="translate(128.203125 38.965625)scale(0.7)" xlink:href="#DejaVuSans-49"/>
      </g>
     </g>
    </g>
    <g id="ytick_3">
     <g id="line2d_3">
      <g>
       <use style="stroke:#000000;stroke-width:0.8;" x="56.07" xlink:href="#mf50418ed20" y="74.843001"/>
      </g>
     </g>
     <g id="text_3">
      <!-- $\mathdefault{10^{2}}$ -->
      <g transform="translate(31.47 78.64222)scale(0.1 -0.1)">
       <defs>
        <path d="M 19.1875 8.296875 
L 53.609375 8.296875 
L 53.609375 0 
L 7.328125 0 
L 7.328125 8.296875 
Q 12.9375 14.109375 22.625 23.890625 
Q 32.328125 33.6875 34.8125 36.53125 
Q 39.546875 41.84375 41.421875 45.53125 
Q 43.3125 49.21875 43.3125 52.78125 
Q 43.3125 58.59375 39.234375 62.25 
Q 35.15625 65.921875 28.609375 65.921875 
Q 23.96875 65.921875 18.8125 64.3125 
Q 13.671875 62.703125 7.8125 59.421875 
L 7.8125 69.390625 
Q 13.765625 71.78125 18.9375 73 
Q 24.125 74.21875 28.421875 74.21875 
Q 39.75 74.21875 46.484375 68.546875 
Q 53.21875 62.890625 53.21875 53.421875 
Q 53.21875 48.921875 51.53125 44.890625 
Q 49.859375 40.875 45.40625 35.40625 
Q 44.1875 33.984375 37.640625 27.21875 
Q 31.109375 20.453125 19.1875 8.296875 
z
" id="DejaVuSans-50"/>
       </defs>
       <use transform="translate(0 0.765625)" xlink:href="#DejaVuSans-49"/>
       <use transform="translate(63.623047 0.765625)" xlink:href="#DejaVuSans-48"/>
       <use transform="translate(128.203125 39.046875)scale(0.7)" xlink:href="#DejaVuSans-50"/>
      </g>
     </g>
    </g>
    <g id="ytick_4">
     <g id="line2d_4">
      <defs>
       <path d="M 0 0 
L -2 0 
" id="mb529e54a82" style="stroke:#000000;stroke-width:0.6;"/>
      </defs>
      <g>
       <use style="stroke:#000000;stroke-width:0.6;" x="56.07" xlink:href="#mb529e54a82" y="224.255802"/>
      </g>
     </g>
    </g>
    <g id="ytick_5">
     <g id="line2d_5">
      <g>
       <use style="stroke:#000000;stroke-width:0.6;" x="56.07" xlink:href="#mb529e54a82" y="220.610991"/>
      </g>
     </g>
    </g>
    <g id="ytick_6">
     <g id="line2d_6">
      <g>
       <use style="stroke:#000000;stroke-width:0.6;" x="56.07" xlink:href="#mb529e54a82" y="195.901065"/>
      </g>
     </g>
    </g>
    <g id="ytick_7">
     <g id="line2d_7">
      <g>
       <use style="stroke:#000000;stroke-width:0.6;" x="56.07" xlink:href="#mb529e54a82" y="183.353895"/>
      </g>
     </g>
    </g>
    <g id="ytick_8">
     <g id="line2d_8">
      <g>
       <use style="stroke:#000000;stroke-width:0.6;" x="56.07" xlink:href="#mb529e54a82" y="174.451535"/>
      </g>
     </g>
    </g>
    <g id="ytick_9">
     <g id="line2d_9">
      <g>
       <use style="stroke:#000000;stroke-width:0.6;" x="56.07" xlink:href="#mb529e54a82" y="167.546329"/>
      </g>
     </g>
    </g>
    <g id="ytick_10">
     <g id="line2d_10">
      <g>
       <use style="stroke:#000000;stroke-width:0.6;" x="56.07" xlink:href="#mb529e54a82" y="161.904364"/>
      </g>
     </g>
    </g>
    <g id="ytick_11">
     <g id="line2d_11">
      <g>
       <use style="stroke:#000000;stroke-width:0.6;" x="56.07" xlink:href="#mb529e54a82" y="157.134151"/>
      </g>
     </g>
    </g>
    <g id="ytick_12">
     <g id="line2d_12">
      <g>
       <use style="stroke:#000000;stroke-width:0.6;" x="56.07" xlink:href="#mb529e54a82" y="153.002005"/>
      </g>
     </g>
    </g>
    <g id="ytick_13">
     <g id="line2d_13">
      <g>
       <use style="stroke:#000000;stroke-width:0.6;" x="56.07" xlink:href="#mb529e54a82" y="149.357193"/>
      </g>
     </g>
    </g>
    <g id="ytick_14">
     <g id="line2d_14">
      <g>
       <use style="stroke:#000000;stroke-width:0.6;" x="56.07" xlink:href="#mb529e54a82" y="124.647268"/>
      </g>
     </g>
    </g>
    <g id="ytick_15">
     <g id="line2d_15">
      <g>
       <use style="stroke:#000000;stroke-width:0.6;" x="56.07" xlink:href="#mb529e54a82" y="112.100097"/>
      </g>
     </g>
    </g>
    <g id="ytick_16">
     <g id="line2d_16">
      <g>
       <use style="stroke:#000000;stroke-width:0.6;" x="56.07" xlink:href="#mb529e54a82" y="103.197738"/>
      </g>
     </g>
    </g>
    <g id="ytick_17">
     <g id="line2d_17">
      <g>
       <use style="stroke:#000000;stroke-width:0.6;" x="56.07" xlink:href="#mb529e54a82" y="96.292531"/>
      </g>
     </g>
    </g>
    <g id="ytick_18">
     <g id="line2d_18">
      <g>
       <use style="stroke:#000000;stroke-width:0.6;" x="56.07" xlink:href="#mb529e54a82" y="90.650567"/>
      </g>
     </g>
    </g>
    <g id="ytick_19">
     <g id="line2d_19">
      <g>
       <use style="stroke:#000000;stroke-width:0.6;" x="56.07" xlink:href="#mb529e54a82" y="85.880354"/>
      </g>
     </g>
    </g>
    <g id="ytick_20">
     <g id="line2d_20">
      <g>
       <use style="stroke:#000000;stroke-width:0.6;" x="56.07" xlink:href="#mb529e54a82" y="81.748207"/>
      </g>
     </g>
    </g>
    <g id="ytick_21">
     <g id="line2d_21">
      <g>
       <use style="stroke:#000000;stroke-width:0.6;" x="56.07" xlink:href="#mb529e54a82" y="78.103396"/>
      </g>
     </g>
    </g>
    <g id="ytick_22">
     <g id="line2d_22">
      <g>
       <use style="stroke:#000000;stroke-width:0.6;" x="56.07" xlink:href="#mb529e54a82" y="53.39347"/>
      </g>
     </g>
    </g>
    <g id="ytick_23">
     <g id="line2d_23">
      <g>
       <use style="stroke:#000000;stroke-width:0.6;" x="56.07" xlink:href="#mb529e54a82" y="40.846299"/>
      </g>
     </g>
    </g>
    <g id="ytick_24">
     <g id="line2d_24">
      <g>
       <use style="stroke:#000000;stroke-width:0.6;" x="56.07" xlink:href="#mb529e54a82" y="31.94394"/>
      </g>
     </g>
    </g>
   </g>
   <g id="patch_255">
    <path d="M 56.07 224.28 
L 56.07 30.24 
" style="fill:none;stroke:#000000;stroke-linecap:square;stroke-linejoin:miter;stroke-width:0.8;"/>
   </g>
   <g id="patch_256">
    <path d="M 403.704 224.28 
L 403.704 30.24 
" style="fill:none;stroke:#000000;stroke-linecap:square;stroke-linejoin:miter;stroke-width:0.8;"/>
   </g>
   <g id="patch_257">
    <path d="M 56.07 224.28 
L 403.704 224.28 
" style="fill:none;stroke:#000000;stroke-linecap:square;stroke-linejoin:miter;stroke-width:0.8;"/>
   </g>
   <g id="patch_258">
    <path d="M 56.07 30.24 
L 403.704 30.24 
" style="fill:none;stroke:#000000;stroke-linecap:square;stroke-linejoin:miter;stroke-width:0.8;"/>
   </g>
  </g>
 </g>
 <defs>
  <clipPath id="p80ae60526c">
   <rect height="194.04" width="347.634" x="56.07" y="30.24"/>
  </clipPath>
 </defs>
</svg>
