<?xml version="1.0" encoding="utf-8" standalone="no"?>
<!DOCTYPE svg PUBLIC "-//W3C//DTD SVG 1.1//EN"
  "http://www.w3.org/Graphics/SVG/1.1/DTD/svg11.dtd">
<!-- Created with matplotlib (https://matplotlib.org/) -->
<svg height="252pt" version="1.1" viewBox="0 0 448.56 252" width="448.56pt" xmlns="http://www.w3.org/2000/svg" xmlns:xlink="http://www.w3.org/1999/xlink">
 <metadata>
  <rdf:RDF xmlns:cc="http://creativecommons.org/ns#" xmlns:dc="http://purl.org/dc/elements/1.1/" xmlns:rdf="http://www.w3.org/1999/02/22-rdf-syntax-ns#">
   <cc:Work>
    <dc:type rdf:resource="http://purl.org/dc/dcmitype/StillImage"/>
    <dc:date>2021-08-15T12:11:30.156662</dc:date>
    <dc:format>image/svg+xml</dc:format>
    <dc:creator>
     <cc:Agent>
      <dc:title>Matplotlib v3.3.4, https://matplotlib.org/</dc:title>
     </cc:Agent>
    </dc:creator>
   </cc:Work>
  </rdf:RDF>
 </metadata>
 <defs>
  <style type="text/css">*{stroke-linecap:butt;stroke-linejoin:round;}</style>
 </defs>
 <g id="figure_1">
  <g id="patch_1">
   <path d="M 0 252 
L 448.56 252 
L 448.56 0 
L 0 0 
z
" style="fill:none;"/>
  </g>
  <g id="axes_1">
   <g id="patch_2">
    <path d="M 56.07 224.28 
L 403.704 224.28 
L 403.704 30.24 
L 56.07 30.24 
z
" style="fill:none;"/>
   </g>
   <g id="patch_3">
    <path clip-path="url(#p0fa4ed484d)" d="M 56.738527 224.28 
L 58.075581 224.28 
L 58.075581 223.66192 
L 56.738527 223.66192 
z
"/>
   </g>
   <g id="patch_4">
    <path clip-path="url(#p0fa4ed484d)" d="M 59.412635 224.28 
L 60.749688 224.28 
L 60.749688 223.652617 
L 59.412635 223.652617 
z
"/>
   </g>
   <g id="patch_5">
    <path clip-path="url(#p0fa4ed484d)" d="M 62.086742 224.28 
L 63.423796 224.28 
L 63.423796 223.631685 
L 62.086742 223.631685 
z
"/>
   </g>
   <g id="patch_6">
    <path clip-path="url(#p0fa4ed484d)" d="M 64.76085 224.28 
L 66.097904 224.28 
L 66.097904 223.630522 
L 64.76085 223.630522 
z
"/>
   </g>
   <g id="patch_7">
    <path clip-path="url(#p0fa4ed484d)" d="M 67.434958 224.28 
L 68.772012 224.28 
L 68.772012 223.629941 
L 67.434958 223.629941 
z
"/>
   </g>
   <g id="patch_8">
    <path clip-path="url(#p0fa4ed484d)" d="M 70.109065 224.28 
L 71.446119 224.28 
L 71.446119 223.617149 
L 70.109065 223.617149 
z
"/>
   </g>
   <g id="patch_9">
    <path clip-path="url(#p0fa4ed484d)" d="M 72.783173 224.28 
L 74.120227 224.28 
L 74.120227 223.61366 
L 72.783173 223.61366 
z
"/>
   </g>
   <g id="patch_10">
    <path clip-path="url(#p0fa4ed484d)" d="M 75.457281 224.28 
L 76.794335 224.28 
L 76.794335 223.610171 
L 75.457281 223.610171 
z
"/>
   </g>
   <g id="patch_11">
    <path clip-path="url(#p0fa4ed484d)" d="M 78.131388 224.28 
L 79.468442 224.28 
L 79.468442 223.59738 
L 78.131388 223.59738 
z
"/>
   </g>
   <g id="patch_12">
    <path clip-path="url(#p0fa4ed484d)" d="M 80.805496 224.28 
L 82.14255 224.28 
L 82.14255 223.556678 
L 80.805496 223.556678 
z
"/>
   </g>
   <g id="patch_13">
    <path clip-path="url(#p0fa4ed484d)" d="M 83.479604 224.28 
L 84.816658 224.28 
L 84.816658 223.55319 
L 83.479604 223.55319 
z
"/>
   </g>
   <g id="patch_14">
    <path clip-path="url(#p0fa4ed484d)" d="M 86.153712 224.28 
L 87.490765 224.28 
L 87.490765 223.546794 
L 86.153712 223.546794 
z
"/>
   </g>
   <g id="patch_15">
    <path clip-path="url(#p0fa4ed484d)" d="M 88.827819 224.28 
L 90.164873 224.28 
L 90.164873 223.510162 
L 88.827819 223.510162 
z
"/>
   </g>
   <g id="patch_16">
    <path clip-path="url(#p0fa4ed484d)" d="M 91.501927 224.28 
L 92.838981 224.28 
L 92.838981 223.501441 
L 91.501927 223.501441 
z
"/>
   </g>
   <g id="patch_17">
    <path clip-path="url(#p0fa4ed484d)" d="M 94.176035 224.28 
L 95.513088 224.28 
L 95.513088 223.491556 
L 94.176035 223.491556 
z
"/>
   </g>
   <g id="patch_18">
    <path clip-path="url(#p0fa4ed484d)" d="M 96.850142 224.28 
L 98.187196 224.28 
L 98.187196 223.482253 
L 96.850142 223.482253 
z
"/>
   </g>
   <g id="patch_19">
    <path clip-path="url(#p0fa4ed484d)" d="M 99.52425 224.28 
L 100.861304 224.28 
L 100.861304 223.474694 
L 99.52425 223.474694 
z
"/>
   </g>
   <g id="patch_20">
    <path clip-path="url(#p0fa4ed484d)" d="M 102.198358 224.28 
L 103.535412 224.28 
L 103.535412 223.470042 
L 102.198358 223.470042 
z
"/>
   </g>
   <g id="patch_21">
    <path clip-path="url(#p0fa4ed484d)" d="M 104.872465 224.28 
L 106.209519 224.28 
L 106.209519 223.470042 
L 104.872465 223.470042 
z
"/>
   </g>
   <g id="patch_22">
    <path clip-path="url(#p0fa4ed484d)" d="M 107.546573 224.28 
L 108.883627 224.28 
L 108.883627 223.463065 
L 107.546573 223.463065 
z
"/>
   </g>
   <g id="patch_23">
    <path clip-path="url(#p0fa4ed484d)" d="M 110.220681 224.28 
L 111.557735 224.28 
L 111.557735 223.450273 
L 110.220681 223.450273 
z
"/>
   </g>
   <g id="patch_24">
    <path clip-path="url(#p0fa4ed484d)" d="M 112.894788 224.28 
L 114.231842 224.28 
L 114.231842 223.44097 
L 112.894788 223.44097 
z
"/>
   </g>
   <g id="patch_25">
    <path clip-path="url(#p0fa4ed484d)" d="M 115.568896 224.28 
L 116.90595 224.28 
L 116.90595 223.4369 
L 115.568896 223.4369 
z
"/>
   </g>
   <g id="patch_26">
    <path clip-path="url(#p0fa4ed484d)" d="M 118.243004 224.28 
L 119.580058 224.28 
L 119.580058 223.425271 
L 118.243004 223.425271 
z
"/>
   </g>
   <g id="patch_27">
    <path clip-path="url(#p0fa4ed484d)" d="M 120.917112 224.28 
L 122.254165 224.28 
L 122.254165 223.349683 
L 120.917112 223.349683 
z
"/>
   </g>
   <g id="patch_28">
    <path clip-path="url(#p0fa4ed484d)" d="M 123.591219 224.28 
L 124.928273 224.28 
L 124.928273 223.347357 
L 123.591219 223.347357 
z
"/>
   </g>
   <g id="patch_29">
    <path clip-path="url(#p0fa4ed484d)" d="M 126.265327 224.28 
L 127.602381 224.28 
L 127.602381 223.333983 
L 126.265327 223.333983 
z
"/>
   </g>
   <g id="patch_30">
    <path clip-path="url(#p0fa4ed484d)" d="M 128.939435 224.28 
L 130.276488 224.28 
L 130.276488 223.307818 
L 128.939435 223.307818 
z
"/>
   </g>
   <g id="patch_31">
    <path clip-path="url(#p0fa4ed484d)" d="M 131.613542 224.28 
L 132.950596 224.28 
L 132.950596 223.307237 
L 131.613542 223.307237 
z
"/>
   </g>
   <g id="patch_32">
    <path clip-path="url(#p0fa4ed484d)" d="M 134.28765 224.28 
L 135.624704 224.28 
L 135.624704 223.286886 
L 134.28765 223.286886 
z
"/>
   </g>
   <g id="patch_33">
    <path clip-path="url(#p0fa4ed484d)" d="M 136.961758 224.28 
L 138.298812 224.28 
L 138.298812 223.26014 
L 136.961758 223.26014 
z
"/>
   </g>
   <g id="patch_34">
    <path clip-path="url(#p0fa4ed484d)" d="M 139.635865 224.28 
L 140.972919 224.28 
L 140.972919 223.257814 
L 139.635865 223.257814 
z
"/>
   </g>
   <g id="patch_35">
    <path clip-path="url(#p0fa4ed484d)" d="M 142.309973 224.28 
L 143.647027 224.28 
L 143.647027 223.243278 
L 142.309973 223.243278 
z
"/>
   </g>
   <g id="patch_36">
    <path clip-path="url(#p0fa4ed484d)" d="M 144.984081 224.28 
L 146.321135 224.28 
L 146.321135 223.236882 
L 144.984081 223.236882 
z
"/>
   </g>
   <g id="patch_37">
    <path clip-path="url(#p0fa4ed484d)" d="M 147.658188 224.28 
L 148.995242 224.28 
L 148.995242 223.19618 
L 147.658188 223.19618 
z
"/>
   </g>
   <g id="patch_38">
    <path clip-path="url(#p0fa4ed484d)" d="M 150.332296 224.28 
L 151.66935 224.28 
L 151.66935 223.18397 
L 150.332296 223.18397 
z
"/>
   </g>
   <g id="patch_39">
    <path clip-path="url(#p0fa4ed484d)" d="M 153.006404 224.28 
L 154.343458 224.28 
L 154.343458 223.164782 
L 153.006404 223.164782 
z
"/>
   </g>
   <g id="patch_40">
    <path clip-path="url(#p0fa4ed484d)" d="M 155.680512 224.28 
L 157.017565 224.28 
L 157.017565 223.129895 
L 155.680512 223.129895 
z
"/>
   </g>
   <g id="patch_41">
    <path clip-path="url(#p0fa4ed484d)" d="M 158.354619 224.28 
L 159.691673 224.28 
L 159.691673 223.119429 
L 158.354619 223.119429 
z
"/>
   </g>
   <g id="patch_42">
    <path clip-path="url(#p0fa4ed484d)" d="M 161.028727 224.28 
L 162.365781 224.28 
L 162.365781 223.118848 
L 161.028727 223.118848 
z
"/>
   </g>
   <g id="patch_43">
    <path clip-path="url(#p0fa4ed484d)" d="M 163.702835 224.28 
L 165.039888 224.28 
L 165.039888 223.113033 
L 163.702835 223.113033 
z
"/>
   </g>
   <g id="patch_44">
    <path clip-path="url(#p0fa4ed484d)" d="M 166.376942 224.28 
L 167.713996 224.28 
L 167.713996 223.097334 
L 166.376942 223.097334 
z
"/>
   </g>
   <g id="patch_45">
    <path clip-path="url(#p0fa4ed484d)" d="M 169.05105 224.28 
L 170.388104 224.28 
L 170.388104 223.095008 
L 169.05105 223.095008 
z
"/>
   </g>
   <g id="patch_46">
    <path clip-path="url(#p0fa4ed484d)" d="M 171.725158 224.28 
L 173.062212 224.28 
L 173.062212 223.091519 
L 171.725158 223.091519 
z
"/>
   </g>
   <g id="patch_47">
    <path clip-path="url(#p0fa4ed484d)" d="M 174.399265 224.28 
L 175.736319 224.28 
L 175.736319 223.060703 
L 174.399265 223.060703 
z
"/>
   </g>
   <g id="patch_48">
    <path clip-path="url(#p0fa4ed484d)" d="M 177.073373 224.28 
L 178.410427 224.28 
L 178.410427 223.05954 
L 177.073373 223.05954 
z
"/>
   </g>
   <g id="patch_49">
    <path clip-path="url(#p0fa4ed484d)" d="M 179.747481 224.28 
L 181.084535 224.28 
L 181.084535 223.030467 
L 179.747481 223.030467 
z
"/>
   </g>
   <g id="patch_50">
    <path clip-path="url(#p0fa4ed484d)" d="M 182.421588 224.28 
L 183.758642 224.28 
L 183.758642 222.99558 
L 182.421588 222.99558 
z
"/>
   </g>
   <g id="patch_51">
    <path clip-path="url(#p0fa4ed484d)" d="M 185.095696 224.28 
L 186.43275 224.28 
L 186.43275 222.975811 
L 185.095696 222.975811 
z
"/>
   </g>
   <g id="patch_52">
    <path clip-path="url(#p0fa4ed484d)" d="M 187.769804 224.28 
L 189.106858 224.28 
L 189.106858 222.96709 
L 187.769804 222.96709 
z
"/>
   </g>
   <g id="patch_53">
    <path clip-path="url(#p0fa4ed484d)" d="M 190.443912 224.28 
L 191.780965 224.28 
L 191.780965 222.93104 
L 190.443912 222.93104 
z
"/>
   </g>
   <g id="patch_54">
    <path clip-path="url(#p0fa4ed484d)" d="M 193.118019 224.28 
L 194.455073 224.28 
L 194.455073 222.918248 
L 193.118019 222.918248 
z
"/>
   </g>
   <g id="patch_55">
    <path clip-path="url(#p0fa4ed484d)" d="M 195.792127 224.28 
L 197.129181 224.28 
L 197.129181 222.721137 
L 195.792127 222.721137 
z
"/>
   </g>
   <g id="patch_56">
    <path clip-path="url(#p0fa4ed484d)" d="M 198.466235 224.28 
L 199.803288 224.28 
L 199.803288 222.68218 
L 198.466235 222.68218 
z
"/>
   </g>
   <g id="patch_57">
    <path clip-path="url(#p0fa4ed484d)" d="M 201.140342 224.28 
L 202.477396 224.28 
L 202.477396 222.666481 
L 201.140342 222.666481 
z
"/>
   </g>
   <g id="patch_58">
    <path clip-path="url(#p0fa4ed484d)" d="M 203.81445 224.28 
L 205.151504 224.28 
L 205.151504 222.632757 
L 203.81445 222.632757 
z
"/>
   </g>
   <g id="patch_59">
    <path clip-path="url(#p0fa4ed484d)" d="M 206.488558 224.28 
L 207.825612 224.28 
L 207.825612 222.504257 
L 206.488558 222.504257 
z
"/>
   </g>
   <g id="patch_60">
    <path clip-path="url(#p0fa4ed484d)" d="M 209.162665 224.28 
L 210.499719 224.28 
L 210.499719 222.270514 
L 209.162665 222.270514 
z
"/>
   </g>
   <g id="patch_61">
    <path clip-path="url(#p0fa4ed484d)" d="M 211.836773 224.28 
L 213.173827 224.28 
L 213.173827 222.254234 
L 211.836773 222.254234 
z
"/>
   </g>
   <g id="patch_62">
    <path clip-path="url(#p0fa4ed484d)" d="M 214.510881 224.28 
L 215.847935 224.28 
L 215.847935 222.186204 
L 214.510881 222.186204 
z
"/>
   </g>
   <g id="patch_63">
    <path clip-path="url(#p0fa4ed484d)" d="M 217.184988 224.28 
L 218.522042 224.28 
L 218.522042 222.175157 
L 217.184988 222.175157 
z
"/>
   </g>
   <g id="patch_64">
    <path clip-path="url(#p0fa4ed484d)" d="M 219.859096 224.28 
L 221.19615 224.28 
L 221.19615 222.099569 
L 219.859096 222.099569 
z
"/>
   </g>
   <g id="patch_65">
    <path clip-path="url(#p0fa4ed484d)" d="M 222.533204 224.28 
L 223.870258 224.28 
L 223.870258 222.061774 
L 222.533204 222.061774 
z
"/>
   </g>
   <g id="patch_66">
    <path clip-path="url(#p0fa4ed484d)" d="M 225.207312 224.28 
L 226.544365 224.28 
L 226.544365 222.010607 
L 225.207312 222.010607 
z
"/>
   </g>
   <g id="patch_67">
    <path clip-path="url(#p0fa4ed484d)" d="M 227.881419 224.28 
L 229.218473 224.28 
L 229.218473 222.008281 
L 227.881419 222.008281 
z
"/>
   </g>
   <g id="patch_68">
    <path clip-path="url(#p0fa4ed484d)" d="M 230.555527 224.28 
L 231.892581 224.28 
L 231.892581 221.930948 
L 230.555527 221.930948 
z
"/>
   </g>
   <g id="patch_69">
    <path clip-path="url(#p0fa4ed484d)" d="M 233.229635 224.28 
L 234.566688 224.28 
L 234.566688 221.913505 
L 233.229635 221.913505 
z
"/>
   </g>
   <g id="patch_70">
    <path clip-path="url(#p0fa4ed484d)" d="M 235.903742 224.28 
L 237.240796 224.28 
L 237.240796 221.873967 
L 235.903742 221.873967 
z
"/>
   </g>
   <g id="patch_71">
    <path clip-path="url(#p0fa4ed484d)" d="M 238.57785 224.28 
L 239.914904 224.28 
L 239.914904 221.843731 
L 238.57785 221.843731 
z
"/>
   </g>
   <g id="patch_72">
    <path clip-path="url(#p0fa4ed484d)" d="M 241.251958 224.28 
L 242.589012 224.28 
L 242.589012 221.835591 
L 241.251958 221.835591 
z
"/>
   </g>
   <g id="patch_73">
    <path clip-path="url(#p0fa4ed484d)" d="M 243.926065 224.28 
L 245.263119 224.28 
L 245.263119 221.818729 
L 243.926065 221.818729 
z
"/>
   </g>
   <g id="patch_74">
    <path clip-path="url(#p0fa4ed484d)" d="M 246.600173 224.28 
L 247.937227 224.28 
L 247.937227 221.780353 
L 246.600173 221.780353 
z
"/>
   </g>
   <g id="patch_75">
    <path clip-path="url(#p0fa4ed484d)" d="M 249.274281 224.28 
L 250.611335 224.28 
L 250.611335 221.576846 
L 249.274281 221.576846 
z
"/>
   </g>
   <g id="patch_76">
    <path clip-path="url(#p0fa4ed484d)" d="M 251.948388 224.28 
L 253.285442 224.28 
L 253.285442 221.415204 
L 251.948388 221.415204 
z
"/>
   </g>
   <g id="patch_77">
    <path clip-path="url(#p0fa4ed484d)" d="M 254.622496 224.28 
L 255.95955 224.28 
L 255.95955 221.318683 
L 254.622496 221.318683 
z
"/>
   </g>
   <g id="patch_78">
    <path clip-path="url(#p0fa4ed484d)" d="M 257.296604 224.28 
L 258.633658 224.28 
L 258.633658 221.25705 
L 257.296604 221.25705 
z
"/>
   </g>
   <g id="patch_79">
    <path clip-path="url(#p0fa4ed484d)" d="M 259.970712 224.28 
L 261.307765 224.28 
L 261.307765 221.169251 
L 259.970712 221.169251 
z
"/>
   </g>
   <g id="patch_80">
    <path clip-path="url(#p0fa4ed484d)" d="M 262.644819 224.28 
L 263.981873 224.28 
L 263.981873 221.003538 
L 262.644819 221.003538 
z
"/>
   </g>
   <g id="patch_81">
    <path clip-path="url(#p0fa4ed484d)" d="M 265.318927 224.28 
L 266.655981 224.28 
L 266.655981 220.931439 
L 265.318927 220.931439 
z
"/>
   </g>
   <g id="patch_82">
    <path clip-path="url(#p0fa4ed484d)" d="M 267.993035 224.28 
L 269.330088 224.28 
L 269.330088 220.74712 
L 267.993035 220.74712 
z
"/>
   </g>
   <g id="patch_83">
    <path clip-path="url(#p0fa4ed484d)" d="M 270.667142 224.28 
L 272.004196 224.28 
L 272.004196 220.71107 
L 270.667142 220.71107 
z
"/>
   </g>
   <g id="patch_84">
    <path clip-path="url(#p0fa4ed484d)" d="M 273.34125 224.28 
L 274.678304 224.28 
L 274.678304 220.603502 
L 273.34125 220.603502 
z
"/>
   </g>
   <g id="patch_85">
    <path clip-path="url(#p0fa4ed484d)" d="M 276.015358 224.28 
L 277.352412 224.28 
L 277.352412 220.233701 
L 276.015358 220.233701 
z
"/>
   </g>
   <g id="patch_86">
    <path clip-path="url(#p0fa4ed484d)" d="M 278.689465 224.28 
L 280.026519 224.28 
L 280.026519 220.040078 
L 278.689465 220.040078 
z
"/>
   </g>
   <g id="patch_87">
    <path clip-path="url(#p0fa4ed484d)" d="M 281.363573 224.28 
L 282.700627 224.28 
L 282.700627 219.970886 
L 281.363573 219.970886 
z
"/>
   </g>
   <g id="patch_88">
    <path clip-path="url(#p0fa4ed484d)" d="M 284.037681 224.28 
L 285.374735 224.28 
L 285.374735 219.945302 
L 284.037681 219.945302 
z
"/>
   </g>
   <g id="patch_89">
    <path clip-path="url(#p0fa4ed484d)" d="M 286.711788 224.28 
L 288.048842 224.28 
L 288.048842 219.832501 
L 286.711788 219.832501 
z
"/>
   </g>
   <g id="patch_90">
    <path clip-path="url(#p0fa4ed484d)" d="M 289.385896 224.28 
L 290.72295 224.28 
L 290.72295 219.665044 
L 289.385896 219.665044 
z
"/>
   </g>
   <g id="patch_91">
    <path clip-path="url(#p0fa4ed484d)" d="M 292.060004 224.28 
L 293.397058 224.28 
L 293.397058 219.47491 
L 292.060004 219.47491 
z
"/>
   </g>
   <g id="patch_92">
    <path clip-path="url(#p0fa4ed484d)" d="M 294.734112 224.28 
L 296.071165 224.28 
L 296.071165 219.404555 
L 294.734112 219.404555 
z
"/>
   </g>
   <g id="patch_93">
    <path clip-path="url(#p0fa4ed484d)" d="M 297.408219 224.28 
L 298.745273 224.28 
L 298.745273 219.269078 
L 297.408219 219.269078 
z
"/>
   </g>
   <g id="patch_94">
    <path clip-path="url(#p0fa4ed484d)" d="M 300.082327 224.28 
L 301.419381 224.28 
L 301.419381 219.193489 
L 300.082327 219.193489 
z
"/>
   </g>
   <g id="patch_95">
    <path clip-path="url(#p0fa4ed484d)" d="M 302.756435 224.28 
L 304.093488 224.28 
L 304.093488 219.172557 
L 302.756435 219.172557 
z
"/>
   </g>
   <g id="patch_96">
    <path clip-path="url(#p0fa4ed484d)" d="M 305.430542 224.28 
L 306.767596 224.28 
L 306.767596 219.016729 
L 305.430542 219.016729 
z
"/>
   </g>
   <g id="patch_97">
    <path clip-path="url(#p0fa4ed484d)" d="M 308.10465 224.28 
L 309.441704 224.28 
L 309.441704 218.993471 
L 308.10465 218.993471 
z
"/>
   </g>
   <g id="patch_98">
    <path clip-path="url(#p0fa4ed484d)" d="M 310.778758 224.28 
L 312.115812 224.28 
L 312.115812 218.99289 
L 310.778758 218.99289 
z
"/>
   </g>
   <g id="patch_99">
    <path clip-path="url(#p0fa4ed484d)" d="M 313.452865 224.28 
L 314.789919 224.28 
L 314.789919 218.726586 
L 313.452865 218.726586 
z
"/>
   </g>
   <g id="patch_100">
    <path clip-path="url(#p0fa4ed484d)" d="M 316.126973 224.28 
L 317.464027 224.28 
L 317.464027 218.485867 
L 316.126973 218.485867 
z
"/>
   </g>
   <g id="patch_101">
    <path clip-path="url(#p0fa4ed484d)" d="M 318.801081 224.28 
L 320.138135 224.28 
L 320.138135 218.265498 
L 318.801081 218.265498 
z
"/>
   </g>
   <g id="patch_102">
    <path clip-path="url(#p0fa4ed484d)" d="M 321.475188 224.28 
L 322.812242 224.28 
L 322.812242 218.118973 
L 321.475188 218.118973 
z
"/>
   </g>
   <g id="patch_103">
    <path clip-path="url(#p0fa4ed484d)" d="M 324.149296 224.28 
L 325.48635 224.28 
L 325.48635 217.829993 
L 324.149296 217.829993 
z
"/>
   </g>
   <g id="patch_104">
    <path clip-path="url(#p0fa4ed484d)" d="M 326.823404 224.28 
L 328.160458 224.28 
L 328.160458 217.536361 
L 326.823404 217.536361 
z
"/>
   </g>
   <g id="patch_105">
    <path clip-path="url(#p0fa4ed484d)" d="M 329.497512 224.28 
L 330.834565 224.28 
L 330.834565 217.313667 
L 329.497512 217.313667 
z
"/>
   </g>
   <g id="patch_106">
    <path clip-path="url(#p0fa4ed484d)" d="M 332.171619 224.28 
L 333.508673 224.28 
L 333.508673 217.002592 
L 332.171619 217.002592 
z
"/>
   </g>
   <g id="patch_107">
    <path clip-path="url(#p0fa4ed484d)" d="M 334.845727 224.28 
L 336.182781 224.28 
L 336.182781 216.573483 
L 334.845727 216.573483 
z
"/>
   </g>
   <g id="patch_108">
    <path clip-path="url(#p0fa4ed484d)" d="M 337.519835 224.28 
L 338.856888 224.28 
L 338.856888 216.058901 
L 337.519835 216.058901 
z
"/>
   </g>
   <g id="patch_109">
    <path clip-path="url(#p0fa4ed484d)" d="M 340.193942 224.28 
L 341.530996 224.28 
L 341.530996 215.925749 
L 340.193942 215.925749 
z
"/>
   </g>
   <g id="patch_110">
    <path clip-path="url(#p0fa4ed484d)" d="M 342.86805 224.28 
L 344.205104 224.28 
L 344.205104 215.202428 
L 342.86805 215.202428 
z
"/>
   </g>
   <g id="patch_111">
    <path clip-path="url(#p0fa4ed484d)" d="M 345.542158 224.28 
L 346.879212 224.28 
L 346.879212 213.956384 
L 345.542158 213.956384 
z
"/>
   </g>
   <g id="patch_112">
    <path clip-path="url(#p0fa4ed484d)" d="M 348.216265 224.28 
L 349.553319 224.28 
L 349.553319 212.519625 
L 348.216265 212.519625 
z
"/>
   </g>
   <g id="patch_113">
    <path clip-path="url(#p0fa4ed484d)" d="M 350.890373 224.28 
L 352.227427 224.28 
L 352.227427 212.487064 
L 350.890373 212.487064 
z
"/>
   </g>
   <g id="patch_114">
    <path clip-path="url(#p0fa4ed484d)" d="M 353.564481 224.28 
L 354.901535 224.28 
L 354.901535 210.767139 
L 353.564481 210.767139 
z
"/>
   </g>
   <g id="patch_115">
    <path clip-path="url(#p0fa4ed484d)" d="M 356.238588 224.28 
L 357.575642 224.28 
L 357.575642 209.532724 
L 356.238588 209.532724 
z
"/>
   </g>
   <g id="patch_116">
    <path clip-path="url(#p0fa4ed484d)" d="M 358.912696 224.28 
L 360.24975 224.28 
L 360.24975 208.426228 
L 358.912696 208.426228 
z
"/>
   </g>
   <g id="patch_117">
    <path clip-path="url(#p0fa4ed484d)" d="M 361.586804 224.28 
L 362.923858 224.28 
L 362.923858 207.679648 
L 361.586804 207.679648 
z
"/>
   </g>
   <g id="patch_118">
    <path clip-path="url(#p0fa4ed484d)" d="M 364.260912 224.28 
L 365.597965 224.28 
L 365.597965 206.665602 
L 364.260912 206.665602 
z
"/>
   </g>
   <g id="patch_119">
    <path clip-path="url(#p0fa4ed484d)" d="M 366.935019 224.28 
L 368.272073 224.28 
L 368.272073 206.663276 
L 366.935019 206.663276 
z
"/>
   </g>
   <g id="patch_120">
    <path clip-path="url(#p0fa4ed484d)" d="M 369.609127 224.28 
L 370.946181 224.28 
L 370.946181 206.431279 
L 369.609127 206.431279 
z
"/>
   </g>
   <g id="patch_121">
    <path clip-path="url(#p0fa4ed484d)" d="M 372.283235 224.28 
L 373.620288 224.28 
L 373.620288 206.394066 
L 372.283235 206.394066 
z
"/>
   </g>
   <g id="patch_122">
    <path clip-path="url(#p0fa4ed484d)" d="M 374.957342 224.28 
L 376.294396 224.28 
L 376.294396 205.202678 
L 374.957342 205.202678 
z
"/>
   </g>
   <g id="patch_123">
    <path clip-path="url(#p0fa4ed484d)" d="M 377.63145 224.28 
L 378.968504 224.28 
L 378.968504 204.654372 
L 377.63145 204.654372 
z
"/>
   </g>
   <g id="patch_124">
    <path clip-path="url(#p0fa4ed484d)" d="M 380.305558 224.28 
L 381.642612 224.28 
L 381.642612 203.447867 
L 380.305558 203.447867 
z
"/>
   </g>
   <g id="patch_125">
    <path clip-path="url(#p0fa4ed484d)" d="M 382.979665 224.28 
L 384.316719 224.28 
L 384.316719 201.659913 
L 382.979665 201.659913 
z
"/>
   </g>
   <g id="patch_126">
    <path clip-path="url(#p0fa4ed484d)" d="M 385.653773 224.28 
L 386.990827 224.28 
L 386.990827 197.295561 
L 385.653773 197.295561 
z
"/>
   </g>
   <g id="patch_127">
    <path clip-path="url(#p0fa4ed484d)" d="M 388.327881 224.28 
L 389.664935 224.28 
L 389.664935 195.466906 
L 388.327881 195.466906 
z
"/>
   </g>
   <g id="patch_128">
    <path clip-path="url(#p0fa4ed484d)" d="M 391.001988 224.28 
L 392.339042 224.28 
L 392.339042 194.83429 
L 391.001988 194.83429 
z
"/>
   </g>
   <g id="patch_129">
    <path clip-path="url(#p0fa4ed484d)" d="M 393.676096 224.28 
L 395.01315 224.28 
L 395.01315 148.387611 
L 393.676096 148.387611 
z
"/>
   </g>
   <g id="patch_130">
    <path clip-path="url(#p0fa4ed484d)" d="M 396.350204 224.28 
L 397.687258 224.28 
L 397.687258 74.213402 
L 396.350204 74.213402 
z
"/>
   </g>
   <g id="patch_131">
    <path clip-path="url(#p0fa4ed484d)" d="M 399.024312 224.28 
L 400.361365 224.28 
L 400.361365 41.11794 
L 399.024312 41.11794 
z
"/>
   </g>
   <g id="patch_132">
    <path clip-path="url(#p0fa4ed484d)" d="M 401.698419 224.28 
L 403.035473 224.28 
L 403.035473 39.48 
L 401.698419 39.48 
z
"/>
   </g>
   <g id="matplotlib.axis_1">
    <g id="ytick_1">
     <g id="line2d_1">
      <defs>
       <path d="M 0 0 
L -3.5 0 
" id="m937d873f85" style="stroke:#000000;stroke-width:0.8;"/>
      </defs>
      <g>
       <use style="stroke:#000000;stroke-width:0.8;" x="56.07" xlink:href="#m937d873f85" y="224.28"/>
      </g>
     </g>
     <g id="text_1">
      <!-- 0 -->
      <g transform="translate(42.7075 228.079219)scale(0.1 -0.1)">
       <defs>
        <path d="M 31.78125 66.40625 
Q 24.171875 66.40625 20.328125 58.90625 
Q 16.5 51.421875 16.5 36.375 
Q 16.5 21.390625 20.328125 13.890625 
Q 24.171875 6.390625 31.78125 6.390625 
Q 39.453125 6.390625 43.28125 13.890625 
Q 47.125 21.390625 47.125 36.375 
Q 47.125 51.421875 43.28125 58.90625 
Q 39.453125 66.40625 31.78125 66.40625 
z
M 31.78125 74.21875 
Q 44.046875 74.21875 50.515625 64.515625 
Q 56.984375 54.828125 56.984375 36.375 
Q 56.984375 17.96875 50.515625 8.265625 
Q 44.046875 -1.421875 31.78125 -1.421875 
Q 19.53125 -1.421875 13.0625 8.265625 
Q 6.59375 17.96875 6.59375 36.375 
Q 6.59375 54.828125 13.0625 64.515625 
Q 19.53125 74.21875 31.78125 74.21875 
z
" id="DejaVuSans-48"/>
       </defs>
       <use xlink:href="#DejaVuSans-48"/>
      </g>
     </g>
    </g>
    <g id="ytick_2">
     <g id="line2d_2">
      <g>
       <use style="stroke:#000000;stroke-width:0.8;" x="56.07" xlink:href="#m937d873f85" y="195.20758"/>
      </g>
     </g>
     <g id="text_2">
      <!-- 50 -->
      <g transform="translate(36.345 199.006799)scale(0.1 -0.1)">
       <defs>
        <path d="M 10.796875 72.90625 
L 49.515625 72.90625 
L 49.515625 64.59375 
L 19.828125 64.59375 
L 19.828125 46.734375 
Q 21.96875 47.46875 24.109375 47.828125 
Q 26.265625 48.1875 28.421875 48.1875 
Q 40.625 48.1875 47.75 41.5 
Q 54.890625 34.8125 54.890625 23.390625 
Q 54.890625 11.625 47.5625 5.09375 
Q 40.234375 -1.421875 26.90625 -1.421875 
Q 22.3125 -1.421875 17.546875 -0.640625 
Q 12.796875 0.140625 7.71875 1.703125 
L 7.71875 11.625 
Q 12.109375 9.234375 16.796875 8.0625 
Q 21.484375 6.890625 26.703125 6.890625 
Q 35.15625 6.890625 40.078125 11.328125 
Q 45.015625 15.765625 45.015625 23.390625 
Q 45.015625 31 40.078125 35.4375 
Q 35.15625 39.890625 26.703125 39.890625 
Q 22.75 39.890625 18.8125 39.015625 
Q 14.890625 38.140625 10.796875 36.28125 
z
" id="DejaVuSans-53"/>
       </defs>
       <use xlink:href="#DejaVuSans-53"/>
       <use x="63.623047" xlink:href="#DejaVuSans-48"/>
      </g>
     </g>
    </g>
    <g id="ytick_3">
     <g id="line2d_3">
      <g>
       <use style="stroke:#000000;stroke-width:0.8;" x="56.07" xlink:href="#m937d873f85" y="166.13516"/>
      </g>
     </g>
     <g id="text_3">
      <!-- 100 -->
      <g transform="translate(29.9825 169.934379)scale(0.1 -0.1)">
       <defs>
        <path d="M 12.40625 8.296875 
L 28.515625 8.296875 
L 28.515625 63.921875 
L 10.984375 60.40625 
L 10.984375 69.390625 
L 28.421875 72.90625 
L 38.28125 72.90625 
L 38.28125 8.296875 
L 54.390625 8.296875 
L 54.390625 0 
L 12.40625 0 
z
" id="DejaVuSans-49"/>
       </defs>
       <use xlink:href="#DejaVuSans-49"/>
       <use x="63.623047" xlink:href="#DejaVuSans-48"/>
       <use x="127.246094" xlink:href="#DejaVuSans-48"/>
      </g>
     </g>
    </g>
    <g id="ytick_4">
     <g id="line2d_4">
      <g>
       <use style="stroke:#000000;stroke-width:0.8;" x="56.07" xlink:href="#m937d873f85" y="137.06274"/>
      </g>
     </g>
     <g id="text_4">
      <!-- 150 -->
      <g transform="translate(29.9825 140.861959)scale(0.1 -0.1)">
       <use xlink:href="#DejaVuSans-49"/>
       <use x="63.623047" xlink:href="#DejaVuSans-53"/>
       <use x="127.246094" xlink:href="#DejaVuSans-48"/>
      </g>
     </g>
    </g>
    <g id="ytick_5">
     <g id="line2d_5">
      <g>
       <use style="stroke:#000000;stroke-width:0.8;" x="56.07" xlink:href="#m937d873f85" y="107.99032"/>
      </g>
     </g>
     <g id="text_5">
      <!-- 200 -->
      <g transform="translate(29.9825 111.789539)scale(0.1 -0.1)">
       <defs>
        <path d="M 19.1875 8.296875 
L 53.609375 8.296875 
L 53.609375 0 
L 7.328125 0 
L 7.328125 8.296875 
Q 12.9375 14.109375 22.625 23.890625 
Q 32.328125 33.6875 34.8125 36.53125 
Q 39.546875 41.84375 41.421875 45.53125 
Q 43.3125 49.21875 43.3125 52.78125 
Q 43.3125 58.59375 39.234375 62.25 
Q 35.15625 65.921875 28.609375 65.921875 
Q 23.96875 65.921875 18.8125 64.3125 
Q 13.671875 62.703125 7.8125 59.421875 
L 7.8125 69.390625 
Q 13.765625 71.78125 18.9375 73 
Q 24.125 74.21875 28.421875 74.21875 
Q 39.75 74.21875 46.484375 68.546875 
Q 53.21875 62.890625 53.21875 53.421875 
Q 53.21875 48.921875 51.53125 44.890625 
Q 49.859375 40.875 45.40625 35.40625 
Q 44.1875 33.984375 37.640625 27.21875 
Q 31.109375 20.453125 19.1875 8.296875 
z
" id="DejaVuSans-50"/>
       </defs>
       <use xlink:href="#DejaVuSans-50"/>
       <use x="63.623047" xlink:href="#DejaVuSans-48"/>
       <use x="127.246094" xlink:href="#DejaVuSans-48"/>
      </g>
     </g>
    </g>
    <g id="ytick_6">
     <g id="line2d_6">
      <g>
       <use style="stroke:#000000;stroke-width:0.8;" x="56.07" xlink:href="#m937d873f85" y="78.9179"/>
      </g>
     </g>
     <g id="text_6">
      <!-- 250 -->
      <g transform="translate(29.9825 82.717119)scale(0.1 -0.1)">
       <use xlink:href="#DejaVuSans-50"/>
       <use x="63.623047" xlink:href="#DejaVuSans-53"/>
       <use x="127.246094" xlink:href="#DejaVuSans-48"/>
      </g>
     </g>
    </g>
    <g id="ytick_7">
     <g id="line2d_7">
      <g>
       <use style="stroke:#000000;stroke-width:0.8;" x="56.07" xlink:href="#m937d873f85" y="49.845481"/>
      </g>
     </g>
     <g id="text_7">
      <!-- 300 -->
      <g transform="translate(29.9825 53.644699)scale(0.1 -0.1)">
       <defs>
        <path d="M 40.578125 39.3125 
Q 47.65625 37.796875 51.625 33 
Q 55.609375 28.21875 55.609375 21.1875 
Q 55.609375 10.40625 48.1875 4.484375 
Q 40.765625 -1.421875 27.09375 -1.421875 
Q 22.515625 -1.421875 17.65625 -0.515625 
Q 12.796875 0.390625 7.625 2.203125 
L 7.625 11.71875 
Q 11.71875 9.328125 16.59375 8.109375 
Q 21.484375 6.890625 26.8125 6.890625 
Q 36.078125 6.890625 40.9375 10.546875 
Q 45.796875 14.203125 45.796875 21.1875 
Q 45.796875 27.640625 41.28125 31.265625 
Q 36.765625 34.90625 28.71875 34.90625 
L 20.21875 34.90625 
L 20.21875 43.015625 
L 29.109375 43.015625 
Q 36.375 43.015625 40.234375 45.921875 
Q 44.09375 48.828125 44.09375 54.296875 
Q 44.09375 59.90625 40.109375 62.90625 
Q 36.140625 65.921875 28.71875 65.921875 
Q 24.65625 65.921875 20.015625 65.03125 
Q 15.375 64.15625 9.8125 62.3125 
L 9.8125 71.09375 
Q 15.4375 72.65625 20.34375 73.4375 
Q 25.25 74.21875 29.59375 74.21875 
Q 40.828125 74.21875 47.359375 69.109375 
Q 53.90625 64.015625 53.90625 55.328125 
Q 53.90625 49.265625 50.4375 45.09375 
Q 46.96875 40.921875 40.578125 39.3125 
z
" id="DejaVuSans-51"/>
       </defs>
       <use xlink:href="#DejaVuSans-51"/>
       <use x="63.623047" xlink:href="#DejaVuSans-48"/>
       <use x="127.246094" xlink:href="#DejaVuSans-48"/>
      </g>
     </g>
    </g>
   </g>
   <g id="patch_133">
    <path d="M 56.07 224.28 
L 56.07 30.24 
" style="fill:none;stroke:#000000;stroke-linecap:square;stroke-linejoin:miter;stroke-width:0.8;"/>
   </g>
   <g id="patch_134">
    <path d="M 403.704 224.28 
L 403.704 30.24 
" style="fill:none;stroke:#000000;stroke-linecap:square;stroke-linejoin:miter;stroke-width:0.8;"/>
   </g>
   <g id="patch_135">
    <path d="M 56.07 224.28 
L 403.704 224.28 
" style="fill:none;stroke:#000000;stroke-linecap:square;stroke-linejoin:miter;stroke-width:0.8;"/>
   </g>
   <g id="patch_136">
    <path d="M 56.07 30.24 
L 403.704 30.24 
" style="fill:none;stroke:#000000;stroke-linecap:square;stroke-linejoin:miter;stroke-width:0.8;"/>
   </g>
  </g>
 </g>
 <defs>
  <clipPath id="p0fa4ed484d">
   <rect height="194.04" width="347.634" x="56.07" y="30.24"/>
  </clipPath>
 </defs>
</svg>
