<?xml version="1.0" encoding="utf-8" standalone="no"?>
<!DOCTYPE svg PUBLIC "-//W3C//DTD SVG 1.1//EN"
  "http://www.w3.org/Graphics/SVG/1.1/DTD/svg11.dtd">
<!-- Created with matplotlib (https://matplotlib.org/) -->
<svg height="252pt" version="1.1" viewBox="0 0 448.56 252" width="448.56pt" xmlns="http://www.w3.org/2000/svg" xmlns:xlink="http://www.w3.org/1999/xlink">
 <metadata>
  <rdf:RDF xmlns:cc="http://creativecommons.org/ns#" xmlns:dc="http://purl.org/dc/elements/1.1/" xmlns:rdf="http://www.w3.org/1999/02/22-rdf-syntax-ns#">
   <cc:Work>
    <dc:type rdf:resource="http://purl.org/dc/dcmitype/StillImage"/>
    <dc:date>2021-08-27T22:30:55.073669</dc:date>
    <dc:format>image/svg+xml</dc:format>
    <dc:creator>
     <cc:Agent>
      <dc:title>Matplotlib v3.3.4, https://matplotlib.org/</dc:title>
     </cc:Agent>
    </dc:creator>
   </cc:Work>
  </rdf:RDF>
 </metadata>
 <defs>
  <style type="text/css">*{stroke-linecap:butt;stroke-linejoin:round;}</style>
 </defs>
 <g id="figure_1">
  <g id="patch_1">
   <path d="M 0 252 
L 448.56 252 
L 448.56 0 
L 0 0 
z
" style="fill:none;"/>
  </g>
  <g id="axes_1">
   <g id="patch_2">
    <path d="M 56.07 224.28 
L 403.704 224.28 
L 403.704 30.24 
L 56.07 30.24 
z
" style="fill:none;"/>
   </g>
   <g id="patch_3">
    <path clip-path="url(#p46d51b261e)" d="M 56.713767 71471.148137 
L 58.0013 71471.148137 
L 58.0013 215.46 
L 56.713767 215.46 
z
"/>
   </g>
   <g id="patch_4">
    <path clip-path="url(#p46d51b261e)" d="M 59.288833 71471.148137 
L 60.576367 71471.148137 
L 60.576367 214.997693 
L 59.288833 214.997693 
z
"/>
   </g>
   <g id="patch_5">
    <path clip-path="url(#p46d51b261e)" d="M 61.8639 71471.148137 
L 63.151433 71471.148137 
L 63.151433 213.982082 
L 61.8639 213.982082 
z
"/>
   </g>
   <g id="patch_6">
    <path clip-path="url(#p46d51b261e)" d="M 64.438967 71471.148137 
L 65.7265 71471.148137 
L 65.7265 213.926625 
L 64.438967 213.926625 
z
"/>
   </g>
   <g id="patch_7">
    <path clip-path="url(#p46d51b261e)" d="M 67.014033 71471.148137 
L 68.301567 71471.148137 
L 68.301567 213.898933 
L 67.014033 213.898933 
z
"/>
   </g>
   <g id="patch_8">
    <path clip-path="url(#p46d51b261e)" d="M 69.5891 71471.148137 
L 70.876633 71471.148137 
L 70.876633 213.295909 
L 69.5891 213.295909 
z
"/>
   </g>
   <g id="patch_9">
    <path clip-path="url(#p46d51b261e)" d="M 72.164167 71471.148137 
L 73.4517 71471.148137 
L 73.4517 213.133467 
L 72.164167 213.133467 
z
"/>
   </g>
   <g id="patch_10">
    <path clip-path="url(#p46d51b261e)" d="M 74.739233 71471.148137 
L 76.026767 71471.148137 
L 76.026767 212.971873 
L 74.739233 212.971873 
z
"/>
   </g>
   <g id="patch_11">
    <path clip-path="url(#p46d51b261e)" d="M 77.3143 71471.148137 
L 78.601833 71471.148137 
L 78.601833 212.386479 
L 77.3143 212.386479 
z
"/>
   </g>
   <g id="patch_12">
    <path clip-path="url(#p46d51b261e)" d="M 79.889367 71471.148137 
L 81.1769 71471.148137 
L 81.1769 210.594284 
L 79.889367 210.594284 
z
"/>
   </g>
   <g id="patch_13">
    <path clip-path="url(#p46d51b261e)" d="M 82.464433 71471.148137 
L 83.751967 71471.148137 
L 83.751967 210.445389 
L 82.464433 210.445389 
z
"/>
   </g>
   <g id="patch_14">
    <path clip-path="url(#p46d51b261e)" d="M 85.0395 71471.148137 
L 86.327033 71471.148137 
L 86.327033 210.174263 
L 85.0395 210.174263 
z
"/>
   </g>
   <g id="patch_15">
    <path clip-path="url(#p46d51b261e)" d="M 87.614567 71471.148137 
L 88.9021 71471.148137 
L 88.9021 208.665614 
L 87.614567 208.665614 
z
"/>
   </g>
   <g id="patch_16">
    <path clip-path="url(#p46d51b261e)" d="M 90.189633 71471.148137 
L 91.477167 71471.148137 
L 91.477167 208.316998 
L 90.189633 208.316998 
z
"/>
   </g>
   <g id="patch_17">
    <path clip-path="url(#p46d51b261e)" d="M 92.7647 71471.148137 
L 94.052233 71471.148137 
L 94.052233 207.926591 
L 92.7647 207.926591 
z
"/>
   </g>
   <g id="patch_18">
    <path clip-path="url(#p46d51b261e)" d="M 95.339767 71471.148137 
L 96.6273 71471.148137 
L 96.6273 207.563594 
L 95.339767 207.563594 
z
"/>
   </g>
   <g id="patch_19">
    <path clip-path="url(#p46d51b261e)" d="M 97.914833 71471.148137 
L 99.202367 71471.148137 
L 99.202367 207.271762 
L 97.914833 207.271762 
z
"/>
   </g>
   <g id="patch_20">
    <path clip-path="url(#p46d51b261e)" d="M 100.4899 71471.148137 
L 101.777433 71471.148137 
L 101.777433 207.093532 
L 100.4899 207.093532 
z
"/>
   </g>
   <g id="patch_21">
    <path clip-path="url(#p46d51b261e)" d="M 103.064967 71471.148137 
L 104.3525 71471.148137 
L 104.3525 207.093532 
L 103.064967 207.093532 
z
"/>
   </g>
   <g id="patch_22">
    <path clip-path="url(#p46d51b261e)" d="M 105.640033 71471.148137 
L 106.927567 71471.148137 
L 106.927567 206.828097 
L 105.640033 206.828097 
z
"/>
   </g>
   <g id="patch_23">
    <path clip-path="url(#p46d51b261e)" d="M 108.2151 71471.148137 
L 109.502633 71471.148137 
L 109.502633 206.347301 
L 108.2151 206.347301 
z
"/>
   </g>
   <g id="patch_24">
    <path clip-path="url(#p46d51b261e)" d="M 110.790167 71471.148137 
L 112.0777 71471.148137 
L 112.0777 206.002265 
L 110.790167 206.002265 
z
"/>
   </g>
   <g id="patch_25">
    <path clip-path="url(#p46d51b261e)" d="M 113.365233 71471.148137 
L 114.652767 71471.148137 
L 114.652767 205.852513 
L 113.365233 205.852513 
z
"/>
   </g>
   <g id="patch_26">
    <path clip-path="url(#p46d51b261e)" d="M 115.9403 71471.148137 
L 117.227833 71471.148137 
L 117.227833 205.4286 
L 115.9403 205.4286 
z
"/>
   </g>
   <g id="patch_27">
    <path clip-path="url(#p46d51b261e)" d="M 118.515367 71471.148137 
L 119.8029 71471.148137 
L 119.8029 202.806272 
L 118.515367 202.806272 
z
"/>
   </g>
   <g id="patch_28">
    <path clip-path="url(#p46d51b261e)" d="M 121.090433 71471.148137 
L 122.377967 71471.148137 
L 122.377967 202.729006 
L 121.090433 202.729006 
z
"/>
   </g>
   <g id="patch_29">
    <path clip-path="url(#p46d51b261e)" d="M 123.6655 71471.148137 
L 124.953033 71471.148137 
L 124.953033 202.28843 
L 123.6655 202.28843 
z
"/>
   </g>
   <g id="patch_30">
    <path clip-path="url(#p46d51b261e)" d="M 126.240567 71471.148137 
L 127.5281 71471.148137 
L 127.5281 201.444164 
L 126.240567 201.444164 
z
"/>
   </g>
   <g id="patch_31">
    <path clip-path="url(#p46d51b261e)" d="M 128.815633 71471.148137 
L 130.103167 71471.148137 
L 130.103167 201.425661 
L 128.815633 201.425661 
z
"/>
   </g>
   <g id="patch_32">
    <path clip-path="url(#p46d51b261e)" d="M 131.3907 71471.148137 
L 132.678233 71471.148137 
L 132.678233 200.784952 
L 131.3907 200.784952 
z
"/>
   </g>
   <g id="patch_33">
    <path clip-path="url(#p46d51b261e)" d="M 133.965767 71471.148137 
L 135.2533 71471.148137 
L 135.2533 199.962561 
L 133.965767 199.962561 
z
"/>
   </g>
   <g id="patch_34">
    <path clip-path="url(#p46d51b261e)" d="M 136.540833 71471.148137 
L 137.828367 71471.148137 
L 137.828367 199.892071 
L 136.540833 199.892071 
z
"/>
   </g>
   <g id="patch_35">
    <path clip-path="url(#p46d51b261e)" d="M 139.1159 71471.148137 
L 140.403433 71471.148137 
L 140.403433 199.455109 
L 139.1159 199.455109 
z
"/>
   </g>
   <g id="patch_36">
    <path clip-path="url(#p46d51b261e)" d="M 141.690967 71471.148137 
L 142.9785 71471.148137 
L 142.9785 199.264783 
L 141.690967 199.264783 
z
"/>
   </g>
   <g id="patch_37">
    <path clip-path="url(#p46d51b261e)" d="M 144.266033 71471.148137 
L 145.553567 71471.148137 
L 145.553567 198.080298 
L 144.266033 198.080298 
z
"/>
   </g>
   <g id="patch_38">
    <path clip-path="url(#p46d51b261e)" d="M 146.8411 71471.148137 
L 148.128633 71471.148137 
L 148.128633 197.733616 
L 146.8411 197.733616 
z
"/>
   </g>
   <g id="patch_39">
    <path clip-path="url(#p46d51b261e)" d="M 149.416167 71471.148137 
L 150.7037 71471.148137 
L 150.7037 197.196559 
L 149.416167 197.196559 
z
"/>
   </g>
   <g id="patch_40">
    <path clip-path="url(#p46d51b261e)" d="M 151.991233 71471.148137 
L 153.278767 71471.148137 
L 153.278767 196.243348 
L 151.991233 196.243348 
z
"/>
   </g>
   <g id="patch_41">
    <path clip-path="url(#p46d51b261e)" d="M 154.5663 71471.148137 
L 155.853833 71471.148137 
L 155.853833 195.963018 
L 154.5663 195.963018 
z
"/>
   </g>
   <g id="patch_42">
    <path clip-path="url(#p46d51b261e)" d="M 157.141367 71471.148137 
L 158.4289 71471.148137 
L 158.4289 195.947518 
L 157.141367 195.947518 
z
"/>
   </g>
   <g id="patch_43">
    <path clip-path="url(#p46d51b261e)" d="M 159.716433 71471.148137 
L 161.003967 71471.148137 
L 161.003967 195.792947 
L 159.716433 195.792947 
z
"/>
   </g>
   <g id="patch_44">
    <path clip-path="url(#p46d51b261e)" d="M 162.2915 71471.148137 
L 163.579033 71471.148137 
L 163.579033 195.37942 
L 162.2915 195.37942 
z
"/>
   </g>
   <g id="patch_45">
    <path clip-path="url(#p46d51b261e)" d="M 164.866567 71471.148137 
L 166.1541 71471.148137 
L 166.1541 195.318624 
L 164.866567 195.318624 
z
"/>
   </g>
   <g id="patch_46">
    <path clip-path="url(#p46d51b261e)" d="M 167.441633 71471.148137 
L 168.729167 71471.148137 
L 168.729167 195.227653 
L 167.441633 195.227653 
z
"/>
   </g>
   <g id="patch_47">
    <path clip-path="url(#p46d51b261e)" d="M 170.0167 71471.148137 
L 171.304233 71471.148137 
L 171.304233 194.435486 
L 170.0167 194.435486 
z
"/>
   </g>
   <g id="patch_48">
    <path clip-path="url(#p46d51b261e)" d="M 172.591767 71471.148137 
L 173.8793 71471.148137 
L 173.8793 194.405987 
L 172.591767 194.405987 
z
"/>
   </g>
   <g id="patch_49">
    <path clip-path="url(#p46d51b261e)" d="M 175.166833 71471.148137 
L 176.454367 71471.148137 
L 176.454367 194.391247 
L 175.166833 194.391247 
z
"/>
   </g>
   <g id="patch_50">
    <path clip-path="url(#p46d51b261e)" d="M 177.7419 71471.148137 
L 179.029433 71471.148137 
L 179.029433 193.67749 
L 177.7419 193.67749 
z
"/>
   </g>
   <g id="patch_51">
    <path clip-path="url(#p46d51b261e)" d="M 180.316967 71471.148137 
L 181.6045 71471.148137 
L 181.6045 192.825344 
L 180.316967 192.825344 
z
"/>
   </g>
   <g id="patch_52">
    <path clip-path="url(#p46d51b261e)" d="M 182.892033 71471.148137 
L 184.179567 71471.148137 
L 184.179567 192.352678 
L 182.892033 192.352678 
z
"/>
   </g>
   <g id="patch_53">
    <path clip-path="url(#p46d51b261e)" d="M 185.4671 71471.148137 
L 186.754633 71471.148137 
L 186.754633 192.146422 
L 185.4671 192.146422 
z
"/>
   </g>
   <g id="patch_54">
    <path clip-path="url(#p46d51b261e)" d="M 188.042167 71471.148137 
L 189.3297 71471.148137 
L 189.3297 191.308189 
L 188.042167 191.308189 
z
"/>
   </g>
   <g id="patch_55">
    <path clip-path="url(#p46d51b261e)" d="M 190.617233 71471.148137 
L 191.904767 71471.148137 
L 191.904767 191.016126 
L 190.617233 191.016126 
z
"/>
   </g>
   <g id="patch_56">
    <path clip-path="url(#p46d51b261e)" d="M 193.1923 71471.148137 
L 194.479833 71471.148137 
L 194.479833 186.832821 
L 193.1923 186.832821 
z
"/>
   </g>
   <g id="patch_57">
    <path clip-path="url(#p46d51b261e)" d="M 195.767367 71471.148137 
L 197.0549 71471.148137 
L 197.0549 186.068987 
L 195.767367 186.068987 
z
"/>
   </g>
   <g id="patch_58">
    <path clip-path="url(#p46d51b261e)" d="M 198.342433 71471.148137 
L 199.629967 71471.148137 
L 199.629967 185.766425 
L 198.342433 185.766425 
z
"/>
   </g>
   <g id="patch_59">
    <path clip-path="url(#p46d51b261e)" d="M 200.9175 71471.148137 
L 202.205033 71471.148137 
L 202.205033 185.12631 
L 200.9175 185.12631 
z
"/>
   </g>
   <g id="patch_60">
    <path clip-path="url(#p46d51b261e)" d="M 203.492567 71471.148137 
L 204.7801 71471.148137 
L 204.7801 184.402983 
L 203.492567 184.402983 
z
"/>
   </g>
   <g id="patch_61">
    <path clip-path="url(#p46d51b261e)" d="M 206.067633 71471.148137 
L 207.355167 71471.148137 
L 207.355167 182.801836 
L 206.067633 182.801836 
z
"/>
   </g>
   <g id="patch_62">
    <path clip-path="url(#p46d51b261e)" d="M 208.6427 71471.148137 
L 209.930233 71471.148137 
L 209.930233 180.6115 
L 208.6427 180.6115 
z
"/>
   </g>
   <g id="patch_63">
    <path clip-path="url(#p46d51b261e)" d="M 211.217767 71471.148137 
L 212.5053 71471.148137 
L 212.5053 178.975172 
L 211.217767 178.975172 
z
"/>
   </g>
   <g id="patch_64">
    <path clip-path="url(#p46d51b261e)" d="M 213.792833 71471.148137 
L 215.080367 71471.148137 
L 215.080367 178.725469 
L 213.792833 178.725469 
z
"/>
   </g>
   <g id="patch_65">
    <path clip-path="url(#p46d51b261e)" d="M 216.3679 71471.148137 
L 217.655433 71471.148137 
L 217.655433 177.703335 
L 216.3679 177.703335 
z
"/>
   </g>
   <g id="patch_66">
    <path clip-path="url(#p46d51b261e)" d="M 218.942967 71471.148137 
L 220.2305 71471.148137 
L 220.2305 177.540488 
L 218.942967 177.540488 
z
"/>
   </g>
   <g id="patch_67">
    <path clip-path="url(#p46d51b261e)" d="M 221.518033 71471.148137 
L 222.805567 71471.148137 
L 222.805567 176.448688 
L 221.518033 176.448688 
z
"/>
   </g>
   <g id="patch_68">
    <path clip-path="url(#p46d51b261e)" d="M 224.0931 71471.148137 
L 225.380633 71471.148137 
L 225.380633 175.916901 
L 224.0931 175.916901 
z
"/>
   </g>
   <g id="patch_69">
    <path clip-path="url(#p46d51b261e)" d="M 226.668167 71471.148137 
L 227.9557 71471.148137 
L 227.9557 175.211203 
L 226.668167 175.211203 
z
"/>
   </g>
   <g id="patch_70">
    <path clip-path="url(#p46d51b261e)" d="M 229.243233 71471.148137 
L 230.530767 71471.148137 
L 230.530767 175.179505 
L 229.243233 175.179505 
z
"/>
   </g>
   <g id="patch_71">
    <path clip-path="url(#p46d51b261e)" d="M 231.8183 71471.148137 
L 233.105833 71471.148137 
L 233.105833 174.143621 
L 231.8183 174.143621 
z
"/>
   </g>
   <g id="patch_72">
    <path clip-path="url(#p46d51b261e)" d="M 234.393367 71471.148137 
L 235.6809 71471.148137 
L 235.6809 173.914679 
L 234.393367 173.914679 
z
"/>
   </g>
   <g id="patch_73">
    <path clip-path="url(#p46d51b261e)" d="M 236.968433 71471.148137 
L 238.255967 71471.148137 
L 238.255967 173.401931 
L 236.968433 173.401931 
z
"/>
   </g>
   <g id="patch_74">
    <path clip-path="url(#p46d51b261e)" d="M 239.5435 71471.148137 
L 240.831033 71471.148137 
L 240.831033 173.267614 
L 239.5435 173.267614 
z
"/>
   </g>
   <g id="patch_75">
    <path clip-path="url(#p46d51b261e)" d="M 242.118567 71471.148137 
L 243.4061 71471.148137 
L 243.4061 173.015484 
L 242.118567 173.015484 
z
"/>
   </g>
   <g id="patch_76">
    <path clip-path="url(#p46d51b261e)" d="M 244.693633 71471.148137 
L 245.981167 71471.148137 
L 245.981167 172.91226 
L 244.693633 172.91226 
z
"/>
   </g>
   <g id="patch_77">
    <path clip-path="url(#p46d51b261e)" d="M 247.2687 71471.148137 
L 248.556233 71471.148137 
L 248.556233 172.699527 
L 247.2687 172.699527 
z
"/>
   </g>
   <g id="patch_78">
    <path clip-path="url(#p46d51b261e)" d="M 249.843767 71471.148137 
L 251.1313 71471.148137 
L 251.1313 172.22076 
L 249.843767 172.22076 
z
"/>
   </g>
   <g id="patch_79">
    <path clip-path="url(#p46d51b261e)" d="M 252.418833 71471.148137 
L 253.706367 71471.148137 
L 253.706367 169.798694 
L 252.418833 169.798694 
z
"/>
   </g>
   <g id="patch_80">
    <path clip-path="url(#p46d51b261e)" d="M 254.9939 71471.148137 
L 256.281433 71471.148137 
L 256.281433 168.001458 
L 254.9939 168.001458 
z
"/>
   </g>
   <g id="patch_81">
    <path clip-path="url(#p46d51b261e)" d="M 257.568967 71471.148137 
L 258.8565 71471.148137 
L 258.8565 166.976037 
L 257.568967 166.976037 
z
"/>
   </g>
   <g id="patch_82">
    <path clip-path="url(#p46d51b261e)" d="M 260.144033 71471.148137 
L 261.431567 71471.148137 
L 261.431567 166.33859 
L 260.144033 166.33859 
z
"/>
   </g>
   <g id="patch_83">
    <path clip-path="url(#p46d51b261e)" d="M 262.7191 71471.148137 
L 264.006633 71471.148137 
L 264.006633 165.452623 
L 262.7191 165.452623 
z
"/>
   </g>
   <g id="patch_84">
    <path clip-path="url(#p46d51b261e)" d="M 265.294167 71471.148137 
L 266.5817 71471.148137 
L 266.5817 163.846552 
L 265.294167 163.846552 
z
"/>
   </g>
   <g id="patch_85">
    <path clip-path="url(#p46d51b261e)" d="M 267.869233 71471.148137 
L 269.156767 71471.148137 
L 269.156767 163.172979 
L 267.869233 163.172979 
z
"/>
   </g>
   <g id="patch_86">
    <path clip-path="url(#p46d51b261e)" d="M 270.4443 71471.148137 
L 271.731833 71471.148137 
L 271.731833 161.514854 
L 270.4443 161.514854 
z
"/>
   </g>
   <g id="patch_87">
    <path clip-path="url(#p46d51b261e)" d="M 273.019367 71471.148137 
L 274.3069 71471.148137 
L 274.3069 161.200688 
L 273.019367 161.200688 
z
"/>
   </g>
   <g id="patch_88">
    <path clip-path="url(#p46d51b261e)" d="M 275.594433 71471.148137 
L 276.881967 71471.148137 
L 276.881967 160.281778 
L 275.594433 160.281778 
z
"/>
   </g>
   <g id="patch_89">
    <path clip-path="url(#p46d51b261e)" d="M 278.1695 71471.148137 
L 279.457033 71471.148137 
L 279.457033 157.315934 
L 278.1695 157.315934 
z
"/>
   </g>
   <g id="patch_90">
    <path clip-path="url(#p46d51b261e)" d="M 280.744567 71471.148137 
L 282.0321 71471.148137 
L 282.0321 155.869495 
L 280.744567 155.869495 
z
"/>
   </g>
   <g id="patch_91">
    <path clip-path="url(#p46d51b261e)" d="M 283.319633 71471.148137 
L 284.607167 71471.148137 
L 284.607167 155.36857 
L 283.319633 155.36857 
z
"/>
   </g>
   <g id="patch_92">
    <path clip-path="url(#p46d51b261e)" d="M 285.8947 71471.148137 
L 287.182233 71471.148137 
L 287.182233 155.185388 
L 285.8947 155.185388 
z
"/>
   </g>
   <g id="patch_93">
    <path clip-path="url(#p46d51b261e)" d="M 288.469767 71471.148137 
L 289.7573 71471.148137 
L 289.7573 154.390408 
L 288.469767 154.390408 
z
"/>
   </g>
   <g id="patch_94">
    <path clip-path="url(#p46d51b261e)" d="M 291.044833 71471.148137 
L 292.332367 71471.148137 
L 292.332367 153.246662 
L 291.044833 153.246662 
z
"/>
   </g>
   <g id="patch_95">
    <path clip-path="url(#p46d51b261e)" d="M 293.6199 71471.148137 
L 294.907433 71471.148137 
L 294.907433 151.997303 
L 293.6199 151.997303 
z
"/>
   </g>
   <g id="patch_96">
    <path clip-path="url(#p46d51b261e)" d="M 296.194967 71471.148137 
L 297.4825 71471.148137 
L 297.4825 151.547495 
L 296.194967 151.547495 
z
"/>
   </g>
   <g id="patch_97">
    <path clip-path="url(#p46d51b261e)" d="M 298.770033 71471.148137 
L 300.057567 71471.148137 
L 300.057567 150.699331 
L 298.770033 150.699331 
z
"/>
   </g>
   <g id="patch_98">
    <path clip-path="url(#p46d51b261e)" d="M 301.3451 71471.148137 
L 302.632633 71471.148137 
L 302.632633 150.236019 
L 301.3451 150.236019 
z
"/>
   </g>
   <g id="patch_99">
    <path clip-path="url(#p46d51b261e)" d="M 303.920167 71471.148137 
L 305.2077 71471.148137 
L 305.2077 150.108934 
L 303.920167 150.108934 
z
"/>
   </g>
   <g id="patch_100">
    <path clip-path="url(#p46d51b261e)" d="M 306.495233 71471.148137 
L 307.782767 71471.148137 
L 307.782767 149.178914 
L 306.495233 149.178914 
z
"/>
   </g>
   <g id="patch_101">
    <path clip-path="url(#p46d51b261e)" d="M 309.0703 71471.148137 
L 310.357833 71471.148137 
L 310.357833 149.042471 
L 309.0703 149.042471 
z
"/>
   </g>
   <g id="patch_102">
    <path clip-path="url(#p46d51b261e)" d="M 311.645367 71471.148137 
L 312.9329 71471.148137 
L 312.9329 149.039068 
L 311.645367 149.039068 
z
"/>
   </g>
   <g id="patch_103">
    <path clip-path="url(#p46d51b261e)" d="M 314.220433 71471.148137 
L 315.507967 71471.148137 
L 315.507967 147.518394 
L 314.220433 147.518394 
z
"/>
   </g>
   <g id="patch_104">
    <path clip-path="url(#p46d51b261e)" d="M 316.7955 71471.148137 
L 318.083033 71471.148137 
L 318.083033 146.205296 
L 316.7955 146.205296 
z
"/>
   </g>
   <g id="patch_105">
    <path clip-path="url(#p46d51b261e)" d="M 319.370567 71471.148137 
L 320.6581 71471.148137 
L 320.6581 145.050186 
L 319.370567 145.050186 
z
"/>
   </g>
   <g id="patch_106">
    <path clip-path="url(#p46d51b261e)" d="M 321.945633 71471.148137 
L 323.233167 71471.148137 
L 323.233167 144.305339 
L 321.945633 144.305339 
z
"/>
   </g>
   <g id="patch_107">
    <path clip-path="url(#p46d51b261e)" d="M 324.5207 71471.148137 
L 325.808233 71471.148137 
L 325.808233 142.886885 
L 324.5207 142.886885 
z
"/>
   </g>
   <g id="patch_108">
    <path clip-path="url(#p46d51b261e)" d="M 327.095767 71471.148137 
L 328.3833 71471.148137 
L 328.3833 141.509258 
L 327.095767 141.509258 
z
"/>
   </g>
   <g id="patch_109">
    <path clip-path="url(#p46d51b261e)" d="M 329.670833 71471.148137 
L 330.958367 71471.148137 
L 330.958367 140.503869 
L 329.670833 140.503869 
z
"/>
   </g>
   <g id="patch_110">
    <path clip-path="url(#p46d51b261e)" d="M 332.2459 71471.148137 
L 333.533433 71471.148137 
L 333.533433 139.152007 
L 332.2459 139.152007 
z
"/>
   </g>
   <g id="patch_111">
    <path clip-path="url(#p46d51b261e)" d="M 334.820967 71471.148137 
L 336.1085 71471.148137 
L 336.1085 137.379112 
L 334.820967 137.379112 
z
"/>
   </g>
   <g id="patch_112">
    <path clip-path="url(#p46d51b261e)" d="M 337.396033 71471.148137 
L 338.683567 71471.148137 
L 338.683567 135.378895 
L 337.396033 135.378895 
z
"/>
   </g>
   <g id="patch_113">
    <path clip-path="url(#p46d51b261e)" d="M 339.9711 71471.148137 
L 341.258633 71471.148137 
L 341.258633 134.881713 
L 339.9711 134.881713 
z
"/>
   </g>
   <g id="patch_114">
    <path clip-path="url(#p46d51b261e)" d="M 342.546167 71471.148137 
L 343.8337 71471.148137 
L 343.8337 132.312142 
L 342.546167 132.312142 
z
"/>
   </g>
   <g id="patch_115">
    <path clip-path="url(#p46d51b261e)" d="M 345.121233 71471.148137 
L 346.408767 71471.148137 
L 346.408767 128.331753 
L 345.121233 128.331753 
z
"/>
   </g>
   <g id="patch_116">
    <path clip-path="url(#p46d51b261e)" d="M 347.6963 71471.148137 
L 348.983833 71471.148137 
L 348.983833 124.299549 
L 347.6963 124.299549 
z
"/>
   </g>
   <g id="patch_117">
    <path clip-path="url(#p46d51b261e)" d="M 350.271367 71471.148137 
L 351.5589 71471.148137 
L 351.5589 124.213989 
L 350.271367 124.213989 
z
"/>
   </g>
   <g id="patch_118">
    <path clip-path="url(#p46d51b261e)" d="M 352.846433 71471.148137 
L 354.133967 71471.148137 
L 354.133967 120.001084 
L 352.846433 120.001084 
z
"/>
   </g>
   <g id="patch_119">
    <path clip-path="url(#p46d51b261e)" d="M 355.4215 71471.148137 
L 356.709033 71471.148137 
L 356.709033 119.358017 
L 355.4215 119.358017 
z
"/>
   </g>
   <g id="patch_120">
    <path clip-path="url(#p46d51b261e)" d="M 357.996567 71471.148137 
L 359.2841 71471.148137 
L 359.2841 117.295969 
L 357.996567 117.295969 
z
"/>
   </g>
   <g id="patch_121">
    <path clip-path="url(#p46d51b261e)" d="M 360.571633 71471.148137 
L 361.859167 71471.148137 
L 361.859167 115.057117 
L 360.571633 115.057117 
z
"/>
   </g>
   <g id="patch_122">
    <path clip-path="url(#p46d51b261e)" d="M 363.1467 71471.148137 
L 364.434233 71471.148137 
L 364.434233 113.633133 
L 363.1467 113.633133 
z
"/>
   </g>
   <g id="patch_123">
    <path clip-path="url(#p46d51b261e)" d="M 365.721767 71471.148137 
L 367.0093 71471.148137 
L 367.0093 111.798311 
L 365.721767 111.798311 
z
"/>
   </g>
   <g id="patch_124">
    <path clip-path="url(#p46d51b261e)" d="M 368.296833 71471.148137 
L 369.584367 71471.148137 
L 369.584367 111.794225 
L 368.296833 111.794225 
z
"/>
   </g>
   <g id="patch_125">
    <path clip-path="url(#p46d51b261e)" d="M 370.8719 71471.148137 
L 372.159433 71471.148137 
L 372.159433 111.389363 
L 370.8719 111.389363 
z
"/>
   </g>
   <g id="patch_126">
    <path clip-path="url(#p46d51b261e)" d="M 373.446967 71471.148137 
L 374.7345 71471.148137 
L 374.7345 111.324913 
L 373.446967 111.324913 
z
"/>
   </g>
   <g id="patch_127">
    <path clip-path="url(#p46d51b261e)" d="M 376.022033 71471.148137 
L 377.309567 71471.148137 
L 377.309567 109.329395 
L 376.022033 109.329395 
z
"/>
   </g>
   <g id="patch_128">
    <path clip-path="url(#p46d51b261e)" d="M 378.5971 71471.148137 
L 379.884633 71471.148137 
L 379.884633 108.452535 
L 378.5971 108.452535 
z
"/>
   </g>
   <g id="patch_129">
    <path clip-path="url(#p46d51b261e)" d="M 381.172167 71471.148137 
L 382.4597 71471.148137 
L 382.4597 106.606336 
L 381.172167 106.606336 
z
"/>
   </g>
   <g id="patch_130">
    <path clip-path="url(#p46d51b261e)" d="M 383.747233 71471.148137 
L 385.034767 71471.148137 
L 385.034767 104.058262 
L 383.747233 104.058262 
z
"/>
   </g>
   <g id="patch_131">
    <path clip-path="url(#p46d51b261e)" d="M 386.3223 71471.148137 
L 387.609833 71471.148137 
L 387.609833 98.598859 
L 386.3223 98.598859 
z
"/>
   </g>
   <g id="patch_132">
    <path clip-path="url(#p46d51b261e)" d="M 388.897367 71471.148137 
L 390.1849 71471.148137 
L 390.1849 96.5698 
L 388.897367 96.5698 
z
"/>
   </g>
   <g id="patch_133">
    <path clip-path="url(#p46d51b261e)" d="M 391.472433 71471.148137 
L 392.759967 71471.148137 
L 392.759967 95.897725 
L 391.472433 95.897725 
z
"/>
   </g>
   <g id="patch_134">
    <path clip-path="url(#p46d51b261e)" d="M 394.0475 71471.148137 
L 395.335033 71471.148137 
L 395.335033 66.599859 
L 394.0475 66.599859 
z
"/>
   </g>
   <g id="patch_135">
    <path clip-path="url(#p46d51b261e)" d="M 396.622567 71471.148137 
L 397.9101 71471.148137 
L 397.9101 45.502621 
L 396.622567 45.502621 
z
"/>
   </g>
   <g id="patch_136">
    <path clip-path="url(#p46d51b261e)" d="M 399.197633 71471.148137 
L 400.485167 71471.148137 
L 400.485167 39.335499 
L 399.197633 39.335499 
z
"/>
   </g>
   <g id="patch_137">
    <path clip-path="url(#p46d51b261e)" d="M 401.7727 71471.148137 
L 403.060233 71471.148137 
L 403.060233 39.06 
L 401.7727 39.06 
z
"/>
   </g>
   <g id="patch_138">
    <path clip-path="url(#p46d51b261e)" d="M 56.713767 71471.148137 
L 58.0013 71471.148137 
L 58.0013 215.46 
L 56.713767 215.46 
z
"/>
   </g>
   <g id="patch_139">
    <path clip-path="url(#p46d51b261e)" d="M 59.288833 71471.148137 
L 60.576367 71471.148137 
L 60.576367 214.997693 
L 59.288833 214.997693 
z
"/>
   </g>
   <g id="patch_140">
    <path clip-path="url(#p46d51b261e)" d="M 61.8639 71471.148137 
L 63.151433 71471.148137 
L 63.151433 213.982082 
L 61.8639 213.982082 
z
"/>
   </g>
   <g id="patch_141">
    <path clip-path="url(#p46d51b261e)" d="M 64.438967 71471.148137 
L 65.7265 71471.148137 
L 65.7265 213.926625 
L 64.438967 213.926625 
z
"/>
   </g>
   <g id="patch_142">
    <path clip-path="url(#p46d51b261e)" d="M 67.014033 71471.148137 
L 68.301567 71471.148137 
L 68.301567 213.898933 
L 67.014033 213.898933 
z
"/>
   </g>
   <g id="patch_143">
    <path clip-path="url(#p46d51b261e)" d="M 69.5891 71471.148137 
L 70.876633 71471.148137 
L 70.876633 213.295909 
L 69.5891 213.295909 
z
"/>
   </g>
   <g id="patch_144">
    <path clip-path="url(#p46d51b261e)" d="M 72.164167 71471.148137 
L 73.4517 71471.148137 
L 73.4517 213.133467 
L 72.164167 213.133467 
z
"/>
   </g>
   <g id="patch_145">
    <path clip-path="url(#p46d51b261e)" d="M 74.739233 71471.148137 
L 76.026767 71471.148137 
L 76.026767 212.971873 
L 74.739233 212.971873 
z
"/>
   </g>
   <g id="patch_146">
    <path clip-path="url(#p46d51b261e)" d="M 77.3143 71471.148137 
L 78.601833 71471.148137 
L 78.601833 212.386479 
L 77.3143 212.386479 
z
"/>
   </g>
   <g id="patch_147">
    <path clip-path="url(#p46d51b261e)" d="M 79.889367 71471.148137 
L 81.1769 71471.148137 
L 81.1769 210.594284 
L 79.889367 210.594284 
z
"/>
   </g>
   <g id="patch_148">
    <path clip-path="url(#p46d51b261e)" d="M 82.464433 71471.148137 
L 83.751967 71471.148137 
L 83.751967 210.445389 
L 82.464433 210.445389 
z
"/>
   </g>
   <g id="patch_149">
    <path clip-path="url(#p46d51b261e)" d="M 85.0395 71471.148137 
L 86.327033 71471.148137 
L 86.327033 210.174263 
L 85.0395 210.174263 
z
"/>
   </g>
   <g id="patch_150">
    <path clip-path="url(#p46d51b261e)" d="M 87.614567 71471.148137 
L 88.9021 71471.148137 
L 88.9021 208.665614 
L 87.614567 208.665614 
z
"/>
   </g>
   <g id="patch_151">
    <path clip-path="url(#p46d51b261e)" d="M 90.189633 71471.148137 
L 91.477167 71471.148137 
L 91.477167 208.316998 
L 90.189633 208.316998 
z
"/>
   </g>
   <g id="patch_152">
    <path clip-path="url(#p46d51b261e)" d="M 92.7647 71471.148137 
L 94.052233 71471.148137 
L 94.052233 207.926591 
L 92.7647 207.926591 
z
"/>
   </g>
   <g id="patch_153">
    <path clip-path="url(#p46d51b261e)" d="M 95.339767 71471.148137 
L 96.6273 71471.148137 
L 96.6273 207.563594 
L 95.339767 207.563594 
z
"/>
   </g>
   <g id="patch_154">
    <path clip-path="url(#p46d51b261e)" d="M 97.914833 71471.148137 
L 99.202367 71471.148137 
L 99.202367 207.271762 
L 97.914833 207.271762 
z
"/>
   </g>
   <g id="patch_155">
    <path clip-path="url(#p46d51b261e)" d="M 100.4899 71471.148137 
L 101.777433 71471.148137 
L 101.777433 207.093532 
L 100.4899 207.093532 
z
"/>
   </g>
   <g id="patch_156">
    <path clip-path="url(#p46d51b261e)" d="M 103.064967 71471.148137 
L 104.3525 71471.148137 
L 104.3525 207.093532 
L 103.064967 207.093532 
z
"/>
   </g>
   <g id="patch_157">
    <path clip-path="url(#p46d51b261e)" d="M 105.640033 71471.148137 
L 106.927567 71471.148137 
L 106.927567 206.828097 
L 105.640033 206.828097 
z
"/>
   </g>
   <g id="patch_158">
    <path clip-path="url(#p46d51b261e)" d="M 108.2151 71471.148137 
L 109.502633 71471.148137 
L 109.502633 206.347301 
L 108.2151 206.347301 
z
"/>
   </g>
   <g id="patch_159">
    <path clip-path="url(#p46d51b261e)" d="M 110.790167 71471.148137 
L 112.0777 71471.148137 
L 112.0777 206.002265 
L 110.790167 206.002265 
z
"/>
   </g>
   <g id="patch_160">
    <path clip-path="url(#p46d51b261e)" d="M 113.365233 71471.148137 
L 114.652767 71471.148137 
L 114.652767 205.852513 
L 113.365233 205.852513 
z
"/>
   </g>
   <g id="patch_161">
    <path clip-path="url(#p46d51b261e)" d="M 115.9403 71471.148137 
L 117.227833 71471.148137 
L 117.227833 205.4286 
L 115.9403 205.4286 
z
"/>
   </g>
   <g id="patch_162">
    <path clip-path="url(#p46d51b261e)" d="M 118.515367 71471.148137 
L 119.8029 71471.148137 
L 119.8029 202.806272 
L 118.515367 202.806272 
z
"/>
   </g>
   <g id="patch_163">
    <path clip-path="url(#p46d51b261e)" d="M 121.090433 71471.148137 
L 122.377967 71471.148137 
L 122.377967 202.729006 
L 121.090433 202.729006 
z
"/>
   </g>
   <g id="patch_164">
    <path clip-path="url(#p46d51b261e)" d="M 123.6655 71471.148137 
L 124.953033 71471.148137 
L 124.953033 202.28843 
L 123.6655 202.28843 
z
"/>
   </g>
   <g id="patch_165">
    <path clip-path="url(#p46d51b261e)" d="M 126.240567 71471.148137 
L 127.5281 71471.148137 
L 127.5281 201.444164 
L 126.240567 201.444164 
z
"/>
   </g>
   <g id="patch_166">
    <path clip-path="url(#p46d51b261e)" d="M 128.815633 71471.148137 
L 130.103167 71471.148137 
L 130.103167 201.425661 
L 128.815633 201.425661 
z
"/>
   </g>
   <g id="patch_167">
    <path clip-path="url(#p46d51b261e)" d="M 131.3907 71471.148137 
L 132.678233 71471.148137 
L 132.678233 200.784952 
L 131.3907 200.784952 
z
"/>
   </g>
   <g id="patch_168">
    <path clip-path="url(#p46d51b261e)" d="M 133.965767 71471.148137 
L 135.2533 71471.148137 
L 135.2533 199.962561 
L 133.965767 199.962561 
z
"/>
   </g>
   <g id="patch_169">
    <path clip-path="url(#p46d51b261e)" d="M 136.540833 71471.148137 
L 137.828367 71471.148137 
L 137.828367 199.892071 
L 136.540833 199.892071 
z
"/>
   </g>
   <g id="patch_170">
    <path clip-path="url(#p46d51b261e)" d="M 139.1159 71471.148137 
L 140.403433 71471.148137 
L 140.403433 199.455109 
L 139.1159 199.455109 
z
"/>
   </g>
   <g id="patch_171">
    <path clip-path="url(#p46d51b261e)" d="M 141.690967 71471.148137 
L 142.9785 71471.148137 
L 142.9785 199.264783 
L 141.690967 199.264783 
z
"/>
   </g>
   <g id="patch_172">
    <path clip-path="url(#p46d51b261e)" d="M 144.266033 71471.148137 
L 145.553567 71471.148137 
L 145.553567 198.080298 
L 144.266033 198.080298 
z
"/>
   </g>
   <g id="patch_173">
    <path clip-path="url(#p46d51b261e)" d="M 146.8411 71471.148137 
L 148.128633 71471.148137 
L 148.128633 197.733616 
L 146.8411 197.733616 
z
"/>
   </g>
   <g id="patch_174">
    <path clip-path="url(#p46d51b261e)" d="M 149.416167 71471.148137 
L 150.7037 71471.148137 
L 150.7037 197.196559 
L 149.416167 197.196559 
z
"/>
   </g>
   <g id="patch_175">
    <path clip-path="url(#p46d51b261e)" d="M 151.991233 71471.148137 
L 153.278767 71471.148137 
L 153.278767 196.243348 
L 151.991233 196.243348 
z
"/>
   </g>
   <g id="patch_176">
    <path clip-path="url(#p46d51b261e)" d="M 154.5663 71471.148137 
L 155.853833 71471.148137 
L 155.853833 195.963018 
L 154.5663 195.963018 
z
"/>
   </g>
   <g id="patch_177">
    <path clip-path="url(#p46d51b261e)" d="M 157.141367 71471.148137 
L 158.4289 71471.148137 
L 158.4289 195.947518 
L 157.141367 195.947518 
z
"/>
   </g>
   <g id="patch_178">
    <path clip-path="url(#p46d51b261e)" d="M 159.716433 71471.148137 
L 161.003967 71471.148137 
L 161.003967 195.792947 
L 159.716433 195.792947 
z
"/>
   </g>
   <g id="patch_179">
    <path clip-path="url(#p46d51b261e)" d="M 162.2915 71471.148137 
L 163.579033 71471.148137 
L 163.579033 195.37942 
L 162.2915 195.37942 
z
"/>
   </g>
   <g id="patch_180">
    <path clip-path="url(#p46d51b261e)" d="M 164.866567 71471.148137 
L 166.1541 71471.148137 
L 166.1541 195.318624 
L 164.866567 195.318624 
z
"/>
   </g>
   <g id="patch_181">
    <path clip-path="url(#p46d51b261e)" d="M 167.441633 71471.148137 
L 168.729167 71471.148137 
L 168.729167 195.227653 
L 167.441633 195.227653 
z
"/>
   </g>
   <g id="patch_182">
    <path clip-path="url(#p46d51b261e)" d="M 170.0167 71471.148137 
L 171.304233 71471.148137 
L 171.304233 194.435486 
L 170.0167 194.435486 
z
"/>
   </g>
   <g id="patch_183">
    <path clip-path="url(#p46d51b261e)" d="M 172.591767 71471.148137 
L 173.8793 71471.148137 
L 173.8793 194.405987 
L 172.591767 194.405987 
z
"/>
   </g>
   <g id="patch_184">
    <path clip-path="url(#p46d51b261e)" d="M 175.166833 71471.148137 
L 176.454367 71471.148137 
L 176.454367 194.391247 
L 175.166833 194.391247 
z
"/>
   </g>
   <g id="patch_185">
    <path clip-path="url(#p46d51b261e)" d="M 177.7419 71471.148137 
L 179.029433 71471.148137 
L 179.029433 193.67749 
L 177.7419 193.67749 
z
"/>
   </g>
   <g id="patch_186">
    <path clip-path="url(#p46d51b261e)" d="M 180.316967 71471.148137 
L 181.6045 71471.148137 
L 181.6045 192.825344 
L 180.316967 192.825344 
z
"/>
   </g>
   <g id="patch_187">
    <path clip-path="url(#p46d51b261e)" d="M 182.892033 71471.148137 
L 184.179567 71471.148137 
L 184.179567 192.352678 
L 182.892033 192.352678 
z
"/>
   </g>
   <g id="patch_188">
    <path clip-path="url(#p46d51b261e)" d="M 185.4671 71471.148137 
L 186.754633 71471.148137 
L 186.754633 192.146422 
L 185.4671 192.146422 
z
"/>
   </g>
   <g id="patch_189">
    <path clip-path="url(#p46d51b261e)" d="M 188.042167 71471.148137 
L 189.3297 71471.148137 
L 189.3297 191.308189 
L 188.042167 191.308189 
z
"/>
   </g>
   <g id="patch_190">
    <path clip-path="url(#p46d51b261e)" d="M 190.617233 71471.148137 
L 191.904767 71471.148137 
L 191.904767 191.016126 
L 190.617233 191.016126 
z
"/>
   </g>
   <g id="patch_191">
    <path clip-path="url(#p46d51b261e)" d="M 193.1923 71471.148137 
L 194.479833 71471.148137 
L 194.479833 186.832821 
L 193.1923 186.832821 
z
"/>
   </g>
   <g id="patch_192">
    <path clip-path="url(#p46d51b261e)" d="M 195.767367 71471.148137 
L 197.0549 71471.148137 
L 197.0549 186.068987 
L 195.767367 186.068987 
z
"/>
   </g>
   <g id="patch_193">
    <path clip-path="url(#p46d51b261e)" d="M 198.342433 71471.148137 
L 199.629967 71471.148137 
L 199.629967 185.766425 
L 198.342433 185.766425 
z
"/>
   </g>
   <g id="patch_194">
    <path clip-path="url(#p46d51b261e)" d="M 200.9175 71471.148137 
L 202.205033 71471.148137 
L 202.205033 185.12631 
L 200.9175 185.12631 
z
"/>
   </g>
   <g id="patch_195">
    <path clip-path="url(#p46d51b261e)" d="M 203.492567 71471.148137 
L 204.7801 71471.148137 
L 204.7801 184.402983 
L 203.492567 184.402983 
z
"/>
   </g>
   <g id="patch_196">
    <path clip-path="url(#p46d51b261e)" d="M 206.067633 71471.148137 
L 207.355167 71471.148137 
L 207.355167 182.801836 
L 206.067633 182.801836 
z
"/>
   </g>
   <g id="patch_197">
    <path clip-path="url(#p46d51b261e)" d="M 208.6427 71471.148137 
L 209.930233 71471.148137 
L 209.930233 180.6115 
L 208.6427 180.6115 
z
"/>
   </g>
   <g id="patch_198">
    <path clip-path="url(#p46d51b261e)" d="M 211.217767 71471.148137 
L 212.5053 71471.148137 
L 212.5053 178.975172 
L 211.217767 178.975172 
z
"/>
   </g>
   <g id="patch_199">
    <path clip-path="url(#p46d51b261e)" d="M 213.792833 71471.148137 
L 215.080367 71471.148137 
L 215.080367 178.725469 
L 213.792833 178.725469 
z
"/>
   </g>
   <g id="patch_200">
    <path clip-path="url(#p46d51b261e)" d="M 216.3679 71471.148137 
L 217.655433 71471.148137 
L 217.655433 177.703335 
L 216.3679 177.703335 
z
"/>
   </g>
   <g id="patch_201">
    <path clip-path="url(#p46d51b261e)" d="M 218.942967 71471.148137 
L 220.2305 71471.148137 
L 220.2305 177.540488 
L 218.942967 177.540488 
z
"/>
   </g>
   <g id="patch_202">
    <path clip-path="url(#p46d51b261e)" d="M 221.518033 71471.148137 
L 222.805567 71471.148137 
L 222.805567 176.448688 
L 221.518033 176.448688 
z
"/>
   </g>
   <g id="patch_203">
    <path clip-path="url(#p46d51b261e)" d="M 224.0931 71471.148137 
L 225.380633 71471.148137 
L 225.380633 175.916901 
L 224.0931 175.916901 
z
"/>
   </g>
   <g id="patch_204">
    <path clip-path="url(#p46d51b261e)" d="M 226.668167 71471.148137 
L 227.9557 71471.148137 
L 227.9557 175.211203 
L 226.668167 175.211203 
z
"/>
   </g>
   <g id="patch_205">
    <path clip-path="url(#p46d51b261e)" d="M 229.243233 71471.148137 
L 230.530767 71471.148137 
L 230.530767 175.179505 
L 229.243233 175.179505 
z
"/>
   </g>
   <g id="patch_206">
    <path clip-path="url(#p46d51b261e)" d="M 231.8183 71471.148137 
L 233.105833 71471.148137 
L 233.105833 174.143621 
L 231.8183 174.143621 
z
"/>
   </g>
   <g id="patch_207">
    <path clip-path="url(#p46d51b261e)" d="M 234.393367 71471.148137 
L 235.6809 71471.148137 
L 235.6809 173.914679 
L 234.393367 173.914679 
z
"/>
   </g>
   <g id="patch_208">
    <path clip-path="url(#p46d51b261e)" d="M 236.968433 71471.148137 
L 238.255967 71471.148137 
L 238.255967 173.401931 
L 236.968433 173.401931 
z
"/>
   </g>
   <g id="patch_209">
    <path clip-path="url(#p46d51b261e)" d="M 239.5435 71471.148137 
L 240.831033 71471.148137 
L 240.831033 173.267614 
L 239.5435 173.267614 
z
"/>
   </g>
   <g id="patch_210">
    <path clip-path="url(#p46d51b261e)" d="M 242.118567 71471.148137 
L 243.4061 71471.148137 
L 243.4061 173.015484 
L 242.118567 173.015484 
z
"/>
   </g>
   <g id="patch_211">
    <path clip-path="url(#p46d51b261e)" d="M 244.693633 71471.148137 
L 245.981167 71471.148137 
L 245.981167 172.91226 
L 244.693633 172.91226 
z
"/>
   </g>
   <g id="patch_212">
    <path clip-path="url(#p46d51b261e)" d="M 247.2687 71471.148137 
L 248.556233 71471.148137 
L 248.556233 172.699527 
L 247.2687 172.699527 
z
"/>
   </g>
   <g id="patch_213">
    <path clip-path="url(#p46d51b261e)" d="M 249.843767 71471.148137 
L 251.1313 71471.148137 
L 251.1313 172.22076 
L 249.843767 172.22076 
z
"/>
   </g>
   <g id="patch_214">
    <path clip-path="url(#p46d51b261e)" d="M 252.418833 71471.148137 
L 253.706367 71471.148137 
L 253.706367 169.798694 
L 252.418833 169.798694 
z
"/>
   </g>
   <g id="patch_215">
    <path clip-path="url(#p46d51b261e)" d="M 254.9939 71471.148137 
L 256.281433 71471.148137 
L 256.281433 168.001458 
L 254.9939 168.001458 
z
"/>
   </g>
   <g id="patch_216">
    <path clip-path="url(#p46d51b261e)" d="M 257.568967 71471.148137 
L 258.8565 71471.148137 
L 258.8565 166.976037 
L 257.568967 166.976037 
z
"/>
   </g>
   <g id="patch_217">
    <path clip-path="url(#p46d51b261e)" d="M 260.144033 71471.148137 
L 261.431567 71471.148137 
L 261.431567 166.33859 
L 260.144033 166.33859 
z
"/>
   </g>
   <g id="patch_218">
    <path clip-path="url(#p46d51b261e)" d="M 262.7191 71471.148137 
L 264.006633 71471.148137 
L 264.006633 165.452623 
L 262.7191 165.452623 
z
"/>
   </g>
   <g id="patch_219">
    <path clip-path="url(#p46d51b261e)" d="M 265.294167 71471.148137 
L 266.5817 71471.148137 
L 266.5817 163.846552 
L 265.294167 163.846552 
z
"/>
   </g>
   <g id="patch_220">
    <path clip-path="url(#p46d51b261e)" d="M 267.869233 71471.148137 
L 269.156767 71471.148137 
L 269.156767 163.172979 
L 267.869233 163.172979 
z
"/>
   </g>
   <g id="patch_221">
    <path clip-path="url(#p46d51b261e)" d="M 270.4443 71471.148137 
L 271.731833 71471.148137 
L 271.731833 161.514854 
L 270.4443 161.514854 
z
"/>
   </g>
   <g id="patch_222">
    <path clip-path="url(#p46d51b261e)" d="M 273.019367 71471.148137 
L 274.3069 71471.148137 
L 274.3069 161.200688 
L 273.019367 161.200688 
z
"/>
   </g>
   <g id="patch_223">
    <path clip-path="url(#p46d51b261e)" d="M 275.594433 71471.148137 
L 276.881967 71471.148137 
L 276.881967 160.281778 
L 275.594433 160.281778 
z
"/>
   </g>
   <g id="patch_224">
    <path clip-path="url(#p46d51b261e)" d="M 278.1695 71471.148137 
L 279.457033 71471.148137 
L 279.457033 157.315934 
L 278.1695 157.315934 
z
"/>
   </g>
   <g id="patch_225">
    <path clip-path="url(#p46d51b261e)" d="M 280.744567 71471.148137 
L 282.0321 71471.148137 
L 282.0321 155.869495 
L 280.744567 155.869495 
z
"/>
   </g>
   <g id="patch_226">
    <path clip-path="url(#p46d51b261e)" d="M 283.319633 71471.148137 
L 284.607167 71471.148137 
L 284.607167 155.36857 
L 283.319633 155.36857 
z
"/>
   </g>
   <g id="patch_227">
    <path clip-path="url(#p46d51b261e)" d="M 285.8947 71471.148137 
L 287.182233 71471.148137 
L 287.182233 155.185388 
L 285.8947 155.185388 
z
"/>
   </g>
   <g id="patch_228">
    <path clip-path="url(#p46d51b261e)" d="M 288.469767 71471.148137 
L 289.7573 71471.148137 
L 289.7573 154.390408 
L 288.469767 154.390408 
z
"/>
   </g>
   <g id="patch_229">
    <path clip-path="url(#p46d51b261e)" d="M 291.044833 71471.148137 
L 292.332367 71471.148137 
L 292.332367 153.246662 
L 291.044833 153.246662 
z
"/>
   </g>
   <g id="patch_230">
    <path clip-path="url(#p46d51b261e)" d="M 293.6199 71471.148137 
L 294.907433 71471.148137 
L 294.907433 151.997303 
L 293.6199 151.997303 
z
"/>
   </g>
   <g id="patch_231">
    <path clip-path="url(#p46d51b261e)" d="M 296.194967 71471.148137 
L 297.4825 71471.148137 
L 297.4825 151.547495 
L 296.194967 151.547495 
z
"/>
   </g>
   <g id="patch_232">
    <path clip-path="url(#p46d51b261e)" d="M 298.770033 71471.148137 
L 300.057567 71471.148137 
L 300.057567 150.699331 
L 298.770033 150.699331 
z
"/>
   </g>
   <g id="patch_233">
    <path clip-path="url(#p46d51b261e)" d="M 301.3451 71471.148137 
L 302.632633 71471.148137 
L 302.632633 150.236019 
L 301.3451 150.236019 
z
"/>
   </g>
   <g id="patch_234">
    <path clip-path="url(#p46d51b261e)" d="M 303.920167 71471.148137 
L 305.2077 71471.148137 
L 305.2077 150.108934 
L 303.920167 150.108934 
z
"/>
   </g>
   <g id="patch_235">
    <path clip-path="url(#p46d51b261e)" d="M 306.495233 71471.148137 
L 307.782767 71471.148137 
L 307.782767 149.178914 
L 306.495233 149.178914 
z
"/>
   </g>
   <g id="patch_236">
    <path clip-path="url(#p46d51b261e)" d="M 309.0703 71471.148137 
L 310.357833 71471.148137 
L 310.357833 149.042471 
L 309.0703 149.042471 
z
"/>
   </g>
   <g id="patch_237">
    <path clip-path="url(#p46d51b261e)" d="M 311.645367 71471.148137 
L 312.9329 71471.148137 
L 312.9329 149.039068 
L 311.645367 149.039068 
z
"/>
   </g>
   <g id="patch_238">
    <path clip-path="url(#p46d51b261e)" d="M 314.220433 71471.148137 
L 315.507967 71471.148137 
L 315.507967 147.518394 
L 314.220433 147.518394 
z
"/>
   </g>
   <g id="patch_239">
    <path clip-path="url(#p46d51b261e)" d="M 316.7955 71471.148137 
L 318.083033 71471.148137 
L 318.083033 146.205296 
L 316.7955 146.205296 
z
"/>
   </g>
   <g id="patch_240">
    <path clip-path="url(#p46d51b261e)" d="M 319.370567 71471.148137 
L 320.6581 71471.148137 
L 320.6581 145.050186 
L 319.370567 145.050186 
z
"/>
   </g>
   <g id="patch_241">
    <path clip-path="url(#p46d51b261e)" d="M 321.945633 71471.148137 
L 323.233167 71471.148137 
L 323.233167 144.305339 
L 321.945633 144.305339 
z
"/>
   </g>
   <g id="patch_242">
    <path clip-path="url(#p46d51b261e)" d="M 324.5207 71471.148137 
L 325.808233 71471.148137 
L 325.808233 142.886885 
L 324.5207 142.886885 
z
"/>
   </g>
   <g id="patch_243">
    <path clip-path="url(#p46d51b261e)" d="M 327.095767 71471.148137 
L 328.3833 71471.148137 
L 328.3833 141.509258 
L 327.095767 141.509258 
z
"/>
   </g>
   <g id="patch_244">
    <path clip-path="url(#p46d51b261e)" d="M 329.670833 71471.148137 
L 330.958367 71471.148137 
L 330.958367 140.503869 
L 329.670833 140.503869 
z
"/>
   </g>
   <g id="patch_245">
    <path clip-path="url(#p46d51b261e)" d="M 332.2459 71471.148137 
L 333.533433 71471.148137 
L 333.533433 139.152007 
L 332.2459 139.152007 
z
"/>
   </g>
   <g id="patch_246">
    <path clip-path="url(#p46d51b261e)" d="M 334.820967 71471.148137 
L 336.1085 71471.148137 
L 336.1085 137.379112 
L 334.820967 137.379112 
z
"/>
   </g>
   <g id="patch_247">
    <path clip-path="url(#p46d51b261e)" d="M 337.396033 71471.148137 
L 338.683567 71471.148137 
L 338.683567 135.378895 
L 337.396033 135.378895 
z
"/>
   </g>
   <g id="patch_248">
    <path clip-path="url(#p46d51b261e)" d="M 339.9711 71471.148137 
L 341.258633 71471.148137 
L 341.258633 134.881713 
L 339.9711 134.881713 
z
"/>
   </g>
   <g id="patch_249">
    <path clip-path="url(#p46d51b261e)" d="M 342.546167 71471.148137 
L 343.8337 71471.148137 
L 343.8337 132.312142 
L 342.546167 132.312142 
z
"/>
   </g>
   <g id="patch_250">
    <path clip-path="url(#p46d51b261e)" d="M 345.121233 71471.148137 
L 346.408767 71471.148137 
L 346.408767 128.331753 
L 345.121233 128.331753 
z
"/>
   </g>
   <g id="patch_251">
    <path clip-path="url(#p46d51b261e)" d="M 347.6963 71471.148137 
L 348.983833 71471.148137 
L 348.983833 124.299549 
L 347.6963 124.299549 
z
"/>
   </g>
   <g id="patch_252">
    <path clip-path="url(#p46d51b261e)" d="M 350.271367 71471.148137 
L 351.5589 71471.148137 
L 351.5589 124.213989 
L 350.271367 124.213989 
z
"/>
   </g>
   <g id="patch_253">
    <path clip-path="url(#p46d51b261e)" d="M 352.846433 71471.148137 
L 354.133967 71471.148137 
L 354.133967 120.001084 
L 352.846433 120.001084 
z
"/>
   </g>
   <g id="patch_254">
    <path clip-path="url(#p46d51b261e)" d="M 355.4215 71471.148137 
L 356.709033 71471.148137 
L 356.709033 119.358017 
L 355.4215 119.358017 
z
"/>
   </g>
   <g id="patch_255">
    <path clip-path="url(#p46d51b261e)" d="M 357.996567 71471.148137 
L 359.2841 71471.148137 
L 359.2841 117.295969 
L 357.996567 117.295969 
z
"/>
   </g>
   <g id="patch_256">
    <path clip-path="url(#p46d51b261e)" d="M 360.571633 71471.148137 
L 361.859167 71471.148137 
L 361.859167 115.057117 
L 360.571633 115.057117 
z
"/>
   </g>
   <g id="patch_257">
    <path clip-path="url(#p46d51b261e)" d="M 363.1467 71471.148137 
L 364.434233 71471.148137 
L 364.434233 113.633133 
L 363.1467 113.633133 
z
"/>
   </g>
   <g id="patch_258">
    <path clip-path="url(#p46d51b261e)" d="M 365.721767 71471.148137 
L 367.0093 71471.148137 
L 367.0093 111.798311 
L 365.721767 111.798311 
z
"/>
   </g>
   <g id="patch_259">
    <path clip-path="url(#p46d51b261e)" d="M 368.296833 71471.148137 
L 369.584367 71471.148137 
L 369.584367 111.794225 
L 368.296833 111.794225 
z
"/>
   </g>
   <g id="patch_260">
    <path clip-path="url(#p46d51b261e)" d="M 370.8719 71471.148137 
L 372.159433 71471.148137 
L 372.159433 111.389363 
L 370.8719 111.389363 
z
"/>
   </g>
   <g id="patch_261">
    <path clip-path="url(#p46d51b261e)" d="M 373.446967 71471.148137 
L 374.7345 71471.148137 
L 374.7345 111.324913 
L 373.446967 111.324913 
z
"/>
   </g>
   <g id="patch_262">
    <path clip-path="url(#p46d51b261e)" d="M 376.022033 71471.148137 
L 377.309567 71471.148137 
L 377.309567 109.329395 
L 376.022033 109.329395 
z
"/>
   </g>
   <g id="patch_263">
    <path clip-path="url(#p46d51b261e)" d="M 378.5971 71471.148137 
L 379.884633 71471.148137 
L 379.884633 108.452535 
L 378.5971 108.452535 
z
"/>
   </g>
   <g id="patch_264">
    <path clip-path="url(#p46d51b261e)" d="M 381.172167 71471.148137 
L 382.4597 71471.148137 
L 382.4597 106.606336 
L 381.172167 106.606336 
z
"/>
   </g>
   <g id="patch_265">
    <path clip-path="url(#p46d51b261e)" d="M 383.747233 71471.148137 
L 385.034767 71471.148137 
L 385.034767 104.058262 
L 383.747233 104.058262 
z
"/>
   </g>
   <g id="patch_266">
    <path clip-path="url(#p46d51b261e)" d="M 386.3223 71471.148137 
L 387.609833 71471.148137 
L 387.609833 98.598859 
L 386.3223 98.598859 
z
"/>
   </g>
   <g id="patch_267">
    <path clip-path="url(#p46d51b261e)" d="M 388.897367 71471.148137 
L 390.1849 71471.148137 
L 390.1849 96.5698 
L 388.897367 96.5698 
z
"/>
   </g>
   <g id="patch_268">
    <path clip-path="url(#p46d51b261e)" d="M 391.472433 71471.148137 
L 392.759967 71471.148137 
L 392.759967 95.897725 
L 391.472433 95.897725 
z
"/>
   </g>
   <g id="patch_269">
    <path clip-path="url(#p46d51b261e)" d="M 394.0475 71471.148137 
L 395.335033 71471.148137 
L 395.335033 66.599859 
L 394.0475 66.599859 
z
"/>
   </g>
   <g id="patch_270">
    <path clip-path="url(#p46d51b261e)" d="M 396.622567 71471.148137 
L 397.9101 71471.148137 
L 397.9101 45.502621 
L 396.622567 45.502621 
z
"/>
   </g>
   <g id="patch_271">
    <path clip-path="url(#p46d51b261e)" d="M 399.197633 71471.148137 
L 400.485167 71471.148137 
L 400.485167 39.335499 
L 399.197633 39.335499 
z
"/>
   </g>
   <g id="patch_272">
    <path clip-path="url(#p46d51b261e)" d="M 401.7727 71471.148137 
L 403.060233 71471.148137 
L 403.060233 39.06 
L 401.7727 39.06 
z
"/>
   </g>
   <g id="matplotlib.axis_1">
    <g id="ytick_1">
     <g id="line2d_1">
      <defs>
       <path d="M 0 0 
L -3.5 0 
" id="m0b442fbfa7" style="stroke:#000000;stroke-width:0.8;"/>
      </defs>
      <g>
       <use style="stroke:#000000;stroke-width:0.8;" x="56.07" xlink:href="#m0b442fbfa7" y="217.350596"/>
      </g>
     </g>
     <g id="text_1">
      <!-- $\mathdefault{10^{0}}$ -->
      <g transform="translate(31.47 221.149815)scale(0.1 -0.1)">
       <defs>
        <path d="M 12.40625 8.296875 
L 28.515625 8.296875 
L 28.515625 63.921875 
L 10.984375 60.40625 
L 10.984375 69.390625 
L 28.421875 72.90625 
L 38.28125 72.90625 
L 38.28125 8.296875 
L 54.390625 8.296875 
L 54.390625 0 
L 12.40625 0 
z
" id="DejaVuSans-49"/>
        <path d="M 31.78125 66.40625 
Q 24.171875 66.40625 20.328125 58.90625 
Q 16.5 51.421875 16.5 36.375 
Q 16.5 21.390625 20.328125 13.890625 
Q 24.171875 6.390625 31.78125 6.390625 
Q 39.453125 6.390625 43.28125 13.890625 
Q 47.125 21.390625 47.125 36.375 
Q 47.125 51.421875 43.28125 58.90625 
Q 39.453125 66.40625 31.78125 66.40625 
z
M 31.78125 74.21875 
Q 44.046875 74.21875 50.515625 64.515625 
Q 56.984375 54.828125 56.984375 36.375 
Q 56.984375 17.96875 50.515625 8.265625 
Q 44.046875 -1.421875 31.78125 -1.421875 
Q 19.53125 -1.421875 13.0625 8.265625 
Q 6.59375 17.96875 6.59375 36.375 
Q 6.59375 54.828125 13.0625 64.515625 
Q 19.53125 74.21875 31.78125 74.21875 
z
" id="DejaVuSans-48"/>
       </defs>
       <use transform="translate(0 0.765625)" xlink:href="#DejaVuSans-49"/>
       <use transform="translate(63.623047 0.765625)" xlink:href="#DejaVuSans-48"/>
       <use transform="translate(128.203125 39.046875)scale(0.7)" xlink:href="#DejaVuSans-48"/>
      </g>
     </g>
    </g>
    <g id="ytick_2">
     <g id="line2d_2">
      <g>
       <use style="stroke:#000000;stroke-width:0.8;" x="56.07" xlink:href="#m0b442fbfa7" y="146.096798"/>
      </g>
     </g>
     <g id="text_2">
      <!-- $\mathdefault{10^{1}}$ -->
      <g transform="translate(31.47 149.896017)scale(0.1 -0.1)">
       <use transform="translate(0 0.684375)" xlink:href="#DejaVuSans-49"/>
       <use transform="translate(63.623047 0.684375)" xlink:href="#DejaVuSans-48"/>
       <use transform="translate(128.203125 38.965625)scale(0.7)" xlink:href="#DejaVuSans-49"/>
      </g>
     </g>
    </g>
    <g id="ytick_3">
     <g id="line2d_3">
      <g>
       <use style="stroke:#000000;stroke-width:0.8;" x="56.07" xlink:href="#m0b442fbfa7" y="74.843001"/>
      </g>
     </g>
     <g id="text_3">
      <!-- $\mathdefault{10^{2}}$ -->
      <g transform="translate(31.47 78.64222)scale(0.1 -0.1)">
       <defs>
        <path d="M 19.1875 8.296875 
L 53.609375 8.296875 
L 53.609375 0 
L 7.328125 0 
L 7.328125 8.296875 
Q 12.9375 14.109375 22.625 23.890625 
Q 32.328125 33.6875 34.8125 36.53125 
Q 39.546875 41.84375 41.421875 45.53125 
Q 43.3125 49.21875 43.3125 52.78125 
Q 43.3125 58.59375 39.234375 62.25 
Q 35.15625 65.921875 28.609375 65.921875 
Q 23.96875 65.921875 18.8125 64.3125 
Q 13.671875 62.703125 7.8125 59.421875 
L 7.8125 69.390625 
Q 13.765625 71.78125 18.9375 73 
Q 24.125 74.21875 28.421875 74.21875 
Q 39.75 74.21875 46.484375 68.546875 
Q 53.21875 62.890625 53.21875 53.421875 
Q 53.21875 48.921875 51.53125 44.890625 
Q 49.859375 40.875 45.40625 35.40625 
Q 44.1875 33.984375 37.640625 27.21875 
Q 31.109375 20.453125 19.1875 8.296875 
z
" id="DejaVuSans-50"/>
       </defs>
       <use transform="translate(0 0.765625)" xlink:href="#DejaVuSans-49"/>
       <use transform="translate(63.623047 0.765625)" xlink:href="#DejaVuSans-48"/>
       <use transform="translate(128.203125 39.046875)scale(0.7)" xlink:href="#DejaVuSans-50"/>
      </g>
     </g>
    </g>
    <g id="ytick_4">
     <g id="line2d_4">
      <defs>
       <path d="M 0 0 
L -2 0 
" id="m74ac4c7bd8" style="stroke:#000000;stroke-width:0.6;"/>
      </defs>
      <g>
       <use style="stroke:#000000;stroke-width:0.6;" x="56.07" xlink:href="#m74ac4c7bd8" y="224.255802"/>
      </g>
     </g>
    </g>
    <g id="ytick_5">
     <g id="line2d_5">
      <g>
       <use style="stroke:#000000;stroke-width:0.6;" x="56.07" xlink:href="#m74ac4c7bd8" y="220.610991"/>
      </g>
     </g>
    </g>
    <g id="ytick_6">
     <g id="line2d_6">
      <g>
       <use style="stroke:#000000;stroke-width:0.6;" x="56.07" xlink:href="#m74ac4c7bd8" y="195.901065"/>
      </g>
     </g>
    </g>
    <g id="ytick_7">
     <g id="line2d_7">
      <g>
       <use style="stroke:#000000;stroke-width:0.6;" x="56.07" xlink:href="#m74ac4c7bd8" y="183.353895"/>
      </g>
     </g>
    </g>
    <g id="ytick_8">
     <g id="line2d_8">
      <g>
       <use style="stroke:#000000;stroke-width:0.6;" x="56.07" xlink:href="#m74ac4c7bd8" y="174.451535"/>
      </g>
     </g>
    </g>
    <g id="ytick_9">
     <g id="line2d_9">
      <g>
       <use style="stroke:#000000;stroke-width:0.6;" x="56.07" xlink:href="#m74ac4c7bd8" y="167.546329"/>
      </g>
     </g>
    </g>
    <g id="ytick_10">
     <g id="line2d_10">
      <g>
       <use style="stroke:#000000;stroke-width:0.6;" x="56.07" xlink:href="#m74ac4c7bd8" y="161.904364"/>
      </g>
     </g>
    </g>
    <g id="ytick_11">
     <g id="line2d_11">
      <g>
       <use style="stroke:#000000;stroke-width:0.6;" x="56.07" xlink:href="#m74ac4c7bd8" y="157.134151"/>
      </g>
     </g>
    </g>
    <g id="ytick_12">
     <g id="line2d_12">
      <g>
       <use style="stroke:#000000;stroke-width:0.6;" x="56.07" xlink:href="#m74ac4c7bd8" y="153.002005"/>
      </g>
     </g>
    </g>
    <g id="ytick_13">
     <g id="line2d_13">
      <g>
       <use style="stroke:#000000;stroke-width:0.6;" x="56.07" xlink:href="#m74ac4c7bd8" y="149.357193"/>
      </g>
     </g>
    </g>
    <g id="ytick_14">
     <g id="line2d_14">
      <g>
       <use style="stroke:#000000;stroke-width:0.6;" x="56.07" xlink:href="#m74ac4c7bd8" y="124.647268"/>
      </g>
     </g>
    </g>
    <g id="ytick_15">
     <g id="line2d_15">
      <g>
       <use style="stroke:#000000;stroke-width:0.6;" x="56.07" xlink:href="#m74ac4c7bd8" y="112.100097"/>
      </g>
     </g>
    </g>
    <g id="ytick_16">
     <g id="line2d_16">
      <g>
       <use style="stroke:#000000;stroke-width:0.6;" x="56.07" xlink:href="#m74ac4c7bd8" y="103.197738"/>
      </g>
     </g>
    </g>
    <g id="ytick_17">
     <g id="line2d_17">
      <g>
       <use style="stroke:#000000;stroke-width:0.6;" x="56.07" xlink:href="#m74ac4c7bd8" y="96.292531"/>
      </g>
     </g>
    </g>
    <g id="ytick_18">
     <g id="line2d_18">
      <g>
       <use style="stroke:#000000;stroke-width:0.6;" x="56.07" xlink:href="#m74ac4c7bd8" y="90.650567"/>
      </g>
     </g>
    </g>
    <g id="ytick_19">
     <g id="line2d_19">
      <g>
       <use style="stroke:#000000;stroke-width:0.6;" x="56.07" xlink:href="#m74ac4c7bd8" y="85.880354"/>
      </g>
     </g>
    </g>
    <g id="ytick_20">
     <g id="line2d_20">
      <g>
       <use style="stroke:#000000;stroke-width:0.6;" x="56.07" xlink:href="#m74ac4c7bd8" y="81.748207"/>
      </g>
     </g>
    </g>
    <g id="ytick_21">
     <g id="line2d_21">
      <g>
       <use style="stroke:#000000;stroke-width:0.6;" x="56.07" xlink:href="#m74ac4c7bd8" y="78.103396"/>
      </g>
     </g>
    </g>
    <g id="ytick_22">
     <g id="line2d_22">
      <g>
       <use style="stroke:#000000;stroke-width:0.6;" x="56.07" xlink:href="#m74ac4c7bd8" y="53.39347"/>
      </g>
     </g>
    </g>
    <g id="ytick_23">
     <g id="line2d_23">
      <g>
       <use style="stroke:#000000;stroke-width:0.6;" x="56.07" xlink:href="#m74ac4c7bd8" y="40.846299"/>
      </g>
     </g>
    </g>
    <g id="ytick_24">
     <g id="line2d_24">
      <g>
       <use style="stroke:#000000;stroke-width:0.6;" x="56.07" xlink:href="#m74ac4c7bd8" y="31.94394"/>
      </g>
     </g>
    </g>
   </g>
   <g id="patch_273">
    <path d="M 56.07 224.28 
L 56.07 30.24 
" style="fill:none;stroke:#000000;stroke-linecap:square;stroke-linejoin:miter;stroke-width:0.8;"/>
   </g>
   <g id="patch_274">
    <path d="M 403.704 224.28 
L 403.704 30.24 
" style="fill:none;stroke:#000000;stroke-linecap:square;stroke-linejoin:miter;stroke-width:0.8;"/>
   </g>
   <g id="patch_275">
    <path d="M 56.07 224.28 
L 403.704 224.28 
" style="fill:none;stroke:#000000;stroke-linecap:square;stroke-linejoin:miter;stroke-width:0.8;"/>
   </g>
   <g id="patch_276">
    <path d="M 56.07 30.24 
L 403.704 30.24 
" style="fill:none;stroke:#000000;stroke-linecap:square;stroke-linejoin:miter;stroke-width:0.8;"/>
   </g>
  </g>
 </g>
 <defs>
  <clipPath id="p46d51b261e">
   <rect height="194.04" width="347.634" x="56.07" y="30.24"/>
  </clipPath>
 </defs>
</svg>
