<?xml version="1.0" encoding="utf-8" standalone="no"?>
<!DOCTYPE svg PUBLIC "-//W3C//DTD SVG 1.1//EN"
  "http://www.w3.org/Graphics/SVG/1.1/DTD/svg11.dtd">
<!-- Created with matplotlib (https://matplotlib.org/) -->
<svg height="252pt" version="1.1" viewBox="0 0 448.56 252" width="448.56pt" xmlns="http://www.w3.org/2000/svg" xmlns:xlink="http://www.w3.org/1999/xlink">
 <metadata>
  <rdf:RDF xmlns:cc="http://creativecommons.org/ns#" xmlns:dc="http://purl.org/dc/elements/1.1/" xmlns:rdf="http://www.w3.org/1999/02/22-rdf-syntax-ns#">
   <cc:Work>
    <dc:type rdf:resource="http://purl.org/dc/dcmitype/StillImage"/>
    <dc:date>2021-01-07T14:14:00.074315</dc:date>
    <dc:format>image/svg+xml</dc:format>
    <dc:creator>
     <cc:Agent>
      <dc:title>Matplotlib v3.3.3, https://matplotlib.org/</dc:title>
     </cc:Agent>
    </dc:creator>
   </cc:Work>
  </rdf:RDF>
 </metadata>
 <defs>
  <style type="text/css">*{stroke-linecap:butt;stroke-linejoin:round;}</style>
 </defs>
 <g id="figure_1">
  <g id="patch_1">
   <path d="M 0 252 
L 448.56 252 
L 448.56 0 
L 0 0 
z
" style="fill:none;"/>
  </g>
  <g id="axes_1">
   <g id="patch_2">
    <path d="M 56.07 224.28 
L 403.704 224.28 
L 403.704 30.24 
L 56.07 30.24 
z
" style="fill:none;"/>
   </g>
   <g id="patch_3">
    <path clip-path="url(#paf2b7e3aae)" d="M 58.703591 224.28 
L 63.970773 224.28 
L 63.970773 215.750769 
L 58.703591 215.750769 
z
"/>
   </g>
   <g id="patch_4">
    <path clip-path="url(#paf2b7e3aae)" d="M 69.237955 224.28 
L 74.505136 224.28 
L 74.505136 213.618462 
L 69.237955 213.618462 
z
"/>
   </g>
   <g id="patch_5">
    <path clip-path="url(#paf2b7e3aae)" d="M 79.772318 224.28 
L 85.0395 224.28 
L 85.0395 211.486154 
L 79.772318 211.486154 
z
"/>
   </g>
   <g id="patch_6">
    <path clip-path="url(#paf2b7e3aae)" d="M 90.306682 224.28 
L 95.573864 224.28 
L 95.573864 210.775385 
L 90.306682 210.775385 
z
"/>
   </g>
   <g id="patch_7">
    <path clip-path="url(#paf2b7e3aae)" d="M 100.841045 224.28 
L 106.108227 224.28 
L 106.108227 210.064615 
L 100.841045 210.064615 
z
"/>
   </g>
   <g id="patch_8">
    <path clip-path="url(#paf2b7e3aae)" d="M 111.375409 224.28 
L 116.642591 224.28 
L 116.642591 209.353846 
L 111.375409 209.353846 
z
"/>
   </g>
   <g id="patch_9">
    <path clip-path="url(#paf2b7e3aae)" d="M 121.909773 224.28 
L 127.176955 224.28 
L 127.176955 207.932308 
L 121.909773 207.932308 
z
"/>
   </g>
   <g id="patch_10">
    <path clip-path="url(#paf2b7e3aae)" d="M 132.444136 224.28 
L 137.711318 224.28 
L 137.711318 207.221538 
L 132.444136 207.221538 
z
"/>
   </g>
   <g id="patch_11">
    <path clip-path="url(#paf2b7e3aae)" d="M 142.9785 224.28 
L 148.245682 224.28 
L 148.245682 206.510769 
L 142.9785 206.510769 
z
"/>
   </g>
   <g id="patch_12">
    <path clip-path="url(#paf2b7e3aae)" d="M 153.512864 224.28 
L 158.780045 224.28 
L 158.780045 205.8 
L 153.512864 205.8 
z
"/>
   </g>
   <g id="patch_13">
    <path clip-path="url(#paf2b7e3aae)" d="M 164.047227 224.28 
L 169.314409 224.28 
L 169.314409 205.089231 
L 164.047227 205.089231 
z
"/>
   </g>
   <g id="patch_14">
    <path clip-path="url(#paf2b7e3aae)" d="M 174.581591 224.28 
L 179.848773 224.28 
L 179.848773 204.378462 
L 174.581591 204.378462 
z
"/>
   </g>
   <g id="patch_15">
    <path clip-path="url(#paf2b7e3aae)" d="M 185.115955 224.28 
L 190.383136 224.28 
L 190.383136 203.667692 
L 185.115955 203.667692 
z
"/>
   </g>
   <g id="patch_16">
    <path clip-path="url(#paf2b7e3aae)" d="M 195.650318 224.28 
L 200.9175 224.28 
L 200.9175 202.956923 
L 195.650318 202.956923 
z
"/>
   </g>
   <g id="patch_17">
    <path clip-path="url(#paf2b7e3aae)" d="M 206.184682 224.28 
L 211.451864 224.28 
L 211.451864 201.535385 
L 206.184682 201.535385 
z
"/>
   </g>
   <g id="patch_18">
    <path clip-path="url(#paf2b7e3aae)" d="M 216.719045 224.28 
L 221.986227 224.28 
L 221.986227 200.824615 
L 216.719045 200.824615 
z
"/>
   </g>
   <g id="patch_19">
    <path clip-path="url(#paf2b7e3aae)" d="M 227.253409 224.28 
L 232.520591 224.28 
L 232.520591 193.716923 
L 227.253409 193.716923 
z
"/>
   </g>
   <g id="patch_20">
    <path clip-path="url(#paf2b7e3aae)" d="M 237.787773 224.28 
L 243.054955 224.28 
L 243.054955 193.006154 
L 237.787773 193.006154 
z
"/>
   </g>
   <g id="patch_21">
    <path clip-path="url(#paf2b7e3aae)" d="M 248.322136 224.28 
L 253.589318 224.28 
L 253.589318 190.873846 
L 248.322136 190.873846 
z
"/>
   </g>
   <g id="patch_22">
    <path clip-path="url(#paf2b7e3aae)" d="M 258.8565 224.28 
L 264.123682 224.28 
L 264.123682 188.741538 
L 258.8565 188.741538 
z
"/>
   </g>
   <g id="patch_23">
    <path clip-path="url(#paf2b7e3aae)" d="M 269.390864 224.28 
L 274.658045 224.28 
L 274.658045 188.030769 
L 269.390864 188.030769 
z
"/>
   </g>
   <g id="patch_24">
    <path clip-path="url(#paf2b7e3aae)" d="M 279.925227 224.28 
L 285.192409 224.28 
L 285.192409 185.898462 
L 279.925227 185.898462 
z
"/>
   </g>
   <g id="patch_25">
    <path clip-path="url(#paf2b7e3aae)" d="M 290.459591 224.28 
L 295.726773 224.28 
L 295.726773 182.344615 
L 290.459591 182.344615 
z
"/>
   </g>
   <g id="patch_26">
    <path clip-path="url(#paf2b7e3aae)" d="M 300.993955 224.28 
L 306.261136 224.28 
L 306.261136 178.790769 
L 300.993955 178.790769 
z
"/>
   </g>
   <g id="patch_27">
    <path clip-path="url(#paf2b7e3aae)" d="M 311.528318 224.28 
L 316.7955 224.28 
L 316.7955 176.658462 
L 311.528318 176.658462 
z
"/>
   </g>
   <g id="patch_28">
    <path clip-path="url(#paf2b7e3aae)" d="M 322.062682 224.28 
L 327.329864 224.28 
L 327.329864 168.129231 
L 322.062682 168.129231 
z
"/>
   </g>
   <g id="patch_29">
    <path clip-path="url(#paf2b7e3aae)" d="M 332.597045 224.28 
L 337.864227 224.28 
L 337.864227 161.021538 
L 332.597045 161.021538 
z
"/>
   </g>
   <g id="patch_30">
    <path clip-path="url(#paf2b7e3aae)" d="M 343.131409 224.28 
L 348.398591 224.28 
L 348.398591 158.889231 
L 343.131409 158.889231 
z
"/>
   </g>
   <g id="patch_31">
    <path clip-path="url(#paf2b7e3aae)" d="M 353.665773 224.28 
L 358.932955 224.28 
L 358.932955 138.987692 
L 353.665773 138.987692 
z
"/>
   </g>
   <g id="patch_32">
    <path clip-path="url(#paf2b7e3aae)" d="M 364.200136 224.28 
L 369.467318 224.28 
L 369.467318 131.88 
L 364.200136 131.88 
z
"/>
   </g>
   <g id="patch_33">
    <path clip-path="url(#paf2b7e3aae)" d="M 374.7345 224.28 
L 380.001682 224.28 
L 380.001682 110.556923 
L 374.7345 110.556923 
z
"/>
   </g>
   <g id="patch_34">
    <path clip-path="url(#paf2b7e3aae)" d="M 385.268864 224.28 
L 390.536045 224.28 
L 390.536045 53.695385 
L 385.268864 53.695385 
z
"/>
   </g>
   <g id="patch_35">
    <path clip-path="url(#paf2b7e3aae)" d="M 395.803227 224.28 
L 401.070409 224.28 
L 401.070409 39.48 
L 395.803227 39.48 
z
"/>
   </g>
   <g id="matplotlib.axis_1">
    <g id="ytick_1">
     <g id="line2d_1">
      <defs>
       <path d="M 0 0 
L -3.5 0 
" id="m40fad27059" style="stroke:#000000;stroke-width:0.8;"/>
      </defs>
      <g>
       <use style="stroke:#000000;stroke-width:0.8;" x="56.07" xlink:href="#m40fad27059" y="224.28"/>
      </g>
     </g>
     <g id="text_1">
      <!-- 0 -->
      <g transform="translate(42.7075 228.079219)scale(0.1 -0.1)">
       <defs>
        <path d="M 31.78125 66.40625 
Q 24.171875 66.40625 20.328125 58.90625 
Q 16.5 51.421875 16.5 36.375 
Q 16.5 21.390625 20.328125 13.890625 
Q 24.171875 6.390625 31.78125 6.390625 
Q 39.453125 6.390625 43.28125 13.890625 
Q 47.125 21.390625 47.125 36.375 
Q 47.125 51.421875 43.28125 58.90625 
Q 39.453125 66.40625 31.78125 66.40625 
z
M 31.78125 74.21875 
Q 44.046875 74.21875 50.515625 64.515625 
Q 56.984375 54.828125 56.984375 36.375 
Q 56.984375 17.96875 50.515625 8.265625 
Q 44.046875 -1.421875 31.78125 -1.421875 
Q 19.53125 -1.421875 13.0625 8.265625 
Q 6.59375 17.96875 6.59375 36.375 
Q 6.59375 54.828125 13.0625 64.515625 
Q 19.53125 74.21875 31.78125 74.21875 
z
" id="DejaVuSans-48"/>
       </defs>
       <use xlink:href="#DejaVuSans-48"/>
      </g>
     </g>
    </g>
    <g id="ytick_2">
     <g id="line2d_2">
      <g>
       <use style="stroke:#000000;stroke-width:0.8;" x="56.07" xlink:href="#m40fad27059" y="188.741538"/>
      </g>
     </g>
     <g id="text_2">
      <!-- 5 -->
      <g transform="translate(42.7075 192.540757)scale(0.1 -0.1)">
       <defs>
        <path d="M 10.796875 72.90625 
L 49.515625 72.90625 
L 49.515625 64.59375 
L 19.828125 64.59375 
L 19.828125 46.734375 
Q 21.96875 47.46875 24.109375 47.828125 
Q 26.265625 48.1875 28.421875 48.1875 
Q 40.625 48.1875 47.75 41.5 
Q 54.890625 34.8125 54.890625 23.390625 
Q 54.890625 11.625 47.5625 5.09375 
Q 40.234375 -1.421875 26.90625 -1.421875 
Q 22.3125 -1.421875 17.546875 -0.640625 
Q 12.796875 0.140625 7.71875 1.703125 
L 7.71875 11.625 
Q 12.109375 9.234375 16.796875 8.0625 
Q 21.484375 6.890625 26.703125 6.890625 
Q 35.15625 6.890625 40.078125 11.328125 
Q 45.015625 15.765625 45.015625 23.390625 
Q 45.015625 31 40.078125 35.4375 
Q 35.15625 39.890625 26.703125 39.890625 
Q 22.75 39.890625 18.8125 39.015625 
Q 14.890625 38.140625 10.796875 36.28125 
z
" id="DejaVuSans-53"/>
       </defs>
       <use xlink:href="#DejaVuSans-53"/>
      </g>
     </g>
    </g>
    <g id="ytick_3">
     <g id="line2d_3">
      <g>
       <use style="stroke:#000000;stroke-width:0.8;" x="56.07" xlink:href="#m40fad27059" y="153.203077"/>
      </g>
     </g>
     <g id="text_3">
      <!-- 10 -->
      <g transform="translate(36.345 157.002296)scale(0.1 -0.1)">
       <defs>
        <path d="M 12.40625 8.296875 
L 28.515625 8.296875 
L 28.515625 63.921875 
L 10.984375 60.40625 
L 10.984375 69.390625 
L 28.421875 72.90625 
L 38.28125 72.90625 
L 38.28125 8.296875 
L 54.390625 8.296875 
L 54.390625 0 
L 12.40625 0 
z
" id="DejaVuSans-49"/>
       </defs>
       <use xlink:href="#DejaVuSans-49"/>
       <use x="63.623047" xlink:href="#DejaVuSans-48"/>
      </g>
     </g>
    </g>
    <g id="ytick_4">
     <g id="line2d_4">
      <g>
       <use style="stroke:#000000;stroke-width:0.8;" x="56.07" xlink:href="#m40fad27059" y="117.664615"/>
      </g>
     </g>
     <g id="text_4">
      <!-- 15 -->
      <g transform="translate(36.345 121.463834)scale(0.1 -0.1)">
       <use xlink:href="#DejaVuSans-49"/>
       <use x="63.623047" xlink:href="#DejaVuSans-53"/>
      </g>
     </g>
    </g>
    <g id="ytick_5">
     <g id="line2d_5">
      <g>
       <use style="stroke:#000000;stroke-width:0.8;" x="56.07" xlink:href="#m40fad27059" y="82.126154"/>
      </g>
     </g>
     <g id="text_5">
      <!-- 20 -->
      <g transform="translate(36.345 85.925373)scale(0.1 -0.1)">
       <defs>
        <path d="M 19.1875 8.296875 
L 53.609375 8.296875 
L 53.609375 0 
L 7.328125 0 
L 7.328125 8.296875 
Q 12.9375 14.109375 22.625 23.890625 
Q 32.328125 33.6875 34.8125 36.53125 
Q 39.546875 41.84375 41.421875 45.53125 
Q 43.3125 49.21875 43.3125 52.78125 
Q 43.3125 58.59375 39.234375 62.25 
Q 35.15625 65.921875 28.609375 65.921875 
Q 23.96875 65.921875 18.8125 64.3125 
Q 13.671875 62.703125 7.8125 59.421875 
L 7.8125 69.390625 
Q 13.765625 71.78125 18.9375 73 
Q 24.125 74.21875 28.421875 74.21875 
Q 39.75 74.21875 46.484375 68.546875 
Q 53.21875 62.890625 53.21875 53.421875 
Q 53.21875 48.921875 51.53125 44.890625 
Q 49.859375 40.875 45.40625 35.40625 
Q 44.1875 33.984375 37.640625 27.21875 
Q 31.109375 20.453125 19.1875 8.296875 
z
" id="DejaVuSans-50"/>
       </defs>
       <use xlink:href="#DejaVuSans-50"/>
       <use x="63.623047" xlink:href="#DejaVuSans-48"/>
      </g>
     </g>
    </g>
    <g id="ytick_6">
     <g id="line2d_6">
      <g>
       <use style="stroke:#000000;stroke-width:0.8;" x="56.07" xlink:href="#m40fad27059" y="46.587692"/>
      </g>
     </g>
     <g id="text_6">
      <!-- 25 -->
      <g transform="translate(36.345 50.386911)scale(0.1 -0.1)">
       <use xlink:href="#DejaVuSans-50"/>
       <use x="63.623047" xlink:href="#DejaVuSans-53"/>
      </g>
     </g>
    </g>
   </g>
   <g id="patch_36">
    <path d="M 56.07 224.28 
L 56.07 30.24 
" style="fill:none;stroke:#000000;stroke-linecap:square;stroke-linejoin:miter;stroke-width:0.8;"/>
   </g>
   <g id="patch_37">
    <path d="M 403.704 224.28 
L 403.704 30.24 
" style="fill:none;stroke:#000000;stroke-linecap:square;stroke-linejoin:miter;stroke-width:0.8;"/>
   </g>
   <g id="patch_38">
    <path d="M 56.07 224.28 
L 403.704 224.28 
" style="fill:none;stroke:#000000;stroke-linecap:square;stroke-linejoin:miter;stroke-width:0.8;"/>
   </g>
   <g id="patch_39">
    <path d="M 56.07 30.24 
L 403.704 30.24 
" style="fill:none;stroke:#000000;stroke-linecap:square;stroke-linejoin:miter;stroke-width:0.8;"/>
   </g>
  </g>
 </g>
 <defs>
  <clipPath id="paf2b7e3aae">
   <rect height="194.04" width="347.634" x="56.07" y="30.24"/>
  </clipPath>
 </defs>
</svg>
