<?xml version="1.0" encoding="utf-8" standalone="no"?>
<!DOCTYPE svg PUBLIC "-//W3C//DTD SVG 1.1//EN"
  "http://www.w3.org/Graphics/SVG/1.1/DTD/svg11.dtd">
<!-- Created with matplotlib (https://matplotlib.org/) -->
<svg height="252pt" version="1.1" viewBox="0 0 448.56 252" width="448.56pt" xmlns="http://www.w3.org/2000/svg" xmlns:xlink="http://www.w3.org/1999/xlink">
 <metadata>
  <rdf:RDF xmlns:cc="http://creativecommons.org/ns#" xmlns:dc="http://purl.org/dc/elements/1.1/" xmlns:rdf="http://www.w3.org/1999/02/22-rdf-syntax-ns#">
   <cc:Work>
    <dc:type rdf:resource="http://purl.org/dc/dcmitype/StillImage"/>
    <dc:date>2021-03-06T00:57:36.552271</dc:date>
    <dc:format>image/svg+xml</dc:format>
    <dc:creator>
     <cc:Agent>
      <dc:title>Matplotlib v3.3.3, https://matplotlib.org/</dc:title>
     </cc:Agent>
    </dc:creator>
   </cc:Work>
  </rdf:RDF>
 </metadata>
 <defs>
  <style type="text/css">*{stroke-linecap:butt;stroke-linejoin:round;}</style>
 </defs>
 <g id="figure_1">
  <g id="patch_1">
   <path d="M 0 252 
L 448.56 252 
L 448.56 0 
L 0 0 
z
" style="fill:none;"/>
  </g>
  <g id="axes_1">
   <g id="patch_2">
    <path d="M 56.07 224.28 
L 403.704 224.28 
L 403.704 30.24 
L 56.07 30.24 
z
" style="fill:none;"/>
   </g>
   <g id="patch_3">
    <path clip-path="url(#p33072ace79)" d="M 56.776573 224.28 
L 58.18972 224.28 
L 58.18972 223.66192 
L 56.776573 223.66192 
z
"/>
   </g>
   <g id="patch_4">
    <path clip-path="url(#p33072ace79)" d="M 59.602866 224.28 
L 61.016012 224.28 
L 61.016012 223.652617 
L 59.602866 223.652617 
z
"/>
   </g>
   <g id="patch_5">
    <path clip-path="url(#p33072ace79)" d="M 62.429159 224.28 
L 63.842305 224.28 
L 63.842305 223.631685 
L 62.429159 223.631685 
z
"/>
   </g>
   <g id="patch_6">
    <path clip-path="url(#p33072ace79)" d="M 65.255451 224.28 
L 66.668598 224.28 
L 66.668598 223.630522 
L 65.255451 223.630522 
z
"/>
   </g>
   <g id="patch_7">
    <path clip-path="url(#p33072ace79)" d="M 68.081744 224.28 
L 69.49489 224.28 
L 69.49489 223.617149 
L 68.081744 223.617149 
z
"/>
   </g>
   <g id="patch_8">
    <path clip-path="url(#p33072ace79)" d="M 70.908037 224.28 
L 72.321183 224.28 
L 72.321183 223.61366 
L 70.908037 223.61366 
z
"/>
   </g>
   <g id="patch_9">
    <path clip-path="url(#p33072ace79)" d="M 73.734329 224.28 
L 75.147476 224.28 
L 75.147476 223.610171 
L 73.734329 223.610171 
z
"/>
   </g>
   <g id="patch_10">
    <path clip-path="url(#p33072ace79)" d="M 76.560622 224.28 
L 77.973768 224.28 
L 77.973768 223.59738 
L 76.560622 223.59738 
z
"/>
   </g>
   <g id="patch_11">
    <path clip-path="url(#p33072ace79)" d="M 79.386915 224.28 
L 80.800061 224.28 
L 80.800061 223.556678 
L 79.386915 223.556678 
z
"/>
   </g>
   <g id="patch_12">
    <path clip-path="url(#p33072ace79)" d="M 82.213207 224.28 
L 83.626354 224.28 
L 83.626354 223.55319 
L 82.213207 223.55319 
z
"/>
   </g>
   <g id="patch_13">
    <path clip-path="url(#p33072ace79)" d="M 85.0395 224.28 
L 86.452646 224.28 
L 86.452646 223.546794 
L 85.0395 223.546794 
z
"/>
   </g>
   <g id="patch_14">
    <path clip-path="url(#p33072ace79)" d="M 87.865793 224.28 
L 89.278939 224.28 
L 89.278939 223.510162 
L 87.865793 223.510162 
z
"/>
   </g>
   <g id="patch_15">
    <path clip-path="url(#p33072ace79)" d="M 90.692085 224.28 
L 92.105232 224.28 
L 92.105232 223.501441 
L 90.692085 223.501441 
z
"/>
   </g>
   <g id="patch_16">
    <path clip-path="url(#p33072ace79)" d="M 93.518378 224.28 
L 94.931524 224.28 
L 94.931524 223.491556 
L 93.518378 223.491556 
z
"/>
   </g>
   <g id="patch_17">
    <path clip-path="url(#p33072ace79)" d="M 96.344671 224.28 
L 97.757817 224.28 
L 97.757817 223.482253 
L 96.344671 223.482253 
z
"/>
   </g>
   <g id="patch_18">
    <path clip-path="url(#p33072ace79)" d="M 99.170963 224.28 
L 100.58411 224.28 
L 100.58411 223.474694 
L 99.170963 223.474694 
z
"/>
   </g>
   <g id="patch_19">
    <path clip-path="url(#p33072ace79)" d="M 101.997256 224.28 
L 103.410402 224.28 
L 103.410402 223.470042 
L 101.997256 223.470042 
z
"/>
   </g>
   <g id="patch_20">
    <path clip-path="url(#p33072ace79)" d="M 104.823549 224.28 
L 106.236695 224.28 
L 106.236695 223.470042 
L 104.823549 223.470042 
z
"/>
   </g>
   <g id="patch_21">
    <path clip-path="url(#p33072ace79)" d="M 107.649841 224.28 
L 109.062988 224.28 
L 109.062988 223.463065 
L 107.649841 223.463065 
z
"/>
   </g>
   <g id="patch_22">
    <path clip-path="url(#p33072ace79)" d="M 110.476134 224.28 
L 111.88928 224.28 
L 111.88928 223.450273 
L 110.476134 223.450273 
z
"/>
   </g>
   <g id="patch_23">
    <path clip-path="url(#p33072ace79)" d="M 113.302427 224.28 
L 114.715573 224.28 
L 114.715573 223.44097 
L 113.302427 223.44097 
z
"/>
   </g>
   <g id="patch_24">
    <path clip-path="url(#p33072ace79)" d="M 116.12872 224.28 
L 117.541866 224.28 
L 117.541866 223.4369 
L 116.12872 223.4369 
z
"/>
   </g>
   <g id="patch_25">
    <path clip-path="url(#p33072ace79)" d="M 118.955012 224.28 
L 120.368159 224.28 
L 120.368159 223.425271 
L 118.955012 223.425271 
z
"/>
   </g>
   <g id="patch_26">
    <path clip-path="url(#p33072ace79)" d="M 121.781305 224.28 
L 123.194451 224.28 
L 123.194451 223.349683 
L 121.781305 223.349683 
z
"/>
   </g>
   <g id="patch_27">
    <path clip-path="url(#p33072ace79)" d="M 124.607598 224.28 
L 126.020744 224.28 
L 126.020744 223.347357 
L 124.607598 223.347357 
z
"/>
   </g>
   <g id="patch_28">
    <path clip-path="url(#p33072ace79)" d="M 127.43389 224.28 
L 128.847037 224.28 
L 128.847037 223.333983 
L 127.43389 223.333983 
z
"/>
   </g>
   <g id="patch_29">
    <path clip-path="url(#p33072ace79)" d="M 130.260183 224.28 
L 131.673329 224.28 
L 131.673329 223.307818 
L 130.260183 223.307818 
z
"/>
   </g>
   <g id="patch_30">
    <path clip-path="url(#p33072ace79)" d="M 133.086476 224.28 
L 134.499622 224.28 
L 134.499622 223.307237 
L 133.086476 223.307237 
z
"/>
   </g>
   <g id="patch_31">
    <path clip-path="url(#p33072ace79)" d="M 135.912768 224.28 
L 137.325915 224.28 
L 137.325915 223.286886 
L 135.912768 223.286886 
z
"/>
   </g>
   <g id="patch_32">
    <path clip-path="url(#p33072ace79)" d="M 138.739061 224.28 
L 140.152207 224.28 
L 140.152207 223.26014 
L 138.739061 223.26014 
z
"/>
   </g>
   <g id="patch_33">
    <path clip-path="url(#p33072ace79)" d="M 141.565354 224.28 
L 142.9785 224.28 
L 142.9785 223.257814 
L 141.565354 223.257814 
z
"/>
   </g>
   <g id="patch_34">
    <path clip-path="url(#p33072ace79)" d="M 144.391646 224.28 
L 145.804793 224.28 
L 145.804793 223.243278 
L 144.391646 223.243278 
z
"/>
   </g>
   <g id="patch_35">
    <path clip-path="url(#p33072ace79)" d="M 147.217939 224.28 
L 148.631085 224.28 
L 148.631085 223.236882 
L 147.217939 223.236882 
z
"/>
   </g>
   <g id="patch_36">
    <path clip-path="url(#p33072ace79)" d="M 150.044232 224.28 
L 151.457378 224.28 
L 151.457378 223.19618 
L 150.044232 223.19618 
z
"/>
   </g>
   <g id="patch_37">
    <path clip-path="url(#p33072ace79)" d="M 152.870524 224.28 
L 154.283671 224.28 
L 154.283671 223.18397 
L 152.870524 223.18397 
z
"/>
   </g>
   <g id="patch_38">
    <path clip-path="url(#p33072ace79)" d="M 155.696817 224.28 
L 157.109963 224.28 
L 157.109963 223.164782 
L 155.696817 223.164782 
z
"/>
   </g>
   <g id="patch_39">
    <path clip-path="url(#p33072ace79)" d="M 158.52311 224.28 
L 159.936256 224.28 
L 159.936256 223.129895 
L 158.52311 223.129895 
z
"/>
   </g>
   <g id="patch_40">
    <path clip-path="url(#p33072ace79)" d="M 161.349402 224.28 
L 162.762549 224.28 
L 162.762549 223.119429 
L 161.349402 223.119429 
z
"/>
   </g>
   <g id="patch_41">
    <path clip-path="url(#p33072ace79)" d="M 164.175695 224.28 
L 165.588841 224.28 
L 165.588841 223.118848 
L 164.175695 223.118848 
z
"/>
   </g>
   <g id="patch_42">
    <path clip-path="url(#p33072ace79)" d="M 167.001988 224.28 
L 168.415134 224.28 
L 168.415134 223.113033 
L 167.001988 223.113033 
z
"/>
   </g>
   <g id="patch_43">
    <path clip-path="url(#p33072ace79)" d="M 169.82828 224.28 
L 171.241427 224.28 
L 171.241427 223.097334 
L 169.82828 223.097334 
z
"/>
   </g>
   <g id="patch_44">
    <path clip-path="url(#p33072ace79)" d="M 172.654573 224.28 
L 174.06772 224.28 
L 174.06772 223.095008 
L 172.654573 223.095008 
z
"/>
   </g>
   <g id="patch_45">
    <path clip-path="url(#p33072ace79)" d="M 175.480866 224.28 
L 176.894012 224.28 
L 176.894012 223.091519 
L 175.480866 223.091519 
z
"/>
   </g>
   <g id="patch_46">
    <path clip-path="url(#p33072ace79)" d="M 178.307159 224.28 
L 179.720305 224.28 
L 179.720305 223.060703 
L 178.307159 223.060703 
z
"/>
   </g>
   <g id="patch_47">
    <path clip-path="url(#p33072ace79)" d="M 181.133451 224.28 
L 182.546598 224.28 
L 182.546598 223.05954 
L 181.133451 223.05954 
z
"/>
   </g>
   <g id="patch_48">
    <path clip-path="url(#p33072ace79)" d="M 183.959744 224.28 
L 185.37289 224.28 
L 185.37289 223.030467 
L 183.959744 223.030467 
z
"/>
   </g>
   <g id="patch_49">
    <path clip-path="url(#p33072ace79)" d="M 186.786037 224.28 
L 188.199183 224.28 
L 188.199183 222.99558 
L 186.786037 222.99558 
z
"/>
   </g>
   <g id="patch_50">
    <path clip-path="url(#p33072ace79)" d="M 189.612329 224.28 
L 191.025476 224.28 
L 191.025476 222.975811 
L 189.612329 222.975811 
z
"/>
   </g>
   <g id="patch_51">
    <path clip-path="url(#p33072ace79)" d="M 192.438622 224.28 
L 193.851768 224.28 
L 193.851768 222.96709 
L 192.438622 222.96709 
z
"/>
   </g>
   <g id="patch_52">
    <path clip-path="url(#p33072ace79)" d="M 195.264915 224.28 
L 196.678061 224.28 
L 196.678061 222.918248 
L 195.264915 222.918248 
z
"/>
   </g>
   <g id="patch_53">
    <path clip-path="url(#p33072ace79)" d="M 198.091207 224.28 
L 199.504354 224.28 
L 199.504354 222.721137 
L 198.091207 222.721137 
z
"/>
   </g>
   <g id="patch_54">
    <path clip-path="url(#p33072ace79)" d="M 200.9175 224.28 
L 202.330646 224.28 
L 202.330646 222.68218 
L 200.9175 222.68218 
z
"/>
   </g>
   <g id="patch_55">
    <path clip-path="url(#p33072ace79)" d="M 203.743793 224.28 
L 205.156939 224.28 
L 205.156939 222.632757 
L 203.743793 222.632757 
z
"/>
   </g>
   <g id="patch_56">
    <path clip-path="url(#p33072ace79)" d="M 206.570085 224.28 
L 207.983232 224.28 
L 207.983232 222.504257 
L 206.570085 222.504257 
z
"/>
   </g>
   <g id="patch_57">
    <path clip-path="url(#p33072ace79)" d="M 209.396378 224.28 
L 210.809524 224.28 
L 210.809524 222.270514 
L 209.396378 222.270514 
z
"/>
   </g>
   <g id="patch_58">
    <path clip-path="url(#p33072ace79)" d="M 212.222671 224.28 
L 213.635817 224.28 
L 213.635817 222.254234 
L 212.222671 222.254234 
z
"/>
   </g>
   <g id="patch_59">
    <path clip-path="url(#p33072ace79)" d="M 215.048963 224.28 
L 216.46211 224.28 
L 216.46211 222.186204 
L 215.048963 222.186204 
z
"/>
   </g>
   <g id="patch_60">
    <path clip-path="url(#p33072ace79)" d="M 217.875256 224.28 
L 219.288402 224.28 
L 219.288402 222.175157 
L 217.875256 222.175157 
z
"/>
   </g>
   <g id="patch_61">
    <path clip-path="url(#p33072ace79)" d="M 220.701549 224.28 
L 222.114695 224.28 
L 222.114695 222.099569 
L 220.701549 222.099569 
z
"/>
   </g>
   <g id="patch_62">
    <path clip-path="url(#p33072ace79)" d="M 223.527841 224.28 
L 224.940988 224.28 
L 224.940988 222.061774 
L 223.527841 222.061774 
z
"/>
   </g>
   <g id="patch_63">
    <path clip-path="url(#p33072ace79)" d="M 226.354134 224.28 
L 227.76728 224.28 
L 227.76728 222.010607 
L 226.354134 222.010607 
z
"/>
   </g>
   <g id="patch_64">
    <path clip-path="url(#p33072ace79)" d="M 229.180427 224.28 
L 230.593573 224.28 
L 230.593573 222.008281 
L 229.180427 222.008281 
z
"/>
   </g>
   <g id="patch_65">
    <path clip-path="url(#p33072ace79)" d="M 232.00672 224.28 
L 233.419866 224.28 
L 233.419866 221.930948 
L 232.00672 221.930948 
z
"/>
   </g>
   <g id="patch_66">
    <path clip-path="url(#p33072ace79)" d="M 234.833012 224.28 
L 236.246159 224.28 
L 236.246159 221.843731 
L 234.833012 221.843731 
z
"/>
   </g>
   <g id="patch_67">
    <path clip-path="url(#p33072ace79)" d="M 237.659305 224.28 
L 239.072451 224.28 
L 239.072451 221.835591 
L 237.659305 221.835591 
z
"/>
   </g>
   <g id="patch_68">
    <path clip-path="url(#p33072ace79)" d="M 240.485598 224.28 
L 241.898744 224.28 
L 241.898744 221.818729 
L 240.485598 221.818729 
z
"/>
   </g>
   <g id="patch_69">
    <path clip-path="url(#p33072ace79)" d="M 243.31189 224.28 
L 244.725037 224.28 
L 244.725037 221.780353 
L 243.31189 221.780353 
z
"/>
   </g>
   <g id="patch_70">
    <path clip-path="url(#p33072ace79)" d="M 246.138183 224.28 
L 247.551329 224.28 
L 247.551329 221.576846 
L 246.138183 221.576846 
z
"/>
   </g>
   <g id="patch_71">
    <path clip-path="url(#p33072ace79)" d="M 248.964476 224.28 
L 250.377622 224.28 
L 250.377622 221.415204 
L 248.964476 221.415204 
z
"/>
   </g>
   <g id="patch_72">
    <path clip-path="url(#p33072ace79)" d="M 251.790768 224.28 
L 253.203915 224.28 
L 253.203915 221.318683 
L 251.790768 221.318683 
z
"/>
   </g>
   <g id="patch_73">
    <path clip-path="url(#p33072ace79)" d="M 254.617061 224.28 
L 256.030207 224.28 
L 256.030207 221.25705 
L 254.617061 221.25705 
z
"/>
   </g>
   <g id="patch_74">
    <path clip-path="url(#p33072ace79)" d="M 257.443354 224.28 
L 258.8565 224.28 
L 258.8565 221.003538 
L 257.443354 221.003538 
z
"/>
   </g>
   <g id="patch_75">
    <path clip-path="url(#p33072ace79)" d="M 260.269646 224.28 
L 261.682793 224.28 
L 261.682793 220.931439 
L 260.269646 220.931439 
z
"/>
   </g>
   <g id="patch_76">
    <path clip-path="url(#p33072ace79)" d="M 263.095939 224.28 
L 264.509085 224.28 
L 264.509085 220.74712 
L 263.095939 220.74712 
z
"/>
   </g>
   <g id="patch_77">
    <path clip-path="url(#p33072ace79)" d="M 265.922232 224.28 
L 267.335378 224.28 
L 267.335378 220.71107 
L 265.922232 220.71107 
z
"/>
   </g>
   <g id="patch_78">
    <path clip-path="url(#p33072ace79)" d="M 268.748524 224.28 
L 270.161671 224.28 
L 270.161671 220.603502 
L 268.748524 220.603502 
z
"/>
   </g>
   <g id="patch_79">
    <path clip-path="url(#p33072ace79)" d="M 271.574817 224.28 
L 272.987963 224.28 
L 272.987963 220.233701 
L 271.574817 220.233701 
z
"/>
   </g>
   <g id="patch_80">
    <path clip-path="url(#p33072ace79)" d="M 274.40111 224.28 
L 275.814256 224.28 
L 275.814256 220.040078 
L 274.40111 220.040078 
z
"/>
   </g>
   <g id="patch_81">
    <path clip-path="url(#p33072ace79)" d="M 277.227402 224.28 
L 278.640549 224.28 
L 278.640549 219.970886 
L 277.227402 219.970886 
z
"/>
   </g>
   <g id="patch_82">
    <path clip-path="url(#p33072ace79)" d="M 280.053695 224.28 
L 281.466841 224.28 
L 281.466841 219.945302 
L 280.053695 219.945302 
z
"/>
   </g>
   <g id="patch_83">
    <path clip-path="url(#p33072ace79)" d="M 282.879988 224.28 
L 284.293134 224.28 
L 284.293134 219.832501 
L 282.879988 219.832501 
z
"/>
   </g>
   <g id="patch_84">
    <path clip-path="url(#p33072ace79)" d="M 285.70628 224.28 
L 287.119427 224.28 
L 287.119427 219.665044 
L 285.70628 219.665044 
z
"/>
   </g>
   <g id="patch_85">
    <path clip-path="url(#p33072ace79)" d="M 288.532573 224.28 
L 289.94572 224.28 
L 289.94572 219.47491 
L 288.532573 219.47491 
z
"/>
   </g>
   <g id="patch_86">
    <path clip-path="url(#p33072ace79)" d="M 291.358866 224.28 
L 292.772012 224.28 
L 292.772012 219.404555 
L 291.358866 219.404555 
z
"/>
   </g>
   <g id="patch_87">
    <path clip-path="url(#p33072ace79)" d="M 294.185159 224.28 
L 295.598305 224.28 
L 295.598305 219.269078 
L 294.185159 219.269078 
z
"/>
   </g>
   <g id="patch_88">
    <path clip-path="url(#p33072ace79)" d="M 297.011451 224.28 
L 298.424598 224.28 
L 298.424598 219.193489 
L 297.011451 219.193489 
z
"/>
   </g>
   <g id="patch_89">
    <path clip-path="url(#p33072ace79)" d="M 299.837744 224.28 
L 301.25089 224.28 
L 301.25089 219.172557 
L 299.837744 219.172557 
z
"/>
   </g>
   <g id="patch_90">
    <path clip-path="url(#p33072ace79)" d="M 302.664037 224.28 
L 304.077183 224.28 
L 304.077183 219.016729 
L 302.664037 219.016729 
z
"/>
   </g>
   <g id="patch_91">
    <path clip-path="url(#p33072ace79)" d="M 305.490329 224.28 
L 306.903476 224.28 
L 306.903476 218.99289 
L 305.490329 218.99289 
z
"/>
   </g>
   <g id="patch_92">
    <path clip-path="url(#p33072ace79)" d="M 308.316622 224.28 
L 309.729768 224.28 
L 309.729768 218.726586 
L 308.316622 218.726586 
z
"/>
   </g>
   <g id="patch_93">
    <path clip-path="url(#p33072ace79)" d="M 311.142915 224.28 
L 312.556061 224.28 
L 312.556061 218.485867 
L 311.142915 218.485867 
z
"/>
   </g>
   <g id="patch_94">
    <path clip-path="url(#p33072ace79)" d="M 313.969207 224.28 
L 315.382354 224.28 
L 315.382354 218.265498 
L 313.969207 218.265498 
z
"/>
   </g>
   <g id="patch_95">
    <path clip-path="url(#p33072ace79)" d="M 316.7955 224.28 
L 318.208646 224.28 
L 318.208646 218.118973 
L 316.7955 218.118973 
z
"/>
   </g>
   <g id="patch_96">
    <path clip-path="url(#p33072ace79)" d="M 319.621793 224.28 
L 321.034939 224.28 
L 321.034939 217.829993 
L 319.621793 217.829993 
z
"/>
   </g>
   <g id="patch_97">
    <path clip-path="url(#p33072ace79)" d="M 322.448085 224.28 
L 323.861232 224.28 
L 323.861232 217.536361 
L 322.448085 217.536361 
z
"/>
   </g>
   <g id="patch_98">
    <path clip-path="url(#p33072ace79)" d="M 325.274378 224.28 
L 326.687524 224.28 
L 326.687524 217.313667 
L 325.274378 217.313667 
z
"/>
   </g>
   <g id="patch_99">
    <path clip-path="url(#p33072ace79)" d="M 328.100671 224.28 
L 329.513817 224.28 
L 329.513817 217.002592 
L 328.100671 217.002592 
z
"/>
   </g>
   <g id="patch_100">
    <path clip-path="url(#p33072ace79)" d="M 330.926963 224.28 
L 332.34011 224.28 
L 332.34011 216.573483 
L 330.926963 216.573483 
z
"/>
   </g>
   <g id="patch_101">
    <path clip-path="url(#p33072ace79)" d="M 333.753256 224.28 
L 335.166402 224.28 
L 335.166402 216.058901 
L 333.753256 216.058901 
z
"/>
   </g>
   <g id="patch_102">
    <path clip-path="url(#p33072ace79)" d="M 336.579549 224.28 
L 337.992695 224.28 
L 337.992695 215.925749 
L 336.579549 215.925749 
z
"/>
   </g>
   <g id="patch_103">
    <path clip-path="url(#p33072ace79)" d="M 339.405841 224.28 
L 340.818988 224.28 
L 340.818988 215.202428 
L 339.405841 215.202428 
z
"/>
   </g>
   <g id="patch_104">
    <path clip-path="url(#p33072ace79)" d="M 342.232134 224.28 
L 343.64528 224.28 
L 343.64528 213.956384 
L 342.232134 213.956384 
z
"/>
   </g>
   <g id="patch_105">
    <path clip-path="url(#p33072ace79)" d="M 345.058427 224.28 
L 346.471573 224.28 
L 346.471573 212.519625 
L 345.058427 212.519625 
z
"/>
   </g>
   <g id="patch_106">
    <path clip-path="url(#p33072ace79)" d="M 347.88472 224.28 
L 349.297866 224.28 
L 349.297866 212.487064 
L 347.88472 212.487064 
z
"/>
   </g>
   <g id="patch_107">
    <path clip-path="url(#p33072ace79)" d="M 350.711012 224.28 
L 352.124159 224.28 
L 352.124159 210.767139 
L 350.711012 210.767139 
z
"/>
   </g>
   <g id="patch_108">
    <path clip-path="url(#p33072ace79)" d="M 353.537305 224.28 
L 354.950451 224.28 
L 354.950451 209.532724 
L 353.537305 209.532724 
z
"/>
   </g>
   <g id="patch_109">
    <path clip-path="url(#p33072ace79)" d="M 356.363598 224.28 
L 357.776744 224.28 
L 357.776744 208.426228 
L 356.363598 208.426228 
z
"/>
   </g>
   <g id="patch_110">
    <path clip-path="url(#p33072ace79)" d="M 359.18989 224.28 
L 360.603037 224.28 
L 360.603037 207.679648 
L 359.18989 207.679648 
z
"/>
   </g>
   <g id="patch_111">
    <path clip-path="url(#p33072ace79)" d="M 362.016183 224.28 
L 363.429329 224.28 
L 363.429329 206.665602 
L 362.016183 206.665602 
z
"/>
   </g>
   <g id="patch_112">
    <path clip-path="url(#p33072ace79)" d="M 364.842476 224.28 
L 366.255622 224.28 
L 366.255622 206.663276 
L 364.842476 206.663276 
z
"/>
   </g>
   <g id="patch_113">
    <path clip-path="url(#p33072ace79)" d="M 367.668768 224.28 
L 369.081915 224.28 
L 369.081915 206.431279 
L 367.668768 206.431279 
z
"/>
   </g>
   <g id="patch_114">
    <path clip-path="url(#p33072ace79)" d="M 370.495061 224.28 
L 371.908207 224.28 
L 371.908207 206.394066 
L 370.495061 206.394066 
z
"/>
   </g>
   <g id="patch_115">
    <path clip-path="url(#p33072ace79)" d="M 373.321354 224.28 
L 374.7345 224.28 
L 374.7345 205.202678 
L 373.321354 205.202678 
z
"/>
   </g>
   <g id="patch_116">
    <path clip-path="url(#p33072ace79)" d="M 376.147646 224.28 
L 377.560793 224.28 
L 377.560793 204.654372 
L 376.147646 204.654372 
z
"/>
   </g>
   <g id="patch_117">
    <path clip-path="url(#p33072ace79)" d="M 378.973939 224.28 
L 380.387085 224.28 
L 380.387085 203.447867 
L 378.973939 203.447867 
z
"/>
   </g>
   <g id="patch_118">
    <path clip-path="url(#p33072ace79)" d="M 381.800232 224.28 
L 383.213378 224.28 
L 383.213378 201.659913 
L 381.800232 201.659913 
z
"/>
   </g>
   <g id="patch_119">
    <path clip-path="url(#p33072ace79)" d="M 384.626524 224.28 
L 386.039671 224.28 
L 386.039671 197.295561 
L 384.626524 197.295561 
z
"/>
   </g>
   <g id="patch_120">
    <path clip-path="url(#p33072ace79)" d="M 387.452817 224.28 
L 388.865963 224.28 
L 388.865963 195.466906 
L 387.452817 195.466906 
z
"/>
   </g>
   <g id="patch_121">
    <path clip-path="url(#p33072ace79)" d="M 390.27911 224.28 
L 391.692256 224.28 
L 391.692256 194.83429 
L 390.27911 194.83429 
z
"/>
   </g>
   <g id="patch_122">
    <path clip-path="url(#p33072ace79)" d="M 393.105402 224.28 
L 394.518549 224.28 
L 394.518549 148.387611 
L 393.105402 148.387611 
z
"/>
   </g>
   <g id="patch_123">
    <path clip-path="url(#p33072ace79)" d="M 395.931695 224.28 
L 397.344841 224.28 
L 397.344841 74.213402 
L 395.931695 74.213402 
z
"/>
   </g>
   <g id="patch_124">
    <path clip-path="url(#p33072ace79)" d="M 398.757988 224.28 
L 400.171134 224.28 
L 400.171134 41.11794 
L 398.757988 41.11794 
z
"/>
   </g>
   <g id="patch_125">
    <path clip-path="url(#p33072ace79)" d="M 401.58428 224.28 
L 402.997427 224.28 
L 402.997427 39.48 
L 401.58428 39.48 
z
"/>
   </g>
   <g id="matplotlib.axis_1">
    <g id="ytick_1">
     <g id="line2d_1">
      <defs>
       <path d="M 0 0 
L -3.5 0 
" id="m2e7711d2c8" style="stroke:#000000;stroke-width:0.8;"/>
      </defs>
      <g>
       <use style="stroke:#000000;stroke-width:0.8;" x="56.07" xlink:href="#m2e7711d2c8" y="224.28"/>
      </g>
     </g>
     <g id="text_1">
      <!-- 0 -->
      <g transform="translate(42.7075 228.079219)scale(0.1 -0.1)">
       <defs>
        <path d="M 31.78125 66.40625 
Q 24.171875 66.40625 20.328125 58.90625 
Q 16.5 51.421875 16.5 36.375 
Q 16.5 21.390625 20.328125 13.890625 
Q 24.171875 6.390625 31.78125 6.390625 
Q 39.453125 6.390625 43.28125 13.890625 
Q 47.125 21.390625 47.125 36.375 
Q 47.125 51.421875 43.28125 58.90625 
Q 39.453125 66.40625 31.78125 66.40625 
z
M 31.78125 74.21875 
Q 44.046875 74.21875 50.515625 64.515625 
Q 56.984375 54.828125 56.984375 36.375 
Q 56.984375 17.96875 50.515625 8.265625 
Q 44.046875 -1.421875 31.78125 -1.421875 
Q 19.53125 -1.421875 13.0625 8.265625 
Q 6.59375 17.96875 6.59375 36.375 
Q 6.59375 54.828125 13.0625 64.515625 
Q 19.53125 74.21875 31.78125 74.21875 
z
" id="DejaVuSans-48"/>
       </defs>
       <use xlink:href="#DejaVuSans-48"/>
      </g>
     </g>
    </g>
    <g id="ytick_2">
     <g id="line2d_2">
      <g>
       <use style="stroke:#000000;stroke-width:0.8;" x="56.07" xlink:href="#m2e7711d2c8" y="195.20758"/>
      </g>
     </g>
     <g id="text_2">
      <!-- 50 -->
      <g transform="translate(36.345 199.006799)scale(0.1 -0.1)">
       <defs>
        <path d="M 10.796875 72.90625 
L 49.515625 72.90625 
L 49.515625 64.59375 
L 19.828125 64.59375 
L 19.828125 46.734375 
Q 21.96875 47.46875 24.109375 47.828125 
Q 26.265625 48.1875 28.421875 48.1875 
Q 40.625 48.1875 47.75 41.5 
Q 54.890625 34.8125 54.890625 23.390625 
Q 54.890625 11.625 47.5625 5.09375 
Q 40.234375 -1.421875 26.90625 -1.421875 
Q 22.3125 -1.421875 17.546875 -0.640625 
Q 12.796875 0.140625 7.71875 1.703125 
L 7.71875 11.625 
Q 12.109375 9.234375 16.796875 8.0625 
Q 21.484375 6.890625 26.703125 6.890625 
Q 35.15625 6.890625 40.078125 11.328125 
Q 45.015625 15.765625 45.015625 23.390625 
Q 45.015625 31 40.078125 35.4375 
Q 35.15625 39.890625 26.703125 39.890625 
Q 22.75 39.890625 18.8125 39.015625 
Q 14.890625 38.140625 10.796875 36.28125 
z
" id="DejaVuSans-53"/>
       </defs>
       <use xlink:href="#DejaVuSans-53"/>
       <use x="63.623047" xlink:href="#DejaVuSans-48"/>
      </g>
     </g>
    </g>
    <g id="ytick_3">
     <g id="line2d_3">
      <g>
       <use style="stroke:#000000;stroke-width:0.8;" x="56.07" xlink:href="#m2e7711d2c8" y="166.13516"/>
      </g>
     </g>
     <g id="text_3">
      <!-- 100 -->
      <g transform="translate(29.9825 169.934379)scale(0.1 -0.1)">
       <defs>
        <path d="M 12.40625 8.296875 
L 28.515625 8.296875 
L 28.515625 63.921875 
L 10.984375 60.40625 
L 10.984375 69.390625 
L 28.421875 72.90625 
L 38.28125 72.90625 
L 38.28125 8.296875 
L 54.390625 8.296875 
L 54.390625 0 
L 12.40625 0 
z
" id="DejaVuSans-49"/>
       </defs>
       <use xlink:href="#DejaVuSans-49"/>
       <use x="63.623047" xlink:href="#DejaVuSans-48"/>
       <use x="127.246094" xlink:href="#DejaVuSans-48"/>
      </g>
     </g>
    </g>
    <g id="ytick_4">
     <g id="line2d_4">
      <g>
       <use style="stroke:#000000;stroke-width:0.8;" x="56.07" xlink:href="#m2e7711d2c8" y="137.06274"/>
      </g>
     </g>
     <g id="text_4">
      <!-- 150 -->
      <g transform="translate(29.9825 140.861959)scale(0.1 -0.1)">
       <use xlink:href="#DejaVuSans-49"/>
       <use x="63.623047" xlink:href="#DejaVuSans-53"/>
       <use x="127.246094" xlink:href="#DejaVuSans-48"/>
      </g>
     </g>
    </g>
    <g id="ytick_5">
     <g id="line2d_5">
      <g>
       <use style="stroke:#000000;stroke-width:0.8;" x="56.07" xlink:href="#m2e7711d2c8" y="107.99032"/>
      </g>
     </g>
     <g id="text_5">
      <!-- 200 -->
      <g transform="translate(29.9825 111.789539)scale(0.1 -0.1)">
       <defs>
        <path d="M 19.1875 8.296875 
L 53.609375 8.296875 
L 53.609375 0 
L 7.328125 0 
L 7.328125 8.296875 
Q 12.9375 14.109375 22.625 23.890625 
Q 32.328125 33.6875 34.8125 36.53125 
Q 39.546875 41.84375 41.421875 45.53125 
Q 43.3125 49.21875 43.3125 52.78125 
Q 43.3125 58.59375 39.234375 62.25 
Q 35.15625 65.921875 28.609375 65.921875 
Q 23.96875 65.921875 18.8125 64.3125 
Q 13.671875 62.703125 7.8125 59.421875 
L 7.8125 69.390625 
Q 13.765625 71.78125 18.9375 73 
Q 24.125 74.21875 28.421875 74.21875 
Q 39.75 74.21875 46.484375 68.546875 
Q 53.21875 62.890625 53.21875 53.421875 
Q 53.21875 48.921875 51.53125 44.890625 
Q 49.859375 40.875 45.40625 35.40625 
Q 44.1875 33.984375 37.640625 27.21875 
Q 31.109375 20.453125 19.1875 8.296875 
z
" id="DejaVuSans-50"/>
       </defs>
       <use xlink:href="#DejaVuSans-50"/>
       <use x="63.623047" xlink:href="#DejaVuSans-48"/>
       <use x="127.246094" xlink:href="#DejaVuSans-48"/>
      </g>
     </g>
    </g>
    <g id="ytick_6">
     <g id="line2d_6">
      <g>
       <use style="stroke:#000000;stroke-width:0.8;" x="56.07" xlink:href="#m2e7711d2c8" y="78.9179"/>
      </g>
     </g>
     <g id="text_6">
      <!-- 250 -->
      <g transform="translate(29.9825 82.717119)scale(0.1 -0.1)">
       <use xlink:href="#DejaVuSans-50"/>
       <use x="63.623047" xlink:href="#DejaVuSans-53"/>
       <use x="127.246094" xlink:href="#DejaVuSans-48"/>
      </g>
     </g>
    </g>
    <g id="ytick_7">
     <g id="line2d_7">
      <g>
       <use style="stroke:#000000;stroke-width:0.8;" x="56.07" xlink:href="#m2e7711d2c8" y="49.845481"/>
      </g>
     </g>
     <g id="text_7">
      <!-- 300 -->
      <g transform="translate(29.9825 53.644699)scale(0.1 -0.1)">
       <defs>
        <path d="M 40.578125 39.3125 
Q 47.65625 37.796875 51.625 33 
Q 55.609375 28.21875 55.609375 21.1875 
Q 55.609375 10.40625 48.1875 4.484375 
Q 40.765625 -1.421875 27.09375 -1.421875 
Q 22.515625 -1.421875 17.65625 -0.515625 
Q 12.796875 0.390625 7.625 2.203125 
L 7.625 11.71875 
Q 11.71875 9.328125 16.59375 8.109375 
Q 21.484375 6.890625 26.8125 6.890625 
Q 36.078125 6.890625 40.9375 10.546875 
Q 45.796875 14.203125 45.796875 21.1875 
Q 45.796875 27.640625 41.28125 31.265625 
Q 36.765625 34.90625 28.71875 34.90625 
L 20.21875 34.90625 
L 20.21875 43.015625 
L 29.109375 43.015625 
Q 36.375 43.015625 40.234375 45.921875 
Q 44.09375 48.828125 44.09375 54.296875 
Q 44.09375 59.90625 40.109375 62.90625 
Q 36.140625 65.921875 28.71875 65.921875 
Q 24.65625 65.921875 20.015625 65.03125 
Q 15.375 64.15625 9.8125 62.3125 
L 9.8125 71.09375 
Q 15.4375 72.65625 20.34375 73.4375 
Q 25.25 74.21875 29.59375 74.21875 
Q 40.828125 74.21875 47.359375 69.109375 
Q 53.90625 64.015625 53.90625 55.328125 
Q 53.90625 49.265625 50.4375 45.09375 
Q 46.96875 40.921875 40.578125 39.3125 
z
" id="DejaVuSans-51"/>
       </defs>
       <use xlink:href="#DejaVuSans-51"/>
       <use x="63.623047" xlink:href="#DejaVuSans-48"/>
       <use x="127.246094" xlink:href="#DejaVuSans-48"/>
      </g>
     </g>
    </g>
   </g>
   <g id="patch_126">
    <path d="M 56.07 224.28 
L 56.07 30.24 
" style="fill:none;stroke:#000000;stroke-linecap:square;stroke-linejoin:miter;stroke-width:0.8;"/>
   </g>
   <g id="patch_127">
    <path d="M 403.704 224.28 
L 403.704 30.24 
" style="fill:none;stroke:#000000;stroke-linecap:square;stroke-linejoin:miter;stroke-width:0.8;"/>
   </g>
   <g id="patch_128">
    <path d="M 56.07 224.28 
L 403.704 224.28 
" style="fill:none;stroke:#000000;stroke-linecap:square;stroke-linejoin:miter;stroke-width:0.8;"/>
   </g>
   <g id="patch_129">
    <path d="M 56.07 30.24 
L 403.704 30.24 
" style="fill:none;stroke:#000000;stroke-linecap:square;stroke-linejoin:miter;stroke-width:0.8;"/>
   </g>
  </g>
 </g>
 <defs>
  <clipPath id="p33072ace79">
   <rect height="194.04" width="347.634" x="56.07" y="30.24"/>
  </clipPath>
 </defs>
</svg>
