<?xml version="1.0" encoding="utf-8" standalone="no"?>
<!DOCTYPE svg PUBLIC "-//W3C//DTD SVG 1.1//EN"
  "http://www.w3.org/Graphics/SVG/1.1/DTD/svg11.dtd">
<!-- Created with matplotlib (https://matplotlib.org/) -->
<svg height="252pt" version="1.1" viewBox="0 0 448.56 252" width="448.56pt" xmlns="http://www.w3.org/2000/svg" xmlns:xlink="http://www.w3.org/1999/xlink">
 <metadata>
  <rdf:RDF xmlns:cc="http://creativecommons.org/ns#" xmlns:dc="http://purl.org/dc/elements/1.1/" xmlns:rdf="http://www.w3.org/1999/02/22-rdf-syntax-ns#">
   <cc:Work>
    <dc:type rdf:resource="http://purl.org/dc/dcmitype/StillImage"/>
    <dc:date>2021-03-13T21:00:23.137333</dc:date>
    <dc:format>image/svg+xml</dc:format>
    <dc:creator>
     <cc:Agent>
      <dc:title>Matplotlib v3.3.4, https://matplotlib.org/</dc:title>
     </cc:Agent>
    </dc:creator>
   </cc:Work>
  </rdf:RDF>
 </metadata>
 <defs>
  <style type="text/css">*{stroke-linecap:butt;stroke-linejoin:round;}</style>
 </defs>
 <g id="figure_1">
  <g id="patch_1">
   <path d="M 0 252 
L 448.56 252 
L 448.56 0 
L 0 0 
z
" style="fill:none;"/>
  </g>
  <g id="axes_1">
   <g id="patch_2">
    <path d="M 56.07 224.28 
L 403.704 224.28 
L 403.704 30.24 
L 56.07 30.24 
z
" style="fill:none;"/>
   </g>
   <g id="patch_3">
    <path clip-path="url(#pfef7c62030)" d="M 56.75975 224.28 
L 58.13925 224.28 
L 58.13925 223.66192 
L 56.75975 223.66192 
z
"/>
   </g>
   <g id="patch_4">
    <path clip-path="url(#pfef7c62030)" d="M 59.51875 224.28 
L 60.89825 224.28 
L 60.89825 223.652617 
L 59.51875 223.652617 
z
"/>
   </g>
   <g id="patch_5">
    <path clip-path="url(#pfef7c62030)" d="M 62.27775 224.28 
L 63.65725 224.28 
L 63.65725 223.631685 
L 62.27775 223.631685 
z
"/>
   </g>
   <g id="patch_6">
    <path clip-path="url(#pfef7c62030)" d="M 65.03675 224.28 
L 66.41625 224.28 
L 66.41625 223.630522 
L 65.03675 223.630522 
z
"/>
   </g>
   <g id="patch_7">
    <path clip-path="url(#pfef7c62030)" d="M 67.79575 224.28 
L 69.17525 224.28 
L 69.17525 223.629941 
L 67.79575 223.629941 
z
"/>
   </g>
   <g id="patch_8">
    <path clip-path="url(#pfef7c62030)" d="M 70.55475 224.28 
L 71.93425 224.28 
L 71.93425 223.617149 
L 70.55475 223.617149 
z
"/>
   </g>
   <g id="patch_9">
    <path clip-path="url(#pfef7c62030)" d="M 73.31375 224.28 
L 74.69325 224.28 
L 74.69325 223.61366 
L 73.31375 223.61366 
z
"/>
   </g>
   <g id="patch_10">
    <path clip-path="url(#pfef7c62030)" d="M 76.07275 224.28 
L 77.45225 224.28 
L 77.45225 223.610171 
L 76.07275 223.610171 
z
"/>
   </g>
   <g id="patch_11">
    <path clip-path="url(#pfef7c62030)" d="M 78.83175 224.28 
L 80.21125 224.28 
L 80.21125 223.59738 
L 78.83175 223.59738 
z
"/>
   </g>
   <g id="patch_12">
    <path clip-path="url(#pfef7c62030)" d="M 81.59075 224.28 
L 82.97025 224.28 
L 82.97025 223.556678 
L 81.59075 223.556678 
z
"/>
   </g>
   <g id="patch_13">
    <path clip-path="url(#pfef7c62030)" d="M 84.34975 224.28 
L 85.72925 224.28 
L 85.72925 223.55319 
L 84.34975 223.55319 
z
"/>
   </g>
   <g id="patch_14">
    <path clip-path="url(#pfef7c62030)" d="M 87.10875 224.28 
L 88.48825 224.28 
L 88.48825 223.546794 
L 87.10875 223.546794 
z
"/>
   </g>
   <g id="patch_15">
    <path clip-path="url(#pfef7c62030)" d="M 89.86775 224.28 
L 91.24725 224.28 
L 91.24725 223.510162 
L 89.86775 223.510162 
z
"/>
   </g>
   <g id="patch_16">
    <path clip-path="url(#pfef7c62030)" d="M 92.62675 224.28 
L 94.00625 224.28 
L 94.00625 223.501441 
L 92.62675 223.501441 
z
"/>
   </g>
   <g id="patch_17">
    <path clip-path="url(#pfef7c62030)" d="M 95.38575 224.28 
L 96.76525 224.28 
L 96.76525 223.491556 
L 95.38575 223.491556 
z
"/>
   </g>
   <g id="patch_18">
    <path clip-path="url(#pfef7c62030)" d="M 98.14475 224.28 
L 99.52425 224.28 
L 99.52425 223.482253 
L 98.14475 223.482253 
z
"/>
   </g>
   <g id="patch_19">
    <path clip-path="url(#pfef7c62030)" d="M 100.90375 224.28 
L 102.28325 224.28 
L 102.28325 223.474694 
L 100.90375 223.474694 
z
"/>
   </g>
   <g id="patch_20">
    <path clip-path="url(#pfef7c62030)" d="M 103.66275 224.28 
L 105.04225 224.28 
L 105.04225 223.470042 
L 103.66275 223.470042 
z
"/>
   </g>
   <g id="patch_21">
    <path clip-path="url(#pfef7c62030)" d="M 106.42175 224.28 
L 107.80125 224.28 
L 107.80125 223.470042 
L 106.42175 223.470042 
z
"/>
   </g>
   <g id="patch_22">
    <path clip-path="url(#pfef7c62030)" d="M 109.18075 224.28 
L 110.56025 224.28 
L 110.56025 223.463065 
L 109.18075 223.463065 
z
"/>
   </g>
   <g id="patch_23">
    <path clip-path="url(#pfef7c62030)" d="M 111.93975 224.28 
L 113.31925 224.28 
L 113.31925 223.450273 
L 111.93975 223.450273 
z
"/>
   </g>
   <g id="patch_24">
    <path clip-path="url(#pfef7c62030)" d="M 114.69875 224.28 
L 116.07825 224.28 
L 116.07825 223.44097 
L 114.69875 223.44097 
z
"/>
   </g>
   <g id="patch_25">
    <path clip-path="url(#pfef7c62030)" d="M 117.45775 224.28 
L 118.83725 224.28 
L 118.83725 223.4369 
L 117.45775 223.4369 
z
"/>
   </g>
   <g id="patch_26">
    <path clip-path="url(#pfef7c62030)" d="M 120.21675 224.28 
L 121.59625 224.28 
L 121.59625 223.425271 
L 120.21675 223.425271 
z
"/>
   </g>
   <g id="patch_27">
    <path clip-path="url(#pfef7c62030)" d="M 122.97575 224.28 
L 124.35525 224.28 
L 124.35525 223.349683 
L 122.97575 223.349683 
z
"/>
   </g>
   <g id="patch_28">
    <path clip-path="url(#pfef7c62030)" d="M 125.73475 224.28 
L 127.11425 224.28 
L 127.11425 223.347357 
L 125.73475 223.347357 
z
"/>
   </g>
   <g id="patch_29">
    <path clip-path="url(#pfef7c62030)" d="M 128.49375 224.28 
L 129.87325 224.28 
L 129.87325 223.333983 
L 128.49375 223.333983 
z
"/>
   </g>
   <g id="patch_30">
    <path clip-path="url(#pfef7c62030)" d="M 131.25275 224.28 
L 132.63225 224.28 
L 132.63225 223.307818 
L 131.25275 223.307818 
z
"/>
   </g>
   <g id="patch_31">
    <path clip-path="url(#pfef7c62030)" d="M 134.01175 224.28 
L 135.39125 224.28 
L 135.39125 223.307237 
L 134.01175 223.307237 
z
"/>
   </g>
   <g id="patch_32">
    <path clip-path="url(#pfef7c62030)" d="M 136.77075 224.28 
L 138.15025 224.28 
L 138.15025 223.286886 
L 136.77075 223.286886 
z
"/>
   </g>
   <g id="patch_33">
    <path clip-path="url(#pfef7c62030)" d="M 139.52975 224.28 
L 140.90925 224.28 
L 140.90925 223.26014 
L 139.52975 223.26014 
z
"/>
   </g>
   <g id="patch_34">
    <path clip-path="url(#pfef7c62030)" d="M 142.28875 224.28 
L 143.66825 224.28 
L 143.66825 223.257814 
L 142.28875 223.257814 
z
"/>
   </g>
   <g id="patch_35">
    <path clip-path="url(#pfef7c62030)" d="M 145.04775 224.28 
L 146.42725 224.28 
L 146.42725 223.243278 
L 145.04775 223.243278 
z
"/>
   </g>
   <g id="patch_36">
    <path clip-path="url(#pfef7c62030)" d="M 147.80675 224.28 
L 149.18625 224.28 
L 149.18625 223.236882 
L 147.80675 223.236882 
z
"/>
   </g>
   <g id="patch_37">
    <path clip-path="url(#pfef7c62030)" d="M 150.56575 224.28 
L 151.94525 224.28 
L 151.94525 223.19618 
L 150.56575 223.19618 
z
"/>
   </g>
   <g id="patch_38">
    <path clip-path="url(#pfef7c62030)" d="M 153.32475 224.28 
L 154.70425 224.28 
L 154.70425 223.18397 
L 153.32475 223.18397 
z
"/>
   </g>
   <g id="patch_39">
    <path clip-path="url(#pfef7c62030)" d="M 156.08375 224.28 
L 157.46325 224.28 
L 157.46325 223.164782 
L 156.08375 223.164782 
z
"/>
   </g>
   <g id="patch_40">
    <path clip-path="url(#pfef7c62030)" d="M 158.84275 224.28 
L 160.22225 224.28 
L 160.22225 223.129895 
L 158.84275 223.129895 
z
"/>
   </g>
   <g id="patch_41">
    <path clip-path="url(#pfef7c62030)" d="M 161.60175 224.28 
L 162.98125 224.28 
L 162.98125 223.119429 
L 161.60175 223.119429 
z
"/>
   </g>
   <g id="patch_42">
    <path clip-path="url(#pfef7c62030)" d="M 164.36075 224.28 
L 165.74025 224.28 
L 165.74025 223.118848 
L 164.36075 223.118848 
z
"/>
   </g>
   <g id="patch_43">
    <path clip-path="url(#pfef7c62030)" d="M 167.11975 224.28 
L 168.49925 224.28 
L 168.49925 223.113033 
L 167.11975 223.113033 
z
"/>
   </g>
   <g id="patch_44">
    <path clip-path="url(#pfef7c62030)" d="M 169.87875 224.28 
L 171.25825 224.28 
L 171.25825 223.097334 
L 169.87875 223.097334 
z
"/>
   </g>
   <g id="patch_45">
    <path clip-path="url(#pfef7c62030)" d="M 172.63775 224.28 
L 174.01725 224.28 
L 174.01725 223.095008 
L 172.63775 223.095008 
z
"/>
   </g>
   <g id="patch_46">
    <path clip-path="url(#pfef7c62030)" d="M 175.39675 224.28 
L 176.77625 224.28 
L 176.77625 223.091519 
L 175.39675 223.091519 
z
"/>
   </g>
   <g id="patch_47">
    <path clip-path="url(#pfef7c62030)" d="M 178.15575 224.28 
L 179.53525 224.28 
L 179.53525 223.060703 
L 178.15575 223.060703 
z
"/>
   </g>
   <g id="patch_48">
    <path clip-path="url(#pfef7c62030)" d="M 180.91475 224.28 
L 182.29425 224.28 
L 182.29425 223.05954 
L 180.91475 223.05954 
z
"/>
   </g>
   <g id="patch_49">
    <path clip-path="url(#pfef7c62030)" d="M 183.67375 224.28 
L 185.05325 224.28 
L 185.05325 223.030467 
L 183.67375 223.030467 
z
"/>
   </g>
   <g id="patch_50">
    <path clip-path="url(#pfef7c62030)" d="M 186.43275 224.28 
L 187.81225 224.28 
L 187.81225 222.99558 
L 186.43275 222.99558 
z
"/>
   </g>
   <g id="patch_51">
    <path clip-path="url(#pfef7c62030)" d="M 189.19175 224.28 
L 190.57125 224.28 
L 190.57125 222.975811 
L 189.19175 222.975811 
z
"/>
   </g>
   <g id="patch_52">
    <path clip-path="url(#pfef7c62030)" d="M 191.95075 224.28 
L 193.33025 224.28 
L 193.33025 222.96709 
L 191.95075 222.96709 
z
"/>
   </g>
   <g id="patch_53">
    <path clip-path="url(#pfef7c62030)" d="M 194.70975 224.28 
L 196.08925 224.28 
L 196.08925 222.93104 
L 194.70975 222.93104 
z
"/>
   </g>
   <g id="patch_54">
    <path clip-path="url(#pfef7c62030)" d="M 197.46875 224.28 
L 198.84825 224.28 
L 198.84825 222.918248 
L 197.46875 222.918248 
z
"/>
   </g>
   <g id="patch_55">
    <path clip-path="url(#pfef7c62030)" d="M 200.22775 224.28 
L 201.60725 224.28 
L 201.60725 222.721137 
L 200.22775 222.721137 
z
"/>
   </g>
   <g id="patch_56">
    <path clip-path="url(#pfef7c62030)" d="M 202.98675 224.28 
L 204.36625 224.28 
L 204.36625 222.68218 
L 202.98675 222.68218 
z
"/>
   </g>
   <g id="patch_57">
    <path clip-path="url(#pfef7c62030)" d="M 205.74575 224.28 
L 207.12525 224.28 
L 207.12525 222.632757 
L 205.74575 222.632757 
z
"/>
   </g>
   <g id="patch_58">
    <path clip-path="url(#pfef7c62030)" d="M 208.50475 224.28 
L 209.88425 224.28 
L 209.88425 222.504257 
L 208.50475 222.504257 
z
"/>
   </g>
   <g id="patch_59">
    <path clip-path="url(#pfef7c62030)" d="M 211.26375 224.28 
L 212.64325 224.28 
L 212.64325 222.270514 
L 211.26375 222.270514 
z
"/>
   </g>
   <g id="patch_60">
    <path clip-path="url(#pfef7c62030)" d="M 214.02275 224.28 
L 215.40225 224.28 
L 215.40225 222.254234 
L 214.02275 222.254234 
z
"/>
   </g>
   <g id="patch_61">
    <path clip-path="url(#pfef7c62030)" d="M 216.78175 224.28 
L 218.16125 224.28 
L 218.16125 222.186204 
L 216.78175 222.186204 
z
"/>
   </g>
   <g id="patch_62">
    <path clip-path="url(#pfef7c62030)" d="M 219.54075 224.28 
L 220.92025 224.28 
L 220.92025 222.175157 
L 219.54075 222.175157 
z
"/>
   </g>
   <g id="patch_63">
    <path clip-path="url(#pfef7c62030)" d="M 222.29975 224.28 
L 223.67925 224.28 
L 223.67925 222.099569 
L 222.29975 222.099569 
z
"/>
   </g>
   <g id="patch_64">
    <path clip-path="url(#pfef7c62030)" d="M 225.05875 224.28 
L 226.43825 224.28 
L 226.43825 222.061774 
L 225.05875 222.061774 
z
"/>
   </g>
   <g id="patch_65">
    <path clip-path="url(#pfef7c62030)" d="M 227.81775 224.28 
L 229.19725 224.28 
L 229.19725 222.010607 
L 227.81775 222.010607 
z
"/>
   </g>
   <g id="patch_66">
    <path clip-path="url(#pfef7c62030)" d="M 230.57675 224.28 
L 231.95625 224.28 
L 231.95625 222.008281 
L 230.57675 222.008281 
z
"/>
   </g>
   <g id="patch_67">
    <path clip-path="url(#pfef7c62030)" d="M 233.33575 224.28 
L 234.71525 224.28 
L 234.71525 221.930948 
L 233.33575 221.930948 
z
"/>
   </g>
   <g id="patch_68">
    <path clip-path="url(#pfef7c62030)" d="M 236.09475 224.28 
L 237.47425 224.28 
L 237.47425 221.843731 
L 236.09475 221.843731 
z
"/>
   </g>
   <g id="patch_69">
    <path clip-path="url(#pfef7c62030)" d="M 238.85375 224.28 
L 240.23325 224.28 
L 240.23325 221.835591 
L 238.85375 221.835591 
z
"/>
   </g>
   <g id="patch_70">
    <path clip-path="url(#pfef7c62030)" d="M 241.61275 224.28 
L 242.99225 224.28 
L 242.99225 221.818729 
L 241.61275 221.818729 
z
"/>
   </g>
   <g id="patch_71">
    <path clip-path="url(#pfef7c62030)" d="M 244.37175 224.28 
L 245.75125 224.28 
L 245.75125 221.780353 
L 244.37175 221.780353 
z
"/>
   </g>
   <g id="patch_72">
    <path clip-path="url(#pfef7c62030)" d="M 247.13075 224.28 
L 248.51025 224.28 
L 248.51025 221.576846 
L 247.13075 221.576846 
z
"/>
   </g>
   <g id="patch_73">
    <path clip-path="url(#pfef7c62030)" d="M 249.88975 224.28 
L 251.26925 224.28 
L 251.26925 221.415204 
L 249.88975 221.415204 
z
"/>
   </g>
   <g id="patch_74">
    <path clip-path="url(#pfef7c62030)" d="M 252.64875 224.28 
L 254.02825 224.28 
L 254.02825 221.318683 
L 252.64875 221.318683 
z
"/>
   </g>
   <g id="patch_75">
    <path clip-path="url(#pfef7c62030)" d="M 255.40775 224.28 
L 256.78725 224.28 
L 256.78725 221.25705 
L 255.40775 221.25705 
z
"/>
   </g>
   <g id="patch_76">
    <path clip-path="url(#pfef7c62030)" d="M 258.16675 224.28 
L 259.54625 224.28 
L 259.54625 221.169251 
L 258.16675 221.169251 
z
"/>
   </g>
   <g id="patch_77">
    <path clip-path="url(#pfef7c62030)" d="M 260.92575 224.28 
L 262.30525 224.28 
L 262.30525 221.003538 
L 260.92575 221.003538 
z
"/>
   </g>
   <g id="patch_78">
    <path clip-path="url(#pfef7c62030)" d="M 263.68475 224.28 
L 265.06425 224.28 
L 265.06425 220.931439 
L 263.68475 220.931439 
z
"/>
   </g>
   <g id="patch_79">
    <path clip-path="url(#pfef7c62030)" d="M 266.44375 224.28 
L 267.82325 224.28 
L 267.82325 220.74712 
L 266.44375 220.74712 
z
"/>
   </g>
   <g id="patch_80">
    <path clip-path="url(#pfef7c62030)" d="M 269.20275 224.28 
L 270.58225 224.28 
L 270.58225 220.71107 
L 269.20275 220.71107 
z
"/>
   </g>
   <g id="patch_81">
    <path clip-path="url(#pfef7c62030)" d="M 271.96175 224.28 
L 273.34125 224.28 
L 273.34125 220.603502 
L 271.96175 220.603502 
z
"/>
   </g>
   <g id="patch_82">
    <path clip-path="url(#pfef7c62030)" d="M 274.72075 224.28 
L 276.10025 224.28 
L 276.10025 220.233701 
L 274.72075 220.233701 
z
"/>
   </g>
   <g id="patch_83">
    <path clip-path="url(#pfef7c62030)" d="M 277.47975 224.28 
L 278.85925 224.28 
L 278.85925 220.040078 
L 277.47975 220.040078 
z
"/>
   </g>
   <g id="patch_84">
    <path clip-path="url(#pfef7c62030)" d="M 280.23875 224.28 
L 281.61825 224.28 
L 281.61825 219.970886 
L 280.23875 219.970886 
z
"/>
   </g>
   <g id="patch_85">
    <path clip-path="url(#pfef7c62030)" d="M 282.99775 224.28 
L 284.37725 224.28 
L 284.37725 219.945302 
L 282.99775 219.945302 
z
"/>
   </g>
   <g id="patch_86">
    <path clip-path="url(#pfef7c62030)" d="M 285.75675 224.28 
L 287.13625 224.28 
L 287.13625 219.832501 
L 285.75675 219.832501 
z
"/>
   </g>
   <g id="patch_87">
    <path clip-path="url(#pfef7c62030)" d="M 288.51575 224.28 
L 289.89525 224.28 
L 289.89525 219.665044 
L 288.51575 219.665044 
z
"/>
   </g>
   <g id="patch_88">
    <path clip-path="url(#pfef7c62030)" d="M 291.27475 224.28 
L 292.65425 224.28 
L 292.65425 219.47491 
L 291.27475 219.47491 
z
"/>
   </g>
   <g id="patch_89">
    <path clip-path="url(#pfef7c62030)" d="M 294.03375 224.28 
L 295.41325 224.28 
L 295.41325 219.404555 
L 294.03375 219.404555 
z
"/>
   </g>
   <g id="patch_90">
    <path clip-path="url(#pfef7c62030)" d="M 296.79275 224.28 
L 298.17225 224.28 
L 298.17225 219.269078 
L 296.79275 219.269078 
z
"/>
   </g>
   <g id="patch_91">
    <path clip-path="url(#pfef7c62030)" d="M 299.55175 224.28 
L 300.93125 224.28 
L 300.93125 219.193489 
L 299.55175 219.193489 
z
"/>
   </g>
   <g id="patch_92">
    <path clip-path="url(#pfef7c62030)" d="M 302.31075 224.28 
L 303.69025 224.28 
L 303.69025 219.172557 
L 302.31075 219.172557 
z
"/>
   </g>
   <g id="patch_93">
    <path clip-path="url(#pfef7c62030)" d="M 305.06975 224.28 
L 306.44925 224.28 
L 306.44925 219.016729 
L 305.06975 219.016729 
z
"/>
   </g>
   <g id="patch_94">
    <path clip-path="url(#pfef7c62030)" d="M 307.82875 224.28 
L 309.20825 224.28 
L 309.20825 218.99289 
L 307.82875 218.99289 
z
"/>
   </g>
   <g id="patch_95">
    <path clip-path="url(#pfef7c62030)" d="M 310.58775 224.28 
L 311.96725 224.28 
L 311.96725 218.726586 
L 310.58775 218.726586 
z
"/>
   </g>
   <g id="patch_96">
    <path clip-path="url(#pfef7c62030)" d="M 313.34675 224.28 
L 314.72625 224.28 
L 314.72625 218.485867 
L 313.34675 218.485867 
z
"/>
   </g>
   <g id="patch_97">
    <path clip-path="url(#pfef7c62030)" d="M 316.10575 224.28 
L 317.48525 224.28 
L 317.48525 218.265498 
L 316.10575 218.265498 
z
"/>
   </g>
   <g id="patch_98">
    <path clip-path="url(#pfef7c62030)" d="M 318.86475 224.28 
L 320.24425 224.28 
L 320.24425 218.118973 
L 318.86475 218.118973 
z
"/>
   </g>
   <g id="patch_99">
    <path clip-path="url(#pfef7c62030)" d="M 321.62375 224.28 
L 323.00325 224.28 
L 323.00325 217.829993 
L 321.62375 217.829993 
z
"/>
   </g>
   <g id="patch_100">
    <path clip-path="url(#pfef7c62030)" d="M 324.38275 224.28 
L 325.76225 224.28 
L 325.76225 217.536361 
L 324.38275 217.536361 
z
"/>
   </g>
   <g id="patch_101">
    <path clip-path="url(#pfef7c62030)" d="M 327.14175 224.28 
L 328.52125 224.28 
L 328.52125 217.313667 
L 327.14175 217.313667 
z
"/>
   </g>
   <g id="patch_102">
    <path clip-path="url(#pfef7c62030)" d="M 329.90075 224.28 
L 331.28025 224.28 
L 331.28025 217.002592 
L 329.90075 217.002592 
z
"/>
   </g>
   <g id="patch_103">
    <path clip-path="url(#pfef7c62030)" d="M 332.65975 224.28 
L 334.03925 224.28 
L 334.03925 216.573483 
L 332.65975 216.573483 
z
"/>
   </g>
   <g id="patch_104">
    <path clip-path="url(#pfef7c62030)" d="M 335.41875 224.28 
L 336.79825 224.28 
L 336.79825 216.058901 
L 335.41875 216.058901 
z
"/>
   </g>
   <g id="patch_105">
    <path clip-path="url(#pfef7c62030)" d="M 338.17775 224.28 
L 339.55725 224.28 
L 339.55725 215.925749 
L 338.17775 215.925749 
z
"/>
   </g>
   <g id="patch_106">
    <path clip-path="url(#pfef7c62030)" d="M 340.93675 224.28 
L 342.31625 224.28 
L 342.31625 215.202428 
L 340.93675 215.202428 
z
"/>
   </g>
   <g id="patch_107">
    <path clip-path="url(#pfef7c62030)" d="M 343.69575 224.28 
L 345.07525 224.28 
L 345.07525 213.956384 
L 343.69575 213.956384 
z
"/>
   </g>
   <g id="patch_108">
    <path clip-path="url(#pfef7c62030)" d="M 346.45475 224.28 
L 347.83425 224.28 
L 347.83425 212.519625 
L 346.45475 212.519625 
z
"/>
   </g>
   <g id="patch_109">
    <path clip-path="url(#pfef7c62030)" d="M 349.21375 224.28 
L 350.59325 224.28 
L 350.59325 212.487064 
L 349.21375 212.487064 
z
"/>
   </g>
   <g id="patch_110">
    <path clip-path="url(#pfef7c62030)" d="M 351.97275 224.28 
L 353.35225 224.28 
L 353.35225 210.767139 
L 351.97275 210.767139 
z
"/>
   </g>
   <g id="patch_111">
    <path clip-path="url(#pfef7c62030)" d="M 354.73175 224.28 
L 356.11125 224.28 
L 356.11125 209.532724 
L 354.73175 209.532724 
z
"/>
   </g>
   <g id="patch_112">
    <path clip-path="url(#pfef7c62030)" d="M 357.49075 224.28 
L 358.87025 224.28 
L 358.87025 208.426228 
L 357.49075 208.426228 
z
"/>
   </g>
   <g id="patch_113">
    <path clip-path="url(#pfef7c62030)" d="M 360.24975 224.28 
L 361.62925 224.28 
L 361.62925 207.679648 
L 360.24975 207.679648 
z
"/>
   </g>
   <g id="patch_114">
    <path clip-path="url(#pfef7c62030)" d="M 363.00875 224.28 
L 364.38825 224.28 
L 364.38825 206.665602 
L 363.00875 206.665602 
z
"/>
   </g>
   <g id="patch_115">
    <path clip-path="url(#pfef7c62030)" d="M 365.76775 224.28 
L 367.14725 224.28 
L 367.14725 206.663276 
L 365.76775 206.663276 
z
"/>
   </g>
   <g id="patch_116">
    <path clip-path="url(#pfef7c62030)" d="M 368.52675 224.28 
L 369.90625 224.28 
L 369.90625 206.431279 
L 368.52675 206.431279 
z
"/>
   </g>
   <g id="patch_117">
    <path clip-path="url(#pfef7c62030)" d="M 371.28575 224.28 
L 372.66525 224.28 
L 372.66525 206.394066 
L 371.28575 206.394066 
z
"/>
   </g>
   <g id="patch_118">
    <path clip-path="url(#pfef7c62030)" d="M 374.04475 224.28 
L 375.42425 224.28 
L 375.42425 205.202678 
L 374.04475 205.202678 
z
"/>
   </g>
   <g id="patch_119">
    <path clip-path="url(#pfef7c62030)" d="M 376.80375 224.28 
L 378.18325 224.28 
L 378.18325 204.654372 
L 376.80375 204.654372 
z
"/>
   </g>
   <g id="patch_120">
    <path clip-path="url(#pfef7c62030)" d="M 379.56275 224.28 
L 380.94225 224.28 
L 380.94225 203.447867 
L 379.56275 203.447867 
z
"/>
   </g>
   <g id="patch_121">
    <path clip-path="url(#pfef7c62030)" d="M 382.32175 224.28 
L 383.70125 224.28 
L 383.70125 201.659913 
L 382.32175 201.659913 
z
"/>
   </g>
   <g id="patch_122">
    <path clip-path="url(#pfef7c62030)" d="M 385.08075 224.28 
L 386.46025 224.28 
L 386.46025 197.295561 
L 385.08075 197.295561 
z
"/>
   </g>
   <g id="patch_123">
    <path clip-path="url(#pfef7c62030)" d="M 387.83975 224.28 
L 389.21925 224.28 
L 389.21925 195.466906 
L 387.83975 195.466906 
z
"/>
   </g>
   <g id="patch_124">
    <path clip-path="url(#pfef7c62030)" d="M 390.59875 224.28 
L 391.97825 224.28 
L 391.97825 194.83429 
L 390.59875 194.83429 
z
"/>
   </g>
   <g id="patch_125">
    <path clip-path="url(#pfef7c62030)" d="M 393.35775 224.28 
L 394.73725 224.28 
L 394.73725 148.387611 
L 393.35775 148.387611 
z
"/>
   </g>
   <g id="patch_126">
    <path clip-path="url(#pfef7c62030)" d="M 396.11675 224.28 
L 397.49625 224.28 
L 397.49625 74.213402 
L 396.11675 74.213402 
z
"/>
   </g>
   <g id="patch_127">
    <path clip-path="url(#pfef7c62030)" d="M 398.87575 224.28 
L 400.25525 224.28 
L 400.25525 41.11794 
L 398.87575 41.11794 
z
"/>
   </g>
   <g id="patch_128">
    <path clip-path="url(#pfef7c62030)" d="M 401.63475 224.28 
L 403.01425 224.28 
L 403.01425 39.48 
L 401.63475 39.48 
z
"/>
   </g>
   <g id="matplotlib.axis_1">
    <g id="ytick_1">
     <g id="line2d_1">
      <defs>
       <path d="M 0 0 
L -3.5 0 
" id="m41462096c3" style="stroke:#000000;stroke-width:0.8;"/>
      </defs>
      <g>
       <use style="stroke:#000000;stroke-width:0.8;" x="56.07" xlink:href="#m41462096c3" y="224.28"/>
      </g>
     </g>
     <g id="text_1">
      <!-- 0 -->
      <g transform="translate(42.7075 228.079219)scale(0.1 -0.1)">
       <defs>
        <path d="M 31.78125 66.40625 
Q 24.171875 66.40625 20.328125 58.90625 
Q 16.5 51.421875 16.5 36.375 
Q 16.5 21.390625 20.328125 13.890625 
Q 24.171875 6.390625 31.78125 6.390625 
Q 39.453125 6.390625 43.28125 13.890625 
Q 47.125 21.390625 47.125 36.375 
Q 47.125 51.421875 43.28125 58.90625 
Q 39.453125 66.40625 31.78125 66.40625 
z
M 31.78125 74.21875 
Q 44.046875 74.21875 50.515625 64.515625 
Q 56.984375 54.828125 56.984375 36.375 
Q 56.984375 17.96875 50.515625 8.265625 
Q 44.046875 -1.421875 31.78125 -1.421875 
Q 19.53125 -1.421875 13.0625 8.265625 
Q 6.59375 17.96875 6.59375 36.375 
Q 6.59375 54.828125 13.0625 64.515625 
Q 19.53125 74.21875 31.78125 74.21875 
z
" id="DejaVuSans-48"/>
       </defs>
       <use xlink:href="#DejaVuSans-48"/>
      </g>
     </g>
    </g>
    <g id="ytick_2">
     <g id="line2d_2">
      <g>
       <use style="stroke:#000000;stroke-width:0.8;" x="56.07" xlink:href="#m41462096c3" y="195.20758"/>
      </g>
     </g>
     <g id="text_2">
      <!-- 50 -->
      <g transform="translate(36.345 199.006799)scale(0.1 -0.1)">
       <defs>
        <path d="M 10.796875 72.90625 
L 49.515625 72.90625 
L 49.515625 64.59375 
L 19.828125 64.59375 
L 19.828125 46.734375 
Q 21.96875 47.46875 24.109375 47.828125 
Q 26.265625 48.1875 28.421875 48.1875 
Q 40.625 48.1875 47.75 41.5 
Q 54.890625 34.8125 54.890625 23.390625 
Q 54.890625 11.625 47.5625 5.09375 
Q 40.234375 -1.421875 26.90625 -1.421875 
Q 22.3125 -1.421875 17.546875 -0.640625 
Q 12.796875 0.140625 7.71875 1.703125 
L 7.71875 11.625 
Q 12.109375 9.234375 16.796875 8.0625 
Q 21.484375 6.890625 26.703125 6.890625 
Q 35.15625 6.890625 40.078125 11.328125 
Q 45.015625 15.765625 45.015625 23.390625 
Q 45.015625 31 40.078125 35.4375 
Q 35.15625 39.890625 26.703125 39.890625 
Q 22.75 39.890625 18.8125 39.015625 
Q 14.890625 38.140625 10.796875 36.28125 
z
" id="DejaVuSans-53"/>
       </defs>
       <use xlink:href="#DejaVuSans-53"/>
       <use x="63.623047" xlink:href="#DejaVuSans-48"/>
      </g>
     </g>
    </g>
    <g id="ytick_3">
     <g id="line2d_3">
      <g>
       <use style="stroke:#000000;stroke-width:0.8;" x="56.07" xlink:href="#m41462096c3" y="166.13516"/>
      </g>
     </g>
     <g id="text_3">
      <!-- 100 -->
      <g transform="translate(29.9825 169.934379)scale(0.1 -0.1)">
       <defs>
        <path d="M 12.40625 8.296875 
L 28.515625 8.296875 
L 28.515625 63.921875 
L 10.984375 60.40625 
L 10.984375 69.390625 
L 28.421875 72.90625 
L 38.28125 72.90625 
L 38.28125 8.296875 
L 54.390625 8.296875 
L 54.390625 0 
L 12.40625 0 
z
" id="DejaVuSans-49"/>
       </defs>
       <use xlink:href="#DejaVuSans-49"/>
       <use x="63.623047" xlink:href="#DejaVuSans-48"/>
       <use x="127.246094" xlink:href="#DejaVuSans-48"/>
      </g>
     </g>
    </g>
    <g id="ytick_4">
     <g id="line2d_4">
      <g>
       <use style="stroke:#000000;stroke-width:0.8;" x="56.07" xlink:href="#m41462096c3" y="137.06274"/>
      </g>
     </g>
     <g id="text_4">
      <!-- 150 -->
      <g transform="translate(29.9825 140.861959)scale(0.1 -0.1)">
       <use xlink:href="#DejaVuSans-49"/>
       <use x="63.623047" xlink:href="#DejaVuSans-53"/>
       <use x="127.246094" xlink:href="#DejaVuSans-48"/>
      </g>
     </g>
    </g>
    <g id="ytick_5">
     <g id="line2d_5">
      <g>
       <use style="stroke:#000000;stroke-width:0.8;" x="56.07" xlink:href="#m41462096c3" y="107.99032"/>
      </g>
     </g>
     <g id="text_5">
      <!-- 200 -->
      <g transform="translate(29.9825 111.789539)scale(0.1 -0.1)">
       <defs>
        <path d="M 19.1875 8.296875 
L 53.609375 8.296875 
L 53.609375 0 
L 7.328125 0 
L 7.328125 8.296875 
Q 12.9375 14.109375 22.625 23.890625 
Q 32.328125 33.6875 34.8125 36.53125 
Q 39.546875 41.84375 41.421875 45.53125 
Q 43.3125 49.21875 43.3125 52.78125 
Q 43.3125 58.59375 39.234375 62.25 
Q 35.15625 65.921875 28.609375 65.921875 
Q 23.96875 65.921875 18.8125 64.3125 
Q 13.671875 62.703125 7.8125 59.421875 
L 7.8125 69.390625 
Q 13.765625 71.78125 18.9375 73 
Q 24.125 74.21875 28.421875 74.21875 
Q 39.75 74.21875 46.484375 68.546875 
Q 53.21875 62.890625 53.21875 53.421875 
Q 53.21875 48.921875 51.53125 44.890625 
Q 49.859375 40.875 45.40625 35.40625 
Q 44.1875 33.984375 37.640625 27.21875 
Q 31.109375 20.453125 19.1875 8.296875 
z
" id="DejaVuSans-50"/>
       </defs>
       <use xlink:href="#DejaVuSans-50"/>
       <use x="63.623047" xlink:href="#DejaVuSans-48"/>
       <use x="127.246094" xlink:href="#DejaVuSans-48"/>
      </g>
     </g>
    </g>
    <g id="ytick_6">
     <g id="line2d_6">
      <g>
       <use style="stroke:#000000;stroke-width:0.8;" x="56.07" xlink:href="#m41462096c3" y="78.9179"/>
      </g>
     </g>
     <g id="text_6">
      <!-- 250 -->
      <g transform="translate(29.9825 82.717119)scale(0.1 -0.1)">
       <use xlink:href="#DejaVuSans-50"/>
       <use x="63.623047" xlink:href="#DejaVuSans-53"/>
       <use x="127.246094" xlink:href="#DejaVuSans-48"/>
      </g>
     </g>
    </g>
    <g id="ytick_7">
     <g id="line2d_7">
      <g>
       <use style="stroke:#000000;stroke-width:0.8;" x="56.07" xlink:href="#m41462096c3" y="49.845481"/>
      </g>
     </g>
     <g id="text_7">
      <!-- 300 -->
      <g transform="translate(29.9825 53.644699)scale(0.1 -0.1)">
       <defs>
        <path d="M 40.578125 39.3125 
Q 47.65625 37.796875 51.625 33 
Q 55.609375 28.21875 55.609375 21.1875 
Q 55.609375 10.40625 48.1875 4.484375 
Q 40.765625 -1.421875 27.09375 -1.421875 
Q 22.515625 -1.421875 17.65625 -0.515625 
Q 12.796875 0.390625 7.625 2.203125 
L 7.625 11.71875 
Q 11.71875 9.328125 16.59375 8.109375 
Q 21.484375 6.890625 26.8125 6.890625 
Q 36.078125 6.890625 40.9375 10.546875 
Q 45.796875 14.203125 45.796875 21.1875 
Q 45.796875 27.640625 41.28125 31.265625 
Q 36.765625 34.90625 28.71875 34.90625 
L 20.21875 34.90625 
L 20.21875 43.015625 
L 29.109375 43.015625 
Q 36.375 43.015625 40.234375 45.921875 
Q 44.09375 48.828125 44.09375 54.296875 
Q 44.09375 59.90625 40.109375 62.90625 
Q 36.140625 65.921875 28.71875 65.921875 
Q 24.65625 65.921875 20.015625 65.03125 
Q 15.375 64.15625 9.8125 62.3125 
L 9.8125 71.09375 
Q 15.4375 72.65625 20.34375 73.4375 
Q 25.25 74.21875 29.59375 74.21875 
Q 40.828125 74.21875 47.359375 69.109375 
Q 53.90625 64.015625 53.90625 55.328125 
Q 53.90625 49.265625 50.4375 45.09375 
Q 46.96875 40.921875 40.578125 39.3125 
z
" id="DejaVuSans-51"/>
       </defs>
       <use xlink:href="#DejaVuSans-51"/>
       <use x="63.623047" xlink:href="#DejaVuSans-48"/>
       <use x="127.246094" xlink:href="#DejaVuSans-48"/>
      </g>
     </g>
    </g>
   </g>
   <g id="patch_129">
    <path d="M 56.07 224.28 
L 56.07 30.24 
" style="fill:none;stroke:#000000;stroke-linecap:square;stroke-linejoin:miter;stroke-width:0.8;"/>
   </g>
   <g id="patch_130">
    <path d="M 403.704 224.28 
L 403.704 30.24 
" style="fill:none;stroke:#000000;stroke-linecap:square;stroke-linejoin:miter;stroke-width:0.8;"/>
   </g>
   <g id="patch_131">
    <path d="M 56.07 224.28 
L 403.704 224.28 
" style="fill:none;stroke:#000000;stroke-linecap:square;stroke-linejoin:miter;stroke-width:0.8;"/>
   </g>
   <g id="patch_132">
    <path d="M 56.07 30.24 
L 403.704 30.24 
" style="fill:none;stroke:#000000;stroke-linecap:square;stroke-linejoin:miter;stroke-width:0.8;"/>
   </g>
  </g>
 </g>
 <defs>
  <clipPath id="pfef7c62030">
   <rect height="194.04" width="347.634" x="56.07" y="30.24"/>
  </clipPath>
 </defs>
</svg>
