<?xml version="1.0" encoding="utf-8" standalone="no"?>
<!DOCTYPE svg PUBLIC "-//W3C//DTD SVG 1.1//EN"
  "http://www.w3.org/Graphics/SVG/1.1/DTD/svg11.dtd">
<!-- Created with matplotlib (https://matplotlib.org/) -->
<svg height="252pt" version="1.1" viewBox="0 0 448.56 252" width="448.56pt" xmlns="http://www.w3.org/2000/svg" xmlns:xlink="http://www.w3.org/1999/xlink">
 <metadata>
  <rdf:RDF xmlns:cc="http://creativecommons.org/ns#" xmlns:dc="http://purl.org/dc/elements/1.1/" xmlns:rdf="http://www.w3.org/1999/02/22-rdf-syntax-ns#">
   <cc:Work>
    <dc:type rdf:resource="http://purl.org/dc/dcmitype/StillImage"/>
    <dc:date>2021-03-06T00:57:37.126641</dc:date>
    <dc:format>image/svg+xml</dc:format>
    <dc:creator>
     <cc:Agent>
      <dc:title>Matplotlib v3.3.3, https://matplotlib.org/</dc:title>
     </cc:Agent>
    </dc:creator>
   </cc:Work>
  </rdf:RDF>
 </metadata>
 <defs>
  <style type="text/css">*{stroke-linecap:butt;stroke-linejoin:round;}</style>
 </defs>
 <g id="figure_1">
  <g id="patch_1">
   <path d="M 0 252 
L 448.56 252 
L 448.56 0 
L 0 0 
z
" style="fill:none;"/>
  </g>
  <g id="axes_1">
   <g id="patch_2">
    <path d="M 56.07 224.28 
L 403.704 224.28 
L 403.704 30.24 
L 56.07 30.24 
z
" style="fill:none;"/>
   </g>
   <g id="patch_3">
    <path clip-path="url(#pb6724df6a8)" d="M 56.776573 71471.148137 
L 58.18972 71471.148137 
L 58.18972 215.46 
L 56.776573 215.46 
z
"/>
   </g>
   <g id="patch_4">
    <path clip-path="url(#pb6724df6a8)" d="M 59.602866 71471.148137 
L 61.016012 71471.148137 
L 61.016012 214.997693 
L 59.602866 214.997693 
z
"/>
   </g>
   <g id="patch_5">
    <path clip-path="url(#pb6724df6a8)" d="M 62.429159 71471.148137 
L 63.842305 71471.148137 
L 63.842305 213.982082 
L 62.429159 213.982082 
z
"/>
   </g>
   <g id="patch_6">
    <path clip-path="url(#pb6724df6a8)" d="M 65.255451 71471.148137 
L 66.668598 71471.148137 
L 66.668598 213.926625 
L 65.255451 213.926625 
z
"/>
   </g>
   <g id="patch_7">
    <path clip-path="url(#pb6724df6a8)" d="M 68.081744 71471.148137 
L 69.49489 71471.148137 
L 69.49489 213.295909 
L 68.081744 213.295909 
z
"/>
   </g>
   <g id="patch_8">
    <path clip-path="url(#pb6724df6a8)" d="M 70.908037 71471.148137 
L 72.321183 71471.148137 
L 72.321183 213.133467 
L 70.908037 213.133467 
z
"/>
   </g>
   <g id="patch_9">
    <path clip-path="url(#pb6724df6a8)" d="M 73.734329 71471.148137 
L 75.147476 71471.148137 
L 75.147476 212.971873 
L 73.734329 212.971873 
z
"/>
   </g>
   <g id="patch_10">
    <path clip-path="url(#pb6724df6a8)" d="M 76.560622 71471.148137 
L 77.973768 71471.148137 
L 77.973768 212.386479 
L 76.560622 212.386479 
z
"/>
   </g>
   <g id="patch_11">
    <path clip-path="url(#pb6724df6a8)" d="M 79.386915 71471.148137 
L 80.800061 71471.148137 
L 80.800061 210.594284 
L 79.386915 210.594284 
z
"/>
   </g>
   <g id="patch_12">
    <path clip-path="url(#pb6724df6a8)" d="M 82.213207 71471.148137 
L 83.626354 71471.148137 
L 83.626354 210.445389 
L 82.213207 210.445389 
z
"/>
   </g>
   <g id="patch_13">
    <path clip-path="url(#pb6724df6a8)" d="M 85.0395 71471.148137 
L 86.452646 71471.148137 
L 86.452646 210.174263 
L 85.0395 210.174263 
z
"/>
   </g>
   <g id="patch_14">
    <path clip-path="url(#pb6724df6a8)" d="M 87.865793 71471.148137 
L 89.278939 71471.148137 
L 89.278939 208.665614 
L 87.865793 208.665614 
z
"/>
   </g>
   <g id="patch_15">
    <path clip-path="url(#pb6724df6a8)" d="M 90.692085 71471.148137 
L 92.105232 71471.148137 
L 92.105232 208.316998 
L 90.692085 208.316998 
z
"/>
   </g>
   <g id="patch_16">
    <path clip-path="url(#pb6724df6a8)" d="M 93.518378 71471.148137 
L 94.931524 71471.148137 
L 94.931524 207.926591 
L 93.518378 207.926591 
z
"/>
   </g>
   <g id="patch_17">
    <path clip-path="url(#pb6724df6a8)" d="M 96.344671 71471.148137 
L 97.757817 71471.148137 
L 97.757817 207.563594 
L 96.344671 207.563594 
z
"/>
   </g>
   <g id="patch_18">
    <path clip-path="url(#pb6724df6a8)" d="M 99.170963 71471.148137 
L 100.58411 71471.148137 
L 100.58411 207.271762 
L 99.170963 207.271762 
z
"/>
   </g>
   <g id="patch_19">
    <path clip-path="url(#pb6724df6a8)" d="M 101.997256 71471.148137 
L 103.410402 71471.148137 
L 103.410402 207.093532 
L 101.997256 207.093532 
z
"/>
   </g>
   <g id="patch_20">
    <path clip-path="url(#pb6724df6a8)" d="M 104.823549 71471.148137 
L 106.236695 71471.148137 
L 106.236695 207.093532 
L 104.823549 207.093532 
z
"/>
   </g>
   <g id="patch_21">
    <path clip-path="url(#pb6724df6a8)" d="M 107.649841 71471.148137 
L 109.062988 71471.148137 
L 109.062988 206.828097 
L 107.649841 206.828097 
z
"/>
   </g>
   <g id="patch_22">
    <path clip-path="url(#pb6724df6a8)" d="M 110.476134 71471.148137 
L 111.88928 71471.148137 
L 111.88928 206.347301 
L 110.476134 206.347301 
z
"/>
   </g>
   <g id="patch_23">
    <path clip-path="url(#pb6724df6a8)" d="M 113.302427 71471.148137 
L 114.715573 71471.148137 
L 114.715573 206.002265 
L 113.302427 206.002265 
z
"/>
   </g>
   <g id="patch_24">
    <path clip-path="url(#pb6724df6a8)" d="M 116.12872 71471.148137 
L 117.541866 71471.148137 
L 117.541866 205.852513 
L 116.12872 205.852513 
z
"/>
   </g>
   <g id="patch_25">
    <path clip-path="url(#pb6724df6a8)" d="M 118.955012 71471.148137 
L 120.368159 71471.148137 
L 120.368159 205.4286 
L 118.955012 205.4286 
z
"/>
   </g>
   <g id="patch_26">
    <path clip-path="url(#pb6724df6a8)" d="M 121.781305 71471.148137 
L 123.194451 71471.148137 
L 123.194451 202.806272 
L 121.781305 202.806272 
z
"/>
   </g>
   <g id="patch_27">
    <path clip-path="url(#pb6724df6a8)" d="M 124.607598 71471.148137 
L 126.020744 71471.148137 
L 126.020744 202.729006 
L 124.607598 202.729006 
z
"/>
   </g>
   <g id="patch_28">
    <path clip-path="url(#pb6724df6a8)" d="M 127.43389 71471.148137 
L 128.847037 71471.148137 
L 128.847037 202.28843 
L 127.43389 202.28843 
z
"/>
   </g>
   <g id="patch_29">
    <path clip-path="url(#pb6724df6a8)" d="M 130.260183 71471.148137 
L 131.673329 71471.148137 
L 131.673329 201.444164 
L 130.260183 201.444164 
z
"/>
   </g>
   <g id="patch_30">
    <path clip-path="url(#pb6724df6a8)" d="M 133.086476 71471.148137 
L 134.499622 71471.148137 
L 134.499622 201.425661 
L 133.086476 201.425661 
z
"/>
   </g>
   <g id="patch_31">
    <path clip-path="url(#pb6724df6a8)" d="M 135.912768 71471.148137 
L 137.325915 71471.148137 
L 137.325915 200.784952 
L 135.912768 200.784952 
z
"/>
   </g>
   <g id="patch_32">
    <path clip-path="url(#pb6724df6a8)" d="M 138.739061 71471.148137 
L 140.152207 71471.148137 
L 140.152207 199.962561 
L 138.739061 199.962561 
z
"/>
   </g>
   <g id="patch_33">
    <path clip-path="url(#pb6724df6a8)" d="M 141.565354 71471.148137 
L 142.9785 71471.148137 
L 142.9785 199.892071 
L 141.565354 199.892071 
z
"/>
   </g>
   <g id="patch_34">
    <path clip-path="url(#pb6724df6a8)" d="M 144.391646 71471.148137 
L 145.804793 71471.148137 
L 145.804793 199.455109 
L 144.391646 199.455109 
z
"/>
   </g>
   <g id="patch_35">
    <path clip-path="url(#pb6724df6a8)" d="M 147.217939 71471.148137 
L 148.631085 71471.148137 
L 148.631085 199.264783 
L 147.217939 199.264783 
z
"/>
   </g>
   <g id="patch_36">
    <path clip-path="url(#pb6724df6a8)" d="M 150.044232 71471.148137 
L 151.457378 71471.148137 
L 151.457378 198.080298 
L 150.044232 198.080298 
z
"/>
   </g>
   <g id="patch_37">
    <path clip-path="url(#pb6724df6a8)" d="M 152.870524 71471.148137 
L 154.283671 71471.148137 
L 154.283671 197.733616 
L 152.870524 197.733616 
z
"/>
   </g>
   <g id="patch_38">
    <path clip-path="url(#pb6724df6a8)" d="M 155.696817 71471.148137 
L 157.109963 71471.148137 
L 157.109963 197.196559 
L 155.696817 197.196559 
z
"/>
   </g>
   <g id="patch_39">
    <path clip-path="url(#pb6724df6a8)" d="M 158.52311 71471.148137 
L 159.936256 71471.148137 
L 159.936256 196.243348 
L 158.52311 196.243348 
z
"/>
   </g>
   <g id="patch_40">
    <path clip-path="url(#pb6724df6a8)" d="M 161.349402 71471.148137 
L 162.762549 71471.148137 
L 162.762549 195.963018 
L 161.349402 195.963018 
z
"/>
   </g>
   <g id="patch_41">
    <path clip-path="url(#pb6724df6a8)" d="M 164.175695 71471.148137 
L 165.588841 71471.148137 
L 165.588841 195.947518 
L 164.175695 195.947518 
z
"/>
   </g>
   <g id="patch_42">
    <path clip-path="url(#pb6724df6a8)" d="M 167.001988 71471.148137 
L 168.415134 71471.148137 
L 168.415134 195.792947 
L 167.001988 195.792947 
z
"/>
   </g>
   <g id="patch_43">
    <path clip-path="url(#pb6724df6a8)" d="M 169.82828 71471.148137 
L 171.241427 71471.148137 
L 171.241427 195.37942 
L 169.82828 195.37942 
z
"/>
   </g>
   <g id="patch_44">
    <path clip-path="url(#pb6724df6a8)" d="M 172.654573 71471.148137 
L 174.06772 71471.148137 
L 174.06772 195.318624 
L 172.654573 195.318624 
z
"/>
   </g>
   <g id="patch_45">
    <path clip-path="url(#pb6724df6a8)" d="M 175.480866 71471.148137 
L 176.894012 71471.148137 
L 176.894012 195.227653 
L 175.480866 195.227653 
z
"/>
   </g>
   <g id="patch_46">
    <path clip-path="url(#pb6724df6a8)" d="M 178.307159 71471.148137 
L 179.720305 71471.148137 
L 179.720305 194.435486 
L 178.307159 194.435486 
z
"/>
   </g>
   <g id="patch_47">
    <path clip-path="url(#pb6724df6a8)" d="M 181.133451 71471.148137 
L 182.546598 71471.148137 
L 182.546598 194.405987 
L 181.133451 194.405987 
z
"/>
   </g>
   <g id="patch_48">
    <path clip-path="url(#pb6724df6a8)" d="M 183.959744 71471.148137 
L 185.37289 71471.148137 
L 185.37289 193.67749 
L 183.959744 193.67749 
z
"/>
   </g>
   <g id="patch_49">
    <path clip-path="url(#pb6724df6a8)" d="M 186.786037 71471.148137 
L 188.199183 71471.148137 
L 188.199183 192.825344 
L 186.786037 192.825344 
z
"/>
   </g>
   <g id="patch_50">
    <path clip-path="url(#pb6724df6a8)" d="M 189.612329 71471.148137 
L 191.025476 71471.148137 
L 191.025476 192.352678 
L 189.612329 192.352678 
z
"/>
   </g>
   <g id="patch_51">
    <path clip-path="url(#pb6724df6a8)" d="M 192.438622 71471.148137 
L 193.851768 71471.148137 
L 193.851768 192.146422 
L 192.438622 192.146422 
z
"/>
   </g>
   <g id="patch_52">
    <path clip-path="url(#pb6724df6a8)" d="M 195.264915 71471.148137 
L 196.678061 71471.148137 
L 196.678061 191.016126 
L 195.264915 191.016126 
z
"/>
   </g>
   <g id="patch_53">
    <path clip-path="url(#pb6724df6a8)" d="M 198.091207 71471.148137 
L 199.504354 71471.148137 
L 199.504354 186.832821 
L 198.091207 186.832821 
z
"/>
   </g>
   <g id="patch_54">
    <path clip-path="url(#pb6724df6a8)" d="M 200.9175 71471.148137 
L 202.330646 71471.148137 
L 202.330646 186.068987 
L 200.9175 186.068987 
z
"/>
   </g>
   <g id="patch_55">
    <path clip-path="url(#pb6724df6a8)" d="M 203.743793 71471.148137 
L 205.156939 71471.148137 
L 205.156939 185.12631 
L 203.743793 185.12631 
z
"/>
   </g>
   <g id="patch_56">
    <path clip-path="url(#pb6724df6a8)" d="M 206.570085 71471.148137 
L 207.983232 71471.148137 
L 207.983232 182.801836 
L 206.570085 182.801836 
z
"/>
   </g>
   <g id="patch_57">
    <path clip-path="url(#pb6724df6a8)" d="M 209.396378 71471.148137 
L 210.809524 71471.148137 
L 210.809524 178.975172 
L 209.396378 178.975172 
z
"/>
   </g>
   <g id="patch_58">
    <path clip-path="url(#pb6724df6a8)" d="M 212.222671 71471.148137 
L 213.635817 71471.148137 
L 213.635817 178.725469 
L 212.222671 178.725469 
z
"/>
   </g>
   <g id="patch_59">
    <path clip-path="url(#pb6724df6a8)" d="M 215.048963 71471.148137 
L 216.46211 71471.148137 
L 216.46211 177.703335 
L 215.048963 177.703335 
z
"/>
   </g>
   <g id="patch_60">
    <path clip-path="url(#pb6724df6a8)" d="M 217.875256 71471.148137 
L 219.288402 71471.148137 
L 219.288402 177.540488 
L 217.875256 177.540488 
z
"/>
   </g>
   <g id="patch_61">
    <path clip-path="url(#pb6724df6a8)" d="M 220.701549 71471.148137 
L 222.114695 71471.148137 
L 222.114695 176.448688 
L 220.701549 176.448688 
z
"/>
   </g>
   <g id="patch_62">
    <path clip-path="url(#pb6724df6a8)" d="M 223.527841 71471.148137 
L 224.940988 71471.148137 
L 224.940988 175.916901 
L 223.527841 175.916901 
z
"/>
   </g>
   <g id="patch_63">
    <path clip-path="url(#pb6724df6a8)" d="M 226.354134 71471.148137 
L 227.76728 71471.148137 
L 227.76728 175.211203 
L 226.354134 175.211203 
z
"/>
   </g>
   <g id="patch_64">
    <path clip-path="url(#pb6724df6a8)" d="M 229.180427 71471.148137 
L 230.593573 71471.148137 
L 230.593573 175.179505 
L 229.180427 175.179505 
z
"/>
   </g>
   <g id="patch_65">
    <path clip-path="url(#pb6724df6a8)" d="M 232.00672 71471.148137 
L 233.419866 71471.148137 
L 233.419866 174.143621 
L 232.00672 174.143621 
z
"/>
   </g>
   <g id="patch_66">
    <path clip-path="url(#pb6724df6a8)" d="M 234.833012 71471.148137 
L 236.246159 71471.148137 
L 236.246159 173.015484 
L 234.833012 173.015484 
z
"/>
   </g>
   <g id="patch_67">
    <path clip-path="url(#pb6724df6a8)" d="M 237.659305 71471.148137 
L 239.072451 71471.148137 
L 239.072451 172.91226 
L 237.659305 172.91226 
z
"/>
   </g>
   <g id="patch_68">
    <path clip-path="url(#pb6724df6a8)" d="M 240.485598 71471.148137 
L 241.898744 71471.148137 
L 241.898744 172.699527 
L 240.485598 172.699527 
z
"/>
   </g>
   <g id="patch_69">
    <path clip-path="url(#pb6724df6a8)" d="M 243.31189 71471.148137 
L 244.725037 71471.148137 
L 244.725037 172.22076 
L 243.31189 172.22076 
z
"/>
   </g>
   <g id="patch_70">
    <path clip-path="url(#pb6724df6a8)" d="M 246.138183 71471.148137 
L 247.551329 71471.148137 
L 247.551329 169.798694 
L 246.138183 169.798694 
z
"/>
   </g>
   <g id="patch_71">
    <path clip-path="url(#pb6724df6a8)" d="M 248.964476 71471.148137 
L 250.377622 71471.148137 
L 250.377622 168.001458 
L 248.964476 168.001458 
z
"/>
   </g>
   <g id="patch_72">
    <path clip-path="url(#pb6724df6a8)" d="M 251.790768 71471.148137 
L 253.203915 71471.148137 
L 253.203915 166.976037 
L 251.790768 166.976037 
z
"/>
   </g>
   <g id="patch_73">
    <path clip-path="url(#pb6724df6a8)" d="M 254.617061 71471.148137 
L 256.030207 71471.148137 
L 256.030207 166.33859 
L 254.617061 166.33859 
z
"/>
   </g>
   <g id="patch_74">
    <path clip-path="url(#pb6724df6a8)" d="M 257.443354 71471.148137 
L 258.8565 71471.148137 
L 258.8565 163.846552 
L 257.443354 163.846552 
z
"/>
   </g>
   <g id="patch_75">
    <path clip-path="url(#pb6724df6a8)" d="M 260.269646 71471.148137 
L 261.682793 71471.148137 
L 261.682793 163.172979 
L 260.269646 163.172979 
z
"/>
   </g>
   <g id="patch_76">
    <path clip-path="url(#pb6724df6a8)" d="M 263.095939 71471.148137 
L 264.509085 71471.148137 
L 264.509085 161.514854 
L 263.095939 161.514854 
z
"/>
   </g>
   <g id="patch_77">
    <path clip-path="url(#pb6724df6a8)" d="M 265.922232 71471.148137 
L 267.335378 71471.148137 
L 267.335378 161.200688 
L 265.922232 161.200688 
z
"/>
   </g>
   <g id="patch_78">
    <path clip-path="url(#pb6724df6a8)" d="M 268.748524 71471.148137 
L 270.161671 71471.148137 
L 270.161671 160.281778 
L 268.748524 160.281778 
z
"/>
   </g>
   <g id="patch_79">
    <path clip-path="url(#pb6724df6a8)" d="M 271.574817 71471.148137 
L 272.987963 71471.148137 
L 272.987963 157.315934 
L 271.574817 157.315934 
z
"/>
   </g>
   <g id="patch_80">
    <path clip-path="url(#pb6724df6a8)" d="M 274.40111 71471.148137 
L 275.814256 71471.148137 
L 275.814256 155.869495 
L 274.40111 155.869495 
z
"/>
   </g>
   <g id="patch_81">
    <path clip-path="url(#pb6724df6a8)" d="M 277.227402 71471.148137 
L 278.640549 71471.148137 
L 278.640549 155.36857 
L 277.227402 155.36857 
z
"/>
   </g>
   <g id="patch_82">
    <path clip-path="url(#pb6724df6a8)" d="M 280.053695 71471.148137 
L 281.466841 71471.148137 
L 281.466841 155.185388 
L 280.053695 155.185388 
z
"/>
   </g>
   <g id="patch_83">
    <path clip-path="url(#pb6724df6a8)" d="M 282.879988 71471.148137 
L 284.293134 71471.148137 
L 284.293134 154.390408 
L 282.879988 154.390408 
z
"/>
   </g>
   <g id="patch_84">
    <path clip-path="url(#pb6724df6a8)" d="M 285.70628 71471.148137 
L 287.119427 71471.148137 
L 287.119427 153.246662 
L 285.70628 153.246662 
z
"/>
   </g>
   <g id="patch_85">
    <path clip-path="url(#pb6724df6a8)" d="M 288.532573 71471.148137 
L 289.94572 71471.148137 
L 289.94572 151.997303 
L 288.532573 151.997303 
z
"/>
   </g>
   <g id="patch_86">
    <path clip-path="url(#pb6724df6a8)" d="M 291.358866 71471.148137 
L 292.772012 71471.148137 
L 292.772012 151.547495 
L 291.358866 151.547495 
z
"/>
   </g>
   <g id="patch_87">
    <path clip-path="url(#pb6724df6a8)" d="M 294.185159 71471.148137 
L 295.598305 71471.148137 
L 295.598305 150.699331 
L 294.185159 150.699331 
z
"/>
   </g>
   <g id="patch_88">
    <path clip-path="url(#pb6724df6a8)" d="M 297.011451 71471.148137 
L 298.424598 71471.148137 
L 298.424598 150.236019 
L 297.011451 150.236019 
z
"/>
   </g>
   <g id="patch_89">
    <path clip-path="url(#pb6724df6a8)" d="M 299.837744 71471.148137 
L 301.25089 71471.148137 
L 301.25089 150.108934 
L 299.837744 150.108934 
z
"/>
   </g>
   <g id="patch_90">
    <path clip-path="url(#pb6724df6a8)" d="M 302.664037 71471.148137 
L 304.077183 71471.148137 
L 304.077183 149.178914 
L 302.664037 149.178914 
z
"/>
   </g>
   <g id="patch_91">
    <path clip-path="url(#pb6724df6a8)" d="M 305.490329 71471.148137 
L 306.903476 71471.148137 
L 306.903476 149.039068 
L 305.490329 149.039068 
z
"/>
   </g>
   <g id="patch_92">
    <path clip-path="url(#pb6724df6a8)" d="M 308.316622 71471.148137 
L 309.729768 71471.148137 
L 309.729768 147.518394 
L 308.316622 147.518394 
z
"/>
   </g>
   <g id="patch_93">
    <path clip-path="url(#pb6724df6a8)" d="M 311.142915 71471.148137 
L 312.556061 71471.148137 
L 312.556061 146.205296 
L 311.142915 146.205296 
z
"/>
   </g>
   <g id="patch_94">
    <path clip-path="url(#pb6724df6a8)" d="M 313.969207 71471.148137 
L 315.382354 71471.148137 
L 315.382354 145.050186 
L 313.969207 145.050186 
z
"/>
   </g>
   <g id="patch_95">
    <path clip-path="url(#pb6724df6a8)" d="M 316.7955 71471.148137 
L 318.208646 71471.148137 
L 318.208646 144.305339 
L 316.7955 144.305339 
z
"/>
   </g>
   <g id="patch_96">
    <path clip-path="url(#pb6724df6a8)" d="M 319.621793 71471.148137 
L 321.034939 71471.148137 
L 321.034939 142.886885 
L 319.621793 142.886885 
z
"/>
   </g>
   <g id="patch_97">
    <path clip-path="url(#pb6724df6a8)" d="M 322.448085 71471.148137 
L 323.861232 71471.148137 
L 323.861232 141.509258 
L 322.448085 141.509258 
z
"/>
   </g>
   <g id="patch_98">
    <path clip-path="url(#pb6724df6a8)" d="M 325.274378 71471.148137 
L 326.687524 71471.148137 
L 326.687524 140.503869 
L 325.274378 140.503869 
z
"/>
   </g>
   <g id="patch_99">
    <path clip-path="url(#pb6724df6a8)" d="M 328.100671 71471.148137 
L 329.513817 71471.148137 
L 329.513817 139.152007 
L 328.100671 139.152007 
z
"/>
   </g>
   <g id="patch_100">
    <path clip-path="url(#pb6724df6a8)" d="M 330.926963 71471.148137 
L 332.34011 71471.148137 
L 332.34011 137.379112 
L 330.926963 137.379112 
z
"/>
   </g>
   <g id="patch_101">
    <path clip-path="url(#pb6724df6a8)" d="M 333.753256 71471.148137 
L 335.166402 71471.148137 
L 335.166402 135.378895 
L 333.753256 135.378895 
z
"/>
   </g>
   <g id="patch_102">
    <path clip-path="url(#pb6724df6a8)" d="M 336.579549 71471.148137 
L 337.992695 71471.148137 
L 337.992695 134.881713 
L 336.579549 134.881713 
z
"/>
   </g>
   <g id="patch_103">
    <path clip-path="url(#pb6724df6a8)" d="M 339.405841 71471.148137 
L 340.818988 71471.148137 
L 340.818988 132.312142 
L 339.405841 132.312142 
z
"/>
   </g>
   <g id="patch_104">
    <path clip-path="url(#pb6724df6a8)" d="M 342.232134 71471.148137 
L 343.64528 71471.148137 
L 343.64528 128.331753 
L 342.232134 128.331753 
z
"/>
   </g>
   <g id="patch_105">
    <path clip-path="url(#pb6724df6a8)" d="M 345.058427 71471.148137 
L 346.471573 71471.148137 
L 346.471573 124.299549 
L 345.058427 124.299549 
z
"/>
   </g>
   <g id="patch_106">
    <path clip-path="url(#pb6724df6a8)" d="M 347.88472 71471.148137 
L 349.297866 71471.148137 
L 349.297866 124.213989 
L 347.88472 124.213989 
z
"/>
   </g>
   <g id="patch_107">
    <path clip-path="url(#pb6724df6a8)" d="M 350.711012 71471.148137 
L 352.124159 71471.148137 
L 352.124159 120.001084 
L 350.711012 120.001084 
z
"/>
   </g>
   <g id="patch_108">
    <path clip-path="url(#pb6724df6a8)" d="M 353.537305 71471.148137 
L 354.950451 71471.148137 
L 354.950451 117.295969 
L 353.537305 117.295969 
z
"/>
   </g>
   <g id="patch_109">
    <path clip-path="url(#pb6724df6a8)" d="M 356.363598 71471.148137 
L 357.776744 71471.148137 
L 357.776744 115.057117 
L 356.363598 115.057117 
z
"/>
   </g>
   <g id="patch_110">
    <path clip-path="url(#pb6724df6a8)" d="M 359.18989 71471.148137 
L 360.603037 71471.148137 
L 360.603037 113.633133 
L 359.18989 113.633133 
z
"/>
   </g>
   <g id="patch_111">
    <path clip-path="url(#pb6724df6a8)" d="M 362.016183 71471.148137 
L 363.429329 71471.148137 
L 363.429329 111.798311 
L 362.016183 111.798311 
z
"/>
   </g>
   <g id="patch_112">
    <path clip-path="url(#pb6724df6a8)" d="M 364.842476 71471.148137 
L 366.255622 71471.148137 
L 366.255622 111.794225 
L 364.842476 111.794225 
z
"/>
   </g>
   <g id="patch_113">
    <path clip-path="url(#pb6724df6a8)" d="M 367.668768 71471.148137 
L 369.081915 71471.148137 
L 369.081915 111.389363 
L 367.668768 111.389363 
z
"/>
   </g>
   <g id="patch_114">
    <path clip-path="url(#pb6724df6a8)" d="M 370.495061 71471.148137 
L 371.908207 71471.148137 
L 371.908207 111.324913 
L 370.495061 111.324913 
z
"/>
   </g>
   <g id="patch_115">
    <path clip-path="url(#pb6724df6a8)" d="M 373.321354 71471.148137 
L 374.7345 71471.148137 
L 374.7345 109.329395 
L 373.321354 109.329395 
z
"/>
   </g>
   <g id="patch_116">
    <path clip-path="url(#pb6724df6a8)" d="M 376.147646 71471.148137 
L 377.560793 71471.148137 
L 377.560793 108.452535 
L 376.147646 108.452535 
z
"/>
   </g>
   <g id="patch_117">
    <path clip-path="url(#pb6724df6a8)" d="M 378.973939 71471.148137 
L 380.387085 71471.148137 
L 380.387085 106.606336 
L 378.973939 106.606336 
z
"/>
   </g>
   <g id="patch_118">
    <path clip-path="url(#pb6724df6a8)" d="M 381.800232 71471.148137 
L 383.213378 71471.148137 
L 383.213378 104.058262 
L 381.800232 104.058262 
z
"/>
   </g>
   <g id="patch_119">
    <path clip-path="url(#pb6724df6a8)" d="M 384.626524 71471.148137 
L 386.039671 71471.148137 
L 386.039671 98.598859 
L 384.626524 98.598859 
z
"/>
   </g>
   <g id="patch_120">
    <path clip-path="url(#pb6724df6a8)" d="M 387.452817 71471.148137 
L 388.865963 71471.148137 
L 388.865963 96.5698 
L 387.452817 96.5698 
z
"/>
   </g>
   <g id="patch_121">
    <path clip-path="url(#pb6724df6a8)" d="M 390.27911 71471.148137 
L 391.692256 71471.148137 
L 391.692256 95.897725 
L 390.27911 95.897725 
z
"/>
   </g>
   <g id="patch_122">
    <path clip-path="url(#pb6724df6a8)" d="M 393.105402 71471.148137 
L 394.518549 71471.148137 
L 394.518549 66.599859 
L 393.105402 66.599859 
z
"/>
   </g>
   <g id="patch_123">
    <path clip-path="url(#pb6724df6a8)" d="M 395.931695 71471.148137 
L 397.344841 71471.148137 
L 397.344841 45.502621 
L 395.931695 45.502621 
z
"/>
   </g>
   <g id="patch_124">
    <path clip-path="url(#pb6724df6a8)" d="M 398.757988 71471.148137 
L 400.171134 71471.148137 
L 400.171134 39.335499 
L 398.757988 39.335499 
z
"/>
   </g>
   <g id="patch_125">
    <path clip-path="url(#pb6724df6a8)" d="M 401.58428 71471.148137 
L 402.997427 71471.148137 
L 402.997427 39.06 
L 401.58428 39.06 
z
"/>
   </g>
   <g id="patch_126">
    <path clip-path="url(#pb6724df6a8)" d="M 56.776573 71471.148137 
L 58.18972 71471.148137 
L 58.18972 215.46 
L 56.776573 215.46 
z
"/>
   </g>
   <g id="patch_127">
    <path clip-path="url(#pb6724df6a8)" d="M 59.602866 71471.148137 
L 61.016012 71471.148137 
L 61.016012 214.997693 
L 59.602866 214.997693 
z
"/>
   </g>
   <g id="patch_128">
    <path clip-path="url(#pb6724df6a8)" d="M 62.429159 71471.148137 
L 63.842305 71471.148137 
L 63.842305 213.982082 
L 62.429159 213.982082 
z
"/>
   </g>
   <g id="patch_129">
    <path clip-path="url(#pb6724df6a8)" d="M 65.255451 71471.148137 
L 66.668598 71471.148137 
L 66.668598 213.926625 
L 65.255451 213.926625 
z
"/>
   </g>
   <g id="patch_130">
    <path clip-path="url(#pb6724df6a8)" d="M 68.081744 71471.148137 
L 69.49489 71471.148137 
L 69.49489 213.295909 
L 68.081744 213.295909 
z
"/>
   </g>
   <g id="patch_131">
    <path clip-path="url(#pb6724df6a8)" d="M 70.908037 71471.148137 
L 72.321183 71471.148137 
L 72.321183 213.133467 
L 70.908037 213.133467 
z
"/>
   </g>
   <g id="patch_132">
    <path clip-path="url(#pb6724df6a8)" d="M 73.734329 71471.148137 
L 75.147476 71471.148137 
L 75.147476 212.971873 
L 73.734329 212.971873 
z
"/>
   </g>
   <g id="patch_133">
    <path clip-path="url(#pb6724df6a8)" d="M 76.560622 71471.148137 
L 77.973768 71471.148137 
L 77.973768 212.386479 
L 76.560622 212.386479 
z
"/>
   </g>
   <g id="patch_134">
    <path clip-path="url(#pb6724df6a8)" d="M 79.386915 71471.148137 
L 80.800061 71471.148137 
L 80.800061 210.594284 
L 79.386915 210.594284 
z
"/>
   </g>
   <g id="patch_135">
    <path clip-path="url(#pb6724df6a8)" d="M 82.213207 71471.148137 
L 83.626354 71471.148137 
L 83.626354 210.445389 
L 82.213207 210.445389 
z
"/>
   </g>
   <g id="patch_136">
    <path clip-path="url(#pb6724df6a8)" d="M 85.0395 71471.148137 
L 86.452646 71471.148137 
L 86.452646 210.174263 
L 85.0395 210.174263 
z
"/>
   </g>
   <g id="patch_137">
    <path clip-path="url(#pb6724df6a8)" d="M 87.865793 71471.148137 
L 89.278939 71471.148137 
L 89.278939 208.665614 
L 87.865793 208.665614 
z
"/>
   </g>
   <g id="patch_138">
    <path clip-path="url(#pb6724df6a8)" d="M 90.692085 71471.148137 
L 92.105232 71471.148137 
L 92.105232 208.316998 
L 90.692085 208.316998 
z
"/>
   </g>
   <g id="patch_139">
    <path clip-path="url(#pb6724df6a8)" d="M 93.518378 71471.148137 
L 94.931524 71471.148137 
L 94.931524 207.926591 
L 93.518378 207.926591 
z
"/>
   </g>
   <g id="patch_140">
    <path clip-path="url(#pb6724df6a8)" d="M 96.344671 71471.148137 
L 97.757817 71471.148137 
L 97.757817 207.563594 
L 96.344671 207.563594 
z
"/>
   </g>
   <g id="patch_141">
    <path clip-path="url(#pb6724df6a8)" d="M 99.170963 71471.148137 
L 100.58411 71471.148137 
L 100.58411 207.271762 
L 99.170963 207.271762 
z
"/>
   </g>
   <g id="patch_142">
    <path clip-path="url(#pb6724df6a8)" d="M 101.997256 71471.148137 
L 103.410402 71471.148137 
L 103.410402 207.093532 
L 101.997256 207.093532 
z
"/>
   </g>
   <g id="patch_143">
    <path clip-path="url(#pb6724df6a8)" d="M 104.823549 71471.148137 
L 106.236695 71471.148137 
L 106.236695 207.093532 
L 104.823549 207.093532 
z
"/>
   </g>
   <g id="patch_144">
    <path clip-path="url(#pb6724df6a8)" d="M 107.649841 71471.148137 
L 109.062988 71471.148137 
L 109.062988 206.828097 
L 107.649841 206.828097 
z
"/>
   </g>
   <g id="patch_145">
    <path clip-path="url(#pb6724df6a8)" d="M 110.476134 71471.148137 
L 111.88928 71471.148137 
L 111.88928 206.347301 
L 110.476134 206.347301 
z
"/>
   </g>
   <g id="patch_146">
    <path clip-path="url(#pb6724df6a8)" d="M 113.302427 71471.148137 
L 114.715573 71471.148137 
L 114.715573 206.002265 
L 113.302427 206.002265 
z
"/>
   </g>
   <g id="patch_147">
    <path clip-path="url(#pb6724df6a8)" d="M 116.12872 71471.148137 
L 117.541866 71471.148137 
L 117.541866 205.852513 
L 116.12872 205.852513 
z
"/>
   </g>
   <g id="patch_148">
    <path clip-path="url(#pb6724df6a8)" d="M 118.955012 71471.148137 
L 120.368159 71471.148137 
L 120.368159 205.4286 
L 118.955012 205.4286 
z
"/>
   </g>
   <g id="patch_149">
    <path clip-path="url(#pb6724df6a8)" d="M 121.781305 71471.148137 
L 123.194451 71471.148137 
L 123.194451 202.806272 
L 121.781305 202.806272 
z
"/>
   </g>
   <g id="patch_150">
    <path clip-path="url(#pb6724df6a8)" d="M 124.607598 71471.148137 
L 126.020744 71471.148137 
L 126.020744 202.729006 
L 124.607598 202.729006 
z
"/>
   </g>
   <g id="patch_151">
    <path clip-path="url(#pb6724df6a8)" d="M 127.43389 71471.148137 
L 128.847037 71471.148137 
L 128.847037 202.28843 
L 127.43389 202.28843 
z
"/>
   </g>
   <g id="patch_152">
    <path clip-path="url(#pb6724df6a8)" d="M 130.260183 71471.148137 
L 131.673329 71471.148137 
L 131.673329 201.444164 
L 130.260183 201.444164 
z
"/>
   </g>
   <g id="patch_153">
    <path clip-path="url(#pb6724df6a8)" d="M 133.086476 71471.148137 
L 134.499622 71471.148137 
L 134.499622 201.425661 
L 133.086476 201.425661 
z
"/>
   </g>
   <g id="patch_154">
    <path clip-path="url(#pb6724df6a8)" d="M 135.912768 71471.148137 
L 137.325915 71471.148137 
L 137.325915 200.784952 
L 135.912768 200.784952 
z
"/>
   </g>
   <g id="patch_155">
    <path clip-path="url(#pb6724df6a8)" d="M 138.739061 71471.148137 
L 140.152207 71471.148137 
L 140.152207 199.962561 
L 138.739061 199.962561 
z
"/>
   </g>
   <g id="patch_156">
    <path clip-path="url(#pb6724df6a8)" d="M 141.565354 71471.148137 
L 142.9785 71471.148137 
L 142.9785 199.892071 
L 141.565354 199.892071 
z
"/>
   </g>
   <g id="patch_157">
    <path clip-path="url(#pb6724df6a8)" d="M 144.391646 71471.148137 
L 145.804793 71471.148137 
L 145.804793 199.455109 
L 144.391646 199.455109 
z
"/>
   </g>
   <g id="patch_158">
    <path clip-path="url(#pb6724df6a8)" d="M 147.217939 71471.148137 
L 148.631085 71471.148137 
L 148.631085 199.264783 
L 147.217939 199.264783 
z
"/>
   </g>
   <g id="patch_159">
    <path clip-path="url(#pb6724df6a8)" d="M 150.044232 71471.148137 
L 151.457378 71471.148137 
L 151.457378 198.080298 
L 150.044232 198.080298 
z
"/>
   </g>
   <g id="patch_160">
    <path clip-path="url(#pb6724df6a8)" d="M 152.870524 71471.148137 
L 154.283671 71471.148137 
L 154.283671 197.733616 
L 152.870524 197.733616 
z
"/>
   </g>
   <g id="patch_161">
    <path clip-path="url(#pb6724df6a8)" d="M 155.696817 71471.148137 
L 157.109963 71471.148137 
L 157.109963 197.196559 
L 155.696817 197.196559 
z
"/>
   </g>
   <g id="patch_162">
    <path clip-path="url(#pb6724df6a8)" d="M 158.52311 71471.148137 
L 159.936256 71471.148137 
L 159.936256 196.243348 
L 158.52311 196.243348 
z
"/>
   </g>
   <g id="patch_163">
    <path clip-path="url(#pb6724df6a8)" d="M 161.349402 71471.148137 
L 162.762549 71471.148137 
L 162.762549 195.963018 
L 161.349402 195.963018 
z
"/>
   </g>
   <g id="patch_164">
    <path clip-path="url(#pb6724df6a8)" d="M 164.175695 71471.148137 
L 165.588841 71471.148137 
L 165.588841 195.947518 
L 164.175695 195.947518 
z
"/>
   </g>
   <g id="patch_165">
    <path clip-path="url(#pb6724df6a8)" d="M 167.001988 71471.148137 
L 168.415134 71471.148137 
L 168.415134 195.792947 
L 167.001988 195.792947 
z
"/>
   </g>
   <g id="patch_166">
    <path clip-path="url(#pb6724df6a8)" d="M 169.82828 71471.148137 
L 171.241427 71471.148137 
L 171.241427 195.37942 
L 169.82828 195.37942 
z
"/>
   </g>
   <g id="patch_167">
    <path clip-path="url(#pb6724df6a8)" d="M 172.654573 71471.148137 
L 174.06772 71471.148137 
L 174.06772 195.318624 
L 172.654573 195.318624 
z
"/>
   </g>
   <g id="patch_168">
    <path clip-path="url(#pb6724df6a8)" d="M 175.480866 71471.148137 
L 176.894012 71471.148137 
L 176.894012 195.227653 
L 175.480866 195.227653 
z
"/>
   </g>
   <g id="patch_169">
    <path clip-path="url(#pb6724df6a8)" d="M 178.307159 71471.148137 
L 179.720305 71471.148137 
L 179.720305 194.435486 
L 178.307159 194.435486 
z
"/>
   </g>
   <g id="patch_170">
    <path clip-path="url(#pb6724df6a8)" d="M 181.133451 71471.148137 
L 182.546598 71471.148137 
L 182.546598 194.405987 
L 181.133451 194.405987 
z
"/>
   </g>
   <g id="patch_171">
    <path clip-path="url(#pb6724df6a8)" d="M 183.959744 71471.148137 
L 185.37289 71471.148137 
L 185.37289 193.67749 
L 183.959744 193.67749 
z
"/>
   </g>
   <g id="patch_172">
    <path clip-path="url(#pb6724df6a8)" d="M 186.786037 71471.148137 
L 188.199183 71471.148137 
L 188.199183 192.825344 
L 186.786037 192.825344 
z
"/>
   </g>
   <g id="patch_173">
    <path clip-path="url(#pb6724df6a8)" d="M 189.612329 71471.148137 
L 191.025476 71471.148137 
L 191.025476 192.352678 
L 189.612329 192.352678 
z
"/>
   </g>
   <g id="patch_174">
    <path clip-path="url(#pb6724df6a8)" d="M 192.438622 71471.148137 
L 193.851768 71471.148137 
L 193.851768 192.146422 
L 192.438622 192.146422 
z
"/>
   </g>
   <g id="patch_175">
    <path clip-path="url(#pb6724df6a8)" d="M 195.264915 71471.148137 
L 196.678061 71471.148137 
L 196.678061 191.016126 
L 195.264915 191.016126 
z
"/>
   </g>
   <g id="patch_176">
    <path clip-path="url(#pb6724df6a8)" d="M 198.091207 71471.148137 
L 199.504354 71471.148137 
L 199.504354 186.832821 
L 198.091207 186.832821 
z
"/>
   </g>
   <g id="patch_177">
    <path clip-path="url(#pb6724df6a8)" d="M 200.9175 71471.148137 
L 202.330646 71471.148137 
L 202.330646 186.068987 
L 200.9175 186.068987 
z
"/>
   </g>
   <g id="patch_178">
    <path clip-path="url(#pb6724df6a8)" d="M 203.743793 71471.148137 
L 205.156939 71471.148137 
L 205.156939 185.12631 
L 203.743793 185.12631 
z
"/>
   </g>
   <g id="patch_179">
    <path clip-path="url(#pb6724df6a8)" d="M 206.570085 71471.148137 
L 207.983232 71471.148137 
L 207.983232 182.801836 
L 206.570085 182.801836 
z
"/>
   </g>
   <g id="patch_180">
    <path clip-path="url(#pb6724df6a8)" d="M 209.396378 71471.148137 
L 210.809524 71471.148137 
L 210.809524 178.975172 
L 209.396378 178.975172 
z
"/>
   </g>
   <g id="patch_181">
    <path clip-path="url(#pb6724df6a8)" d="M 212.222671 71471.148137 
L 213.635817 71471.148137 
L 213.635817 178.725469 
L 212.222671 178.725469 
z
"/>
   </g>
   <g id="patch_182">
    <path clip-path="url(#pb6724df6a8)" d="M 215.048963 71471.148137 
L 216.46211 71471.148137 
L 216.46211 177.703335 
L 215.048963 177.703335 
z
"/>
   </g>
   <g id="patch_183">
    <path clip-path="url(#pb6724df6a8)" d="M 217.875256 71471.148137 
L 219.288402 71471.148137 
L 219.288402 177.540488 
L 217.875256 177.540488 
z
"/>
   </g>
   <g id="patch_184">
    <path clip-path="url(#pb6724df6a8)" d="M 220.701549 71471.148137 
L 222.114695 71471.148137 
L 222.114695 176.448688 
L 220.701549 176.448688 
z
"/>
   </g>
   <g id="patch_185">
    <path clip-path="url(#pb6724df6a8)" d="M 223.527841 71471.148137 
L 224.940988 71471.148137 
L 224.940988 175.916901 
L 223.527841 175.916901 
z
"/>
   </g>
   <g id="patch_186">
    <path clip-path="url(#pb6724df6a8)" d="M 226.354134 71471.148137 
L 227.76728 71471.148137 
L 227.76728 175.211203 
L 226.354134 175.211203 
z
"/>
   </g>
   <g id="patch_187">
    <path clip-path="url(#pb6724df6a8)" d="M 229.180427 71471.148137 
L 230.593573 71471.148137 
L 230.593573 175.179505 
L 229.180427 175.179505 
z
"/>
   </g>
   <g id="patch_188">
    <path clip-path="url(#pb6724df6a8)" d="M 232.00672 71471.148137 
L 233.419866 71471.148137 
L 233.419866 174.143621 
L 232.00672 174.143621 
z
"/>
   </g>
   <g id="patch_189">
    <path clip-path="url(#pb6724df6a8)" d="M 234.833012 71471.148137 
L 236.246159 71471.148137 
L 236.246159 173.015484 
L 234.833012 173.015484 
z
"/>
   </g>
   <g id="patch_190">
    <path clip-path="url(#pb6724df6a8)" d="M 237.659305 71471.148137 
L 239.072451 71471.148137 
L 239.072451 172.91226 
L 237.659305 172.91226 
z
"/>
   </g>
   <g id="patch_191">
    <path clip-path="url(#pb6724df6a8)" d="M 240.485598 71471.148137 
L 241.898744 71471.148137 
L 241.898744 172.699527 
L 240.485598 172.699527 
z
"/>
   </g>
   <g id="patch_192">
    <path clip-path="url(#pb6724df6a8)" d="M 243.31189 71471.148137 
L 244.725037 71471.148137 
L 244.725037 172.22076 
L 243.31189 172.22076 
z
"/>
   </g>
   <g id="patch_193">
    <path clip-path="url(#pb6724df6a8)" d="M 246.138183 71471.148137 
L 247.551329 71471.148137 
L 247.551329 169.798694 
L 246.138183 169.798694 
z
"/>
   </g>
   <g id="patch_194">
    <path clip-path="url(#pb6724df6a8)" d="M 248.964476 71471.148137 
L 250.377622 71471.148137 
L 250.377622 168.001458 
L 248.964476 168.001458 
z
"/>
   </g>
   <g id="patch_195">
    <path clip-path="url(#pb6724df6a8)" d="M 251.790768 71471.148137 
L 253.203915 71471.148137 
L 253.203915 166.976037 
L 251.790768 166.976037 
z
"/>
   </g>
   <g id="patch_196">
    <path clip-path="url(#pb6724df6a8)" d="M 254.617061 71471.148137 
L 256.030207 71471.148137 
L 256.030207 166.33859 
L 254.617061 166.33859 
z
"/>
   </g>
   <g id="patch_197">
    <path clip-path="url(#pb6724df6a8)" d="M 257.443354 71471.148137 
L 258.8565 71471.148137 
L 258.8565 163.846552 
L 257.443354 163.846552 
z
"/>
   </g>
   <g id="patch_198">
    <path clip-path="url(#pb6724df6a8)" d="M 260.269646 71471.148137 
L 261.682793 71471.148137 
L 261.682793 163.172979 
L 260.269646 163.172979 
z
"/>
   </g>
   <g id="patch_199">
    <path clip-path="url(#pb6724df6a8)" d="M 263.095939 71471.148137 
L 264.509085 71471.148137 
L 264.509085 161.514854 
L 263.095939 161.514854 
z
"/>
   </g>
   <g id="patch_200">
    <path clip-path="url(#pb6724df6a8)" d="M 265.922232 71471.148137 
L 267.335378 71471.148137 
L 267.335378 161.200688 
L 265.922232 161.200688 
z
"/>
   </g>
   <g id="patch_201">
    <path clip-path="url(#pb6724df6a8)" d="M 268.748524 71471.148137 
L 270.161671 71471.148137 
L 270.161671 160.281778 
L 268.748524 160.281778 
z
"/>
   </g>
   <g id="patch_202">
    <path clip-path="url(#pb6724df6a8)" d="M 271.574817 71471.148137 
L 272.987963 71471.148137 
L 272.987963 157.315934 
L 271.574817 157.315934 
z
"/>
   </g>
   <g id="patch_203">
    <path clip-path="url(#pb6724df6a8)" d="M 274.40111 71471.148137 
L 275.814256 71471.148137 
L 275.814256 155.869495 
L 274.40111 155.869495 
z
"/>
   </g>
   <g id="patch_204">
    <path clip-path="url(#pb6724df6a8)" d="M 277.227402 71471.148137 
L 278.640549 71471.148137 
L 278.640549 155.36857 
L 277.227402 155.36857 
z
"/>
   </g>
   <g id="patch_205">
    <path clip-path="url(#pb6724df6a8)" d="M 280.053695 71471.148137 
L 281.466841 71471.148137 
L 281.466841 155.185388 
L 280.053695 155.185388 
z
"/>
   </g>
   <g id="patch_206">
    <path clip-path="url(#pb6724df6a8)" d="M 282.879988 71471.148137 
L 284.293134 71471.148137 
L 284.293134 154.390408 
L 282.879988 154.390408 
z
"/>
   </g>
   <g id="patch_207">
    <path clip-path="url(#pb6724df6a8)" d="M 285.70628 71471.148137 
L 287.119427 71471.148137 
L 287.119427 153.246662 
L 285.70628 153.246662 
z
"/>
   </g>
   <g id="patch_208">
    <path clip-path="url(#pb6724df6a8)" d="M 288.532573 71471.148137 
L 289.94572 71471.148137 
L 289.94572 151.997303 
L 288.532573 151.997303 
z
"/>
   </g>
   <g id="patch_209">
    <path clip-path="url(#pb6724df6a8)" d="M 291.358866 71471.148137 
L 292.772012 71471.148137 
L 292.772012 151.547495 
L 291.358866 151.547495 
z
"/>
   </g>
   <g id="patch_210">
    <path clip-path="url(#pb6724df6a8)" d="M 294.185159 71471.148137 
L 295.598305 71471.148137 
L 295.598305 150.699331 
L 294.185159 150.699331 
z
"/>
   </g>
   <g id="patch_211">
    <path clip-path="url(#pb6724df6a8)" d="M 297.011451 71471.148137 
L 298.424598 71471.148137 
L 298.424598 150.236019 
L 297.011451 150.236019 
z
"/>
   </g>
   <g id="patch_212">
    <path clip-path="url(#pb6724df6a8)" d="M 299.837744 71471.148137 
L 301.25089 71471.148137 
L 301.25089 150.108934 
L 299.837744 150.108934 
z
"/>
   </g>
   <g id="patch_213">
    <path clip-path="url(#pb6724df6a8)" d="M 302.664037 71471.148137 
L 304.077183 71471.148137 
L 304.077183 149.178914 
L 302.664037 149.178914 
z
"/>
   </g>
   <g id="patch_214">
    <path clip-path="url(#pb6724df6a8)" d="M 305.490329 71471.148137 
L 306.903476 71471.148137 
L 306.903476 149.039068 
L 305.490329 149.039068 
z
"/>
   </g>
   <g id="patch_215">
    <path clip-path="url(#pb6724df6a8)" d="M 308.316622 71471.148137 
L 309.729768 71471.148137 
L 309.729768 147.518394 
L 308.316622 147.518394 
z
"/>
   </g>
   <g id="patch_216">
    <path clip-path="url(#pb6724df6a8)" d="M 311.142915 71471.148137 
L 312.556061 71471.148137 
L 312.556061 146.205296 
L 311.142915 146.205296 
z
"/>
   </g>
   <g id="patch_217">
    <path clip-path="url(#pb6724df6a8)" d="M 313.969207 71471.148137 
L 315.382354 71471.148137 
L 315.382354 145.050186 
L 313.969207 145.050186 
z
"/>
   </g>
   <g id="patch_218">
    <path clip-path="url(#pb6724df6a8)" d="M 316.7955 71471.148137 
L 318.208646 71471.148137 
L 318.208646 144.305339 
L 316.7955 144.305339 
z
"/>
   </g>
   <g id="patch_219">
    <path clip-path="url(#pb6724df6a8)" d="M 319.621793 71471.148137 
L 321.034939 71471.148137 
L 321.034939 142.886885 
L 319.621793 142.886885 
z
"/>
   </g>
   <g id="patch_220">
    <path clip-path="url(#pb6724df6a8)" d="M 322.448085 71471.148137 
L 323.861232 71471.148137 
L 323.861232 141.509258 
L 322.448085 141.509258 
z
"/>
   </g>
   <g id="patch_221">
    <path clip-path="url(#pb6724df6a8)" d="M 325.274378 71471.148137 
L 326.687524 71471.148137 
L 326.687524 140.503869 
L 325.274378 140.503869 
z
"/>
   </g>
   <g id="patch_222">
    <path clip-path="url(#pb6724df6a8)" d="M 328.100671 71471.148137 
L 329.513817 71471.148137 
L 329.513817 139.152007 
L 328.100671 139.152007 
z
"/>
   </g>
   <g id="patch_223">
    <path clip-path="url(#pb6724df6a8)" d="M 330.926963 71471.148137 
L 332.34011 71471.148137 
L 332.34011 137.379112 
L 330.926963 137.379112 
z
"/>
   </g>
   <g id="patch_224">
    <path clip-path="url(#pb6724df6a8)" d="M 333.753256 71471.148137 
L 335.166402 71471.148137 
L 335.166402 135.378895 
L 333.753256 135.378895 
z
"/>
   </g>
   <g id="patch_225">
    <path clip-path="url(#pb6724df6a8)" d="M 336.579549 71471.148137 
L 337.992695 71471.148137 
L 337.992695 134.881713 
L 336.579549 134.881713 
z
"/>
   </g>
   <g id="patch_226">
    <path clip-path="url(#pb6724df6a8)" d="M 339.405841 71471.148137 
L 340.818988 71471.148137 
L 340.818988 132.312142 
L 339.405841 132.312142 
z
"/>
   </g>
   <g id="patch_227">
    <path clip-path="url(#pb6724df6a8)" d="M 342.232134 71471.148137 
L 343.64528 71471.148137 
L 343.64528 128.331753 
L 342.232134 128.331753 
z
"/>
   </g>
   <g id="patch_228">
    <path clip-path="url(#pb6724df6a8)" d="M 345.058427 71471.148137 
L 346.471573 71471.148137 
L 346.471573 124.299549 
L 345.058427 124.299549 
z
"/>
   </g>
   <g id="patch_229">
    <path clip-path="url(#pb6724df6a8)" d="M 347.88472 71471.148137 
L 349.297866 71471.148137 
L 349.297866 124.213989 
L 347.88472 124.213989 
z
"/>
   </g>
   <g id="patch_230">
    <path clip-path="url(#pb6724df6a8)" d="M 350.711012 71471.148137 
L 352.124159 71471.148137 
L 352.124159 120.001084 
L 350.711012 120.001084 
z
"/>
   </g>
   <g id="patch_231">
    <path clip-path="url(#pb6724df6a8)" d="M 353.537305 71471.148137 
L 354.950451 71471.148137 
L 354.950451 117.295969 
L 353.537305 117.295969 
z
"/>
   </g>
   <g id="patch_232">
    <path clip-path="url(#pb6724df6a8)" d="M 356.363598 71471.148137 
L 357.776744 71471.148137 
L 357.776744 115.057117 
L 356.363598 115.057117 
z
"/>
   </g>
   <g id="patch_233">
    <path clip-path="url(#pb6724df6a8)" d="M 359.18989 71471.148137 
L 360.603037 71471.148137 
L 360.603037 113.633133 
L 359.18989 113.633133 
z
"/>
   </g>
   <g id="patch_234">
    <path clip-path="url(#pb6724df6a8)" d="M 362.016183 71471.148137 
L 363.429329 71471.148137 
L 363.429329 111.798311 
L 362.016183 111.798311 
z
"/>
   </g>
   <g id="patch_235">
    <path clip-path="url(#pb6724df6a8)" d="M 364.842476 71471.148137 
L 366.255622 71471.148137 
L 366.255622 111.794225 
L 364.842476 111.794225 
z
"/>
   </g>
   <g id="patch_236">
    <path clip-path="url(#pb6724df6a8)" d="M 367.668768 71471.148137 
L 369.081915 71471.148137 
L 369.081915 111.389363 
L 367.668768 111.389363 
z
"/>
   </g>
   <g id="patch_237">
    <path clip-path="url(#pb6724df6a8)" d="M 370.495061 71471.148137 
L 371.908207 71471.148137 
L 371.908207 111.324913 
L 370.495061 111.324913 
z
"/>
   </g>
   <g id="patch_238">
    <path clip-path="url(#pb6724df6a8)" d="M 373.321354 71471.148137 
L 374.7345 71471.148137 
L 374.7345 109.329395 
L 373.321354 109.329395 
z
"/>
   </g>
   <g id="patch_239">
    <path clip-path="url(#pb6724df6a8)" d="M 376.147646 71471.148137 
L 377.560793 71471.148137 
L 377.560793 108.452535 
L 376.147646 108.452535 
z
"/>
   </g>
   <g id="patch_240">
    <path clip-path="url(#pb6724df6a8)" d="M 378.973939 71471.148137 
L 380.387085 71471.148137 
L 380.387085 106.606336 
L 378.973939 106.606336 
z
"/>
   </g>
   <g id="patch_241">
    <path clip-path="url(#pb6724df6a8)" d="M 381.800232 71471.148137 
L 383.213378 71471.148137 
L 383.213378 104.058262 
L 381.800232 104.058262 
z
"/>
   </g>
   <g id="patch_242">
    <path clip-path="url(#pb6724df6a8)" d="M 384.626524 71471.148137 
L 386.039671 71471.148137 
L 386.039671 98.598859 
L 384.626524 98.598859 
z
"/>
   </g>
   <g id="patch_243">
    <path clip-path="url(#pb6724df6a8)" d="M 387.452817 71471.148137 
L 388.865963 71471.148137 
L 388.865963 96.5698 
L 387.452817 96.5698 
z
"/>
   </g>
   <g id="patch_244">
    <path clip-path="url(#pb6724df6a8)" d="M 390.27911 71471.148137 
L 391.692256 71471.148137 
L 391.692256 95.897725 
L 390.27911 95.897725 
z
"/>
   </g>
   <g id="patch_245">
    <path clip-path="url(#pb6724df6a8)" d="M 393.105402 71471.148137 
L 394.518549 71471.148137 
L 394.518549 66.599859 
L 393.105402 66.599859 
z
"/>
   </g>
   <g id="patch_246">
    <path clip-path="url(#pb6724df6a8)" d="M 395.931695 71471.148137 
L 397.344841 71471.148137 
L 397.344841 45.502621 
L 395.931695 45.502621 
z
"/>
   </g>
   <g id="patch_247">
    <path clip-path="url(#pb6724df6a8)" d="M 398.757988 71471.148137 
L 400.171134 71471.148137 
L 400.171134 39.335499 
L 398.757988 39.335499 
z
"/>
   </g>
   <g id="patch_248">
    <path clip-path="url(#pb6724df6a8)" d="M 401.58428 71471.148137 
L 402.997427 71471.148137 
L 402.997427 39.06 
L 401.58428 39.06 
z
"/>
   </g>
   <g id="matplotlib.axis_1">
    <g id="ytick_1">
     <g id="line2d_1">
      <defs>
       <path d="M 0 0 
L -3.5 0 
" id="m033c29af80" style="stroke:#000000;stroke-width:0.8;"/>
      </defs>
      <g>
       <use style="stroke:#000000;stroke-width:0.8;" x="56.07" xlink:href="#m033c29af80" y="217.350596"/>
      </g>
     </g>
     <g id="text_1">
      <!-- $\mathdefault{10^{0}}$ -->
      <g transform="translate(31.47 221.149815)scale(0.1 -0.1)">
       <defs>
        <path d="M 12.40625 8.296875 
L 28.515625 8.296875 
L 28.515625 63.921875 
L 10.984375 60.40625 
L 10.984375 69.390625 
L 28.421875 72.90625 
L 38.28125 72.90625 
L 38.28125 8.296875 
L 54.390625 8.296875 
L 54.390625 0 
L 12.40625 0 
z
" id="DejaVuSans-49"/>
        <path d="M 31.78125 66.40625 
Q 24.171875 66.40625 20.328125 58.90625 
Q 16.5 51.421875 16.5 36.375 
Q 16.5 21.390625 20.328125 13.890625 
Q 24.171875 6.390625 31.78125 6.390625 
Q 39.453125 6.390625 43.28125 13.890625 
Q 47.125 21.390625 47.125 36.375 
Q 47.125 51.421875 43.28125 58.90625 
Q 39.453125 66.40625 31.78125 66.40625 
z
M 31.78125 74.21875 
Q 44.046875 74.21875 50.515625 64.515625 
Q 56.984375 54.828125 56.984375 36.375 
Q 56.984375 17.96875 50.515625 8.265625 
Q 44.046875 -1.421875 31.78125 -1.421875 
Q 19.53125 -1.421875 13.0625 8.265625 
Q 6.59375 17.96875 6.59375 36.375 
Q 6.59375 54.828125 13.0625 64.515625 
Q 19.53125 74.21875 31.78125 74.21875 
z
" id="DejaVuSans-48"/>
       </defs>
       <use transform="translate(0 0.765625)" xlink:href="#DejaVuSans-49"/>
       <use transform="translate(63.623047 0.765625)" xlink:href="#DejaVuSans-48"/>
       <use transform="translate(128.203125 39.046875)scale(0.7)" xlink:href="#DejaVuSans-48"/>
      </g>
     </g>
    </g>
    <g id="ytick_2">
     <g id="line2d_2">
      <g>
       <use style="stroke:#000000;stroke-width:0.8;" x="56.07" xlink:href="#m033c29af80" y="146.096798"/>
      </g>
     </g>
     <g id="text_2">
      <!-- $\mathdefault{10^{1}}$ -->
      <g transform="translate(31.47 149.896017)scale(0.1 -0.1)">
       <use transform="translate(0 0.684375)" xlink:href="#DejaVuSans-49"/>
       <use transform="translate(63.623047 0.684375)" xlink:href="#DejaVuSans-48"/>
       <use transform="translate(128.203125 38.965625)scale(0.7)" xlink:href="#DejaVuSans-49"/>
      </g>
     </g>
    </g>
    <g id="ytick_3">
     <g id="line2d_3">
      <g>
       <use style="stroke:#000000;stroke-width:0.8;" x="56.07" xlink:href="#m033c29af80" y="74.843001"/>
      </g>
     </g>
     <g id="text_3">
      <!-- $\mathdefault{10^{2}}$ -->
      <g transform="translate(31.47 78.64222)scale(0.1 -0.1)">
       <defs>
        <path d="M 19.1875 8.296875 
L 53.609375 8.296875 
L 53.609375 0 
L 7.328125 0 
L 7.328125 8.296875 
Q 12.9375 14.109375 22.625 23.890625 
Q 32.328125 33.6875 34.8125 36.53125 
Q 39.546875 41.84375 41.421875 45.53125 
Q 43.3125 49.21875 43.3125 52.78125 
Q 43.3125 58.59375 39.234375 62.25 
Q 35.15625 65.921875 28.609375 65.921875 
Q 23.96875 65.921875 18.8125 64.3125 
Q 13.671875 62.703125 7.8125 59.421875 
L 7.8125 69.390625 
Q 13.765625 71.78125 18.9375 73 
Q 24.125 74.21875 28.421875 74.21875 
Q 39.75 74.21875 46.484375 68.546875 
Q 53.21875 62.890625 53.21875 53.421875 
Q 53.21875 48.921875 51.53125 44.890625 
Q 49.859375 40.875 45.40625 35.40625 
Q 44.1875 33.984375 37.640625 27.21875 
Q 31.109375 20.453125 19.1875 8.296875 
z
" id="DejaVuSans-50"/>
       </defs>
       <use transform="translate(0 0.765625)" xlink:href="#DejaVuSans-49"/>
       <use transform="translate(63.623047 0.765625)" xlink:href="#DejaVuSans-48"/>
       <use transform="translate(128.203125 39.046875)scale(0.7)" xlink:href="#DejaVuSans-50"/>
      </g>
     </g>
    </g>
    <g id="ytick_4">
     <g id="line2d_4">
      <defs>
       <path d="M 0 0 
L -2 0 
" id="m1c5f9a1ff3" style="stroke:#000000;stroke-width:0.6;"/>
      </defs>
      <g>
       <use style="stroke:#000000;stroke-width:0.6;" x="56.07" xlink:href="#m1c5f9a1ff3" y="224.255802"/>
      </g>
     </g>
    </g>
    <g id="ytick_5">
     <g id="line2d_5">
      <g>
       <use style="stroke:#000000;stroke-width:0.6;" x="56.07" xlink:href="#m1c5f9a1ff3" y="220.610991"/>
      </g>
     </g>
    </g>
    <g id="ytick_6">
     <g id="line2d_6">
      <g>
       <use style="stroke:#000000;stroke-width:0.6;" x="56.07" xlink:href="#m1c5f9a1ff3" y="195.901065"/>
      </g>
     </g>
    </g>
    <g id="ytick_7">
     <g id="line2d_7">
      <g>
       <use style="stroke:#000000;stroke-width:0.6;" x="56.07" xlink:href="#m1c5f9a1ff3" y="183.353895"/>
      </g>
     </g>
    </g>
    <g id="ytick_8">
     <g id="line2d_8">
      <g>
       <use style="stroke:#000000;stroke-width:0.6;" x="56.07" xlink:href="#m1c5f9a1ff3" y="174.451535"/>
      </g>
     </g>
    </g>
    <g id="ytick_9">
     <g id="line2d_9">
      <g>
       <use style="stroke:#000000;stroke-width:0.6;" x="56.07" xlink:href="#m1c5f9a1ff3" y="167.546329"/>
      </g>
     </g>
    </g>
    <g id="ytick_10">
     <g id="line2d_10">
      <g>
       <use style="stroke:#000000;stroke-width:0.6;" x="56.07" xlink:href="#m1c5f9a1ff3" y="161.904364"/>
      </g>
     </g>
    </g>
    <g id="ytick_11">
     <g id="line2d_11">
      <g>
       <use style="stroke:#000000;stroke-width:0.6;" x="56.07" xlink:href="#m1c5f9a1ff3" y="157.134151"/>
      </g>
     </g>
    </g>
    <g id="ytick_12">
     <g id="line2d_12">
      <g>
       <use style="stroke:#000000;stroke-width:0.6;" x="56.07" xlink:href="#m1c5f9a1ff3" y="153.002005"/>
      </g>
     </g>
    </g>
    <g id="ytick_13">
     <g id="line2d_13">
      <g>
       <use style="stroke:#000000;stroke-width:0.6;" x="56.07" xlink:href="#m1c5f9a1ff3" y="149.357193"/>
      </g>
     </g>
    </g>
    <g id="ytick_14">
     <g id="line2d_14">
      <g>
       <use style="stroke:#000000;stroke-width:0.6;" x="56.07" xlink:href="#m1c5f9a1ff3" y="124.647268"/>
      </g>
     </g>
    </g>
    <g id="ytick_15">
     <g id="line2d_15">
      <g>
       <use style="stroke:#000000;stroke-width:0.6;" x="56.07" xlink:href="#m1c5f9a1ff3" y="112.100097"/>
      </g>
     </g>
    </g>
    <g id="ytick_16">
     <g id="line2d_16">
      <g>
       <use style="stroke:#000000;stroke-width:0.6;" x="56.07" xlink:href="#m1c5f9a1ff3" y="103.197738"/>
      </g>
     </g>
    </g>
    <g id="ytick_17">
     <g id="line2d_17">
      <g>
       <use style="stroke:#000000;stroke-width:0.6;" x="56.07" xlink:href="#m1c5f9a1ff3" y="96.292531"/>
      </g>
     </g>
    </g>
    <g id="ytick_18">
     <g id="line2d_18">
      <g>
       <use style="stroke:#000000;stroke-width:0.6;" x="56.07" xlink:href="#m1c5f9a1ff3" y="90.650567"/>
      </g>
     </g>
    </g>
    <g id="ytick_19">
     <g id="line2d_19">
      <g>
       <use style="stroke:#000000;stroke-width:0.6;" x="56.07" xlink:href="#m1c5f9a1ff3" y="85.880354"/>
      </g>
     </g>
    </g>
    <g id="ytick_20">
     <g id="line2d_20">
      <g>
       <use style="stroke:#000000;stroke-width:0.6;" x="56.07" xlink:href="#m1c5f9a1ff3" y="81.748207"/>
      </g>
     </g>
    </g>
    <g id="ytick_21">
     <g id="line2d_21">
      <g>
       <use style="stroke:#000000;stroke-width:0.6;" x="56.07" xlink:href="#m1c5f9a1ff3" y="78.103396"/>
      </g>
     </g>
    </g>
    <g id="ytick_22">
     <g id="line2d_22">
      <g>
       <use style="stroke:#000000;stroke-width:0.6;" x="56.07" xlink:href="#m1c5f9a1ff3" y="53.39347"/>
      </g>
     </g>
    </g>
    <g id="ytick_23">
     <g id="line2d_23">
      <g>
       <use style="stroke:#000000;stroke-width:0.6;" x="56.07" xlink:href="#m1c5f9a1ff3" y="40.846299"/>
      </g>
     </g>
    </g>
    <g id="ytick_24">
     <g id="line2d_24">
      <g>
       <use style="stroke:#000000;stroke-width:0.6;" x="56.07" xlink:href="#m1c5f9a1ff3" y="31.94394"/>
      </g>
     </g>
    </g>
   </g>
   <g id="patch_249">
    <path d="M 56.07 224.28 
L 56.07 30.24 
" style="fill:none;stroke:#000000;stroke-linecap:square;stroke-linejoin:miter;stroke-width:0.8;"/>
   </g>
   <g id="patch_250">
    <path d="M 403.704 224.28 
L 403.704 30.24 
" style="fill:none;stroke:#000000;stroke-linecap:square;stroke-linejoin:miter;stroke-width:0.8;"/>
   </g>
   <g id="patch_251">
    <path d="M 56.07 224.28 
L 403.704 224.28 
" style="fill:none;stroke:#000000;stroke-linecap:square;stroke-linejoin:miter;stroke-width:0.8;"/>
   </g>
   <g id="patch_252">
    <path d="M 56.07 30.24 
L 403.704 30.24 
" style="fill:none;stroke:#000000;stroke-linecap:square;stroke-linejoin:miter;stroke-width:0.8;"/>
   </g>
  </g>
 </g>
 <defs>
  <clipPath id="pb6724df6a8">
   <rect height="194.04" width="347.634" x="56.07" y="30.24"/>
  </clipPath>
 </defs>
</svg>
