<?xml version="1.0" encoding="UTF-8" standalone="no"?>
<!-- Created with Inkscape (http://www.inkscape.org/) -->

<svg
   xmlns:dc="http://purl.org/dc/elements/1.1/"
   xmlns:cc="http://creativecommons.org/ns#"
   xmlns:rdf="http://www.w3.org/1999/02/22-rdf-syntax-ns#"
   xmlns:svg="http://www.w3.org/2000/svg"
   xmlns="http://www.w3.org/2000/svg"
   xmlns:sodipodi="http://sodipodi.sourceforge.net/DTD/sodipodi-0.dtd"
   xmlns:inkscape="http://www.inkscape.org/namespaces/inkscape"
   width="48"
   height="48"
   viewBox="0 0 12.7 12.7"
   version="1.1"
   id="svg8"
   inkscape:version="0.92.4 (5da689c313, 2019-01-14)"
   sodipodi:docname="favicon.svg"
   inkscape:export-filename="/home/mbarkhau/workspace/litprog/favicon_16.png"
   inkscape:export-xdpi="32"
   inkscape:export-ydpi="32">
  <defs
     id="defs2" />
  <sodipodi:namedview
     id="base"
     pagecolor="#ffffff"
     bordercolor="#666666"
     borderopacity="1.0"
     inkscape:pageopacity="0.0"
     inkscape:pageshadow="2"
     inkscape:zoom="11.2"
     inkscape:cx="12.159458"
     inkscape:cy="10.293496"
     inkscape:document-units="mm"
     inkscape:current-layer="layer1"
     showgrid="false"
     units="px"
     showguides="false"
     inkscape:window-width="2496"
     inkscape:window-height="1400"
     inkscape:window-x="2560"
     inkscape:window-y="0"
     inkscape:window-maximized="1" />
  <metadata
     id="metadata5">
    <rdf:RDF>
      <cc:Work
         rdf:about="">
        <dc:format>image/svg+xml</dc:format>
        <dc:type
           rdf:resource="http://purl.org/dc/dcmitype/StillImage" />
        <dc:title></dc:title>
      </cc:Work>
    </rdf:RDF>
  </metadata>
  <g
     inkscape:groupmode="layer"
     id="layer2"
     inkscape:label="Layer 2">
    <rect
       id="rect4570"
       width="15.544271"
       height="17.29241"
       x="-1.3465408"
       y="-2.0174475"
       style="fill:#ffffff;stroke-width:0.26458332" />
  </g>
  <g
     inkscape:label="Layer 1"
     inkscape:groupmode="layer"
     id="layer1"
     transform="translate(0,-284.29998)">
    <g
       aria-label="L"
       transform="matrix(2.0290786,0,0,1.8877611,0.3558859,-284.69745)"
       style="font-style:normal;font-variant:normal;font-weight:normal;font-stretch:normal;font-size:10.77939606px;line-height:1.25;font-family:Audiowide;-inkscape-font-specification:Audiowide;letter-spacing:0px;word-spacing:0px;fill:#000000;fill-opacity:1;stroke:none;stroke-width:0.26948488"
       id="text3715">
      <path
         d="M 5.7232291,307.89191 H 0.65398163 c -0.0818748,0 -0.15790134,-0.0772 -0.22807971,-0.10647 -0.0701784,-0.0293 -0.13158446,-0.0687 -0.18421824,-0.11843 -0.0497097,-0.0526 -0.089185,-0.114 -0.11842601,-0.18421 -0.029241,-0.0702 -0.06714646,-0.14621 -0.06714646,-0.22808 v -5.43481 h 0.9254166 v 5.06529 H 5.7232291 Z"
         style="font-size:8.98283195px;stroke-width:0.26948488"
         id="path3721"
         inkscape:connector-curvature="0"
         sodipodi:nodetypes="cssccsccccc" />
    </g>
    <g
       aria-label="P"
       style="font-style:normal;font-variant:normal;font-weight:normal;font-stretch:normal;font-size:10.58333302px;line-height:1.25;font-family:Audiowide;-inkscape-font-specification:Audiowide;letter-spacing:0px;word-spacing:0px;fill:#000000;fill-opacity:1;stroke:none;stroke-width:0.26458332"
       id="text3719"
       transform="matrix(1.801864,0,0,1.801864,1.0337657,-239.03253)">
      <path
         d="m 6.2126454,292.76561 c 0,0.20057 -0.02479,0.37973 -0.074368,0.53747 -0.049578,0.15775 -0.1171857,0.29747 -0.2028211,0.41916 -0.083382,0.11944 -0.1802855,0.22198 -0.2907103,0.30762 -0.1104248,0.0857 -0.2264835,0.15549 -0.3481762,0.20958 -0.1194391,0.0541 -0.2411318,0.0935 -0.365078,0.11831 -0.1216926,0.0247 -0.2366246,0.0372 -0.3447958,0.0372 H 2.5990495 v -0.87888 h 1.9876468 c 0.1126784,-0.009 0.2140888,-0.0315 0.3042316,-0.0676 0.092396,-0.0383 0.1712711,-0.089 0.2366246,-0.15212 0.065354,-0.0631 0.1160588,-0.13858 0.1521158,-0.22648 0.036057,-0.0902 0.054085,-0.19156 0.054085,-0.30423 v -0.39888 c -0.011267,-0.11043 -0.03493,-0.21184 -0.070987,-0.30423 -0.036057,-0.0924 -0.085635,-0.17128 -0.1487354,-0.23664 -0.060847,-0.0653 -0.1352142,-0.11604 -0.2231032,-0.15211 -0.087889,-0.0383 -0.1892997,-0.0574 -0.3042316,-0.0574 h -1.980886 c -0.1171854,0 -0.2062014,0.0304 -0.2670477,0.0913 -0.060847,0.0608 -0.09127,0.14873 -0.09127,0.26367 v 3.78661 H 1.3686015 v -3.78661 c 0,-0.22536 0.040564,-0.41691 0.1216927,-0.57466 0.083382,-0.15774 0.1859193,-0.28507 0.307612,-0.38198 0.1239461,-0.0969 0.2580334,-0.16676 0.4022618,-0.20958 0.1442283,-0.045 0.2771889,-0.0676 0.3988815,-0.0676 h 1.9876468 c 0.1983139,0 0.3763457,0.026 0.5340954,0.0777 0.1577498,0.0496 0.2963442,0.11718 0.4157833,0.20282 0.1216927,0.0834 0.22423,0.18029 0.307612,0.29072 0.085635,0.11042 0.1554962,0.22647 0.2095818,0.34818 0.05634,0.11943 0.096904,0.24112 0.1216926,0.36507 0.02479,0.12169 0.037184,0.23662 0.037184,0.3448 z"
         style="font-size:6.3499999px;stroke-width:0.28845665"
         id="path3724"
         inkscape:connector-curvature="0"
         sodipodi:nodetypes="csccccsccccccsccccssssccscccssccccccc" />
    </g>
  </g>
</svg>
