<svg  fill="#EE4444" viewBox="0 0 96 96" height="24" width="24" xmlns="http://www.w3.org/2000/svg">
    <path d="M 48 16 C 30 16 16 30 16 48 C 16 66 30 80 48 80 C 66 80 80 66 80 48 C 80 30 66 16 48 16 Z M 8 48 C 8 26 26 8 48 8 C 70 8 88 26 88 48 C 88 70 70 88 48 88 C 26 88 8 70 8 48 Z M 31 31 C 33 30 35 30 37 31 L 48 42 L 59 31 C 61 30 63 30 65 31 C 66 33 66 35 65 37 L 54 48 L 65 59 C 66 61 66 63 65 65 C 63 66 61 66 59 65 L 48 54 L 37 65 C 35 66 33 66 31 65 C 30 63 30 61 31 59 L 42 48 L 31 37 C 30 35 30 33 31 31 Z" />
</svg>